<?xml version="1.0" standalone="no"?><!DOCTYPE svg PUBLIC "-//W3C//DTD SVG 1.1//EN" "http://www.w3.org/Graphics/SVG/1.1/DTD/svg11.dtd"><svg t="1583747438241" class="icon" viewBox="0 0 1024 1024" version="1.1" xmlns="http://www.w3.org/2000/svg" p-id="3837" xmlns:xlink="http://www.w3.org/1999/xlink" width="200" height="200"><defs><style type="text/css"></style></defs><path d="M1014.507158 649.336588c-12.498779-12.498779-32.796797-12.498779-45.295577 0L735.934362 882.613807 630.544654 777.324089c-12.498779-12.498779-32.796797-12.498779-45.295577 0l-191.981251 191.981252c-12.498779 12.498779-12.498779 32.796797 0 45.295577 6.199395 6.199395 14.398594 9.399082 22.597793 9.399082s16.398399-3.099697 22.597793-9.399082L607.946861 845.217459l105.389708 105.389708c12.498779 12.498779 32.796797 12.498779 45.295576 0l255.975003-255.975002c12.398789-12.59877 12.398789-32.796797-0.09999-45.295577z" fill="" p-id="3838"></path><path d="M731.834762 720.929597c10.898936 13.898643 30.996973 16.398399 44.895616 5.599453 13.898643-10.898936 16.398399-30.996973 5.599453-44.895616-40.296065-51.694952-91.991017-94.390782-149.385411-123.48794-15.798457-7.999219-31.996875-14.998535-48.395274-20.99795 21.29792-12.398789 41.095987-27.697295 58.994239-45.495557C697.938073 437.257299 727.935143 364.864369 727.935143 287.971878s-29.997071-149.285421-84.391758-203.580119C589.248687 29.997071 516.855756 0 439.963265 0S290.677844 29.997071 236.383146 84.391759C182.088449 138.786447 151.991388 211.079387 151.991388 287.971878s29.997071 149.285421 84.391758 203.580119c17.898252 17.898252 37.796309 33.196758 59.094229 45.495557-9.199102 3.299678-18.198223 6.899326-27.197344 10.898936-52.394883 22.997754-99.490284 55.994532-139.886339 97.99043-40.296065 41.895909-71.892979 90.591153-93.990821 144.885851C11.605097 846.917293 0.00623 906.511473 0.00623 967.905478c0 8.49917 0.19998 17.19832 0.699932 25.69749 0.899912 17.09833 14.998535 30.297041 31.896885 30.297042h1.699834c17.598281-0.899912 31.196953-15.998438 30.197051-33.69671-0.399961-7.399277-0.599941-14.798555-0.599942-22.297822 0-53.094815 9.999024-104.589786 29.6971-152.98506 18.998145-46.69544 46.195489-88.591349 80.892101-124.587833C245.482258 616.539791 339.77305 575.943755 439.963265 575.943755c113.688898 0 220.078508 52.794844 291.871497 144.985842zM281.578733 446.356411C239.282863 404.060541 215.985138 347.766038 215.985138 287.971878s23.297725-116.088663 65.593595-158.384533C323.874602 87.291475 380.169105 63.993751 439.963265 63.993751s116.088663 23.297725 158.384533 65.593594C640.643668 171.883215 663.941393 228.177717 663.941393 287.971878s-23.297725 116.088663-65.593595 158.384533C556.051929 488.65228 499.757426 511.950005 439.963265 511.950005s-116.088663-23.297725-158.384532-65.593594z" fill="" p-id="3839"></path></svg>