<?xml version="1.0" standalone="no"?><!DOCTYPE svg PUBLIC "-//W3C//DTD SVG 1.1//EN" "http://www.w3.org/Graphics/SVG/1.1/DTD/svg11.dtd"><svg t="1583747382384" class="icon" viewBox="0 0 1024 1024" version="1.1" xmlns="http://www.w3.org/2000/svg" p-id="2382" xmlns:xlink="http://www.w3.org/1999/xlink" width="200" height="200"><defs><style type="text/css"></style></defs><path d="M542.08512 381.82912v21.2992h155.32032l-5.40672 13.16864-9.4208 22.97856a713.66656 713.66656 0 0 1-19.16928 42.06592 867.18464 867.18464 0 0 1-42.16832 76.30848c55.15264 26.4192 112.76288 58.59328 169.84064 93.73696 21.66784 13.33248 41.90208 26.27584 60.17024 38.33856 11.91936 7.86432 21.97504 14.70464 26.54208 17.89952a26.2144 26.2144 0 0 1 6.49216 36.61824 26.2144 26.2144 0 0 1-21.46304 11.01824c-5.20192 0-10.32192-1.57696-15.07328-4.75136-8.92928-6.4512-45.83424-30.74048-83.1488-53.6576-58.7776-36.16768-117.71904-69.0176-173.07648-95.232-58.71616 80.09728-122.63424 127.67232-190.8736 127.67232-87.81824 0-143.0528-52.08064-143.0528-118.39488 0-66.90816 57.36448-120.0128 143.0528-120.0128 45.7728 0 104.0384 15.91296 172.40064 44.93312a851.18976 851.18976 0 0 0 44.52352-80.19968H357.21216a26.25536 26.25536 0 1 1 0-52.51072h132.34176v-21.27872h-183.31648a26.25536 26.25536 0 1 1 0-52.51072h183.31648v-64.34816a26.25536 26.25536 0 1 1 52.5312 0v64.34816h183.21408a26.25536 26.25536 0 1 1 0 52.51072h-183.21408z m-141.43488 161.44384c-56.97536 0-90.64448 29.96224-90.64448 67.62496 0 37.4784 32.8704 65.86368 90.64448 65.86368 46.8992 0 95.0272-35.30752 141.9264-96.93184-57.48736-23.71584-105.63584-36.5568-141.9264-36.5568z" p-id="2383"></path><path d="M70.51264 512c0-243.44576 198.0416-441.48736 441.48736-441.48736 243.44576 0 441.48736 198.0416 441.48736 441.48736 0 82.37056-22.8352 162.75456-65.98656 232.2432a28.81536 28.81536 0 0 1-39.91552 9.37984 28.83584 28.83584 0 0 1-9.27744-39.81312A382.976 382.976 0 0 0 895.63136 512C895.63136 300.50304 723.5584 128.49152 512 128.49152 300.46208 128.49152 128.49152 300.4416 128.49152 512c0 211.53792 171.97056 383.50848 383.50848 383.50848 58.53184 0 114.688-12.8 166.87104-38.05184a28.93824 28.93824 0 1 1 25.25184 52.14208A438.272 438.272 0 0 1 512 953.48736c-243.44576 0-441.48736-198.0416-441.48736-441.48736z" p-id="2384"></path></svg>