<svg xmlns="http://www.w3.org/2000/svg" width="176" height="148" viewBox="0 0 176 148">
  <metadata><?xpacket begin="﻿" id="W5M0MpCehiHzreSzNTczkc9d"?>
<x:xmpmeta xmlns:x="adobe:ns:meta/" x:xmptk="Adobe XMP Core 5.6-c138 79.159824, 2016/09/14-01:09:01        ">
   <rdf:RDF xmlns:rdf="http://www.w3.org/1999/02/22-rdf-syntax-ns#">
      <rdf:Description rdf:about=""/>
   </rdf:RDF>
</x:xmpmeta>
<?xpacket end="w"?></metadata>
<defs>
    <style>
      .cls-1 {
        fill-rule: evenodd;
      }
    </style>
  </defs>
  <path id="圆角矩形_1" data-name="圆角矩形 1" class="cls-1" d="M602,307H717a4,4,0,0,1,4,4v18a4,4,0,0,1-4,4H602a4,4,0,0,1-4-4V311A4,4,0,0,1,602,307Zm0,61h99a4,4,0,0,1,4,4v18a4,4,0,0,1-4,4H602a4,4,0,0,1-4-4V372A4,4,0,0,1,602,368Zm0,61H717a4,4,0,0,1,4,4v18a4,4,0,0,1-4,4H602a4,4,0,0,1-4-4V433A4,4,0,0,1,602,429Zm172-80.02v64c0,2.976-2.377,5.19-4.726,3.449-1.883-1.394-39.509-29.531-42.72-31.937a4.615,4.615,0,0,1,0-6.933c2.312-1.765,40.081-30.046,42.816-32.011C771.374,344.11,774,345.7,774,348.98Z" transform="translate(-598 -307)"/>
</svg>
