<?xml version="1.0" encoding="utf-8"?>
<svg version="1.1" id="up" xmlns="http://www.w3.org/2000/svg" xmlns:xlink="http://www.w3.org/1999/xlink" viewBox="0 0 200 200"  width="200" height="200" xml:space="preserve">
<path class="st0" d="M192.1,170.6c4.3,0,7.9,3.7,7.9,8.2s-3.5,8.2-7.9,8.2H7.9c-4.3,0-7.9-3.7-7.9-8.2V24.2C0,19.7,3.5,16,7.9,16
	c4.3,0,7.9,3.7,7.9,8.2v146.4H192.1L192.1,170.6z M46.2,121.2C46.2,121.2,46.1,121.1,46.2,121.2c-2.6-3.6-1.8-8.5,1.7-11l42.3-30.7
	c1.8-1.3,10.2-5,15.3,1.6l14.6,22.6l36.9-37h-15.5c-4.4,0-7.9-3.5-7.9-7.9c0,0,0,0,0,0c0-4.4,3.6-7.9,7.9-7.9H174c0,0,0,0,0,0
	c4.4,0,7.9,3.5,7.9,7.9v32.7c0,4.3-3.5,7.9-7.9,7.9c-4.4,0-7.9-3.5-7.9-7.9V79.8l-40.8,40.9c-4.3,3.3-10.2,2-12.8-2.9L96.6,94.2
	l-39.3,28.6c-1.4,1-3,1.5-4.7,1.5C50.1,124.4,47.7,123.2,46.2,121.2z"/>
</svg>
