<?xml version="1.0" standalone="no"?><!DOCTYPE svg PUBLIC "-//W3C//DTD SVG 1.1//EN" "http://www.w3.org/Graphics/SVG/1.1/DTD/svg11.dtd"><svg t="1583747431076" class="icon" viewBox="0 0 1024 1024" version="1.1" xmlns="http://www.w3.org/2000/svg" p-id="3594" xmlns:xlink="http://www.w3.org/1999/xlink" width="200" height="200"><defs><style type="text/css"></style></defs><path d="M862.302366 176.171357l-501.925778 483.307597a31.816687 31.816687 0 0 0 0.127522 46.290411c13.198506 12.752179 34.81345 12.752179 48.011955 0l501.798256-483.371358a31.880448 31.880448 0 0 0 0-46.22665 34.940971 34.940971 0 0 0-48.011955 0" p-id="3595"></path><path d="M882.004483 396.08269a33.729514 33.729514 0 0 0-34.239601 33.155666v0.127522h-0.318805v461.246326c0 36.343711-30.60523 66.12005-68.032877 66.12005H197.65878c-37.427646 0-68.032877-29.712578-68.032877-66.12005V230.686924c0-36.343711 30.60523-66.056289 68.032877-66.056289h512.76513a33.665753 33.665753 0 0 0 33.729515-33.155666 33.729514 33.729514 0 0 0-36.790038-33.155666h-505.62391C126.884184 98.383064 65.673724 157.935741 65.673724 230.686924v661.009215c0 72.751183 61.210461 132.303861 136.065753 132.303861h610.191781c74.855293 0 104.185305-59.552677 104.185305-132.303861V431.725031l0.063761-2.486675c0-18.299377-15.302615-33.155666-34.175841-33.155666" p-id="3596"></path></svg>