<?xml version="1.0" standalone="no"?><!DOCTYPE svg PUBLIC "-//W3C//DTD SVG 1.1//EN" "http://www.w3.org/Graphics/SVG/1.1/DTD/svg11.dtd"><svg t="1522399711453" class="icon" style="" viewBox="0 0 1024 1024" version="1.1" xmlns="http://www.w3.org/2000/svg" p-id="1472" xmlns:xlink="http://www.w3.org/1999/xlink" width="200" height="200"><defs><style type="text/css"></style></defs><path d="M503.466667 167.936c-1.251556 0.227556-5.347556 2.048-9.102223 3.868444-3.754667 1.820444-9.102222 4.323556-11.946666 5.688889-2.844444 1.251556-6.030222 2.844444-7.054222 3.413334-1.137778 0.682667-2.958222 1.592889-3.982223 2.161777-3.413333 1.820444-17.635556 8.874667-23.096889 11.491556-5.12 2.389333-6.485333 3.072-10.808888 5.461333-3.185778 1.706667-17.066667 8.647111-23.324445 11.605334-5.12 2.389333-6.485333 3.072-10.808889 5.461333-1.251556 0.682667-6.144 3.072-10.808889 5.461333-4.664889 2.275556-10.808889 5.347556-13.653333 6.712889-2.844444 1.479111-10.467556 5.233778-17.066667 8.533334-6.599111 3.299556-13.767111 6.940444-15.928889 7.964444-2.161778 1.137778-9.898667 5.006222-17.066666 8.647111-7.168 3.527111-14.904889 7.395556-17.066667 8.533333-2.161778 1.024-9.898667 4.892444-17.066667 8.419556-7.168 3.640889-13.994667 6.940444-15.132444 7.509333-2.161778 1.137778-22.072889 11.036444-30.947556 15.473778-3.072 1.592889-10.808889 5.461333-17.066666 8.533333-6.257778 3.185778-13.880889 7.054222-17.066667 8.533334-5.12 2.616889-19.342222 9.784889-33.564444 16.839111-2.844444 1.479111-10.467556 5.233778-17.066667 8.533333-6.599111 3.299556-14.222222 7.168-17.066667 8.533334-2.844444 1.479111-10.467556 5.233778-17.066666 8.533333-19.228444 9.557333-20.935111 10.581333-24.348445 13.767111-1.706667 1.592889-4.209778 5.688889-5.347555 9.102222-2.048 5.802667-2.161778 11.491556-2.161778 127.317334 0 137.898667-0.682667 128.113778 9.557333 137.216 5.575111 5.12 7.736889 5.802667 16.497778 5.12 5.233778-0.341333 12.060444-4.892444 15.473778-10.353778l2.844444-4.437334 0.227556-105.016888c0.341333-96.824889 0.455111-105.016889 2.275555-105.358223 1.024-0.227556 9.898667 3.527111 19.911111 8.305778 9.898667 4.778667 19.797333 9.443556 21.959112 10.467556 2.161778 1.137778 4.778667 2.503111 5.688888 3.299555 0.910222 0.682667 2.958222 1.706667 4.551112 2.161778 1.592889 0.455111 10.012444 4.323556 18.773333 8.533333 8.760889 4.209778 18.545778 8.874667 21.617778 10.24 3.185778 1.365333 6.030222 3.185778 6.485333 3.868445 0.455111 0.682667 0.910222 32.312889 0.910222 70.314666 0 56.547556 0.341333 70.542222 1.706667 77.937778 0.910222 4.892444 1.706667 11.491556 1.706667 14.677334 0 3.185778 0.796444 7.736889 1.706666 9.898666 0.910222 2.275556 1.706667 5.802667 1.706667 7.736889 0 1.934222 0.796444 6.144 1.820444 9.443556 1.024 3.185778 2.503111 8.078222 3.413334 10.922666 0.910222 2.844444 1.592889 6.144 1.592889 7.509334 0 1.251556 0.796444 3.299556 1.706666 4.551111 0.910222 1.137778 1.706667 3.072 1.706667 4.096 0 1.024 0.682667 3.299556 1.592889 5.12 0.910222 1.706667 2.389333 5.006222 3.299555 7.168 3.982222 9.102222 12.856889 26.851556 14.222223 28.216889 0.682667 0.796444 1.365333 2.048 1.365333 2.730666 0 0.568889 1.479111 3.072 3.413333 5.461334 1.934222 2.389333 3.413333 4.664889 3.413334 5.006222 0 0.682667 9.216 13.767111 11.719111 16.611555 0.796444 0.910222 5.688889 6.599111 10.808889 12.515556 10.467556 12.288 23.324444 24.348444 37.660444 35.271111 9.216 7.054222 21.276444 15.36 25.144889 17.294222 0.910222 0.568889 4.778667 2.730667 8.533333 4.892445s8.760889 4.778667 11.150222 5.802666c2.275556 1.024 6.144 2.844444 8.419556 3.982223 2.389333 1.251556 4.778667 2.161778 5.575111 2.161777 0.682667 0 1.934222 0.796444 2.730667 1.706667s2.616889 1.706667 4.096 1.706667c2.389333 0 10.581333 2.730667 16.952889 5.688889 1.251556 0.568889 4.437333 1.365333 7.054222 1.706666 2.730667 0.455111 5.12 1.251556 5.575111 1.820445 0.341333 0.568889 2.503111 1.024 4.892444 1.024 2.503111 0 5.006222 0.682667 5.802667 1.706666 1.024 1.251556 3.640889 1.706667 9.329778 1.706667 5.916444 0 7.964444 0.455111 8.419555 1.706667 1.024 2.616889 71.566222 2.616889 72.590223 0 0.455111-1.251556 2.503111-1.706667 8.419555-1.706667 5.688889 0 8.305778-0.455111 9.329778-1.706667 0.796444-1.024 3.299556-1.706667 5.802667-1.706666 2.389333 0 4.551111-0.455111 4.892444-1.024 0.341333-0.568889 3.072-1.365333 6.030222-1.820445 3.072-0.455111 6.030222-1.137778 6.599111-1.706666 1.706667-1.365333 15.132444-5.688889 17.521778-5.688889 1.137778 0 2.730667-0.796444 3.527111-1.706667 0.796444-0.910222 1.934222-1.706667 2.616889-1.706667 1.365333 0 14.677333-6.030222 20.138667-9.216 2.161778-1.251556 5.575111-3.072 7.395555-3.982222 1.934222-0.910222 5.006222-2.616889 6.826667-3.868444 1.934222-1.251556 5.461333-3.299556 7.850667-4.664889 2.389333-1.251556 5.461333-3.413333 6.826666-4.664889 1.365333-1.251556 4.437333-3.640889 6.940445-5.233778 9.898667-6.257778 31.744-26.396444 40.96-37.774222 3.299556-4.096 7.281778-8.760889 8.874667-10.467556 2.616889-2.844444 9.898667-12.970667 12.743111-17.749333 0.682667-1.137778 2.389333-3.754667 3.982222-5.916444 3.527111-4.892444 4.096-5.802667 11.264-20.024889 3.185778-6.257778 5.802667-11.946667 5.802667-12.629334 0-0.682667 0.796444-1.820444 1.706666-2.616888 0.910222-0.796444 1.706667-2.389333 1.706667-3.640889s0.682667-3.640889 1.479111-5.233778c0.910222-1.706667 2.389333-4.778667 3.413333-6.826667 1.024-2.161778 1.934222-4.892444 1.934223-6.257778 0-1.365333 0.682667-4.778667 1.592888-7.623111 3.868444-11.832889 5.233778-17.180444 5.233778-20.48 0-1.934222 0.682667-4.892444 1.592889-6.599111 0.796444-1.706667 1.820444-7.168 2.161778-12.174222 0.455111-5.006222 1.251556-11.719111 1.820444-14.791111 0.682667-3.299556 1.137778-35.384889 1.251556-75.662222 0-38.456889 0.455111-70.542222 0.910222-71.224889 0.455111-0.682667 3.413333-2.503111 6.485333-3.868445 3.185778-1.365333 11.832889-5.575111 19.456-9.216 7.509333-3.640889 14.563556-6.712889 15.473778-6.712889 1.024 0 2.389333-0.796444 3.185778-1.706666 0.796444-0.910222 2.389333-1.706667 3.527111-1.706667s2.389333-0.455111 2.730667-1.137778c0.341333-0.568889 2.616889-1.934222 4.892444-2.958222 2.275556-1.137778 13.198222-6.257778 24.120889-11.605333 10.922667-5.233778 24.234667-11.605333 29.582222-14.108445 21.048889-9.784889 26.055111-12.629333 31.061334-17.521777 5.347556-5.12 5.347556-5.233778 5.347555-12.970667 0-5.802667-0.455111-7.850667-1.706666-8.419556-0.910222-0.341333-1.706667-1.592889-1.706667-2.730666 0-2.958222-6.144-8.760889-12.288-11.605334-2.958222-1.365333-10.467556-5.006222-16.725333-8.192-13.994667-7.054222-18.432-9.216-33.564445-16.839111-6.599111-3.299556-14.222222-7.054222-17.066667-8.533333-14.222222-7.054222-28.444444-14.222222-33.564444-16.839111-3.072-1.479111-10.808889-5.347556-17.066667-8.533334-6.257778-3.072-13.880889-6.940444-17.066666-8.533333-8.874667-4.437333-28.785778-14.336-30.947556-15.473778-1.137778-0.568889-7.964444-3.868444-15.132444-7.509333-7.168-3.527111-14.904889-7.395556-17.066667-8.419556-2.161778-1.137778-9.898667-5.006222-17.066667-8.533333-7.168-3.640889-14.904889-7.509333-17.066666-8.647111-2.161778-1.024-9.329778-4.664889-15.928889-7.964444-6.599111-3.299556-14.222222-7.054222-17.066667-8.533334-2.844444-1.365333-8.988444-4.437333-13.653333-6.712889-8.305778-4.096-10.353778-5.12-14.449778-7.509333-1.137778-0.568889-4.323556-2.161778-7.168-3.413333-6.257778-2.958222-20.138667-9.898667-23.324444-11.605334-4.323556-2.389333-5.688889-3.072-10.808889-5.461333-6.257778-2.958222-20.138667-9.898667-23.324445-11.605333-4.437333-2.389333-5.802667-3.072-10.808889-5.461334-2.844444-1.365333-8.078222-3.868444-11.605333-5.688889-6.371556-3.299556-15.815111-5.006222-20.821333-3.868444z m171.349333 129.820444c140.401778 70.314667 163.157333 82.033778 163.498667 84.309334 0.568889 3.640889-1.365333 5.575111-8.760889 8.988444-3.527111 1.592889-14.108444 6.712889-23.552 11.264-9.329778 4.664889-17.863111 8.419556-18.887111 8.419556-1.024 0-2.389333 0.796444-3.185778 1.706666-0.796444 0.910222-2.275556 1.706667-3.413333 1.706667s-2.616889 0.796444-3.413334 1.706667c-0.796444 0.910222-2.275556 1.706667-3.413333 1.706666s-2.616889 0.796444-3.413333 1.706667c-0.796444 0.910222-2.048 1.706667-2.730667 1.706667-0.682667 0-4.323556 1.479111-8.078222 3.299555-3.754667 1.820444-9.102222 4.323556-11.946667 5.688889-2.844444 1.365333-5.916444 2.958222-6.826667 3.413334-6.826667 3.868444-23.438222 11.491556-25.144889 11.491555-1.137778 0-2.275556 0.455111-2.730666 1.024-0.568889 1.024-7.281778 4.437333-11.946667 6.257778-0.910222 0.341333-2.503111 1.137778-3.413333 1.706667-0.910222 0.568889-2.503111 1.365333-3.413334 1.706666-0.910222 0.341333-2.503111 1.137778-3.413333 1.706667-1.706667 1.024-8.305778 3.982222-11.377778 5.12-0.910222 0.341333-2.503111 1.137778-3.413333 1.706667-0.910222 0.568889-2.503111 1.365333-3.413333 1.706666-0.910222 0.341333-2.503111 1.137778-3.413334 1.706667-0.910222 0.568889-6.599111 3.299556-12.515555 6.144-5.916444 2.844444-18.773333 8.988444-28.672 13.767111-9.784889 4.778667-18.545778 8.647111-19.456 8.647111-0.910222 0-2.275556 0.796444-3.072 1.706667-0.796444 0.910222-2.275556 1.706667-3.413334 1.706666s-2.616889 0.796444-3.413333 1.706667c-0.796444 0.910222-2.275556 1.706667-3.413333 1.706667s-2.616889 0.796444-3.413334 1.706666c-0.796444 0.910222-2.275556 1.706667-3.299555 1.706667-1.024 0-2.844444 0.796444-3.982222 1.706667-1.251556 0.910222-3.413333 1.706667-4.778667 1.706666-1.479111 0-2.958222 0.568889-3.299556 1.251556-0.455111 0.568889-1.934222 1.592889-3.185777 2.275556-1.365333 0.568889-3.299556 1.479111-4.209778 2.048-4.437333 2.730667-23.893333 11.491556-25.372445 11.491555-0.910222 0-2.275556 0.796444-3.072 1.706667-0.796444 0.910222-2.275556 1.706667-3.413333 1.706666s-2.616889 0.796444-3.413333 1.706667c-0.796444 0.910222-2.275556 1.706667-3.413334 1.706667s-2.616889 0.796444-3.413333 1.706666c-0.796444 0.910222-2.275556 1.706667-3.413333 1.706667s-2.616889 0.796444-3.413334 1.706667c-0.796444 0.910222-2.048 1.706667-2.844444 1.706666s-2.844444 0.682667-4.437333 1.592889c-3.072 1.592889-7.054222 1.251556-8.192-0.568889-0.341333-0.568889-1.479111-1.024-2.616889-1.024-1.137778 0-2.730667-0.796444-3.527111-1.706666-0.796444-0.910222-2.275556-1.706667-3.413334-1.706667s-2.616889-0.796444-3.413333-1.706667c-0.796444-0.910222-2.275556-1.706667-3.413333-1.706666s-2.616889-0.796444-3.413334-1.706667c-0.796444-0.910222-2.275556-1.706667-3.413333-1.706667s-2.616889-0.796444-3.413333-1.706666c-0.796444-0.910222-2.161778-1.706667-3.072-1.706667-2.161778 0-31.857778-14.563556-32.768-15.928889-0.455111-0.682667-1.820444-1.137778-3.299556-1.137778-1.365333 0-3.527111-0.796444-4.778667-1.706666-1.137778-0.910222-2.958222-1.706667-3.982222-1.706667-1.024 0-2.503111-0.796444-3.299555-1.706667-0.796444-0.910222-2.275556-1.706667-3.413334-1.706666s-2.616889-0.796444-3.413333-1.706667c-0.796444-0.910222-2.275556-1.706667-3.413333-1.706667s-2.616889-0.796444-3.413334-1.706666c-0.796444-0.910222-2.048-1.706667-2.958222-1.706667-1.365333 0-15.132444-6.371556-19.797333-9.102222-0.910222-0.568889-4.096-2.048-7.054222-3.413333-3.072-1.365333-5.688889-2.958222-6.144-3.527112-0.341333-0.568889-1.479111-1.024-2.730667-1.024-1.137778 0-9.898667-3.868444-19.456-8.647111-17.294222-8.419556-29.582222-14.336-32.881778-15.701333-0.910222-0.341333-2.503111-1.137778-3.413333-1.706667-0.910222-0.568889-4.096-2.161778-7.054222-3.527111-3.072-1.365333-5.688889-2.958222-6.144-3.527111-0.341333-0.568889-1.365333-1.024-2.275556-1.024-1.479111 0-21.048889-8.760889-25.486222-11.377778-0.910222-0.568889-3.982222-2.161778-6.826667-3.527111-2.844444-1.365333-8.192-3.868444-11.946667-5.688889s-7.395556-3.299556-8.078222-3.299555c-0.682667 0-1.934222-0.796444-2.730666-1.706667s-2.275556-1.706667-3.413334-1.706667-2.616889-0.796444-3.413333-1.706666c-0.796444-0.910222-2.275556-1.706667-3.413333-1.706667s-2.616889-0.796444-3.413334-1.706667c-0.796444-0.910222-2.161778-1.706667-3.072-1.706666-0.910222 0-9.443556-3.754667-19.000889-8.305778-9.443556-4.664889-20.024889-9.784889-23.552-11.377778-7.395556-3.413333-9.329778-5.347556-8.760889-8.988444 0.341333-2.275556 23.096889-13.994667 163.043556-84.195556 89.543111-44.828444 164.067556-81.578667 165.660444-81.578666 1.820444-0.113778 66.673778 31.744 166.115556 81.464888zM299.008 494.364444c1.706667 0.910222 7.736889 3.754667 13.312 6.371556 5.688889 2.503111 13.767111 6.371556 18.090667 8.533333 4.437333 2.161778 8.533333 3.868444 9.329777 3.868445 0.796444 0 2.161778 0.682667 2.958223 1.365333 0.796444 0.796444 3.299556 2.275556 5.461333 3.299556 14.449778 6.826667 39.367111 18.659556 65.991111 31.402666 9.671111 4.664889 20.707556 9.898667 24.462222 11.605334 3.754667 1.820444 13.198222 6.257778 21.048889 10.012444 38.684444 18.545778 36.067556 17.635556 49.493334 17.635556s10.808889 0.910222 49.493333-17.635556c7.850667-3.754667 17.294222-8.192 21.048889-10.012444 7.281778-3.413333 31.402667-14.904889 52.906666-25.258667 7.168-3.413333 17.180444-8.192 22.186667-10.467556 15.132444-6.940444 19.228444-8.988444 20.821333-10.581333 0.796444-0.682667 2.161778-1.365333 3.072-1.365333 0.796444 0 3.982222-1.251556 7.054223-2.730667 2.958222-1.592889 11.150222-5.461333 17.976889-8.647111 6.940444-3.185778 14.108444-6.599111 15.928888-7.623111 1.934222-0.910222 4.664889-1.479111 6.257778-1.365333l2.844445 0.455111 0.341333 54.044444c0.227556 44.942222 0 55.296-1.479111 61.667556-0.910222 4.209778-1.706667 11.150222-1.706667 15.36-0.113778 4.209778-0.796444 9.784889-1.706666 12.288-0.910222 2.503111-1.706667 6.030222-1.706667 7.964444 0 1.820444-0.796444 4.892444-1.706667 6.712889-0.910222 1.706667-1.706667 4.664889-1.706666 6.371556s-0.796444 3.754667-1.706667 4.551111c-0.910222 0.796444-1.706667 2.730667-1.706667 4.437333 0 1.592889-0.796444 3.982222-1.706666 5.12-0.910222 1.251556-1.706667 3.072-1.706667 4.209778 0 1.024-0.796444 2.503111-1.706667 3.299555-0.910222 0.796444-1.706667 2.616889-1.706666 3.982223 0 1.365333-0.796444 3.185778-1.706667 3.982222-0.910222 0.796444-1.706667 2.275556-1.706667 3.413333s-0.796444 2.616889-1.706666 3.413333c-0.910222 0.796444-1.706667 2.389333-1.706667 3.640889 0 1.137778-0.796444 2.389333-1.706667 2.730667-0.910222 0.455111-1.706667 1.365333-1.706666 2.161778 0 0.682667-1.365333 3.413333-3.072 5.916444-1.820444 2.389333-3.640889 5.233778-4.323556 6.257778-4.437333 7.168-10.808889 15.815111-14.449778 19.683556-8.533333 8.988444-21.048889 21.731556-24.348444 24.576-4.664889 3.982222-21.162667 16.384-23.210667 17.294222-0.910222 0.455111-3.185778 1.820444-5.12 3.072-1.820444 1.251556-4.437333 2.730667-5.688889 3.413333-1.251556 0.682667-3.754667 2.161778-5.688889 3.413333-1.820444 1.251556-4.209778 2.616889-5.12 2.958223-3.299556 1.365333-9.671111 4.209778-12.743111 5.802666-1.592889 0.796444-3.868444 1.479111-5.12 1.479111-1.137778 0-3.072 0.796444-4.209778 1.706667-1.251556 0.910222-3.299556 1.706667-4.664888 1.706667-1.365333 0-3.413333 0.796444-4.664889 1.706666-1.137778 0.910222-3.299556 1.706667-4.778667 1.706667-1.479111 0-3.754667 0.568889-5.12 1.365333-1.365333 0.682667-4.778667 1.706667-7.623111 2.161778-2.844444 0.568889-7.623111 1.479111-10.808889 2.048-23.324444 4.664889-54.044444 4.664889-77.368889 0-3.072-0.568889-7.964444-1.479111-10.808889-2.048-2.844444-0.455111-6.257778-1.479111-7.623111-2.161778-1.365333-0.796444-3.640889-1.365333-5.12-1.365333-1.479111 0-3.640889-0.796444-4.778667-1.706667-1.251556-0.910222-3.299556-1.706667-4.664888-1.706666-1.365333 0-3.413333-0.796444-4.664889-1.706667-1.137778-0.910222-3.185778-1.706667-4.437334-1.706667s-3.299556-0.682667-4.551111-1.592888c-1.251556-0.796444-3.640889-1.820444-5.347555-2.275556-1.820444-0.341333-3.185778-1.251556-3.185778-1.820444 0-0.682667-1.251556-1.137778-2.844445-1.137778s-3.185778-0.796444-3.527111-1.706667c-0.455111-0.910222-1.592889-1.706667-2.730666-1.706667-1.251556 0-2.503111-0.568889-2.844445-1.251555-0.455111-0.568889-1.934222-1.706667-3.185778-2.275556-1.365333-0.568889-3.982222-2.048-5.916444-3.299555-1.820444-1.251556-4.209778-2.616889-5.12-3.072-1.706667-0.796444-17.294222-12.515556-23.324444-17.408-10.467556-8.760889-39.253333-41.756444-39.253334-44.942222 0-0.341333-1.251556-2.389333-2.730666-4.323556-1.592889-2.048-3.413333-4.892444-4.096-6.485333-1.820444-4.096-4.096-7.964444-5.575112-9.443556-0.682667-0.682667-1.251556-2.161778-1.251555-3.185778 0-1.024-0.796444-2.503111-1.706667-3.299555-0.910222-0.796444-1.706667-2.275556-1.706666-3.299556 0-1.137778-1.479111-5.006222-3.413334-8.647111-1.820444-3.640889-3.413333-7.850667-3.413333-9.216 0-1.365333-0.796444-3.072-1.706667-3.868444-0.910222-0.796444-1.706667-3.072-1.706666-5.006223-0.113778-1.934222-0.796444-4.778667-1.706667-6.371555-0.910222-1.592889-1.592889-4.437333-1.706667-6.371556 0-1.934222-0.796444-5.802667-1.706666-8.419555-0.910222-2.616889-1.706667-8.533333-1.706667-12.970667 0-4.437333-0.796444-11.150222-1.706667-14.904889-1.251556-5.461333-1.592889-17.635556-1.706666-60.416 0-29.468444 0.341333-53.930667 0.796444-54.272 1.251556-1.365333 6.144-0.910222 9.216 0.910222z" p-id="1473"></path></svg>