<?xml version="1.0" standalone="no"?><!DOCTYPE svg PUBLIC "-//W3C//DTD SVG 1.1//EN" "http://www.w3.org/Graphics/SVG/1.1/DTD/svg11.dtd"><svg t="1522399705806" class="icon" style="" viewBox="0 0 1024 1024" version="1.1" xmlns="http://www.w3.org/2000/svg" p-id="1360" xmlns:xlink="http://www.w3.org/1999/xlink" width="200" height="200"><defs><style type="text/css"></style></defs><path d="M475.477333 174.193778c-2.048 1.706667-6.257778 2.616889-16.042666 3.754666-7.281778 0.910222-13.880889 1.934222-14.563556 2.389334-0.682667 0.455111-3.982222 1.251556-7.168 1.820444-9.216 1.479111-19.456 3.982222-22.186667 5.461334-1.251556 0.682667-3.299556 1.251556-4.551111 1.251555s-3.754667 0.796444-5.461333 1.706667c-1.820444 0.910222-4.209778 1.706667-5.233778 1.706666-1.137778 0-3.868444 0.796444-6.257778 1.820445-2.389333 1.024-5.802667 2.616889-7.736888 3.299555-1.820444 0.796444-5.347556 2.275556-7.623112 3.299556-2.389333 1.024-6.257778 2.730667-8.533333 3.754667-2.389333 1.024-5.12 2.275556-6.030222 2.844444-0.910222 0.455111-2.503111 1.251556-3.413333 1.592889-0.910222 0.341333-2.503111 1.137778-3.413334 1.706667-0.910222 0.568889-4.209778 2.275556-7.395555 3.868444-6.257778 3.185778-7.850667 4.096-15.132445 8.760889-2.730667 1.820444-5.233778 3.185778-5.575111 3.185778-0.341333 0-2.503111 1.479111-4.892444 3.413333-2.389333 1.820444-4.664889 3.413333-5.006223 3.413333-0.910222 0-18.773333 13.653333-29.696 22.528-7.395556 6.144-32.540444 31.630222-39.822222 40.732445-9.329778 11.264-25.6 33.678222-25.6 35.157333 0 0.227556-1.365333 2.616889-3.072 5.347556-4.778667 7.281778-5.688889 8.874667-8.874666 15.132444-3.185778 6.144-4.096 7.850667-6.030223 11.377778-0.796444 1.251556-1.706667 3.072-2.048 3.982222-0.796444 2.275556-4.437333 10.922667-8.647111 20.48-0.910222 2.161778-2.616889 5.916444-3.640889 8.305778-1.024 2.389333-1.820444 5.12-1.820444 6.030222 0 1.024-0.682667 3.413333-1.592889 5.347556-0.910222 2.048-1.820444 4.892444-2.161778 6.485333-0.341333 1.592889-1.137778 4.323556-1.706666 6.257778-1.706667 5.006222-3.640889 12.970667-4.664889 18.773333-0.455111 2.844444-1.479111 7.168-2.161778 9.671111-0.682667 2.503111-1.820444 9.443556-2.503111 15.36-0.796444 7.395556-1.934222 11.832889-3.413334 13.880889-2.161778 2.958222-2.275556 5.006222-2.275555 35.043556s0.113778 32.085333 2.275555 35.043555c1.479111 2.048 2.616889 6.485333 3.413334 13.880889 0.682667 5.916444 1.820444 12.856889 2.503111 15.36 0.682667 2.503111 1.706667 6.826667 2.161778 9.671111 1.024 5.802667 2.958222 13.767111 4.664889 18.773334 0.568889 1.820444 1.365333 4.664889 1.706666 6.257777 0.341333 1.592889 1.251556 4.437333 2.161778 6.485334 0.910222 1.934222 1.592889 4.323556 1.592889 5.347555 0 0.910222 0.796444 3.640889 1.820444 6.030223 1.024 2.389333 2.616889 5.802667 3.299556 7.736888 0.796444 1.820444 2.389333 5.461333 3.527111 7.964445 1.024 2.503111 2.730667 6.371556 3.640889 8.533333 0.910222 2.161778 2.161778 4.778667 2.730667 5.688889 0.455111 0.910222 1.251556 2.503111 1.592888 3.413333 0.341333 0.910222 1.137778 2.503111 1.706667 3.413334 0.568889 0.910222 2.275556 4.209778 3.868445 7.395555 3.185778 6.257778 4.096 7.850667 8.874666 15.132445 1.706667 2.730667 3.072 5.12 3.072 5.347555 0 1.479111 13.767111 20.252444 27.306667 37.319111 5.688889 7.281778 34.019556 35.271111 42.666667 42.439112 8.988444 7.281778 24.234667 18.659556 25.031111 18.659555 0.455111 0 2.730667 1.365333 5.006222 3.072 4.551111 3.527111 7.623111 5.461333 10.922667 7.168 1.251556 0.682667 3.868444 2.161778 5.688888 3.413333 1.934222 1.137778 6.030222 3.413333 9.102223 5.12 5.461333 2.844444 7.509333 3.868444 11.605333 6.257778 1.137778 0.682667 2.844444 1.479111 3.754667 1.820445 2.161778 0.796444 7.395556 2.958222 13.084444 5.461333 2.503111 1.137778 6.144 2.730667 7.964445 3.527111 1.934222 0.682667 5.347556 2.275556 7.736888 3.299556 2.389333 1.024 5.12 1.820444 6.257778 1.820444 1.024 0 3.413333 0.796444 5.233778 1.706667 1.706667 0.910222 4.209778 1.706667 5.461333 1.706666 1.251556 0 3.299556 0.568889 4.551111 1.251556 2.730667 1.479111 12.970667 3.982222 22.186667 5.461333 3.185778 0.568889 6.485333 1.365333 7.168 1.820445 5.347556 3.299556 55.296 6.257778 85.674667 5.006222 19.342222-0.796444 43.804444-3.413333 46.307555-5.006222 0.682667-0.455111 3.982222-1.251556 7.168-1.706667 6.485333-1.024 14.222222-2.958222 19.569778-4.778667 1.934222-0.568889 4.664889-1.365333 6.257778-1.706666 1.592889-0.341333 4.437333-1.251556 6.485333-2.161778 1.934222-0.910222 4.323556-1.592889 5.347556-1.592889 0.910222 0 3.640889-0.796444 6.030222-1.820444 2.389333-1.024 6.144-2.730667 8.305778-3.640889 5.006222-2.161778 10.808889-4.664889 15.928889-6.826667 2.161778-0.910222 4.778667-2.161778 5.688889-2.730667 0.910222-0.455111 2.503111-1.251556 3.413333-1.592888 0.910222-0.341333 2.503111-1.137778 3.413333-1.706667 0.910222-0.568889 4.323556-2.275556 7.395556-3.868445 6.257778-3.185778 7.850667-4.096 15.132444-8.874666 2.730667-1.706667 5.233778-3.072 5.575111-3.072 0.341333 0 2.503111-1.479111 4.892445-3.413334 2.389333-1.820444 4.664889-3.413333 5.12-3.413333 0.796444 0 16.042667-11.377778 25.031111-18.659555 8.647111-7.168 36.977778-35.157333 42.666667-42.439112 13.539556-17.066667 27.306667-35.84 27.306666-37.319111 0-0.227556 1.365333-2.616889 3.185778-5.347555 4.664889-7.281778 5.575111-8.874667 8.760889-15.132445 2.730667-5.461333 3.868444-7.395556 6.257778-11.719111 0.682667-1.024 1.479111-2.730667 1.820444-3.640889 0.341333-0.910222 1.365333-3.527111 2.389333-5.688889 2.048-4.892444 4.664889-10.808889 6.599112-15.36 0.682667-1.934222 2.275556-5.347556 3.299555-7.736888 1.024-2.389333 1.820444-5.12 1.820445-6.030223 0-1.024 0.682667-3.413333 1.592888-5.347555 0.910222-2.048 1.820444-4.892444 2.161778-6.485334 0.341333-1.592889 1.137778-4.437333 1.706667-6.257777 1.706667-4.892444 3.640889-12.856889 4.664889-18.773334 0.568889-2.844444 1.479111-7.395556 2.161778-10.24 6.712889-27.079111 6.712889-100.352 0-127.431111-0.682667-2.844444-1.592889-7.395556-2.161778-10.24-1.024-5.916444-2.958222-13.880889-4.664889-18.773333-0.568889-1.934222-1.365333-4.664889-1.706667-6.257778-0.341333-1.592889-1.251556-4.437333-2.161778-6.485333-0.910222-1.934222-1.592889-4.323556-1.592888-5.347556 0-0.910222-0.796444-3.640889-1.820445-6.030222-1.024-2.389333-2.616889-5.916444-3.299555-7.736889-0.796444-1.934222-2.389333-5.461333-3.527112-7.964444-1.024-2.503111-2.730667-6.371556-3.640888-8.533334-0.910222-2.161778-2.161778-4.778667-2.730667-5.688889-0.455111-0.910222-1.251556-2.503111-1.592889-3.413333-0.341333-0.910222-1.137778-2.503111-1.706667-3.413333-0.568889-0.910222-2.275556-4.323556-3.868444-7.395556-3.185778-6.257778-4.096-7.850667-8.760889-15.132444-1.820444-2.730667-3.185778-5.12-3.185778-5.347556 0-1.479111-13.767111-20.252444-27.306666-37.319111-5.688889-7.281778-34.019556-35.271111-42.666667-42.439111-8.988444-7.281778-24.234667-18.659556-25.031111-18.659556-0.455111 0-2.730667-1.365333-5.006222-3.185777-4.551111-3.413333-7.623111-5.347556-10.922667-7.054223-1.251556-0.682667-3.754667-2.161778-5.688889-3.413333-1.820444-1.137778-5.916444-3.413333-9.102222-5.12-3.072-1.592889-6.712889-3.413333-7.964445-4.209778-1.251556-0.682667-3.072-1.706667-3.982222-2.275555-0.910222-0.455111-2.503111-1.251556-3.413333-1.592889-2.161778-0.796444-7.395556-2.958222-13.084445-5.461333-2.503111-1.137778-6.030222-2.730667-7.964444-3.527112-1.820444-0.682667-5.347556-2.275556-7.736889-3.299555-2.389333-1.024-5.12-1.820444-6.257778-1.820445-1.024 0-3.413333-0.796444-5.233778-1.706666-1.706667-0.910222-4.209778-1.706667-5.461333-1.706667-1.251556 0-3.299556-0.568889-4.551111-1.251555-2.730667-1.479111-12.970667-3.982222-22.186667-5.461334-3.185778-0.568889-6.485333-1.365333-7.168-1.820444-0.682667-0.455111-7.281778-1.479111-14.563555-2.389334-9.784889-1.137778-13.994667-2.048-16.270222-3.868444-3.072-2.161778-4.664889-2.275556-35.384889-2.161778-30.378667 0-32.312889 0.113778-35.157334 2.275556z m62.122667 37.546666c6.826667 0.568889 16.611556 1.934222 21.617778 2.958223 21.390222 4.096 26.396444 5.12 29.582222 6.257777 1.934222 0.568889 5.233778 1.479111 7.395556 1.934223 2.161778 0.455111 5.12 1.479111 6.485333 2.161777 1.365333 0.796444 3.299556 1.365333 4.323555 1.365334 1.024 0 3.754667 0.796444 6.030223 1.820444 2.389333 1.024 5.916444 2.503111 7.964444 3.413334 2.048 0.910222 4.323556 1.592889 4.892445 1.592888 2.048 0 32.312889 15.473778 40.277333 20.48 1.934222 1.251556 5.006222 2.958222 6.826667 3.982223 1.934222 0.910222 8.078222 5.233778 13.880888 9.443555 23.438222 17.294222 37.432889 30.264889 56.092445 52.110222 6.940444 7.964444 22.186667 29.013333 24.234667 33.450667 0.455111 0.910222 1.820444 3.185778 3.072 5.12 4.892444 7.623111 20.48 38.229333 20.48 40.277333 0 0.568889 0.682667 2.844444 1.592888 4.892445 0.910222 2.048 2.389333 5.575111 3.413334 7.964444 1.024 2.275556 1.820444 4.892444 1.820444 5.916445 0 0.910222 0.682667 3.413333 1.592889 5.461333 3.072 7.281778 5.006222 15.587556 10.126222 42.439111 5.347556 27.989333 5.461333 68.380444 0.227556 95.573334-5.461333 28.444444-7.281778 36.181333-10.353778 43.576888-0.910222 2.048-1.592889 4.551111-1.592889 5.461334 0 1.024-0.796444 3.640889-1.820444 5.916444-1.024 2.389333-2.503111 5.916444-3.413334 7.964445-0.910222 2.048-1.592889 4.323556-1.592888 4.892444 0 2.048-15.587556 32.654222-20.48 40.277333-1.251556 1.820444-2.616889 4.209778-3.072 5.12-2.048 4.437333-17.294222 25.486222-24.234667 33.450667-18.659556 21.845333-32.654222 34.816-56.092445 52.110222-5.802667 4.209778-11.946667 8.533333-13.880888 9.443556-1.820444 1.024-4.892444 2.730667-6.826667 3.982222-7.964444 5.006222-38.229333 20.48-40.277333 20.48-0.568889 0-2.844444 0.682667-4.892445 1.592889-2.048 0.910222-5.575111 2.389333-7.964444 3.413333-2.275556 1.024-5.006222 1.820444-6.030223 1.820445-1.024 0-2.958222 0.568889-4.323555 1.365333-1.365333 0.682667-4.323556 1.706667-6.485333 2.161778-2.161778 0.455111-5.461333 1.365333-7.395556 1.934222-3.185778 1.137778-8.192 2.161778-29.582222 6.257778-27.989333 5.347556-68.380444 5.461333-95.573334 0.227555-23.096889-4.437333-27.648-5.347556-30.72-6.485333-1.820444-0.568889-5.233778-1.479111-7.395555-1.934222-2.161778-0.455111-5.12-1.479111-6.485333-2.161778-1.365333-0.796444-3.299556-1.365333-4.323556-1.365333-1.024 0-3.754667-0.796444-6.030222-1.820445-2.389333-1.024-5.916444-2.503111-7.964445-3.413333-2.048-0.910222-4.323556-1.592889-4.892444-1.592889-2.048 0-32.312889-15.473778-40.277333-20.48-1.820444-1.251556-4.892444-2.958222-6.826667-3.982222-1.820444-0.910222-8.078222-5.233778-13.880889-9.443556-23.438222-17.294222-37.432889-30.264889-56.092444-52.110222-6.940444-7.964444-22.186667-29.013333-24.234667-33.450667-0.455111-0.910222-1.820444-3.299556-3.072-5.12-4.892444-7.623111-20.48-38.229333-20.48-40.277333 0-0.568889-0.682667-2.844444-1.592889-4.892444-0.910222-2.048-2.389333-5.575111-3.413333-7.964445-1.024-2.275556-1.820444-4.892444-1.820445-5.916444 0-0.910222-0.682667-3.413333-1.592889-5.461334-3.072-7.281778-5.006222-15.587556-10.126222-42.439111-5.347556-27.989333-5.461333-68.380444-0.227555-95.573333 5.461333-28.444444 7.281778-36.181333 10.353777-43.576889 0.910222-2.048 1.592889-4.551111 1.592889-5.461333 0-1.024 0.796444-3.640889 1.820445-5.916445 1.024-2.389333 2.503111-5.916444 3.413333-7.964444 0.910222-2.048 1.592889-4.323556 1.592889-4.892445 0-2.048 15.587556-32.654222 20.48-40.277333 1.251556-1.934222 2.616889-4.209778 3.072-5.12 2.048-4.437333 17.294222-25.486222 24.234667-33.450667 18.659556-21.845333 32.654222-34.816 56.092444-52.110222 5.802667-4.209778 12.060444-8.533333 13.880889-9.443555 1.934222-1.024 5.006222-2.730667 6.826667-3.982223 7.964444-5.006222 38.229333-20.48 40.277333-20.48 0.568889 0 2.844444-0.682667 4.892444-1.592888 2.048-0.910222 5.575111-2.389333 7.964445-3.413334 2.275556-1.024 5.006222-1.820444 6.030222-1.820444 1.024 0 2.958222-0.568889 4.323556-1.365334 1.365333-0.682667 4.323556-1.706667 6.485333-2.161777 2.161778-0.455111 5.575111-1.365333 7.395555-1.934223 1.934222-0.682667 7.281778-1.934222 11.946667-2.844444s12.629333-2.503111 17.635556-3.527111c19.911111-3.868444 52.110222-5.12 75.093333-2.844445z" p-id="1361"></path><path d="M496.071111 254.862222c-4.096 0.455111-11.719111 1.137778-17.066667 1.592889-12.288 1.024-21.731556 3.072-44.032 9.329778-9.898667 2.844444-21.617778 7.281778-31.630222 11.946667-3.754667 1.706667-7.623111 3.413333-8.533333 3.868444-0.910222 0.341333-2.730667 1.251556-3.982222 2.048s-6.371556 3.754667-11.377778 6.826667c-12.629333 7.509333-12.288 7.281778-25.031111 16.611555-14.563556 10.922667-38.684444 35.043556-49.607111 49.607111-9.329778 12.743111-9.102222 12.401778-16.611556 25.031111-3.072 5.006222-6.030222 10.126222-6.826667 11.377778-0.796444 1.251556-1.706667 3.072-2.048 3.982222-0.455111 0.910222-2.161778 4.778667-3.868444 8.533334-5.12 10.808889-8.874667 21.048889-11.946667 31.857778-1.137778 3.754667-2.503111 8.533333-3.185777 10.695111-2.275556 7.395556-4.437333 18.887111-5.461334 28.558222-3.527111 35.498667-3.640889 37.319111-2.275555 50.289778 0.682667 7.054222 1.820444 17.180444 2.275555 22.528 1.024 9.671111 3.185778 21.162667 5.461334 28.558222 0.682667 2.161778 2.048 6.940444 3.185777 10.695111 2.844444 10.126222 7.168 21.731556 11.946667 31.857778 1.706667 3.754667 3.413333 7.623111 3.868444 8.533333 0.341333 0.910222 1.251556 2.730667 2.048 3.982222s3.754667 6.371556 6.826667 11.377778c7.509333 12.629333 7.281778 12.288 16.611556 25.031111 10.922667 14.563556 35.043556 38.684444 49.607111 49.607111 12.743111 9.329778 12.401778 9.102222 25.031111 16.611556 5.006222 3.072 10.126222 6.030222 11.377778 6.826667 1.251556 0.796444 3.072 1.706667 3.982222 2.048 0.910222 0.455111 4.778667 2.161778 8.533333 3.868444 10.695111 5.006222 21.048889 8.874667 31.630222 11.946667 22.528 6.371556 28.444444 7.736889 39.480889 8.647111 5.347556 0.568889 15.701333 1.592889 23.096889 2.275555 10.24 1.024 16.384 1.024 26.737778 0 7.281778-0.682667 17.635556-1.706667 22.983111-2.275555 11.036444-0.910222 16.952889-2.275556 39.594667-8.647111 10.126222-2.958222 21.162667-7.054222 31.516444-11.946667 3.754667-1.706667 7.623111-3.413333 8.533334-3.868444 0.910222-0.341333 2.730667-1.251556 3.982222-2.048s6.371556-3.754667 11.377778-6.826667c12.629333-7.509333 12.288-7.281778 25.031111-16.611556 14.563556-10.922667 38.684444-35.043556 49.607111-49.607111 9.329778-12.743111 9.102222-12.401778 16.611555-25.031111 3.072-5.006222 6.030222-10.126222 6.826667-11.377778 0.796444-1.251556 1.706667-3.072 2.048-3.982222 0.455111-0.910222 2.161778-4.778667 3.868444-8.533333 5.12-10.808889 8.874667-21.048889 11.946667-31.857778 1.137778-3.754667 2.503111-8.533333 3.185778-10.695111 2.275556-7.395556 4.437333-18.887111 5.461333-28.558222 0.455111-5.347556 1.592889-15.473778 2.275556-22.528 1.365333-12.970667 1.251556-14.791111-2.275556-50.289778-1.024-9.671111-3.185778-21.162667-5.461333-28.558222-0.682667-2.161778-2.048-6.940444-3.185778-10.695111-3.072-10.808889-6.826667-21.048889-11.946667-31.857778-1.706667-3.754667-3.413333-7.623111-3.868444-8.533334-0.341333-0.910222-1.251556-2.730667-2.048-3.982222s-3.754667-6.371556-6.826667-11.377778c-7.509333-12.629333-7.281778-12.288-16.611555-25.031111-10.922667-14.563556-35.043556-38.684444-49.607111-49.607111-12.743111-9.329778-12.401778-9.102222-25.031111-16.611555-5.006222-3.072-10.126222-6.030222-11.377778-6.826667-1.251556-0.796444-3.072-1.706667-3.982222-2.048-0.910222-0.455111-4.778667-2.161778-8.533334-3.868444-10.353778-4.892444-21.390222-8.988444-31.516444-11.946667-23.096889-6.485333-32.768-8.647111-39.367111-8.647111-3.072 0-8.078222-0.455111-11.150223-1.024-8.192-1.592889-31.744-2.275556-40.277333-1.251556z m41.528889 37.660445c3.754667 0.682667 9.671111 1.592889 13.084444 2.161777 11.491556 1.820444 26.510222 6.030222 36.864 10.353778 4.323556 1.820444 8.305778 3.299556 8.874667 3.299556 1.024 0 18.773333 8.760889 25.941333 12.743111 28.672 15.928889 64.625778 51.882667 80.554667 80.554667 3.982222 7.168 12.743111 24.917333 12.743111 25.941333 0 0.568889 1.479111 4.551111 3.299556 8.874667 4.323556 10.353778 8.533333 25.372444 10.353778 36.864 0.568889 3.413333 1.479111 9.329778 2.161777 13.084444 1.592889 8.874667 1.592889 44.600889 0 53.475556-0.682667 3.754667-1.592889 9.671111-2.161777 13.084444-1.820444 11.491556-6.030222 26.510222-10.353778 36.864-1.820444 4.323556-3.299556 8.305778-3.299556 8.874667 0 1.024-8.760889 18.773333-12.743111 25.941333-15.928889 28.672-51.882667 64.625778-80.554667 80.554667-7.168 3.982222-24.917333 12.743111-25.941333 12.743111-0.568889 0-4.551111 1.479111-8.874667 3.299555-10.353778 4.323556-25.372444 8.533333-36.864 10.353778-3.413333 0.568889-9.329778 1.479111-13.084444 2.161778-8.874667 1.592889-44.600889 1.592889-53.475556 0-3.754667-0.682667-9.671111-1.592889-13.084444-2.161778-11.491556-1.820444-26.510222-6.030222-36.864-10.353778-4.323556-1.820444-8.305778-3.299556-8.874667-3.299555-1.024 0-18.773333-8.760889-25.941333-12.743111-28.672-15.928889-64.625778-51.882667-80.554667-80.554667-3.982222-7.168-12.743111-24.917333-12.743111-25.941333 0-0.568889-1.479111-4.551111-3.299555-8.874667-4.323556-10.353778-8.533333-25.372444-10.353778-36.864-0.568889-3.413333-1.479111-9.329778-2.161778-13.084444-1.592889-8.874667-1.592889-44.600889 0-53.475556 0.682667-3.754667 1.592889-9.671111 2.161778-13.084444 1.820444-11.491556 6.030222-26.510222 10.353778-36.864 1.820444-4.323556 3.299556-8.305778 3.299555-8.874667 0-1.024 8.760889-18.773333 12.743111-25.941333 15.928889-28.672 51.882667-64.625778 80.554667-80.554667 7.168-3.982222 24.917333-12.743111 25.941333-12.743111 0.568889 0 4.551111-1.479111 8.874667-3.299556 10.353778-4.323556 25.258667-8.533333 36.864-10.353778 3.413333-0.568889 8.874667-1.479111 11.946667-2.048 7.964444-1.479111 46.421333-1.592889 54.613333-0.113777z" p-id="1362"></path><path d="M515.640889 367.274667c-2.616889 2.503111-4.892444 4.664889-5.006222 4.892444 0 0.227556-0.455111 8.078222-0.796445 17.408l-0.682666 17.066667-7.964445 2.048c-4.323556 1.024-9.216 2.048-10.695111 2.048-1.479111 0-7.395556 2.389333-13.312 5.233778-12.288 6.144-24.917333 17.521778-28.899556 26.396444-1.365333 2.958222-3.299556 6.826667-4.323555 8.760889-1.592889 2.844444-1.934222 6.712889-1.934222 22.186667 0 19.456 0 19.114667 5.233777 28.444444 0.568889 0.910222 1.479111 2.730667 2.048 4.096 2.048 4.551111 22.528 20.935111 26.282667 20.935111 0.796444 0 2.730667 0.682667 4.323556 1.592889 4.664889 2.389333 11.491556 4.778667 19.569777 6.940444 4.096 1.024 8.988444 2.389333 10.808889 3.072 1.934222 0.568889 5.802667 1.592889 8.874667 2.048 14.222222 2.616889 35.271111 11.605333 40.049778 17.294223 5.12 6.144 5.233778 21.617778 0.113778 29.354666-6.144 9.329778-25.372444 14.791111-43.804445 12.401778-16.384-2.048-28.330667-6.371556-44.714667-16.611555-8.305778-5.12-13.880889-5.916444-19.797333-2.844445-5.347556 2.730667-7.281778 4.892444-10.126222 11.377778-2.048 4.778667-2.048 5.12 0 11.150222 2.730667 7.964444 6.826667 11.377778 23.324444 19.228445 4.664889 2.275556 10.012444 4.892444 11.719111 5.802666 1.820444 0.796444 4.323556 1.592889 5.461334 1.592889 1.251556 0 3.299556 0.568889 4.664889 1.251556 1.251556 0.682667 5.575111 1.706667 9.671111 2.275555 3.982222 0.568889 8.760889 1.820444 10.581333 2.730667l3.299556 1.706667 0.341333 16.270222c0.341333 14.904889 0.568889 16.497778 2.958222 19.569778 4.437333 5.575111 8.078222 7.395556 15.132445 7.395555 5.802667 0 6.826667-0.341333 11.491555-4.551111 2.844444-2.503111 5.575111-5.916444 6.030222-7.623111 0.455111-1.820444 1.137778-10.012444 1.479112-18.432 0.910222-17.066667 0.113778-15.701333 11.036444-19.000889 3.754667-1.137778 9.898667-3.640889 13.539556-5.461333 7.736889-3.982222 21.617778-16.952889 24.120888-22.528 0.910222-2.048 2.048-4.551111 2.616889-5.461334 4.437333-7.509333 5.233778-11.946667 5.12-28.444444 0-16.156444-0.113778-16.611556-3.754666-24.120889-2.048-4.209778-5.347556-9.784889-7.509334-12.288-3.640889-4.323556-13.425778-12.515556-15.018666-12.515556-0.341333 0-1.592889-0.682667-2.503111-1.479111-2.958222-2.503111-23.665778-10.581333-30.833778-12.060444-2.161778-0.455111-5.12-1.479111-6.485334-2.161778-1.365333-0.796444-3.640889-1.365333-5.006222-1.365333-1.251556 0-4.778667-0.682667-7.736889-1.592889-24.120889-7.509333-28.216889-8.988444-29.923555-10.695111-0.796444-0.796444-1.934222-1.365333-2.616889-1.365334-2.161778 0-7.736889-6.599111-9.329778-11.036444-4.323556-12.629333 0.910222-24.576 13.767111-31.402667 4.209778-2.161778 6.371556-2.503111 20.593778-2.389333 17.976889 0 21.390222 0.796444 38.684444 9.102222 8.305778 4.096 11.377778 5.006222 16.497778 5.006222 5.688889 0 6.712889-0.455111 11.719111-4.664888l5.347556-4.664889v-17.749334l-5.916445-5.233777c-3.299556-2.844444-6.485333-5.233778-7.054222-5.233778s-3.413333-1.137778-6.144-2.389334c-2.730667-1.365333-8.988444-3.868444-13.767111-5.575111l-8.647111-3.072-0.682667-15.815111c-0.796444-17.066667-1.365333-20.024889-4.664889-24.348444-3.982222-5.12-7.850667-6.826667-15.246222-6.826667-6.485333 0-7.168 0.341333-11.605333 4.323556z" p-id="1363"></path></svg>