<?xml version="1.0" standalone="no"?><!DOCTYPE svg PUBLIC "-//W3C//DTD SVG 1.1//EN" "http://www.w3.org/Graphics/SVG/1.1/DTD/svg11.dtd"><svg t="1522399699492" class="icon" style="" viewBox="0 0 1024 1024" version="1.1" xmlns="http://www.w3.org/2000/svg" p-id="1250" xmlns:xlink="http://www.w3.org/1999/xlink" width="200" height="200"><defs><style type="text/css"></style></defs><path d="M354.986667 209.237333c-4.778667 0.796444-15.473778 6.144-19.228445 9.557334-4.437333 4.209778-12.629333 15.246222-12.629333 17.294222 0 1.024-0.682667 2.958222-1.365333 4.323555-1.137778 1.820444-1.592889 13.425778-2.048 42.325334l-0.568889 39.822222-79.075556 0.568889c-56.092444 0.455111-79.872 0.910222-82.033778 1.934222-3.072 1.365333-8.988444 8.419556-8.988444 10.581333 0 0.796444-0.796444 3.754667-1.706667 6.712889-0.910222 2.844444-2.389333 9.102222-3.299555 13.767111-0.910222 4.664889-2.275556 11.377778-2.958223 14.791112-1.934222 9.102222-2.844444 19.228444-2.503111 24.689777 0.341333 3.982222 1.251556 5.802667 5.461334 10.012445l5.233777 5.12h9.443556c6.144 0 9.784889 0.455111 10.467556 1.365333 1.820444 2.389333 3.754667 11.605333 3.754666 18.204445 0.113778 3.299556 0.796444 9.102222 1.706667 12.856888 0.910222 3.754667 1.706667 10.353778 1.706667 14.791112 0 4.323556 0.796444 11.264 1.706666 15.36 0.910222 4.096 1.592889 9.671111 1.706667 12.515555 0 2.844444 0.568889 6.940444 1.251555 9.102222 0.682667 2.161778 1.592889 8.533333 2.161778 14.222223 1.365333 14.222222 3.299556 30.492444 4.664889 39.253333 0.682667 4.096 1.592889 12.060444 2.048 17.749333 0.568889 5.802667 1.365333 11.036444 1.706667 11.719111 0.455111 0.682667 1.251556 7.168 1.820444 14.563556 0.910222 12.515556 1.479111 16.839111 4.778667 37.319111 0.682667 4.323556 1.592889 11.832889 2.048 16.497778 1.137778 11.605333 3.299556 28.558222 4.664889 37.546666 0.682667 4.096 1.592889 12.060444 2.048 17.749334 0.568889 5.802667 1.365333 11.036444 1.820444 11.832889 0.455111 0.682667 1.251556 7.281778 1.706667 14.563555 0.568889 7.281778 1.592889 16.839111 2.275555 21.276445 0.682667 4.323556 1.820444 11.491556 2.503112 15.928889 0.682667 4.323556 1.592889 12.060444 2.161777 17.066666 2.048 22.300444 4.209778 28.672 11.150223 32.768 3.072 1.820444 24.234667 1.934222 294.343111 2.161778 280.917333 0.341333 291.384889 0.227556 297.984-1.820444 7.964444-2.389333 18.090667-7.395556 26.396444-12.856889 5.006222-3.299556 7.964444-6.030222 16.270222-15.018667 2.616889-2.844444 9.102222-12.629333 9.102223-13.767111 0-0.455111 0.682667-2.389333 1.592888-4.209778 4.778667-9.784889 5.233778-13.880889 5.233778-46.762667v-31.857777l-5.233778-5.233778-5.233777-5.233778h-37.660445l0.796445-4.892444c2.730667-17.635556 1.592889-28.672-3.982223-39.367111-1.820444-3.413333-2.958222-6.712889-2.389333-7.509334 0.455111-0.796444 6.940444-7.850667 14.449778-15.815111l13.653333-14.336h6.485334c7.395556 0 12.629333-2.503111 16.611555-7.964444 2.616889-3.413333 2.616889-3.868444 2.161778-31.061334-0.568889-34.133333-1.706667-39.367111-14.222222-58.823111-4.323556-6.599111-20.707556-23.438222-24.689778-25.144889-1.251556-0.568889-3.754667-2.048-5.688889-3.299555-1.820444-1.251556-4.209778-2.616889-5.12-2.958222-0.910222-0.341333-3.185778-1.365333-5.12-2.161778-6.371556-2.730667-15.928889-5.006222-25.486222-6.257778-6.144-0.682667-61.212444-1.137778-152.576-1.137778-116.849778 0-143.36-0.227556-144.270222-1.479111-0.910222-1.024-0.910222-3.413333-0.227556-7.736889 0.682667-3.413333 1.592889-11.036444 2.275556-16.952889 0.568889-5.916444 1.820444-13.425778 2.616888-16.497777l1.479112-5.688889 9.102222-0.568889c10.581333-0.682667 15.018667-3.185778 18.773333-10.467556 3.072-6.030222 2.389333-16.156444-2.503111-35.612444-0.682667-2.503111-1.592889-7.168-2.161778-10.24-0.455111-3.185778-1.479111-7.168-2.161778-8.874667-0.682667-1.820444-1.251556-4.551111-1.251555-6.257778-0.113778-3.982222-5.461333-11.719111-9.671111-13.880889-2.958222-1.479111-15.132444-1.820444-81.92-2.275555l-78.506667-0.568889-0.341333-35.953778c-0.227556-35.271111-0.227556-35.953778 2.161778-38.115555 2.161778-1.934222 4.892444-2.275556 26.510222-2.844445 13.198222-0.455111 25.713778-1.137778 27.761778-1.706666 2.048-0.568889 5.461333-2.730667 7.623111-4.892445 3.868444-3.754667 3.982222-4.096 3.982222-12.629333s-0.113778-8.874667-3.982222-12.629334c-2.161778-2.161778-5.12-4.209778-6.485334-4.664888-3.299556-0.910222-54.727111-0.796444-60.074666 0.113777z m139.946666 155.534223c1.251556 2.958222 2.275556 6.030222 2.275556 6.826666 0 1.365333-25.258667 1.592889-157.582222 1.820445-86.698667 0.227556-158.151111 0.113778-158.72 0-2.161778-0.796444-1.251556-9.216 1.137777-11.605334 2.275556-2.275556 3.754667-2.275556 156.444445-2.275555h154.055111l2.389333 5.233778zM467.968 415.288889c-0.796444 19.911111-4.778667 43.576889-7.281778 44.145778-0.910222 0.113778-6.940444 1.024-13.539555 1.820444-16.497778 2.275556-26.055111 5.233778-34.702223 10.922667-1.820444 1.251556-4.323556 2.616889-5.347555 2.958222-1.137778 0.455111-2.048 1.024-2.048 1.479111s-2.503111 2.616889-5.461333 4.892445c-7.623111 5.575111-18.318222 19.342222-23.438223 29.696-7.395556 15.246222-7.850667 17.749333-8.305777 48.696888l-0.455112 27.989334 5.916445 5.347555 5.802667 5.233778h16.156444c8.760889 0 16.611556 0.455111 17.180444 0.910222 0.682667 0.455111 1.137778 3.072 1.251556 5.916445 0.113778 7.623111 2.048 11.036444 8.419556 15.018666l5.802666 3.527112-2.844444 2.958222c-8.078222 8.760889-13.084444 25.144889-11.491556 38.001778 0.455111 3.868444 0.910222 8.874667 1.024 11.036444l0.113778 3.982222-18.204444 0.568889c-19.797333 0.568889-21.504 1.137778-26.510223 7.850667-2.389333 3.299556-2.503111 4.323556-2.503111 34.816 0 28.216889 0.227556 31.971556 2.275556 38.001778 2.958222 8.874667 4.664889 12.856889 6.599111 15.132444 0.910222 1.024 1.024 2.048 0.455111 2.503111-0.796444 0.455111-96.938667 1.024-120.490667 0.682667-0.910222 0-1.479111-1.479111-1.479111-3.754667-0.113778-1.934222-0.796444-6.712889-1.706666-10.467555-0.910222-3.754667-1.706667-9.443556-1.706667-12.515556 0-3.185778-0.796444-8.760889-1.706667-12.515556s-1.706667-9.102222-1.706666-11.946666-0.796444-9.216-1.706667-14.222222-1.592889-11.946667-1.706667-15.36c0-3.413333-0.568889-8.078222-1.251555-10.24-0.568889-2.161778-1.592889-8.647111-2.048-14.222223-1.251556-12.856889-3.299556-29.468444-4.778667-39.822222-0.682667-4.437333-1.706667-12.401778-2.161778-17.863111-0.455111-5.347556-1.251556-10.353778-1.592889-11.036444-0.455111-0.682667-1.251556-5.916444-1.820444-11.719112-2.275556-24.007111-3.640889-34.929778-5.233778-43.008-0.910222-4.778667-1.592889-11.150222-1.592889-14.222222 0-3.185778-0.568889-7.509333-1.137778-9.671111-0.682667-2.161778-1.479111-8.647111-1.820444-14.222222-0.341333-5.688889-1.365333-13.653333-2.275556-17.863111-0.910222-4.209778-1.592889-10.126222-1.592888-13.084445 0-2.958222-0.796444-8.533333-1.706667-12.288-0.910222-3.754667-1.706667-9.443556-1.706667-12.515555 0-3.185778-0.568889-7.736889-1.137778-10.24-1.365333-6.144-3.527111-33.564444-2.730666-34.816 0.341333-0.568889 53.589333-0.910222 129.365333-0.796445l128.796445 0.341334-0.227556 3.982222zM802.133333 498.574222c21.048889 6.030222 37.205333 23.893333 39.936 44.259556 0.682667 4.323556 1.024 10.126222 0.796445 12.743111l-0.341334 4.778667h-438.044444l0.113778-9.671112c0.113778-15.701333 5.575111-28.558222 16.497778-38.798222 9.216-8.647111 17.976889-12.401778 35.157333-15.132444 1.592889-0.227556 78.620444-0.341333 171.235555-0.227556 149.504 0.227556 169.073778 0.455111 174.648889 2.048z m-26.168889 126.407111c0 1.137778-5.233778 7.509333-11.719111 14.222223-13.539556 14.108444-23.096889 24.234667-35.84 37.774222l-9.102222 9.671111-5.006222-2.503111c-2.616889-1.365333-7.736889-4.096-11.150222-6.144-3.413333-1.934222-8.533333-4.778667-11.377778-6.371556-2.844444-1.479111-8.192-4.551111-11.946667-6.712889-3.754667-2.048-9.329778-5.12-12.515555-6.826666-3.072-1.592889-7.168-3.868444-9.102223-5.006223-1.820444-1.137778-5.916444-3.527111-9.102222-5.12-3.072-1.592889-8.760889-4.778667-12.515555-6.826666-3.754667-2.161778-7.850667-4.437333-9.216-5.006222-6.712889-2.958222-14.108444-8.419556-14.108445-10.353778 0-1.137778 0.568889-2.275556 1.137778-2.503111 0.682667-0.227556 37.205333-0.341333 81.351111-0.341334 76.117333 0 80.213333 0.113778 80.213333 2.048z m-208.782222 19.911111c2.503111 1.479111 6.144 3.527111 7.964445 4.664889 1.934222 1.137778 7.509333 4.209778 12.515555 6.940445 5.006222 2.730667 10.922667 5.916444 13.084445 7.168 2.161778 1.251556 7.281778 3.982222 11.377777 6.257778 8.988444 4.778667 8.305778 4.209778 7.509334 6.712888-0.682667 2.161778-3.072 2.161778-77.255111 2.048-72.021333 0-76.686222-0.227556-80.782223-2.161777-5.347556-2.616889-10.808889-9.102222-11.719111-13.994667-1.479111-7.623111 7.623111-18.204444 16.952889-19.797333 2.616889-0.455111 25.258667-0.682667 50.289778-0.568889 45.397333 0.113778 45.511111 0.113778 50.062222 2.730666z m141.198222 78.165334c7.281778 4.096 10.012444 5.12 14.563556 5.12 6.030222 0 11.605333-2.730667 15.36-7.509334l2.161778-2.730666 51.086222 0.227555 50.972444 0.341334-0.113777 16.497777c-0.113778 15.018667-0.341333 16.952889-2.844445 21.617778-5.802667 11.036444-18.887111 20.821333-32.085333 23.779556-3.754667 0.910222-58.823111 1.251556-183.523556 1.251555-196.608 0-187.733333 0.341333-199.224889-7.054222-7.623111-5.006222-14.563556-12.401778-17.521777-18.887111-1.934222-4.209778-2.503111-8.305778-2.958223-19.797333-0.341333-7.964444-0.341333-15.246222 0-16.156445 0.682667-1.592889 15.587556-1.820444 148.024889-1.820444h147.228445l8.874666 5.12z" p-id="1251"></path></svg>