<svg width="20px" height="19px" viewBox="0 0 20 19" version="1.1" xmlns="http://www.w3.org/2000/svg">
    <g id="" stroke="none" stroke-width="1"  fill-rule="evenodd">
        <g id="5-2-552" transform="translate(-376.000000, -335.000000)" fill-rule="nonzero">
            <g id="Group-10" transform="translate(373.000000, 335.000000)">
                <g id="Group-4">
                    <g id="awef" transform="translate(3.000000, 0.000000)">
                        <path d="M18.3669676,10.9473346 C17.9821754,10.9473346 17.66766,11.2631279 17.6656037,11.6560095 L17.6656037,16.7844735 C17.6656037,17.2134108 17.3207519,17.5625277 16.8967935,17.5625277 L2.19297203,17.5625277 C1.76896522,17.5625277 1.42416184,17.2133864 1.42416184,16.7844735 L1.42416184,4.00873696 C1.42416184,3.57979961 1.76898943,3.23068271 2.19297203,3.23068271 L9.07786322,3.23068271 C9.46330856,3.22997525 9.77717083,2.91210835 9.77717083,2.52205666 C9.77717083,2.1312731 9.46330853,1.81338181 9.07716165,1.81338181 L2.09521362,1.81338181 C0.95198948,1.81338181 0.0214098109,2.753858 0.0214098109,3.90947369 L0.0214098109,16.8830049 C0.0214098109,18.0386206 0.95198948,18.9790968 2.09521362,18.9790968 L16.9945035,18.9790968 C18.1377276,18.9790968 19.0682831,18.0386206 19.0682831,16.8830049 L19.0682831,11.6518135 C19.0662268,11.2631279 18.7517113,10.9473346 18.3669676,10.9473346 Z" id="Shape"></path>
                        <path d="M19.9011527,5.10599983 L19.9011527,5.09841299 L15.0845496,0.226755178 L14.9324084,0.0775309423 L14.9131519,0.0976568294 C14.806491,0.037279192 14.6860408,0.00532174028 14.5614539,0.00532174028 C14.160163,0.00532174028 13.8339146,0.335020206 13.8339146,0.740343201 C13.8339146,0.866660517 13.8655573,0.98812325 13.92548,1.09572962 L13.9041187,1.11792908 L17.2574424,4.50846864 L13.8159886,4.50983476 C8.21267355,5.21431363 6.83682265,8.71033719 6.43141922,14.1379571 C6.43141922,14.5433289 6.75766761,14.8729786 7.15891009,14.8729786 C7.48653742,14.8729786 7.76459608,14.65296 7.85545986,14.3510475 L7.88850563,14.1560094 C8.31456872,9.02269082 9.31806196,6.49002596 13.842164,5.98058511 L17.2574424,5.98058511 L14.0528006,9.22119295 L13.9227222,9.40581433 C13.8765887,9.50366269 13.852518,9.62305184 13.852518,9.73134126 C13.852518,10.1366642 14.1787422,10.4663627 14.5800089,10.4663627 C14.6942418,10.4663627 14.8202076,10.4386012 14.9213771,10.3858592 L19.8807108,5.40535091 C19.9246912,5.37422288 19.9785902,5.2974762 19.9785902,5.23917214 C19.978566,5.18086808 19.9451331,5.13712784 19.9011527,5.10599983 Z" id="Shape"></path>
                    </g>
                </g>
            </g>
        </g>
    </g>
</svg>