<?xml version="1.0" standalone="no"?><!DOCTYPE svg PUBLIC "-//W3C//DTD SVG 1.1//EN" "http://www.w3.org/Graphics/SVG/1.1/DTD/svg11.dtd"><svg t="1583812682198" class="icon" viewBox="0 0 1024 1024" version="1.1" xmlns="http://www.w3.org/2000/svg" p-id="995" xmlns:xlink="http://www.w3.org/1999/xlink" width="200" height="200"><defs><style type="text/css"></style></defs><path d="M870.72 391.36c22.72 0 34.72-12.448 34.72-35.136V251.232c0-88.288-44.576-132.416-134.592-132.416h-104.576c-22.72 0-35.136 12.448-35.136 34.272 0 22.304 12.448 34.72 35.136 34.72h103.712c42.016 0 66.432 22.72 66.432 67.296v101.12c0 22.72 12.448 35.136 34.272 35.136z m-717.44 0c22.304 0 34.272-12.448 34.272-35.136v-101.12c0-44.576 24-67.296 66.848-67.296h103.712c22.304 0 34.72-12.448 34.72-34.72 0-21.856-12.448-34.272-34.72-34.272H253.12c-89.152 0-134.592 44.128-134.592 132.416v104.992c0 22.72 12.448 35.136 34.72 35.136z m99.84 513.856h105.024c22.304 0 34.72-12.448 34.72-34.272 0-22.304-12.448-34.72-34.72-34.72H254.432c-42.848 0-66.848-22.72-66.848-67.296v-101.152c0-22.72-12.448-35.136-34.272-35.136-22.72 0-34.72 12.448-34.72 35.136v104.544c0 88.736 45.44 132.864 134.592 132.864z m413.152 0h104.608c89.984 0 134.56-44.576 134.56-132.864v-104.544c0-22.72-12.448-35.136-34.72-35.136s-34.272 12.448-34.272 35.136v101.12c0 44.576-24.416 67.296-66.432 67.296h-103.712c-22.72 0-35.136 12.448-35.136 34.72 0 21.856 12.448 34.272 35.136 34.272z" p-id="996"></path></svg>