<?xml version="1.0" standalone="no"?><!DOCTYPE svg PUBLIC "-//W3C//DTD SVG 1.1//EN" "http://www.w3.org/Graphics/SVG/1.1/DTD/svg11.dtd"><svg t="1522399733176" class="icon" style="" viewBox="0 0 1024 1024" version="1.1" xmlns="http://www.w3.org/2000/svg" p-id="1913" xmlns:xlink="http://www.w3.org/1999/xlink" width="200" height="200"><defs><style type="text/css"></style></defs><path d="M506.993778 214.471111c-1.251556 0.910222-2.958222 1.706667-3.754667 1.706667-2.958222 0-9.216 8.078222-9.898667 12.856889-0.455111 2.503111-0.682667 28.330667-0.682666 57.457777 0 38.001778-0.341333 53.248-1.251556 54.385778-1.137778 1.365333-22.414222 1.592889-131.185778 1.592889-110.364444 0-130.958222 0.227556-137.784888 1.706667-4.437333 0.910222-9.898667 1.706667-12.401778 1.706666-3.868444 0-8.533333 1.137778-19.456 4.778667-1.820444 0.682667-4.664889 1.365333-6.257778 1.706667-1.592889 0.341333-4.437333 1.251556-6.485333 2.161778-1.934222 0.910222-4.437333 1.592889-5.461334 1.592888-1.024 0-3.299556 0.682667-4.892444 1.592889-1.706667 0.910222-8.192 3.982222-14.449778 6.940445-6.257778 2.844444-12.174222 5.688889-13.084444 6.257778-6.940444 3.982222-21.276444 13.198222-22.186667 14.336-0.568889 0.682667-3.413333 2.730667-6.257778 4.664888-5.347556 3.527111-14.222222 11.150222-22.755555 19.683556-7.850667 7.850667-20.935111 22.869333-21.731556 24.917333-0.455111 1.024-2.048 3.185778-3.527111 4.778667-1.592889 1.706667-3.185778 3.754667-3.640889 4.551111-0.455111 0.910222-1.365333 2.616889-2.161778 3.868445-3.640889 5.916444-7.168 11.719111-8.419555 13.653333-1.592889 2.616889-8.988444 17.749333-11.150222 22.755555-4.437333 10.24-5.12 12.174222-5.12 13.767112 0 1.024-0.682667 3.185778-1.592889 4.778666-3.072 6.144-8.647111 29.240889-8.647111 36.181334 0 2.503111-0.796444 5.575111-1.706667 6.826666-2.389333 3.185778-2.389333 58.026667 0 61.212445 0.910222 1.251556 1.706667 4.323556 1.706667 6.826666 0 4.664889 2.503111 17.408 4.778666 24.007111 0.568889 1.820444 1.365333 4.664889 1.706667 6.257778 0.227556 1.592889 1.137778 4.323556 2.048 6.257778 2.275556 5.347556 4.209778 11.150222 4.778667 14.449778 0.341333 1.706667 1.251556 3.754667 2.161777 4.437333 0.910222 0.682667 1.592889 1.820444 1.592889 2.503111 0 0.682667 1.820444 4.778667 4.096 9.216 4.437333 8.874667 5.233778 10.24 9.898667 17.521778 1.706667 2.730667 3.072 5.12 3.072 5.461333 0 0.341333 2.275556 3.527111 4.892444 7.054223 2.730667 3.527111 5.233778 7.054222 5.461334 7.850666 0.455111 1.251556 15.587556 18.318222 21.504 24.234667 8.305778 8.305778 19.342222 17.749333 24.234666 20.707555 2.958222 1.934222 5.347556 3.754667 5.347556 4.323556 0 0.455111 0.910222 1.137778 1.934222 1.592889 1.137778 0.341333 5.916444 3.185778 10.581333 6.371555 4.664889 3.072 9.329778 6.030222 10.24 6.371556 2.275556 1.024 10.353778 4.892444 12.515556 6.030222 1.592889 0.910222 3.527111 1.820444 13.994667 6.257778 2.389333 1.024 5.12 1.820444 6.030222 1.820444 1.024 0 3.185778 0.682667 4.778667 1.592889 5.233778 2.616889 10.808889 4.323556 17.635555 5.347556 3.640889 0.568889 7.623111 1.479111 8.760889 2.161778 1.137778 0.568889 4.437333 1.137778 7.168 1.137777 2.844444 0 7.281778 0.796444 9.898667 1.706667 6.940444 2.389333 54.954667 2.389333 63.032889 0 3.072-0.910222 7.168-1.706667 9.102222-1.706667 3.640889 0 16.952889-2.730667 22.869333-4.778666 1.934222-0.682667 5.006222-1.479111 6.826667-1.820445 1.934222-0.227556 4.437333-1.251556 5.688889-2.048 1.251556-0.910222 3.299556-1.592889 4.778666-1.592889 1.365333 0 2.730667-0.455111 3.185778-1.024 0.341333-0.568889 2.275556-1.479111 4.323556-1.820444 3.299556-0.796444 7.281778-2.503111 12.174222-5.233778 0.910222-0.568889 2.275556-1.251556 2.844444-1.479111 0.682667-0.227556 1.934222-0.796444 2.844445-1.137778 0.910222-0.341333 2.503111-1.137778 3.413333-1.706666 0.910222-0.568889 2.503111-1.365333 3.413333-1.820445 1.820444-0.682667 3.868444-1.934222 11.036445-6.599111 2.730667-1.706667 5.12-3.072 5.461333-3.072 0.910222 0 14.336-10.353778 22.755556-17.521778 9.216-7.850667 23.324444-22.186667 27.648-27.989333 1.706667-2.161778 4.209778-5.233778 5.688889-6.826667 1.479111-1.479111 3.982222-5.006222 5.575111-7.623111l2.844444-4.892444H577.422222l2.389334 2.616889c1.251556 1.365333 4.778667 5.802667 7.850666 9.898666 7.509333 10.126222 36.522667 38.912 43.690667 43.235556 3.185778 2.048 5.802667 4.096 5.802667 4.664889 0 0.568889 0.568889 1.024 1.137777 1.024 1.365333 0 8.305778 4.664889 8.874667 5.916444 0.227556 0.568889 0.910222 0.910222 1.592889 0.910222 0.682667 0 3.413333 1.479111 6.257778 3.413334 2.730667 1.820444 5.688889 3.413333 6.485333 3.413333 0.910222 0 2.161778 0.796444 2.958222 1.706667 0.796444 0.910222 2.275556 1.706667 3.413334 1.706666s2.616889 0.796444 3.413333 1.706667c0.796444 0.910222 2.048 1.706667 2.844444 1.706667 0.910222 0 2.958222 0.682667 4.778667 1.592889 6.371556 3.185778 11.832889 5.233778 13.767111 5.233777 1.137778 0 3.072 0.796444 4.323556 1.706667 1.137778 0.910222 3.413333 1.706667 5.006222 1.706667 1.592889 0 3.868444 0.796444 5.006222 1.706666 1.251556 0.910222 3.754667 1.706667 5.575111 1.706667 1.820444 0 6.371556 0.682667 10.24 1.592889 17.863111 4.209778 21.731556 4.551111 47.331556 5.006222 21.276444 0.227556 27.761778 0 32.540444-1.479111 3.299556-0.910222 7.850667-1.706667 10.012445-1.706667 2.275556 0 5.461333-0.568889 7.281777-1.251555 1.706667-0.682667 5.802667-1.706667 8.874667-2.161778 3.185778-0.455111 7.509333-1.479111 9.671111-2.275555 14.108444-5.12 21.276444-7.850667 25.6-9.671112 6.257778-2.730667 20.48-9.784889 23.552-11.719111 1.592889-1.024 5.461333-3.413333 8.533334-5.233777 19.456-11.605333 45.056-35.498667 61.781333-57.457778 5.575111-7.509333 10.24-13.994667 10.24-14.336 0-0.341333 1.365333-2.730667 3.072-5.461334 4.664889-7.168 5.916444-9.216 6.599111-11.036444 0.455111-0.910222 1.251556-2.503111 1.820444-3.413333 0.568889-0.910222 1.365333-2.503111 1.706667-3.413334 0.341333-0.910222 1.365333-3.072 2.275556-4.778666 0.910222-1.592889 1.592889-3.754667 1.592889-4.664889 0-0.910222 0.682667-2.275556 1.592888-2.958222 0.910222-0.682667 1.820444-2.730667 2.161778-4.437334 0.568889-3.413333 2.503111-9.102222 4.778667-14.449778 0.910222-1.934222 1.820444-5.006222 2.048-6.826666 0.341333-1.934222 1.024-5.006222 1.706667-6.826667 1.820444-5.233778 3.868444-16.156444 4.778666-26.168889 0.568889-5.006222 1.479111-11.377778 2.161778-14.222222 1.706667-7.395556 1.479111-29.013333-0.455111-36.977778-0.910222-3.754667-1.592889-9.671111-1.706667-13.084444 0-3.413333-0.796444-8.760889-1.706666-11.832889s-1.706667-7.395556-1.706667-9.671111c-0.113778-2.275556-0.796444-5.347556-1.706667-6.940445-0.910222-1.592889-1.592889-3.982222-1.706666-5.347555 0-1.365333-0.682667-3.868444-1.592889-5.688889-2.048-4.209778-4.209778-10.467556-4.892445-14.222222-0.341333-1.706667-1.251556-3.754667-2.161778-4.437334-0.910222-0.682667-1.592889-2.048-1.592888-2.844444 0-0.910222-1.479111-4.551111-3.299556-8.078222-1.820444-3.640889-3.640889-7.395556-3.982222-8.305778-0.341333-0.910222-1.706667-3.299556-2.958222-5.12-1.251556-1.934222-2.730667-4.437333-3.413334-5.688889-2.503111-4.778667-8.078222-13.312-9.216-14.222222-0.455111-0.341333-1.934222-2.389333-3.413333-4.664889-7.281778-10.695111-32.654222-37.205333-42.552889-44.373333-12.629333-9.102222-28.216889-19.114667-35.84-23.096889-16.497778-8.533333-26.737778-13.198222-29.240889-13.198223-1.137778 0-3.527111-0.796444-5.347555-1.706666-1.706667-0.910222-4.323556-1.706667-5.688889-1.706667-1.365333 0-3.413333-0.682667-4.664889-1.592889-1.251556-0.796444-4.096-1.820444-6.257778-2.161778-2.161778-0.341333-6.030222-1.137778-8.533333-1.820444-15.018667-3.754667-23.438222-4.096-156.444445-4.664889l-132.551111-0.568889-0.568889-58.140444-0.568889-58.140445-3.299555-4.209777c-1.706667-2.389333-4.096-4.551111-5.12-4.892445-1.024-0.341333-3.413333-1.251556-5.461334-2.161778-4.437333-2.048-7.168-1.934222-9.898666 0.113778z m301.397333 170.439111c3.754667 1.137778 9.671111 2.844444 13.084445 3.754667 10.695111 2.958222 17.521778 5.12 21.048888 6.712889 1.934222 0.796444 5.461333 2.389333 7.964445 3.413333 2.503111 1.137778 5.347556 2.503111 6.257778 2.958222 0.910222 0.568889 2.730667 1.479111 4.096 2.048 3.527111 1.592889 17.408 10.126222 22.983111 14.222223 15.928889 11.605333 30.037333 25.258667 41.415111 40.163555 4.664889 6.144 8.874667 11.946667 9.216 12.856889 0.455111 0.910222 1.820444 3.185778 3.072 5.12 3.527111 5.347556 13.653333 26.396444 13.653333 28.330667 0 0.910222 0.455111 1.934222 1.024 2.275555 1.024 0.682667 4.551111 11.491556 7.281778 22.869334 4.892444 19.342222 5.347556 23.893333 5.347556 46.08s-1.251556 33.223111-5.12 45.624888c-0.910222 2.958222-1.706667 6.144-1.706667 7.168 0 1.934222-3.868444 13.994667-5.575111 17.521778-0.455111 1.024-1.706667 3.754667-2.616889 5.916445-1.706667 4.209778-9.784889 20.252444-11.719111 23.665777-11.719111 19.683556-30.378667 40.618667-48.583111 54.385778-6.030222 4.664889-11.264 8.419556-11.605334 8.419556-0.227556 0-3.072 1.706667-6.257777 3.868444s-10.24 6.030222-15.815112 8.647111c-5.461333 2.616889-11.150222 5.347556-12.743111 6.144-1.592889 0.796444-5.916444 2.275556-9.671111 3.413334s-8.305778 2.503111-10.24 3.185777c-1.820444 0.682667-5.461333 1.592889-7.964444 2.048-2.503111 0.455111-7.395556 1.479111-10.808889 2.161778-12.515556 2.389333-29.354667 3.868444-38.229333 3.185778-17.066667-1.365333-29.809778-2.844444-31.061334-3.640889-0.682667-0.341333-3.640889-1.137778-6.712889-1.706667-2.958222-0.455111-6.826667-1.365333-8.760889-2.048-1.820444-0.568889-6.257778-2.048-9.671111-3.072-3.413333-1.024-8.078222-2.730667-10.24-3.640888-11.832889-5.233778-23.438222-11.150222-28.558222-14.677334-3.185778-2.161778-6.030222-3.868444-6.371555-3.868444-0.227556 0-4.664889-3.185778-9.784889-7.054222-11.832889-8.874667-30.264889-27.534222-38.343111-38.912-12.174222-16.952889-15.36-20.593778-19.569778-21.959112-2.844444-0.910222-27.648-1.592889-84.081778-2.048-70.200889-0.682667-80.554667-0.568889-84.081778 0.910223-3.868444 1.706667-8.988444 6.485333-10.581333 9.898666-3.299556 7.054222-19.569778 27.648-28.899556 36.408889-17.749333 16.839111-30.037333 25.6-48.696889 34.588445-6.257778 2.958222-12.629333 6.030222-14.222222 6.826666-3.982222 2.048-17.863111 6.030222-33.564444 9.784889-5.461333 1.365333-15.246222 2.503111-33.905778 4.096-12.629333 1.137778-43.349333-2.730667-57.685333-7.168-18.659556-5.802667-19.456-6.144-32.426667-12.515555-11.150222-5.575111-17.749333-9.216-19.911111-11.150223-1.024-0.910222-2.275556-1.706667-2.730667-1.706666-2.048 0-20.48-15.246222-30.264889-25.031111-13.994667-13.994667-22.641778-25.258667-32.654222-42.666667-1.479111-2.616889-5.347556-10.581333-7.964444-16.497778-0.910222-2.161778-2.389333-5.233778-3.072-6.826666-0.796444-1.592889-2.275556-5.916444-3.413334-9.671112s-2.730667-9.102222-3.640889-11.946666c-0.910222-2.844444-1.592889-6.144-1.592888-7.281778 0-1.251556-0.682667-4.778667-1.592889-7.964444-4.096-14.563556-4.437333-50.858667-0.455111-66.673778 0.682667-2.844444 1.592889-7.395556 2.048-10.24 0.455111-2.844444 1.365333-6.712889 2.048-8.533334 0.682667-1.934222 2.048-6.485333 3.185777-10.24 1.137778-3.754667 2.616889-8.078222 3.299556-9.671111 0.796444-1.592889 2.161778-4.664889 3.072-6.826666 2.048-4.664889 6.712889-14.222222 8.305778-16.952889 0.682667-1.024 2.616889-4.437333 4.437333-7.509334 12.743111-21.731556 40.391111-49.379556 62.691556-62.691555 3.185778-1.820444 6.712889-3.982222 7.964444-4.778667 2.161778-1.251556 12.174222-6.144 21.617778-10.467555 5.802667-2.730667 14.108444-5.233778 34.133333-10.353778 3.185778-0.796444 9.557333-1.820444 14.222222-2.161778 4.664889-0.455111 135.509333-0.682667 290.702223-0.682667 266.695111 0.113778 282.510222 0.227556 288.995555 2.161778z" p-id="1914"></path><path d="M228.124444 499.712c-0.341333 0.796444-0.682667 10.922667-0.796444 22.528l-0.341333 21.048889-21.845334 0.341333-21.959111 0.227556v26.168889c0 25.031111 0.113778 26.168889 2.275556 27.306666 1.365333 0.796444 9.557333 1.251556 20.821333 1.137778 10.126222 0 19.114667-0.113778 19.797333 0 1.024 0 1.479111 5.575111 1.706667 21.845333l0.341333 21.959112 25.486223 0.341333c18.659556 0.227556 25.827556-0.113778 27.079111-1.137778 1.365333-1.137778 1.592889-5.006222 1.365333-21.845333l-0.341333-20.593778 21.162666-0.568889c12.856889-0.341333 21.731556-1.024 22.528-1.820444 0.796444-0.796444 1.024-9.784889 0.910223-26.737778l-0.341334-25.486222-21.617777-0.568889-21.617778-0.568889-0.568889-21.390222c-0.455111-17.294222-0.910222-21.617778-2.275556-22.414223-2.730667-1.706667-51.2-1.479111-51.768889 0.227556zM695.751111 527.473778c-0.682667 0.113778-4.209778 0.910222-7.964444 1.706666-13.994667 3.072-25.258667 12.743111-31.288889 26.737778-2.048 5.006222-2.389333 7.509333-1.934222 15.928889 0.455111 11.491556 1.934222 15.815111 7.850666 23.779556 4.892444 6.712889 10.922667 11.719111 17.976889 14.791111 7.736889 3.413333 27.079111 3.072 34.019556-0.568889 5.461333-2.958222 18.318222-14.336 18.318222-16.270222 0-0.682667 0.682667-2.048 1.479111-2.958223 0.910222-1.024 2.503111-5.802667 3.640889-10.581333 2.048-8.533333 2.048-8.874667 0-18.090667-3.072-13.198222-10.467556-22.983111-22.186667-29.354666-4.778667-2.503111-17.180444-5.802667-19.911111-5.12zM827.733333 527.587556c-21.048889 3.527111-34.929778 15.928889-38.570666 34.474666-1.592889 8.305778-1.592889 9.329778 1.024 22.983111 0.455111 2.389333 1.592889 4.892444 2.389333 5.575111 0.910222 0.682667 1.592889 1.820444 1.592889 2.389334 0 2.389333 13.425778 14.336 18.887111 16.839111 7.736889 3.640889 25.941333 3.982222 33.450667 0.568889 7.168-3.072 12.856889-7.623111 17.863111-14.563556 6.030222-8.192 7.509333-12.401778 7.964444-24.007111 0.455111-8.419556 0.113778-10.922667-1.934222-15.928889-6.940444-16.270222-19.000889-25.144889-38.684444-28.444444-0.910222-0.113778-2.730667-0.113778-3.982223 0.113778z" p-id="1915"></path></svg>