<?xml version="1.0" encoding="utf-8" ?>
<svg xmlns="http://www.w3.org/2000/svg" xmlns:xlink="http://www.w3.org/1999/xlink" width="22" height="15">
	
	<g clip-path="url(#clip_0)">
		<path stroke="none" transform="translate(0.503265 0.0933838)" d="M18.1605 8.46278C18.3299 8.59978 18.5304 8.67035 18.7391 8.67035C18.923 8.67035 19.1069 8.61223 19.266 8.50222C19.6214 8.2552 19.7701 7.80684 19.64 7.38547L19.1048 5.65846C19.0759 5.56505 19.1069 5.45919 19.1771 5.40729L20.5946 4.46283C20.9417 4.20752 21.0802 3.74255 20.9376 3.3108C20.8012 2.89773 20.452 2.62996 20.045 2.62996L18.3175 2.62996C18.1667 2.62996 18.1481 2.56561 18.1419 2.54278L17.6419 0.701599C17.522 0.278149 17.1687 0.00415147 16.7348 0C16.3133 0 15.9599 0.269846 15.8318 0.687069L15.3049 2.51994C15.2904 2.56561 15.2553 2.62996 15.1189 2.62996L13.4019 2.62996C12.9804 2.62996 12.6332 2.87905 12.4948 3.28174C12.3522 3.69274 12.4865 4.14317 12.8274 4.40264L14.2201 5.36163C14.2924 5.4156 14.3234 5.52353 14.2924 5.61694L13.7283 7.33565C13.5899 7.75495 13.7345 8.20746 14.0858 8.45863C14.2449 8.57487 14.4329 8.63506 14.623 8.63506C14.8255 8.63506 15.0218 8.56656 15.1892 8.43787L16.5798 7.36471C16.6087 7.34188 16.6439 7.32943 16.6811 7.32943C16.7182 7.32943 16.7554 7.34188 16.7864 7.36679L18.1605 8.46278ZM16.6831 6.51158C16.9021 6.51158 17.1191 6.58839 17.2906 6.72539L18.6647 7.82137C18.6895 7.84006 18.7122 7.85043 18.737 7.85043C18.7639 7.85043 18.7887 7.83798 18.8052 7.8276C18.8279 7.81307 18.9002 7.7508 18.8651 7.63248L18.3299 5.90547C18.1956 5.47372 18.3465 5.00668 18.7019 4.74513L20.1173 3.80482C20.1896 3.75086 20.1896 3.64499 20.1669 3.57234C20.1483 3.51837 20.1131 3.45403 20.045 3.45403L18.3196 3.45403C17.8506 3.45403 17.4848 3.19456 17.365 2.77526L16.865 0.934081C16.8381 0.840673 16.7844 0.828219 16.7327 0.826143C16.6769 0.826143 16.6335 0.861431 16.6129 0.934081L16.086 2.76488C15.9558 3.19248 15.5963 3.4561 15.1458 3.4561L13.3895 3.4561C13.3833 3.4561 13.375 3.45403 13.3688 3.45403C13.311 3.45403 13.2862 3.49139 13.2655 3.55574C13.2552 3.5848 13.2283 3.68651 13.3172 3.75293L14.7078 4.714C15.0632 4.98384 15.2037 5.45296 15.0632 5.88264L14.4991 7.60135C14.4619 7.71759 14.5342 7.78194 14.5569 7.79854C14.5714 7.80892 14.5962 7.82345 14.6251 7.82345C14.6478 7.82345 14.6726 7.81515 14.6974 7.79439L16.088 6.72123C16.2595 6.58216 16.4662 6.51158 16.6831 6.51158ZM2.04975 14.609C0.919493 14.609 0 13.6895 0 12.5582L0 4.69532C0 3.56404 0.919493 2.64656 2.04975 2.64656L10.9037 2.64656C11.131 2.64656 11.3149 2.8313 11.3149 3.05756C11.3149 3.28381 11.131 3.46856 10.9037 3.46856L2.04975 3.46856C1.37201 3.46856 0.822378 4.01863 0.822378 4.69532L0.822378 12.5603C0.822378 13.237 1.37407 13.787 2.04975 13.787L16.4765 13.787C17.1542 13.787 17.7039 13.237 17.7039 12.5603L17.7039 10.2645C17.7039 10.0383 17.8878 9.85352 18.115 9.85352C18.3423 9.85352 18.5262 10.0383 18.5262 10.2645L18.5262 12.5582C18.5262 13.6895 17.6067 14.609 16.4765 14.609L2.04975 14.609ZM2.62211 6.989C2.62211 7.21526 2.806 7.4 3.03329 7.4L11.5588 7.4C11.786 7.4 11.9699 7.21526 11.9699 6.989C11.9699 6.76275 11.786 6.57801 11.5588 6.57801L3.03329 6.57801C2.806 6.57801 2.62211 6.76275 2.62211 6.989ZM3.03329 10.6776C2.806 10.6776 2.62211 10.4928 2.62211 10.2666C2.62211 10.0403 2.806 9.8556 3.03329 9.8556L15.4929 9.8556C15.7202 9.8556 15.9041 10.0403 15.9041 10.2666C15.9041 10.4928 15.7202 10.6776 15.4929 10.6776L3.03329 10.6776Z" fill-rule="evenodd"/>
	</g>
	
	<g clip-path="url(#clip_1)">
		<path stroke="none" transform="translate(0.420624 0.0124512)" d="M15.8339 0.745189C15.9723 0.292679 16.3587 0 16.8174 0L16.8257 0C17.2906 0.00415147 17.6749 0.303057 17.8113 0.768022L18.3113 2.60505C18.3175 2.62996 18.3671 2.63411 18.4085 2.63411L20.1338 2.63411C20.578 2.63411 20.9582 2.92471 21.1049 3.37307C21.2579 3.84011 21.107 4.34036 20.731 4.61851L20.7268 4.62059L20.7227 4.62266L19.3135 5.55675C19.2701 5.58996 19.2515 5.65846 19.2701 5.71658L19.8053 7.44359C19.9478 7.90025 19.7846 8.38597 19.3982 8.65374C19.2246 8.77414 19.0263 8.83641 18.8238 8.83641C18.5986 8.83641 18.3754 8.75753 18.1936 8.61223L16.8216 7.51832C16.803 7.50379 16.7844 7.49756 16.7658 7.49756C16.7472 7.49756 16.7286 7.50379 16.7141 7.51624L15.3235 8.5894C15.1396 8.72847 14.9268 8.8032 14.7057 8.8032C14.497 8.8032 14.2945 8.73677 14.1189 8.61015C13.7387 8.33616 13.5816 7.84836 13.7304 7.39377L14.2945 5.67506C14.3131 5.61694 14.2966 5.54844 14.2532 5.51523L12.8626 4.55624L12.8584 4.55417L12.8564 4.55209C12.4886 4.27187 12.3439 3.78614 12.4968 3.33986C12.6456 2.90395 13.0237 2.63203 13.4845 2.63203L15.2037 2.63203C15.2904 2.63203 15.2987 2.6009 15.3049 2.58222L15.8339 0.745189ZM17.646 0.807461C17.5344 0.42345 17.2142 0.172286 16.8257 0.168135L16.8257 0.166059L16.8195 0.166059C16.4352 0.166059 16.1108 0.410996 15.995 0.792931L15.4681 2.62581C15.4227 2.77941 15.2822 2.79602 15.2078 2.79602L13.4845 2.79602C13.1002 2.79602 12.782 3.02435 12.6559 3.39175C12.5258 3.76746 12.6477 4.17846 12.9576 4.41509L14.3524 5.37616C14.4536 5.45296 14.4949 5.59619 14.4536 5.72488L13.8895 7.44359C13.7635 7.8276 13.8936 8.24067 14.216 8.47108C14.3648 8.57902 14.5363 8.63299 14.7057 8.63299C14.8855 8.63299 15.0652 8.57279 15.2202 8.4524L16.6108 7.37924C16.6563 7.34396 16.71 7.32735 16.7637 7.32735C16.8174 7.32735 16.8732 7.34603 16.9207 7.38339L18.2948 8.47938C18.4519 8.60393 18.6378 8.66827 18.8217 8.66827C18.987 8.66827 19.1523 8.61638 19.3011 8.51467C19.6255 8.28841 19.7639 7.87742 19.6441 7.49133L19.1089 5.76432C19.0676 5.63562 19.111 5.4924 19.2143 5.41767L20.6276 4.47944C20.9458 4.24488 21.0719 3.81936 20.9417 3.42081C20.8198 3.04303 20.4995 2.79809 20.1297 2.79809L18.4023 2.79809C18.2618 2.79809 18.175 2.74828 18.146 2.64864L17.646 0.807461ZM13.4473 3.4478C13.4577 3.4478 13.468 3.4478 13.4783 3.44987L15.2243 3.44987C15.6417 3.44987 15.9682 3.20079 16.0818 2.81677L16.6087 0.983899C16.6542 0.834446 16.7678 0.81784 16.8154 0.81784C16.867 0.821992 16.9786 0.83237 17.022 0.98805L17.522 2.82923C17.6336 3.21116 17.9683 3.4478 18.3981 3.4478L20.1235 3.4478C20.2516 3.4478 20.3053 3.57027 20.3239 3.62424C20.3549 3.7218 20.3549 3.86917 20.2412 3.9522L18.83 4.89043C18.5014 5.13122 18.3651 5.55882 18.487 5.95736L19.0221 7.68438C19.0635 7.82137 19.0015 7.92516 18.9292 7.97498C18.9023 7.99159 18.861 8.01234 18.8134 8.01234C18.7763 8.01234 18.7329 7.99989 18.6895 7.9646L17.3154 6.86861C17.1542 6.73784 16.9559 6.67349 16.7596 6.67349C16.5674 6.67349 16.3752 6.73576 16.2141 6.86031L14.8235 7.93346C14.7801 7.96668 14.7388 7.97913 14.7016 7.97913C14.652 7.97913 14.6106 7.95837 14.5858 7.93969C14.5135 7.88987 14.4536 7.78609 14.497 7.64909L15.0611 5.93038C15.1913 5.53391 15.059 5.10424 14.7367 4.85722L13.344 3.89616C13.2386 3.81728 13.2324 3.69273 13.2634 3.60555C13.28 3.56196 13.3172 3.4478 13.4473 3.4478ZM15.2243 3.61801C15.712 3.61801 16.1025 3.33156 16.243 2.86867L16.772 1.03372C16.7844 0.994278 16.7988 0.988051 16.8133 0.988051C16.8443 0.990126 16.8526 0.994278 16.865 1.03787L17.365 2.87697C17.4972 3.33571 17.894 3.61801 18.4002 3.61801L20.1255 3.61801C20.1441 3.61801 20.1627 3.6616 20.1689 3.68028L20.1695 3.68277C20.1736 3.69828 20.1955 3.78139 20.1483 3.81935L18.7411 4.75551L18.737 4.75759L18.7349 4.75966C18.3506 5.04196 18.1874 5.54637 18.332 6.01133L18.8672 7.73835C18.8837 7.79439 18.861 7.82553 18.8382 7.84213C18.83 7.84628 18.8217 7.85043 18.8176 7.85043C18.8134 7.85043 18.8073 7.84836 18.7969 7.84006L17.4249 6.74407C17.2389 6.59461 17.0034 6.51158 16.7637 6.51158C16.5281 6.51158 16.305 6.58839 16.117 6.73161L14.7264 7.80477C14.716 7.81307 14.7078 7.81515 14.7057 7.81515C14.7016 7.81515 14.6954 7.81307 14.6892 7.80684C14.6644 7.78816 14.6416 7.7591 14.6582 7.70098L15.2202 5.98435C15.3731 5.52146 15.2181 5.01498 14.8379 4.72438L14.8338 4.7223L14.8297 4.72022L13.4391 3.76123C13.3998 3.7301 13.4081 3.68443 13.4163 3.65952C13.4205 3.64914 13.4287 3.62216 13.437 3.61386L13.4515 3.61386L13.4618 3.61593L15.1871 3.61593C15.2016 3.61801 15.214 3.61801 15.2243 3.61801ZM0 4.77627C0 3.59933 0.956686 2.64241 2.1324 2.64241L10.9864 2.64241C11.2591 2.64241 11.4802 2.86452 11.4802 3.13644C11.4802 3.41043 11.2591 3.63254 10.9864 3.63254L2.1324 3.63254C1.50218 3.63254 0.98768 4.14525 0.98768 4.77627L0.98768 12.6392C0.98768 13.2702 1.50012 13.7829 2.1324 13.7829L16.5633 13.7829C17.1935 13.7829 17.708 13.2702 17.708 12.6392L17.708 10.3455C17.708 10.0715 17.9291 9.84937 18.2018 9.84937C18.4746 9.84937 18.6957 10.0715 18.6957 10.3455L18.6957 12.6412C18.6957 13.8182 17.7369 14.7751 16.5612 14.7751L2.13446 14.7751C0.956686 14.7751 0 13.8182 0 12.6412L0 4.77627ZM10.9864 2.80847C11.1682 2.80847 11.3149 2.95585 11.3149 3.13644C11.3149 3.31703 11.1682 3.4644 10.9864 3.4644L2.1324 3.4644C1.4092 3.4644 0.820312 4.05184 0.820312 4.77419L0.820312 12.6392C0.820312 13.3636 1.40713 13.9489 2.1324 13.9489L16.5591 13.9489C17.2823 13.9489 17.8712 13.3615 17.8712 12.6392L17.8712 10.3455C17.8712 10.1649 18.0179 10.0175 18.1998 10.0175C18.3816 10.0175 18.5283 10.1649 18.5283 10.3455L18.5283 12.6392C18.5283 13.7248 17.6481 14.6049 16.5612 14.6049L2.1324 14.6049C1.04554 14.6049 0.165302 13.7248 0.165302 12.6392L0.165302 4.77627C0.165302 3.69066 1.04554 2.81055 2.1324 2.81055L10.9864 2.81055L10.9864 2.80847ZM3.11595 6.57386C2.8432 6.57386 2.62211 6.79596 2.62211 7.06996C2.62211 7.34396 2.8432 7.56606 3.11595 7.56606L11.6414 7.56606C11.9142 7.56606 12.1352 7.34396 12.1352 7.06996C12.1373 6.79596 11.9142 6.57386 11.6414 6.57386L3.11595 6.57386ZM11.9699 7.06996C11.9699 6.88937 11.8232 6.74199 11.6414 6.74199L3.11595 6.74199C2.93411 6.74199 2.78741 6.88937 2.78741 7.06996C2.78741 7.25055 2.93411 7.39792 3.11595 7.39792L11.6414 7.39792C11.8232 7.39792 11.9699 7.25055 11.9699 7.06996ZM2.62417 10.3475C2.62417 10.0735 2.84526 9.85144 3.11801 9.85144L15.5777 9.85144C15.8504 9.85144 16.0715 10.0735 16.0715 10.3475C16.0715 10.6215 15.8504 10.8436 15.5777 10.8436L3.11801 10.8436C2.84526 10.8436 2.62417 10.6215 2.62417 10.3475ZM15.5777 10.0175C15.7595 10.0175 15.9062 10.1649 15.9062 10.3455C15.9062 10.5261 15.7595 10.6734 15.5777 10.6734L3.11801 10.6734C2.93618 10.6734 2.78947 10.5261 2.78947 10.3455C2.78947 10.1649 2.93618 10.0175 3.11801 10.0175L15.5777 10.0175Z" fill-rule="evenodd"/>
	</g>
</svg>
