<svg width="22px" height="22px" viewBox="0 0 22 22" version="1.1" xmlns="http://www.w3.org/2000/svg" >
    <defs></defs>
    <g stroke="none" stroke-width="1" fill-rule="evenodd">
        <g id="5-2-5" transform="translate(-550.000000, -443.000000)" fill-rule="nonzero">
            <g id="Group-15" transform="translate(548.000000, 443.000000)">
                <g id="Group-9">
                    <g id="pa" transform="translate(2.000000, 0.000000)">
                        <path d="M17.5151888,14.3286773 L17.5178888,14.3129773 L17.5409888,14.2732773 L17.5506888,14.3027773 L17.5151888,14.3286773 Z M16.8383085,13.9825747 L16.8406085,13.9686747 L16.8611085,13.9332747 L16.8697085,13.9598747 L16.8383085,13.9825747 Z M0.333569149,7.12934933 L10.6662553,13.0391067 C10.8644016,13.1523333 11.0973324,13.141392 11.2814947,13.0346187 C11.2860878,13.0321253 11.2910027,13.030952 11.2955372,13.0283413 L21.6666356,7.10990133 C21.8690239,6.99426933 21.9786436,6.78128 21.9761277,6.56324533 C21.9784681,6.34526933 21.8688777,6.13251467 21.6666356,6.01697067 L11.2955665,0.09856 C11.2910612,0.0959493333 11.286117,0.094776 11.2815532,0.0922826667 C11.0974202,-0.0144613333 10.8644309,-0.0254026667 10.6661968,0.0877653333 L0.333539894,5.99752267 C0.125242021,6.11655733 0.0148909574,6.338728 0.0244574468,6.563392 C0.0148909574,6.78808533 0.125212766,7.01031467 0.333539894,7.12932 L0.333569149,7.12934933 Z M10.9717686,1.340944 L20.1233298,6.56342133 L10.9717686,11.78584 L1.84077394,6.563392 L10.9717686,1.340944 Z M0.333452128,11.664312 L10.6661383,17.5740693 C10.8642846,17.687296 11.0972154,17.676384 11.2813777,17.5695813 C11.2859707,17.567088 11.2908856,17.5659147 11.2954202,17.5633627 L21.6664894,11.6449227 C21.9632553,11.4753467 22.0666436,11.096624 21.8976356,10.7990373 C21.7286277,10.5014507 21.3507952,10.397816 21.054,10.5672747 L10.9717686,16.3208613 L0.946,10.5866347 C0.649234043,10.4170587 0.271460106,10.52084 0.102335106,10.8183973 C-0.0667898936,11.1160427 0.0367154255,11.4946773 0.333481383,11.664312 L0.333452128,11.664312 Z M21.0540293,14.9054107 L10.9717686,20.6590267 L0.946,14.9247707 C0.649146277,14.7551947 0.271460106,14.8589173 0.102335106,15.1565333 C-0.0667898936,15.4541787 0.0367154255,15.8328133 0.333481383,16.0024187 L10.6661676,21.912176 C10.8643138,22.0254027 11.0972447,22.0144613 11.2814069,21.907688 C11.286,21.905224 11.2909149,21.9040213 11.2954495,21.9014107 L21.6665186,15.9829707 C21.9632846,15.8133947 22.0666729,15.434672 21.8976649,15.1370853 C21.7286569,14.8394987 21.3508537,14.735864 21.0540293,14.905352 L21.0540293,14.9054107 Z" id="Shape"></path>
                    </g>
                </g>
            </g>
        </g>
    </g>
</svg>