<svg id="0299899f-566b-4bb4-b4e5-fa7122c490d8" data-name="图层 1" xmlns="http://www.w3.org/2000/svg" viewBox="0 0 77.06 88.76"><title>Magni</title><path d="M27,71.64H16.68a2,2,0,0,0-2,2V92.92a2,2,0,0,0,2,2H27a2,2,0,0,0,2-2V73.6A2,2,0,0,0,27,71.64ZM25.08,91H18.64V75.56h6.44Z" transform="translate(-11.08 -6.12)"/><path d="M65.12,77.8H54.76a2,2,0,0,0-2,2V92.92a2,2,0,0,0,2,2H65.12a2,2,0,0,0,2-2V79.76A2,2,0,0,0,65.12,77.8ZM63.16,91H56.72V81.72h6.44Z" transform="translate(-11.08 -6.12)"/><path d="M87.56,73.53,66.21,52.3A29.95,29.95,0,1,0,33.76,65.14V92.92a2,2,0,0,0,2,2H46.08a2,2,0,0,0,2-2V65.21a29.76,29.76,0,0,0,7.79-3.09L77.49,83.66a2,2,0,0,0,2.77,0l7.3-7.35a2,2,0,0,0,0-2.77ZM15,36.08a26,26,0,1,1,26,26A26.07,26.07,0,0,1,15,36.08ZM44.12,91H37.68V65.85a29.71,29.71,0,0,0,6.44,0ZM78.87,79.5,59.17,59.91a30.21,30.21,0,0,0,4.68-4.43L83.41,74.93Z" transform="translate(-11.08 -6.12)"/><path d="M61.37,36.08A20.33,20.33,0,1,0,41,56.41,20.35,20.35,0,0,0,61.37,36.08ZM37.68,52.14V39.44h6.44V52.19a16.17,16.17,0,0,1-6.44,0ZM24.63,36.08A16.41,16.41,0,1,1,48,50.9V37.48a2,2,0,0,0-2-2H35.72a2,2,0,0,0-2,2V50.77A16.41,16.41,0,0,1,24.63,36.08Z" transform="translate(-11.08 -6.12)"/></svg>