<?xml version="1.0" standalone="no"?><!DOCTYPE svg PUBLIC "-//W3C//DTD SVG 1.1//EN" "http://www.w3.org/Graphics/SVG/1.1/DTD/svg11.dtd"><svg t="1522399743370" class="icon" style="" viewBox="0 0 1024 1024" version="1.1" xmlns="http://www.w3.org/2000/svg" p-id="2134" xmlns:xlink="http://www.w3.org/1999/xlink" width="200" height="200"><defs><style type="text/css"></style></defs><path d="M348.615111 123.676444c-2.275556 0.341333-5.916444 2.503111-9.671111 5.916445l-6.144 5.461333-0.568889 70.997334-0.568889 70.997333-21.276444 0.568889-21.162667 0.568889-4.437333 3.527111c-2.389333 1.934222-5.461333 5.461333-6.826667 7.964444l-2.616889 4.437334v295.822222c0 290.019556 0 296.049778 2.161778 300.259555 1.251556 2.275556 4.664889 6.144 7.623111 8.419556l5.347556 4.209778 190.122666 0.341333c104.561778 0.227556 193.877333 0 198.542223-0.455111 8.078222-0.682667 8.647111-0.910222 13.767111-6.030222 8.192-8.192 8.192-8.760889 8.988444-74.752 0.455111-40.732444 1.024-57.457778 2.048-58.595556 0.682667-0.910222 1.479111-5.461333 1.706667-10.126222 0.227556-4.664889 1.137778-12.401778 1.934222-17.066667 3.640889-21.731556 7.395556-49.834667 11.605333-86.926222 0.568889-5.575111 1.592889-11.036444 2.161778-12.174222 0.682667-1.137778 1.137778-5.006222 1.137778-8.647111 0-3.527111 0.682667-10.353778 1.592889-15.132445 1.706667-8.760889 3.640889-21.276444 5.12-34.133333 0.568889-4.096 1.479111-10.467556 2.161778-14.222222 1.706667-10.126222 6.257778-45.624889 8.192-65.194667 0.568889-5.802667 1.592889-11.491556 2.275555-12.743111 0.568889-1.137778 1.137778-4.892444 1.137778-8.192 0-3.299556 0.796444-8.874667 1.706667-12.288 2.730667-10.012444 2.275556-16.839111-1.479112-22.528-1.820444-2.616889-4.209778-5.688889-5.461333-6.826667-5.233778-4.664889-6.826667-4.778667-94.094222-4.778666-51.882667 0-83.968-0.455111-84.423111-1.137778-0.341333-0.568889-0.568889-31.061333-0.568889-67.697778 0-64.853333 0-66.901333-2.275556-72.021333-5.461333-12.288-9.329778-13.880889-34.019555-13.880889-10.808889 0-19.569778-0.455111-20.024889-1.024-0.796444-1.479111-0.910222-106.837333 0-108.202667 0.455111-0.682667 10.467556-1.137778 25.486222-1.137778 27.420444 0 30.037333-0.455111 36.408889-6.826666 4.551111-4.551111 7.736889-14.904889 5.916444-19.000889-0.682667-1.479111-1.251556-3.640889-1.251555-4.892445 0-1.137778-2.503111-4.323556-5.575111-7.168-4.437333-3.868444-6.826667-5.233778-11.036445-5.802666-5.575111-0.682667-197.518222-0.682667-203.662222 0.113777z m107.406222 98.986667l-0.341333 54.385778-38.912 0.341333-39.025778 0.227556v-109.226667h78.506667l-0.227556 54.272zM513.706667 376.604444v54.044445l-8.533334 0.682667c-10.24 0.796444-15.587556 3.072-20.821333 8.419555-4.892444 5.006222-5.802667 9.784889-4.778667 25.258667 0.796444 13.084444 3.413333 38.115556 5.802667 54.613333 0.796444 6.371556 1.592889 14.336 1.592889 17.635556 0 3.299556 0.796444 9.557333 1.706667 13.994666 0.910222 4.323556 1.706667 10.808889 1.706666 14.222223s0.796444 10.581333 1.706667 15.928888c0.910222 5.347556 1.706667 14.336 1.706667 20.024889 0 6.257778 0.455111 10.695111 1.365333 11.605334 0.682667 0.682667 1.706667 7.054222 2.161778 14.677333 0.455111 7.395556 1.137778 14.449778 1.479111 15.701333 0.341333 1.251556 1.137778 9.671111 1.820444 18.773334 1.251556 18.545778 2.730667 32.881778 5.12 49.152 0.910222 6.030222 1.706667 13.994667 1.706667 17.635555 0 3.640889 0.568889 8.647111 1.251555 11.150222 0.682667 2.389333 1.706667 10.353778 2.161778 17.635556 0.568889 7.168 1.479111 15.36 2.161778 18.204444 1.706667 7.623111 1.706667 79.872-0.113778 81.692445-1.934222 1.934222-189.895111 1.934222-191.829333 0-1.024-1.024-1.365333-62.122667-1.365333-267.719111 0-146.545778 0.341333-266.808889 0.796444-267.150222 0.341333-0.455111 44.032-0.682667 96.938667-0.568889l96.256 0.341333V376.604444z m183.182222 101.262223c0.341333 0.568889 0.113778 4.096-0.455111 7.623111-0.682667 3.640889-1.706667 11.946667-2.389334 18.545778-2.503111 24.576-3.299556 30.833778-4.437333 35.043555-0.682667 2.275556-1.251556 7.054222-1.251555 10.581333 0 3.527111-0.796444 8.647111-1.706667 11.264-0.910222 2.616889-1.706667 8.078222-1.706667 11.946667 0 3.868444-0.796444 9.329778-1.706666 11.946667-0.910222 2.616889-1.706667 7.850667-1.706667 11.491555 0 3.640889-0.568889 7.964444-1.251556 9.784889-0.682667 1.706667-1.706667 8.533333-2.161777 15.132445-0.568889 6.599111-1.479111 15.018667-2.161778 18.773333-1.820444 10.353778-3.640889 23.893333-4.664889 35.271111-0.568889 5.575111-1.479111 11.719111-2.161778 13.425778-0.682667 1.820444-1.251556 6.144-1.251555 9.671111 0 3.527111-0.796444 8.988444-1.706667 12.060444-0.910222 3.072-1.706667 8.192-1.706667 11.491556 0 3.299556-0.796444 8.419556-1.706666 11.491556-0.910222 3.072-1.706667 8.988444-1.706667 13.084444 0 12.174222 3.982222 11.264-53.930667 11.264-27.420444 0-50.176-0.227556-50.858666-0.568889-0.568889-0.455111-1.024-4.096-1.024-8.305778-0.113778-4.209778-0.796444-10.695111-1.706667-14.449777-0.910222-3.754667-1.706667-10.808889-1.706667-15.701334 0-4.892444-0.568889-9.898667-1.251555-11.150222-0.682667-1.251556-1.592889-9.102222-2.275556-17.294222-0.568889-8.305778-1.479111-17.294222-2.048-20.138667-0.682667-2.844444-1.137778-8.760889-1.251555-13.084444 0-4.437333-0.568889-9.784889-1.137778-11.946667-0.682667-2.161778-1.479111-10.695111-1.820445-18.773333-0.341333-8.192-1.137778-16.839111-1.706666-19.342223-0.682667-2.503111-1.592889-11.036444-2.048-18.887111-0.568889-7.850667-1.592889-15.473778-2.275556-16.725333-0.682667-1.251556-1.251556-6.371556-1.251555-11.264 0-4.892444-0.568889-10.922667-1.251556-13.425778-0.568889-2.503111-1.592889-11.036444-2.048-18.887111-0.568889-7.850667-1.592889-15.473778-2.275556-16.725333-0.682667-1.251556-1.251556-6.599111-1.251555-11.832889 0-5.233778-0.568889-11.491556-1.137778-13.994667-2.161778-9.329778-10.24-8.533333 84.764445-8.533333 53.816889 0 84.878222 0.455111 85.333333 1.137778z m-40.277333 352.711111c-0.227556 14.677333-0.455111 26.851556-0.682667 27.079111-0.113778 0.113778-21.959111 0.341333-48.469333 0.341333h-48.241778l-0.341334-25.941333c-0.113778-14.222222 0-26.510222 0.341334-27.306667 0.341333-1.251556 10.467556-1.479111 49.152-1.251555l48.696889 0.341333-0.455111 26.737778z" p-id="2135"></path><path d="M365.681778 375.239111c-10.581333 5.916444-13.994667 12.629333-12.515556 24.576 0.568889 4.437333 1.706667 6.826667 4.437334 9.784889 7.736889 8.305778 5.347556 7.964444 59.392 7.964444h48.469333l5.347555-3.527111c8.305778-5.461333 9.557333-7.736889 9.557334-18.090666 0-8.419556-0.227556-9.329778-3.527111-13.539556-1.934222-2.503111-5.802667-5.575111-8.419556-6.826667-4.778667-2.275556-6.599111-2.389333-52.110222-2.389333-42.211556 0.113778-47.445333 0.341333-50.631111 2.048z" p-id="2136"></path></svg>