<?xml version="1.0" standalone="no"?><!DOCTYPE svg PUBLIC "-//W3C//DTD SVG 1.1//EN" "http://www.w3.org/Graphics/SVG/1.1/DTD/svg11.dtd"><svg t="1522127984387" class="icon" style="" viewBox="0 0 1024 1024" version="1.1" xmlns="http://www.w3.org/2000/svg" p-id="1321" xmlns:xlink="http://www.w3.org/1999/xlink" width="200" height="200"><defs><style type="text/css"></style></defs><path d="M511.658667 23.381333c-0.512 0.512-8.874667 1.194667-18.602667 1.365334-20.650667 0.682667-38.570667 2.730667-55.296 6.485333-19.114667 4.437333-43.861333 12.970667-53.589333 18.602667-1.365333 0.682667-3.754667 1.877333-5.12 2.389333-1.365333 0.512-3.754667 1.536-5.12 2.389333-1.365333 0.853333-5.973333 3.242667-10.069334 5.290667-12.458667 6.314667-40.106667 27.818667-54.954666 42.837333-12.8 13.141333-31.744 36.181333-34.474667 42.325334-0.682667 1.365333-2.730667 5.12-4.778667 8.362666-9.216 15.36-18.602667 52.224-18.602666 73.557334 0 16.554667 5.290667 43.690667 11.264 57.685333 3.413333 7.850667 2.901333 10.752-1.877334 15.36-5.290667 5.12-10.24 15.701333-12.970666 28.16-1.706667 8.362667-1.706667 12.458667 0.512 25.6 5.973333 34.474667 18.773333 57.344 42.496 75.605333 5.461333 4.266667 10.069333 9.045333 10.069333 10.581334 0 3.584 4.608 18.261333 7.850667 24.746666 1.365333 2.730667 2.389333 5.973333 2.389333 7.509334 0 1.365333 1.024 4.608 2.389333 6.997333 1.194667 2.56 5.12 10.752 8.704 18.261333 3.584 7.509333 8.362667 16.042667 10.410667 19.114667 2.218667 2.901333 4.096 5.802667 4.096 6.485333 0 0.512 5.802667 8.704 12.8 17.92l12.970667 17.066667v34.474667c0 30.378667-0.512 35.669333-3.413334 43.178666-2.048 5.290667-4.266667 8.192-5.632 7.850667-6.826667-2.218667-16.896-2.048-20.48 0.512-2.048 1.536-5.461333 2.730667-7.338666 2.730667-2.048 0-5.12 1.194667-6.997334 2.56-1.706667 1.365333-4.608 2.56-6.144 2.56-1.706667 0-5.461333 1.024-8.533333 2.389333-3.072 1.365333-8.874667 3.584-12.8 5.12-16.554667 6.144-22.016 8.533333-24.746667 10.922667-2.901333 2.389333-9.386667 4.266667-25.258666 6.997333-43.349333 7.68-105.472 29.696-131.072 46.592-4.096 2.56-7.68 4.778667-8.192 4.778667-2.389333 0-30.208 22.528-40.106667 32.256-19.285333 19.285333-40.106667 50.688-43.178667 65.024-0.341333 2.389333-1.536 7.338667-2.56 11.093333C10.581333 857.941333 8.704 868.693333 8.704 876.032c0 4.608-0.853333 9.728-1.877333 11.776C4.608 891.904 1.877333 927.573333 0.682667 967.68l-0.682667 29.866667 5.632 3.413333c5.632 3.413333 9.045333 3.413333 502.101333 3.925333l496.298667 0.341334 10.069333-4.437334 10.069334-4.608v-24.405333c0-17.066667-0.512-24.405333-2.048-24.917333-2.389333-0.853333-2.56-2.389333-4.608-32.426667-0.853333-12.8-2.389333-24.746667-3.413334-26.794667-1.024-1.877333-1.877333-6.997333-1.877333-11.605333 0-7.338667-1.877333-18.090667-6.997333-38.912-1.024-3.754667-2.218667-8.704-2.56-11.093333-1.706667-7.509333-12.8-27.818667-22.528-40.96-22.698667-30.549333-49.322667-51.882667-89.088-70.997334-27.818667-13.653333-33.621333-16.042667-37.205334-16.042666-1.706667 0-3.925333-0.853333-4.949333-1.877334-1.024-1.024-4.949333-2.56-8.533333-3.413333-3.584-0.682667-11.776-2.901333-18.432-4.778667-6.485333-2.048-15.018667-4.266667-18.773334-5.12-3.754667-0.853333-10.24-2.218667-14.506666-3.242666-4.266667-1.024-12.288-2.730667-17.92-3.925334-5.632-1.024-12.117333-3.242667-14.506667-4.778666-4.096-2.730667-11.093333-5.802667-25.941333-11.434667-4.096-1.536-9.898667-3.754667-12.970667-5.12-3.072-1.365333-6.826667-2.389333-8.533333-2.389333-1.536 0-4.437333-1.194667-6.144-2.56-1.877333-1.365333-4.949333-2.56-6.997334-2.56-1.877333 0-5.290667-1.194667-7.509333-2.730667-3.072-2.218667-6.144-2.56-13.824-1.877333l-9.728 1.024-2.218667-8.874667c-1.536-5.632-2.56-24.234667-2.901333-51.2l-0.682667-42.325333 7.509334-9.728c6.826667-9.045333 24.746667-43.690667 30.549333-59.221334 5.290667-13.824 6.826667-18.944 8.021333-24.746666 1.877333-8.874667 4.778667-13.312 10.922667-16.384 13.994667-7.338667 30.208-30.378667 37.034667-52.736 8.874667-29.184 8.874667-49.152 0-68.266667-2.901333-6.144-3.072-8.021333-1.194667-19.626667 3.413333-21.504 1.877333-61.44-3.072-76.629333-1.365333-4.266667-2.56-9.216-2.56-11.264 0-6.485333-11.776-40.789333-17.408-50.346667-0.682667-1.365333-1.877333-3.754667-2.389333-5.12-0.512-1.365333-1.706667-3.754667-2.56-5.12-0.853333-1.365333-2.048-3.754667-2.730667-5.12-2.389333-5.461333-16.213333-22.186667-23.552-28.672-9.216-8.021333-18.261333-13.141333-26.453333-14.677333-10.752-2.218667-11.776-2.901333-12.8-8.021333-1.536-6.826667-19.114667-23.210667-35.84-33.450667-18.944-11.434667-53.418667-24.405333-65.365334-24.405333-2.901333 0-9.045333-0.682667-13.482666-1.536-10.922667-2.218667-30.549333-3.584-31.744-2.389334z m32.085333 33.792c23.210667 2.56 64 19.285333 65.365333 26.965334 0.341333 1.706667-0.853333 3.413333-2.56 3.925333-1.706667 0.512-9.898667 4.437333-18.432 8.362667-8.362667 4.096-16.554667 7.850667-17.92 8.362666-1.365333 0.512-3.754667 1.706667-5.12 2.56-1.365333 0.853333-3.754667 2.048-5.12 2.56-1.365333 0.512-3.754667 1.706667-5.12 2.56-2.56 1.365333-22.357333 10.581333-31.573333 14.677334-2.730667 1.194667-10.410667 4.608-17.066667 7.68-6.485333 3.072-14.165333 6.656-17.066666 7.850666-2.730667 1.194667-10.069333 4.437333-16.213334 7.168-12.629333 5.461333-20.650667 8.533333-28.16 10.410667-2.901333 0.682667-6.656 2.218667-8.533333 3.242667-1.877333 1.024-11.776 5.802667-22.186667 10.752-10.24 4.778667-21.162667 10.581333-24.234666 12.8-2.901333 2.218667-5.973333 4.096-6.826667 4.096-5.632 0.170667-41.301333 36.352-41.472 41.984 0 1.024-1.024 2.901333-2.389333 3.925333-1.365333 1.024-2.730667 4.096-3.242667 6.656-0.341333 2.56-1.536 6.826667-2.56 9.728-5.12 14.506667-8.021333 30.890667-8.704 49.834667-0.170667 3.925333-4.949333 2.389333-10.752-3.413334-3.072-3.072-8.533333-7.850667-11.946667-10.410666-3.584-2.730667-6.485333-5.973333-6.485333-7.338667 0-1.194667-1.024-4.096-2.218667-6.144-1.365333-2.048-3.584-8.362667-5.12-13.994667-10.752-40.96-3.072-79.018667 23.04-113.493333 16.042667-21.504 43.861333-46.592 64.512-58.538667 11.946667-6.826667 31.573333-16.554667 33.621334-16.554666 1.024 0 4.096-1.024 6.826666-2.389334 13.653333-6.826667 44.885333-12.8 70.144-13.653333 11.605333-0.341333 21.333333-1.024 21.674667-1.365333 0.853333-0.853333 24.064 0 35.84 1.194666z m130.218667 73.557334C682.666667 137.216 694.784 151.893333 694.784 155.818667c0 1.365333 1.194667 3.413333 2.56 4.608 1.365333 1.194667 2.56 3.072 2.56 4.266666 0 1.365333 1.024 4.437333 2.389333 7.168 2.218667 4.437333 3.413333 7.338667 9.557334 24.405334 1.194667 3.242667 2.730667 9.045333 3.413333 12.8 0.682667 3.754667 2.048 10.24 3.072 14.506666 1.024 4.266667 3.072 15.018667 4.437333 23.893334 2.218667 15.018667 2.218667 17.408-0.682666 31.573333-3.584 17.92-7.338667 29.184-9.557334 28.672-0.853333-0.341333-2.048-6.485333-2.56-13.653333-1.536-18.090667-6.144-34.816-13.824-50.858667-4.266667-9.216-6.144-11.946667-14.506666-23.381333-4.096-5.290667-7.338667-10.069333-7.338667-10.581334 0-0.512-4.437333-6.997333-9.728-14.336-11.776-15.701333-12.970667-17.578667-17.749333-27.648-2.048-4.266667-4.778667-10.069333-6.144-13.141333-1.536-3.072-2.730667-8.192-2.901334-11.605333-0.170667-5.290667 0.512-6.485333 5.802667-9.216 3.242667-1.536 8.362667-4.266667 11.093333-5.632 7.68-4.096 10.581333-3.584 19.285334 3.072z m-72.362667 0c0.512 1.536 1.024 5.461333 1.024 8.704 0 12.458667 12.117333 42.325333 25.258667 62.805333 4.266667 6.485333 9.898667 14.336 12.288 17.237333 5.802667 6.656 23.893333 34.133333 23.893333 36.010667 0 0.853333 0.853333 2.389333 2.048 3.584 6.997333 6.997333 9.386667 25.6 10.581333 83.968 0.853333 45.056 1.877333 57.002667 5.290667 62.122667 1.877333 2.56 1.877333 4.096 0 8.533333-1.194667 2.901333-3.584 9.898667-5.290667 15.530667-3.072 11.093333-8.362667 27.136-11.946666 36.693333-3.242667 9.045333-16.213333 33.792-23.210667 44.373333-5.290667 8.192-28.501333 32.597333-48.469333 51.370667-3.754667 3.413333-9.386667 9.045333-12.8 12.8-8.874667 9.386667-16.384 16.042667-18.090667 16.042667-0.853333 0-2.389333 0.853333-3.584 2.048-10.24 10.24-61.269333 13.482667-83.114667 5.290666-10.922667-4.266667-21.333333-9.216-21.333333-10.581333 0-0.512-1.365333-1.877333-3.242667-2.730667-1.706667-1.024-7.850667-5.461333-13.482666-10.069333-9.898667-7.850667-14.848-11.264-20.821334-13.994667-11.264-5.461333-49.493333-41.813333-49.493333-47.274666 0-0.512-2.218667-4.266667-4.949333-8.362667-4.437333-6.656-12.288-21.504-18.090667-34.645333-3.242667-6.997333-12.288-34.645333-13.653333-41.301334-0.853333-4.096 0.341333-8.021333 4.778666-17.066666 14.165333-27.989333 18.261333-48.298667 20.821334-102.912 1.536-31.914667 6.997333-52.394667 18.432-67.925334 11.946667-16.213333 33.621333-30.378667 72.874666-47.616 3.242667-1.365333 8.021333-3.754667 10.581334-4.949333 2.389333-1.365333 5.632-2.389333 7.168-2.389333 1.365333 0 5.461333-1.194667 9.045333-2.730667 14.336-6.144 18.602667-8.021333 23.552-10.069333 6.144-2.56 13.141333-5.632 29.013333-12.8 6.656-3.072 15.018667-6.826667 18.773334-8.533334 3.754667-1.706667 13.482667-6.144 21.504-10.069333 8.021333-3.925333 15.36-6.997333 16.384-6.997333 1.024 0 2.730667-1.024 3.925333-2.389334 1.706667-2.218667 5.12-3.413333 11.264-4.266666 1.194667 0 2.56 1.024 3.072 2.56zM291.328 323.925333c9.386667 7.68 14.336 25.258667 14.336 51.370667 0 23.381333-1.194667 25.258667-9.898667 14.165333-9.216-11.776-13.141333-20.992-16.384-38.4-2.389333-12.8-0.512-25.6 4.266667-28.672 3.242667-2.048 3.584-1.877333 7.68 1.536z m432.810667 40.618667c-2.218667 3.925333-4.266667 0.170667-2.730667-4.778667 1.024-3.242667 1.194667-3.242667 2.730667-0.853333 0.853333 1.706667 0.853333 3.925333 0 5.632z m-96.085334 239.957333c0 20.821333 0.682667 29.696 2.730667 35.328 1.365333 4.096 2.56 9.045333 2.56 11.093334 0 2.048 1.194667 5.290667 2.56 7.168 5.12 6.656 3.242667 9.898667-14.677333 24.746666-26.965333 22.357333-32.768 27.136-37.376 31.232-2.389333 2.048-7.68 6.314667-11.946667 9.557334-4.266667 3.242667-8.874667 6.997333-10.410667 8.362666-1.536 1.536-8.021333 6.997333-14.336 12.117334s-16.896 13.824-23.381333 19.114666c-6.485333 5.461333-12.629333 9.898667-13.653333 9.898667-1.024 0-6.485333-4.096-12.288-9.045333-5.802667-4.949333-13.824-11.605333-18.090667-14.848-7.338667-5.632-13.994667-11.264-20.309333-17.237334-1.536-1.365333-6.144-5.12-10.410667-8.362666-4.266667-3.242667-9.557333-7.509333-11.946667-9.557334-4.608-4.096-10.410667-8.874667-37.376-31.232-18.432-15.189333-19.797333-17.749333-14.848-27.136 6.485333-12.458667 9.728-29.525333 10.410667-53.930666 0.170667-8.704 1.024-13.824 2.389333-14.336 1.024-0.341333 4.608 1.365333 7.850667 3.754666 3.072 2.389333 6.314667 4.437333 7.168 4.437334s3.754667 2.048 6.656 4.608c6.997333 6.485333 18.090667 15.018667 21.162667 16.384 1.365333 0.682667 5.12 2.730667 8.362666 4.778666 10.922667 6.485333 21.162667 9.557333 47.616 13.824 10.581333 1.706667 15.189333 1.536 31.573334-1.024 20.821333-3.242667 35.157333-7.509333 44.032-12.970666 3.242667-1.877333 7.509333-4.096 9.557333-4.949334 2.048-1.024 12.288-10.24 22.698667-20.650666 10.410667-10.24 19.968-18.773333 21.333333-18.773334 2.048 0 2.389333 5.12 2.389333 27.648z m65.536 76.117334c1.194667 0.853333 3.925333 2.048 6.314667 2.56 7.338667 1.536 17.749333 5.973333 18.261333 7.509333 0.682667 2.048-3.072 10.24-10.581333 23.552-5.461333 9.728-6.485333 11.605333-8.533333 16.554667-0.512 1.194667-2.56 4.949333-4.437334 8.192-2.048 3.242667-6.826667 11.776-10.581333 18.773333s-8.362667 15.018667-10.069333 17.92c-1.706667 2.730667-3.413333 6.314667-4.096 7.68-0.512 1.365333-1.706667 3.754667-2.56 5.12-0.853333 1.365333-3.413333 6.314667-5.973334 11.093333-2.389333 4.608-6.997333 13.141333-10.069333 18.773334-3.242667 5.632-7.68 13.994667-10.24 18.773333-2.389333 4.608-4.949333 9.728-5.802667 11.093333-0.853333 1.365333-2.048 3.754667-2.730666 5.12-0.512 1.365333-1.877333 4.096-3.072 5.973334s-4.608 7.850667-7.68 13.141333c-3.242667 5.461333-6.144 9.898667-6.485334 9.898667-0.512 0-4.437333-3.925333-8.874666-8.704-4.437333-4.949333-11.093333-11.946667-14.848-15.872-3.925333-3.925333-17.237333-18.090667-29.866667-31.744-12.629333-13.653333-23.552-25.088-24.234667-25.258667-3.413333-1.536-0.853333-7.338667 5.12-11.776 6.826667-4.949333 45.226667-36.693333 65.877334-54.272 6.656-5.632 15.530667-12.970667 19.797333-16.213333 4.266667-3.242667 8.874667-6.997333 10.410667-8.362667 6.314667-6.314667 34.816-29.184 39.424-31.914667 3.413333-2.048 11.605333-0.682667 15.530666 2.389334z m-346.794666-0.170667c1.536 1.706667 12.117333 10.752 23.722666 20.138667 11.605333 9.386667 26.453333 21.674667 33.109334 27.306666 6.656 5.632 15.530667 12.970667 19.797333 16.213334 4.266667 3.242667 8.874667 6.997333 10.410667 8.362666 6.314667 5.973333 12.970667 11.605333 20.309333 17.237334 4.266667 3.242667 12.8 10.410667 19.285333 15.872 10.581333 9.386667 13.482667 13.653333 10.069334 15.189333-0.682667 0.170667-12.8 12.8-26.794667 27.818667s-28.672 30.378667-32.426667 34.304c-3.754667 3.754667-9.386667 9.898667-12.629333 13.482666l-5.632 6.485334-3.072-3.925334c-1.536-2.218667-4.949333-7.850667-7.509333-12.629333-4.608-8.704-6.314667-12.117333-9.557334-17.749333-0.853333-1.536-3.584-6.826667-5.973333-11.434667-2.56-4.778667-6.997333-13.141333-10.24-18.773333-3.072-5.632-7.68-14.165333-10.24-18.773334-8.874667-17.066667-29.696-55.125333-33.621333-61.44-1.706667-2.901333-3.413333-5.973333-3.754667-6.826666-0.341333-1.024-1.194667-2.901333-1.706667-4.266667-0.682667-1.365333-3.754667-7.168-6.997333-12.8-7.509333-13.312-11.264-21.504-10.581333-23.552 0.512-1.536 10.752-5.802667 18.261333-7.509333 2.389333-0.512 5.802667-2.048 7.68-3.242667 4.778667-3.413333 14.848-3.072 18.090667 0.512z m-74.922667 27.306667c1.536 1.706667 5.290667 8.021333 8.533333 14.165333 3.413333 6.144 7.68 13.824 9.728 17.066667 1.877333 3.242667 3.925333 6.656 4.266667 7.68 0.341333 0.853333 1.194667 2.901333 1.706667 4.266666 0.512 1.365333 2.730667 5.290667 4.608 8.533334 2.048 3.242667 6.656 11.776 10.410666 18.773333 3.754667 6.997333 8.192 15.018667 10.069334 17.92 1.706667 2.730667 3.584 6.314667 4.266666 7.68 0.512 1.365333 1.536 3.754667 2.389334 5.12 0.853333 1.365333 3.584 6.314667 5.973333 11.093333 2.389333 4.608 6.997333 13.141333 10.24 18.773334 3.072 5.632 7.68 13.994667 10.069333 18.773333 2.56 4.608 5.12 9.728 5.973334 11.093333 0.853333 1.365333 2.048 3.754667 2.56 5.12 0.682667 1.365333 2.389333 4.778667 4.096 7.68 3.072 4.778667 15.530667 27.648 20.138666 36.522667 2.56 4.949333 8.533333 8.533333 13.994667 8.704 6.997333 0 8.362667-1.024 36.010667-30.72 8.192-8.704 10.410667-10.410667 11.264-8.192 0.682667 1.706667 0 4.608-1.536 6.826667-1.536 2.048-2.730667 5.461333-2.730667 7.338666 0 1.877333-1.194667 4.949333-2.56 6.656-1.365333 1.877333-2.56 4.778667-2.56 6.314667 0 1.706667-1.024 5.12-2.389333 7.850667-1.365333 2.56-3.754667 8.021333-5.12 11.946666-10.752 29.013333-13.141333 34.304-15.36 34.986667-1.024 0.341333-88.234667 0.170667-193.877334-0.341333-169.642667-0.682667-192-1.194667-191.317333-3.413334 1.024-3.413333 1.706667-11.434667 2.901333-30.72 0.512-8.874667 1.877333-22.186667 3.242667-29.696 1.365333-7.338667 2.56-16.554667 2.56-20.48 0-3.754667 1.194667-12.8 2.730667-19.797333 6.485333-30.72 9.898667-40.277333 18.773333-52.394667 2.218667-2.901333 4.096-6.144 4.096-7.168 0-4.266667 40.96-43.008 49.493333-46.762666 1.365333-0.682667 4.949333-2.730667 7.68-4.608 7.850667-4.949333 34.986667-18.773333 42.666667-21.504 26.624-9.728 52.565333-17.578667 72.533333-21.674667 6.997333-1.536 15.872-3.413333 19.626667-4.266667 10.24-2.389333 12.117333-2.389333 14.848 0.853334z m496.298667 0.512c17.237333 2.730667 56.490667 13.312 67.925333 18.090666 3.072 1.365333 6.656 2.389333 8.021333 2.389334 1.194667 0 4.437333 1.024 7.168 2.389333 2.56 1.194667 7.509333 3.413333 10.752 4.949333 15.018667 6.485333 22.186667 10.069333 23.210667 11.605334 0.512 0.853333 1.877333 1.536 3.242667 1.536 5.12 0 35.157333 22.357333 49.152 36.522666 8.874667 9.045333 23.381333 27.306667 23.381333 29.354667 0 0.682667 2.389333 4.949333 5.12 9.557333 2.901333 4.437333 5.12 9.898667 5.12 11.776 0 1.877333 0.682667 4.778667 1.706667 6.656 2.218667 3.925333 6.485333 30.72 8.533333 52.053334 0.853333 9.386667 2.389333 19.797333 3.413333 23.04 0.853333 3.242667 1.877333 13.994667 2.218667 23.893333 0.341333 9.898667 1.194667 19.114667 1.877333 20.48 0.512 1.536 0.170667 3.925333-1.024 5.632-2.048 2.730667-13.994667 2.901333-196.778666 2.901333h-196.266667c-1.877333 0-6.826667-8.704-8.192-14.506666-0.512-1.877333-2.56-7.68-4.608-12.8-2.048-5.12-5.461333-14.848-7.68-21.333334-2.218667-6.656-5.802667-16.213333-7.850667-21.333333-2.048-5.12-4.096-11.946667-4.437333-15.018667-0.682667-4.608-0.341333-5.461333 2.56-5.461333 1.877333 0 4.608 1.024 5.802667 2.389333 1.194667 1.365333 10.069333 10.752 19.797333 21.162667 9.557333 10.24 19.968 19.968 23.210667 21.674667 5.632 3.072 5.802667 3.072 11.946666-0.853334 3.584-2.048 7.168-5.461333 8.021334-7.509333 1.024-1.877333 4.266667-8.192 7.509333-13.824 3.242667-5.632 7.850667-14.165333 10.24-18.773333 2.56-4.778667 7.168-13.141333 10.24-18.773334 5.290667-9.216 6.314667-11.434667 8.704-17.066666 0.341333-1.024 2.389333-4.437333 4.266667-7.68 2.048-3.242667 6.826667-11.776 10.581333-18.773334s8.362667-15.189333 10.069333-17.92c1.706667-2.901333 3.413333-6.314667 4.096-7.68 0.512-1.365333 1.706667-3.754667 2.56-5.12 0.853333-1.365333 3.413333-6.485333 5.973334-11.093333 2.389333-4.778667 6.997333-13.141333 10.069333-18.773333 3.242667-5.632 7.68-14.165333 10.24-18.773334 4.266667-8.362667 5.802667-11.264 9.386667-17.578666 1.024-1.536 2.218667-4.096 2.901333-5.461334 0.682667-1.365333 2.901333-5.461333 5.290667-9.216 3.754667-5.973333 4.437333-6.485333 9.386666-5.290666 3.072 0.682667 8.874667 1.877333 13.141334 2.56z m-247.125334 121.173333c15.872 16.213333 21.845333 23.722667 20.650667 26.965333-0.512 1.536-3.072 5.632-5.632 8.874667-7.850667 10.410667-9.045333 15.36-6.314667 25.770667 1.536 5.12 4.266667 13.482667 6.314667 18.602666 2.048 5.12 4.266667 11.264 5.12 13.653334 0.853333 2.389333 4.266667 11.946667 7.850667 21.333333 7.168 19.968 8.704 26.453333 5.973333 26.453333-2.389333 0.170667-96.938667 0.170667-99.157333 0-2.56 0-1.877333-7.168 0.853333-10.922666 1.365333-1.877333 2.56-4.949333 2.56-6.826667 0-2.048 1.194667-5.12 2.56-6.826667 1.365333-1.877333 2.56-4.778667 2.56-6.314666 0-1.706667 1.024-5.12 2.389333-7.850667 1.365333-2.56 3.754667-8.021333 5.12-12.117333 5.973333-15.701333 8.362667-21.845333 10.581334-27.306667 3.754667-8.704 2.901333-14.165333-3.754667-23.722667-4.096-5.973333-5.632-9.728-4.608-11.264 3.072-5.461333 33.962667-37.034667 36.181333-37.034666 1.194667 0 6.144 3.754667 10.752 8.533333z" p-id="1322"></path></svg>