<?xml version="1.0" standalone="no"?><!DOCTYPE svg PUBLIC "-//W3C//DTD SVG 1.1//EN" "http://www.w3.org/Graphics/SVG/1.1/DTD/svg11.dtd"><svg t="1522399748646" class="icon" style="" viewBox="0 0 1024 1024" version="1.1" xmlns="http://www.w3.org/2000/svg" p-id="2245" xmlns:xlink="http://www.w3.org/1999/xlink" width="200" height="200"><defs><style type="text/css"></style></defs><path d="M475.022222 54.272c-21.731556 4.437333-38.798222 10.695111-51.2 18.659556-1.820444 1.137778-4.209778 2.503111-5.12 2.958222-4.209778 1.820444-17.294222 12.743111-25.6 21.390222-16.839111 17.294222-32.085333 43.690667-35.953778 61.781333-0.568889 2.730667-1.365333 5.575111-1.820444 6.257778-0.910222 1.365333-1.479111 5.575111-3.868444 24.689778-1.024 8.192-1.024 13.312 0 21.617778 2.958222 23.893333 5.461333 33.564444 12.743111 49.493333 1.706667 3.754667 3.413333 7.623111 3.754666 8.533333 0.341333 0.910222 1.706667 3.185778 2.958223 5.12 1.251556 1.820444 2.616889 4.209778 3.072 5.12 1.820444 4.096 14.336 19.456 21.504 26.396445 7.395556 7.168 20.593778 17.749333 24.348444 19.456 0.910222 0.455111 3.299556 1.820444 5.12 2.958222 11.491556 7.395556 31.971556 14.904889 47.217778 17.294222 17.180444 2.616889 25.827556 3.185778 35.271111 2.161778 24.689778-2.844444 34.360889-5.233778 50.631111-12.629333 3.754667-1.706667 7.623111-3.413333 8.533333-3.754667 0.910222-0.341333 3.299556-1.706667 5.12-2.958222 1.934222-1.251556 4.209778-2.616889 5.12-3.072 8.419556-3.754667 34.474667-28.672 41.756445-39.822222 6.144-9.443556 6.144-9.557333 11.036444-19.342223 6.599111-13.312 9.329778-20.48 10.922667-28.216889 0.568889-2.503111 1.592889-6.599111 2.389333-9.102222 1.024-3.072 1.479111-12.060444 1.479111-27.875555 0.113778-24.462222-0.568889-29.696-6.485333-47.217778-4.892444-14.563556-9.329778-23.779556-17.294222-35.84-5.12-7.736889-20.593778-26.168889-21.959111-26.168889-0.455111 0-3.299556-2.389333-6.485334-5.347556-8.874667-8.305778-21.162667-15.928889-36.408889-22.528-24.120889-10.581333-57.912889-14.677333-80.782222-10.012444z m46.648889 47.672889c14.791111 3.868444 24.348444 8.533333 35.84 17.180444 22.072889 16.725333 34.816 37.319111 39.936 64.625778 3.527111 19.228444-0.455111 46.193778-9.329778 62.008889-0.455111 0.910222-2.048 3.754667-3.299555 6.257778-7.281778 13.425778-28.444444 33.223111-42.097778 39.367111-16.156444 7.281778-28.444444 10.126222-44.259556 10.126222-12.629333 0-30.947556-3.072-33.678222-5.802667-0.568889-0.568889-1.820444-1.024-2.844444-1.024-1.024 0-4.209778-1.251556-6.940445-2.844444-2.730667-1.592889-5.802667-3.185778-6.712889-3.640889-6.371556-2.958222-21.617778-16.270222-29.013333-25.372444-3.640889-4.551111-8.988444-12.856889-10.24-15.928889-0.455111-0.910222-1.251556-2.616889-1.820444-3.640889-1.592889-3.185778-4.323556-11.036444-6.712889-19.683556-2.958222-10.467556-3.072-33.678222-0.455111-44.714666 6.257778-25.486222 18.545778-44.259556 39.139555-59.733334 11.264-8.533333 18.432-12.060444 32.995556-16.384 12.174222-3.640889 36.977778-3.982222 49.493333-0.796444zM488.675556 373.873778c-23.210667 2.161778-46.762667 6.485333-62.122667 11.264-2.958222 0.910222-6.144 1.706667-7.168 1.706666-0.910222 0-3.413333 0.682667-5.461333 1.592889-2.048 0.910222-5.802667 2.389333-8.305778 3.299556-11.491556 4.209778-15.246222 5.802667-21.617778 8.760889-11.832889 5.461333-23.779556 11.491556-26.851556 13.425778-1.706667 1.024-7.054222 4.437333-11.946666 7.395555-8.419556 5.12-12.629333 8.192-29.696 21.276445-12.629333 9.671111-39.367111 37.546667-51.655111 54.044444-6.599111 8.760889-12.288 16.725333-12.743111 17.635556-0.455111 0.910222-1.820444 3.185778-3.072 5.12-1.251556 1.820444-2.730667 4.437333-3.413334 5.688888-0.682667 1.251556-2.161778 3.754667-3.299555 5.688889-3.185778 4.892444-13.539556 26.168889-18.773334 38.456889-1.024 2.389333-1.820444 5.233778-1.820444 6.257778 0 1.137778-0.568889 2.616889-1.251556 3.299556-0.682667 0.682667-1.592889 2.958222-2.161777 5.006222-0.455111 2.161778-1.479111 5.347556-2.048 7.281778-10.24 29.809778-16.611556 80.327111-13.880889 109.795555 2.389333 26.510222 3.185778 33.678222 4.437333 37.546667 0.682667 2.161778 1.251556 5.461333 1.251556 7.281778 0 3.072 1.592889 9.557333 4.778666 20.024888 0.682667 2.161778 1.706667 5.802667 2.161778 7.964445 0.455111 2.161778 1.934222 6.826667 3.299556 10.24s2.844444 7.850667 3.299555 9.671111c0.455111 1.934222 1.365333 4.437333 2.048 5.688889 1.024 2.161778 2.844444 6.144 6.826667 15.36 0.910222 2.161778 2.161778 4.778667 2.616889 5.688889 0.568889 0.910222 2.958222 5.575111 5.347555 10.24s5.688889 10.581333 7.281778 13.084444c13.653333 20.935111 17.408 26.396444 25.372444 36.295111 11.150222 13.767111 34.474667 37.205333 46.535112 46.648889 9.671111 7.509333 29.582222 21.617778 33.223111 23.438222 1.251556 0.682667 5.347556 2.958222 9.102222 5.006223 3.754667 2.161778 9.671111 5.233778 13.084444 6.940444s8.874667 4.323556 11.946667 5.916445c8.305778 4.209778 18.318222 4.778667 24.689778 1.592888 11.605333-6.030222 16.497778-19.228444 11.036444-29.696-2.389333-4.551111-11.832889-13.653333-14.222222-13.653333-1.365333 0-19.911111-9.443556-26.624-13.539555-2.161778-1.251556-4.778667-2.730667-5.688889-3.185778-0.910222-0.455111-5.006222-3.072-9.102222-5.802667-28.216889-19.228444-51.655111-42.780444-70.656-70.883555-9.557333-14.222222-9.329778-13.767111-14.677333-24.348445-2.616889-5.006222-5.12-9.898667-5.575112-10.808889-0.455111-0.910222-1.706667-3.527111-2.616888-5.688889-0.910222-2.161778-2.503111-5.802667-3.527112-7.964444-2.503111-5.575111-7.623111-20.252444-8.647111-25.031111-0.455111-2.161778-1.479111-5.802667-2.161777-7.964445-1.706667-5.688889-4.437333-19.114667-6.485334-32.654222-2.275556-15.587556-2.389333-57.344 0-66.901333 0.910222-3.754667 1.706667-9.102222 1.706667-11.946667 0.113778-2.844444 0.796444-7.168 1.706667-9.671111s1.706667-5.688889 1.706666-7.168c0-1.479111 0.568889-3.640889 1.137778-4.892444 0.682667-1.137778 1.592889-4.323556 2.161778-6.940445 0.568889-2.730667 1.706667-6.712889 2.389333-8.874667 3.527111-9.898667 4.437333-12.288 6.257778-17.066666 3.072-7.850667 12.060444-26.168889 15.246222-31.288889 3.982222-6.144 4.778667-7.623111 7.850667-13.084445 9.216-16.839111 40.96-51.086222 61.098666-66.104888 11.719111-8.760889 20.366222-14.791111 23.324445-16.156445 0.910222-0.455111 3.299556-1.820444 5.12-2.958222 6.030222-3.868444 32.312889-16.497778 36.408889-17.521778 1.251556-0.341333 5.12-1.706667 8.533333-3.072 3.413333-1.365333 7.281778-2.730667 8.533333-2.958222 2.389333-0.568889 9.784889-2.616889 20.024889-5.461333 3.527111-1.024 8.078222-1.820444 10.24-1.820445 2.161778 0 7.168-0.796444 11.264-1.820444 5.575111-1.251556 14.222222-1.706667 35.271111-1.706667s29.696 0.455111 35.271112 1.706667c4.096 1.024 9.102222 1.820444 11.264 1.820444 2.161778 0 6.712889 0.796444 10.24 1.820445 10.24 2.844444 17.635556 4.892444 20.024888 5.461333 1.251556 0.227556 5.12 1.592889 8.533334 2.958222 3.413333 1.365333 7.281778 2.730667 8.533333 3.072 4.096 1.024 30.72 13.767111 36.408889 17.408 1.934222 1.251556 4.437333 2.730667 5.688889 3.413333 6.712889 3.413333 32.540444 22.755556 40.846222 30.606223 15.018667 14.336 19.911111 19.797333 32.426667 36.522666 10.24 13.767111 11.832889 16.156444 13.767111 19.911111 0.682667 1.251556 2.161778 3.754667 3.413333 5.688889 5.461333 8.419556 18.090667 35.612444 20.138667 43.235556 0.227556 1.251556 1.251556 3.754667 2.048 5.688889 0.796444 1.820444 2.275556 6.485333 3.185778 10.24 1.024 3.754667 2.503111 9.898667 3.527111 13.653333 5.347556 21.731556 7.623111 53.589333 5.688889 80.213333-0.796444 10.353778-1.934222 20.593778-2.616889 22.755556-0.682667 2.161778-1.251556 5.916444-1.251556 8.192 0 2.389333-0.682667 6.257778-1.592889 8.533333-1.479111 4.209778-3.185778 10.467556-5.233777 18.545778-0.455111 2.161778-2.048 6.826667-3.413334 10.24s-2.958222 7.850667-3.527111 9.898667c-0.568889 2.048-1.592889 3.982222-2.161778 4.323555-0.682667 0.455111-1.137778 1.479111-1.137777 2.389334 0 1.706667-2.730667 7.623111-10.581334 22.414222-6.257778 11.832889-20.366222 32.426667-29.582222 43.008-7.964444 9.216-10.695111 12.060444-28.558222 29.240889-8.760889 8.419556-13.312 15.928889-13.084445 21.731555 0 4.664889 3.640889 12.515556 7.623111 16.497778 2.048 2.048 6.371556 4.664889 9.898667 5.802667 6.144 2.161778 6.371556 2.161778 12.515556 0 6.144-2.048 16.384-10.467556 32.426666-26.737778 10.695111-10.808889 32.995556-38.115556 32.995556-40.391111 0-0.455111 2.275556-3.754667 5.12-7.395556s5.12-6.940444 5.12-7.281777c0-0.455111 1.251556-2.730667 2.844444-5.233778 1.592889-2.503111 5.461333-9.784889 8.647111-16.156445 6.144-12.515556 6.599111-13.312 13.994667-30.833777 1.024-2.389333 1.820444-5.006222 1.820445-5.916445 0-0.910222 0.682667-3.299556 1.592888-5.347555 0.910222-2.048 2.503111-6.826667 3.527112-10.581334 1.024-3.754667 2.616889-9.216 3.527111-12.060444 0.910222-2.958222 1.592889-6.257778 1.592889-7.395556 0-1.251556 0.682667-5.461333 1.592888-9.557333 4.209778-18.318222 5.233778-31.175111 5.233778-60.302222 0-21.276444-0.455111-30.833778-1.706666-35.84-0.910222-3.754667-1.592889-8.760889-1.706667-11.150223 0-8.874667-10.581333-49.265778-15.473778-59.164444-0.910222-1.820444-1.592889-3.982222-1.592889-4.892444 0-2.503111-15.815111-35.84-20.48-43.121778-1.251556-1.934222-2.730667-4.437333-3.413333-5.688889-2.844444-5.347556-14.677333-22.983111-17.294222-25.713778-0.796444-0.910222-2.958222-3.868444-4.892445-6.712889-4.551111-6.826667-43.121778-45.283556-50.176-50.062222-3.072-2.161778-6.371556-4.551111-7.281778-5.461333-1.706667-1.820444-23.324444-16.270222-26.168888-17.635556-0.910222-0.455111-3.185778-1.820444-5.12-2.958222-1.820444-1.251556-7.281778-4.096-11.946667-6.371556-4.664889-2.275556-9.329778-4.664889-10.24-5.233777-0.910222-0.568889-2.503111-1.365333-3.413333-1.706667-0.910222-0.341333-3.185778-1.365333-5.12-2.161778-1.820444-0.796444-5.575111-2.275556-8.192-3.299555-2.730667-1.024-6.940444-2.616889-9.443556-3.527112-13.880889-5.233778-12.856889-4.892444-33.792-10.126222-6.826667-1.706667-19.569778-4.096-34.474667-6.371555-8.533333-1.251556-48.924444-2.389333-57.457777-1.592889z" p-id="2246"></path><path d="M560.355556 583.68c-13.539556 2.958222-18.659556 4.664889-30.151112 10.24-17.294222 8.419556-31.288889 20.252444-43.008 36.181333-6.826667 9.216-17.294222 29.013333-17.294222 32.654223 0 1.024-0.568889 2.844444-1.251555 4.096-2.389333 4.551111-5.802667 29.696-5.12 38.229333 0.796444 10.581333 3.754667 27.079111 5.233777 29.923555 0.568889 1.137778 1.137778 2.958222 1.137778 3.982223 0 3.640889 10.467556 23.438222 17.294222 32.654222 9.784889 13.425778 18.090667 20.935111 34.816 31.857778 1.706667 1.137778 4.209778 2.503111 5.575112 3.072 3.072 1.479111 4.323556 3.413333 2.844444 4.892444-1.592889 1.592889-20.138667-2.616889-29.582222-6.599111-2.048-0.910222-4.323556-1.592889-5.12-1.592889-0.682667 0-4.437333-1.479111-8.192-3.299555-3.754667-1.820444-7.623111-3.640889-8.533334-3.982223-0.910222-0.341333-3.185778-1.706667-5.12-2.958222-1.820444-1.251556-4.209778-2.616889-5.12-3.072-1.934222-0.796444-8.192-5.12-9.102222-6.144-0.341333-0.341333-3.072-2.503111-6.257778-4.892444-17.180444-12.856889-34.702222-34.360889-45.397333-55.637334-6.485333-12.970667-11.491556-18.090667-20.024889-20.707555-6.826667-2.048-7.168-2.048-13.425778 0-4.778667 1.592889-7.964444 3.640889-11.832888 7.623111-4.551111 4.778667-5.461333 6.371556-6.144 11.832889-0.341333 3.413333-0.455111 8.192 0 10.467555 1.365333 8.533333 18.204444 38.001778 29.582222 51.996445 7.964444 9.671111 24.917333 26.737778 31.402666 31.630222 3.413333 2.616889 7.395556 5.802667 8.874667 7.168 8.419556 7.964444 44.714667 26.851556 59.960889 31.175111 1.934222 0.455111 5.006222 1.479111 6.826667 2.161778 5.575111 1.820444 16.384 4.437333 26.851555 6.371555 13.539556 2.503111 58.026667 2.503111 67.015111 0 3.413333-0.910222 7.850667-1.706667 9.671111-1.706666 1.934222 0 5.688889-0.682667 8.533334-1.592889 2.844444-0.910222 8.419556-2.730667 12.515555-3.982222 13.312-4.209778 17.521778-5.916444 31.288889-12.743111 7.509333-3.754667 14.677333-7.509333 15.928889-8.192 26.851556-15.701333 57.344-46.421333 72.931556-73.386667 2.730667-4.778667 5.575111-9.557333 6.144-10.467556 0.682667-0.910222 1.479111-2.503111 1.820444-3.413333 0.455111-0.910222 1.934222-4.323556 3.299556-7.395556 7.281778-16.042667 13.084444-33.905778 13.084444-40.049777 0-5.916444-2.844444-12.060444-7.850667-17.294223-10.467556-10.695111-24.348444-10.695111-35.384888-0.113777-4.892444 4.778667-7.395556 9.671111-10.126223 19.911111-1.820444 6.712889-4.664889 12.174222-6.030222 11.719111-1.024-0.341333-1.479111-3.868444-1.592889-11.832889-0.455111-40.618667-17.635556-74.524444-49.948444-98.417778-11.150222-8.192-13.767111-9.443556-33.336889-17.066666-1.365333-0.568889-7.509333-2.048-13.539556-3.299556-13.539556-2.844444-31.288889-2.844444-44.145777 0z m42.666666 47.672889c19.000889 7.168 31.744 17.521778 41.756445 33.678222 5.688889 9.102222 9.443556 23.438222 9.443555 35.84 0 31.744-19.000889 57.457778-51.2 69.518222-2.275556 0.796444-10.467556 1.706667-18.773333 1.934223-17.635556 0.455111-22.983111-0.796444-40.163556-9.898667-1.706667-0.910222-7.168-5.802667-12.288-10.922667-7.054222-7.168-10.126222-11.377778-13.312-18.090666-2.389333-4.778667-4.209778-9.443556-4.209777-10.24 0-0.910222-0.796444-3.413333-1.706667-5.575112-1.137778-2.844444-1.706667-8.078222-1.706667-16.725333s0.568889-13.880889 1.706667-16.725333c0.910222-2.161778 1.706667-4.778667 1.706667-5.688889 0-1.024 1.934222-5.575111 4.209777-10.353778 3.072-6.257778 6.599111-11.036444 13.312-17.863111 5.12-5.12 10.581333-10.012444 12.288-10.922667 17.749333-9.216 20.707556-9.898667 39.025778-9.671111 9.898667 0.113778 17.408 0.796444 19.911111 1.706667z" p-id="2247"></path></svg>