<svg id="fae6ceeb-dda4-46c5-aeb9-3c0aee68aa03" data-name="图层 1" xmlns="http://www.w3.org/2000/svg" viewBox="0 0 76.58 77"><title>How Much</title><path d="M81.07,43.14A6.73,6.73,0,0,0,74.61,48H55.89a6.67,6.67,0,0,0-.46-1.19L68.77,33.51A6.76,6.76,0,1,0,66.17,31L53,44.16a6.67,6.67,0,0,0-1.72-.76V24.68a6.72,6.72,0,1,0-3.64,0V43.4a6.67,6.67,0,0,0-1.28.51L33.13,30.7a6.76,6.76,0,1,0-2.5,2.65L43.68,46.4A6.67,6.67,0,0,0,43,48H24.39a6.72,6.72,0,1,0,0,3.64H43a6.69,6.69,0,0,0,.87,1.9l-13.3,13.3a6.7,6.7,0,1,0,2.54,2.61L46.61,56a6.66,6.66,0,0,0,1,.37v19a6.72,6.72,0,1,0,3.64,0v-19A6.68,6.68,0,0,0,53,55.56L66.38,69a6.76,6.76,0,1,0,2.77-2.37L55.43,52.87a6.66,6.66,0,0,0,.46-1.19H74.61a6.72,6.72,0,1,0,6.46-8.54Zm-63.14,9.8A3.08,3.08,0,1,1,21,49.86,3.08,3.08,0,0,1,17.93,52.94ZM72,24.52a3.08,3.08,0,1,1-3.08,3.08A3.08,3.08,0,0,1,72,24.52Zm-25.62-6.3a3.08,3.08,0,1,1,3.08,3.08A3.08,3.08,0,0,1,46.35,18.22ZM27.17,30.68a3.08,3.08,0,1,1,3.08-3.08A3.08,3.08,0,0,1,27.17,30.68Zm0,45.08a3.08,3.08,0,1,1,3.08-3.08A3.08,3.08,0,0,1,27.17,75.76Zm25.34,6a3.08,3.08,0,1,1-3.08-3.08A3.08,3.08,0,0,1,52.51,81.78ZM49.43,52.94a3.08,3.08,0,1,1,3.08-3.08A3.08,3.08,0,0,1,49.43,52.94ZM75,72.68A3.08,3.08,0,1,1,72,69.6,3.08,3.08,0,0,1,75,72.68Zm6-19.74a3.08,3.08,0,1,1,3.08-3.08A3.08,3.08,0,0,1,81.07,52.94Z" transform="translate(-11.21 -11.5)"/></svg>