<?xml version="1.0" standalone="no"?><!DOCTYPE svg PUBLIC "-//W3C//DTD SVG 1.1//EN" "http://www.w3.org/Graphics/SVG/1.1/DTD/svg11.dtd"><svg t="1584065610856" class="icon" viewBox="0 0 1024 1024" version="1.1" xmlns="http://www.w3.org/2000/svg" p-id="1075" xmlns:xlink="http://www.w3.org/1999/xlink" width="200" height="200"><defs><style type="text/css"></style></defs><path d="M829.973 836.233H114.822c-16.991 0-30.66-13.67-30.66-30.66s13.669-30.661 30.66-30.661H830.1c38.453 0 72.434-31.3 75.756-69.88l34.365-391.302c1.789-16.735-3.705-33.47-14.947-45.99-11.37-12.137-27.339-18.78-43.819-18.524H294.184c-24.273 0-51.484 21.59-65.92 42.924-6.004 9.326-16.607 14.564-27.721 13.925-11.115-0.766-20.824-7.282-25.678-17.246-4.855-9.965-3.833-21.718 2.555-30.788 21.717-32.321 65.28-70.008 116.764-70.008H881.33c34.62 0 66.175 13.67 88.915 38.325 22.867 24.912 33.854 57.872 30.915 92.748l-34.365 391.557c-6.004 69.114-67.452 125.58-136.821 125.58z m0 0" p-id="1076"></path><path d="M554.797 596.188c-7.154 0-14.053-2.427-19.546-7.026L189.556 304.66c-11.88-11.115-13.158-29.51-2.81-42.03 10.347-12.52 28.616-14.82 41.774-5.238l327.426 269.555L931.28 256.242c13.798-9.198 32.322-5.876 41.903 7.537 9.709 13.414 6.898 32.066-6.132 42.158L572.554 590.311c-5.11 3.833-11.37 5.877-17.757 5.877zM228.903 441.354H85.822c-16.99 0-30.66-13.67-30.66-30.66s13.67-30.661 30.66-30.661h143.081c16.991 0 30.66 13.67 30.66 30.66 0 16.863-13.797 30.66-30.66 30.66zM371.346 569.36H50.818c-16.99 0-30.66-13.67-30.66-30.66s13.67-30.66 30.66-30.66h320.528c16.99 0 30.66 13.67 30.66 30.66s-13.67 30.66-30.66 30.66zM476.74 698.39H126.83c-16.992 0-30.661-13.67-30.661-30.66s13.67-30.66 30.66-30.66h349.91c10.987 0 21.08 5.876 26.573 15.33 5.493 9.453 5.493 21.206 0 30.66-5.493 9.581-15.713 15.33-26.572 15.33z m0 0" p-id="1077"></path></svg>