<?xml version="1.0" standalone="no"?><!DOCTYPE svg PUBLIC "-//W3C//DTD SVG 1.1//EN" "http://www.w3.org/Graphics/SVG/1.1/DTD/svg11.dtd"><svg t="1583812690142" class="icon" viewBox="0 0 200 200" version="1.1" xmlns="http://www.w3.org/2000/svg" p-id="1115" xmlns:xlink="http://www.w3.org/1999/xlink" width="200" height="200"><defs><style type="text/css"></style></defs>
<path d="M27.4,76.6c4.5,0,6.9-2.5,6.9-7.1V49c0-9,4.9-13.6,13.5-13.6h21c4.5,0,7-2.5,7-7c0-4.4-2.5-6.9-7-6.9H47.6
	c-18.1,0-27.3,8.9-27.3,26.8v21.3C20.3,74.1,22.9,76.6,27.4,76.6z"/>
<path d="M131.2,180.6h21.2c18.2,0,27.2-9,27.2-26.9v-21.2c0-4.6-2.5-7.1-7-7.1s-6.9,2.5-6.9,7.1V153c0,9-4.9,13.6-13.5,13.6h-21
	c-4.6,0-7.1,2.5-7.1,7C124.1,178.1,126.6,180.6,131.2,180.6L131.2,180.6L131.2,180.6z"/>
<path id="svg_13" d="M47,119c-1.9,0-3.7-0.8-4.9-2.1c-1.3-1.3-2.1-3-2.1-4.9l0,0l0,0c0-1.9,0.8-3.7,2.1-4.9c1.3-1.3,3-2.1,4.9-2.1
	h22c0,0,3.7,0,5,0c8.9,0,22,6.2,22,22.9c0,1.3,0,5,0,5v21c0,1.9-0.8,3.7-2.1,4.9c-1.3,1.3-3,2.1-4.9,2.1l0,0l0,0
	c-1.9,0-3.7-0.8-4.9-2.1c-1.3-1.3-2.1-3-2.1-4.9v-24.2l-44.9,44.9c-2.7,2.7-7.2,2.7-9.9,0l0,0c-2.7-2.7-2.7-7.2,0-9.9L73,119L47,119
	z"/>
<path id="svg_13_1_" d="M117.9,73.9l45.7-45.7c2.7-2.7,7.2-2.7,9.9,0l0,0c2.7,2.7,2.7,7.2,0,9.9L128.6,83h24.2
	c1.9,0,3.7,0.8,4.9,2.1c1.3,1.3,2.1,3,2.1,4.9l0,0l0,0c0,1.9-0.8,3.7-2.1,4.9c-1.3,1.3-3,2.1-4.9,2.1h-21c0,0-2.7,0-4,0
	C115.6,97,104,87,104,73c0-1.3,0-3,0-3V49c0-1.9,0.8-3.7,2.1-4.9s3-2.1,4.9-2.1l0,0l0,0c1.9,0,3.7,0.8,4.9,2.1s2.1,3,2.1,4.9
	L117.9,73.9z"/>
</svg>
