<?xml version="1.0" standalone="no"?><!DOCTYPE svg PUBLIC "-//W3C//DTD SVG 1.1//EN" "http://www.w3.org/Graphics/SVG/1.1/DTD/svg11.dtd"><svg t="1522399723129" class="icon" style="" viewBox="0 0 1024 1024" version="1.1" xmlns="http://www.w3.org/2000/svg" p-id="1693" xmlns:xlink="http://www.w3.org/1999/xlink" width="200" height="200"><defs><style type="text/css"></style></defs><path d="M218.453333 214.471111c-2.844444 0.910222-6.371556 1.706667-7.736889 1.706667-2.389333 0-5.802667 1.365333-11.605333 4.664889-0.910222 0.568889-2.730667 1.479111-3.982222 2.048-4.096 1.934222-15.132444 14.222222-18.204445 20.366222-6.371556 12.743111-6.257778 10.581333-6.257777 114.460444 0 82.147556-0.227556 96.142222-1.592889 96.597334-0.910222 0.341333-2.275556-0.113778-2.958222-1.024-0.796444-0.910222-2.275556-1.592889-3.413334-1.592889s-2.616889-0.796444-3.413333-1.706667c-0.796444-0.910222-2.503111-1.706667-3.868445-1.706667-1.365333 0-3.527111-0.796444-4.778666-1.706666-1.137778-0.910222-3.982222-1.706667-6.257778-1.706667s-6.371556-0.796444-8.988444-1.706667c-2.844444-1.024-8.760889-1.706667-14.449778-1.706666-5.916444 0-11.036444 0.682667-13.653334 1.706666-2.161778 0.910222-5.916444 1.706667-8.192 1.706667-2.389333 0-5.233778 0.796444-6.485333 1.706667-1.137778 0.910222-3.527111 1.706667-5.12 1.706666-1.706667 0-3.640889 0.796444-4.437333 1.706667-0.796444 0.910222-2.275556 1.706667-3.413334 1.706667s-2.616889 0.796444-3.413333 1.706666c-0.796444 0.910222-1.820444 1.706667-2.389333 1.706667-1.592889 0-15.36 9.898667-19.456 13.994667-12.856889 12.856889-21.845333 29.013333-26.396445 47.672889-1.592889 6.712889-1.820444 21.617778-1.820444 141.425777v133.802667l3.527111 5.461333c2.048 2.958222 5.461333 6.371556 7.623111 7.623112 3.982222 2.161778 13.880889 2.161778 473.656889 2.161777h469.560889l5.006222-3.413333c2.844444-2.161778 5.916444-5.575111 7.395556-8.533333l2.503111-5.12 0.113778-131.413334c0-117.191111-0.227556-132.323556-1.820445-139.946666-3.754667-17.180444-11.946667-33.564444-23.324444-46.08-5.006222-5.461333-22.755556-18.887111-27.192889-20.593778-0.910222-0.341333-3.185778-1.365333-4.892445-2.275556-1.820444-0.796444-4.096-1.592889-5.233777-1.592889-1.024 0-2.958222-0.796444-4.209778-1.706666-1.137778-0.910222-3.982222-1.706667-6.257778-1.706667s-6.371556-0.796444-8.988444-1.706667c-2.844444-1.024-8.760889-1.706667-14.449778-1.706666-5.916444 0-11.036444 0.682667-13.653334 1.706666-2.161778 0.910222-5.916444 1.706667-8.192 1.706667s-5.12 0.796444-6.257777 1.706667c-1.251556 0.910222-3.640889 1.706667-5.347556 1.706666-1.592889 0-3.640889 0.796444-4.437333 1.706667-0.796444 0.910222-2.389333 1.706667-3.527111 1.706667s-2.389333 0.455111-2.730667 1.137778c-0.341333 0.568889-1.706667 1.137778-2.844444 1.137777-2.161778 0-2.161778-2.503111-2.503112-100.465777l-0.341333-100.352-3.982222-7.964445c-7.509333-15.018667-22.072889-26.282667-39.253333-30.264889-10.353778-2.389333-580.039111-2.844444-587.662223-0.455111z m267.832889 43.690667c0.341333 0.568889 0.682667 61.781333 0.682667 136.192l0.113778 135.281778H216.746667l-0.341334-132.096-0.227555-132.096 2.389333-3.072c1.365333-1.706667 3.527111-3.640889 4.892445-4.096 3.185778-1.365333 262.030222-1.479111 262.826666-0.113778z m313.116445 1.365333c2.161778 1.251556 4.096 3.413333 4.437333 4.778667 0.341333 1.365333 0.455111 61.667556 0.341333 133.916444l-0.341333 131.413334h-269.653333l-0.341334-134.712889c-0.113778-98.645333 0.113778-135.054222 1.024-136.192 1.137778-1.365333 23.210667-1.592889 131.072-1.592889 129.365333 0 129.706667 0 133.461334 2.389333zM131.640889 487.537778c2.161778 0.910222 5.233778 1.706667 6.599111 1.706666 1.365333 0 3.185778 0.796444 3.982222 1.706667 0.796444 0.910222 1.934222 1.706667 2.503111 1.706667 1.592889 0 9.671111 6.599111 14.222223 11.377778 4.323556 4.778667 9.443556 14.791111 10.695111 21.048888 1.024 5.233778 1.479111 235.633778 0.455111 237.226667-0.796444 1.251556-93.525333 1.592889-96.597334 0.455111-1.592889-0.682667-1.820444-11.832889-1.820444-115.484444 0-117.304889 0.113778-121.287111 4.437333-130.616889C80.099556 508.017778 89.884444 496.071111 92.956444 496.071111c0.796444 0 1.479111-0.455111 1.479112-1.024 0-1.251556 9.102222-5.802667 11.605333-5.802667 1.024 0 3.299556-0.796444 5.006222-1.706666 4.209778-2.161778 15.36-2.161778 20.593778 0z m778.24 0c2.161778 0.910222 5.233778 1.706667 6.599111 1.706666 1.365333 0 3.185778 0.796444 3.982222 1.706667 0.796444 0.910222 1.934222 1.706667 2.503111 1.706667 0.568889 0 3.754667 2.048 7.054223 4.551111 10.24 7.736889 16.497778 18.659556 18.773333 33.109333 1.820444 11.150222 1.706667 229.944889-0.113778 231.765334-1.934222 1.934222-95.459556 1.934222-97.393778 0-2.161778-2.161778-1.934222-224.483556 0.227556-234.951112 1.820444-8.647111 3.982222-13.425778 8.988444-20.593777 3.299556-4.551111 14.336-13.880889 16.497778-13.880889 0.568889 0 1.706667-0.796444 2.503111-1.706667 0.796444-0.910222 2.730667-1.706667 4.437334-1.706667 1.592889-0.113778 4.209778-0.796444 5.802666-1.706666 3.754667-2.161778 14.904889-2.161778 20.138667 0z m-106.040889 182.044444v94.435556l-293.091556 0.341333-293.091555 0.227556-1.251556-2.958223c-0.910222-1.934222-1.024-3.527111-0.227555-5.006222 0.682667-1.365333 1.137778-34.019556 1.137778-92.046222V574.577778l293.319111 0.227555 293.205333 0.341334v94.435555z" p-id="1694"></path></svg>