<?xml version="1.0" standalone="no"?><!DOCTYPE svg PUBLIC "-//W3C//DTD SVG 1.1//EN" "http://www.w3.org/Graphics/SVG/1.1/DTD/svg11.dtd"><svg t="1583747350556" class="icon" viewBox="0 0 1109 1024" version="1.1" xmlns="http://www.w3.org/2000/svg" p-id="1655" xmlns:xlink="http://www.w3.org/1999/xlink" width="216.6015625" height="200"><defs><style type="text/css"></style></defs><path d="M665.267366 853.077461c0 18.934533 15.352324 34.286857 34.286857 34.286857H1074.662669a34.286857 34.286857 0 0 0 0-68.573713h-375.108446c-18.934533 0-34.286857 15.352324-34.286857 34.286856z m409.395303 102.348826h-375.108446a34.286857 34.286857 0 0 0 0 68.573713H1074.662669a34.286857 34.286857 0 0 0 0-68.573713z" p-id="1656"></path><path d="M886.852574 757.381309c8.187906 16.887556 29.169415 23.54023 45.545227 15.352324 16.887556-8.187906 23.54023-29.169415 15.352324-45.545227-1.023488-1.535232-2.046977-3.582209-3.070465-5.117441-64.47976-105.931034-164.781609-184.227886-282.994503-221.073464 125.889055-82.902549 160.687656-252.289855 77.785108-378.17891S487.692154-37.869065 361.803098 45.033483 201.115442 297.323338 284.017991 423.212394c20.469765 30.704648 47.08046 57.315342 77.785107 77.785107C146.870565 567.012494 0.511744 765.057471 0 989.201399a34.286857 34.286857 0 0 0 68.573713 0c2.558721-245.125437 202.650675-441.635182 447.776112-439.076461 150.452774 1.535232 290.158921 79.832084 370.502749 207.256371zM307.046477 272.75962c0-113.095452 91.602199-204.697651 204.697651-204.697651s204.697651 91.602199 204.697651 204.697651-91.602199 204.697651-204.697651 204.697651-204.697651-91.602199-204.697651-204.697651z" p-id="1657"></path></svg>