<svg width="25px" height="25px" viewBox="0 0 25 25" version="1.1" xmlns="http://www.w3.org/2000/svg">
    <g id="afwdef" stroke="none" stroke-width="1" fill-rule="evenodd">
        <g id="5-2-5se" transform="translate(-375.000000, -442.000000)" fill-rule="nonzero">
            <g id="Group-13" transform="translate(373.000000, 442.000000)">
                <g id="Group-8">
                    <g id="wssfe" transform="translate(2.000000, 0.000000)">
                        <path d="M12.5,4.6875 C12.9324777,4.6875 13.28125,4.33872768 13.28125,3.90625 L13.28125,0.78125 C13.28125,0.348772321 12.9324777,0 12.5,0 C12.0675223,0 11.71875,0.348772321 11.71875,0.78125 L11.71875,3.90625 C11.71875,4.33872768 12.0675223,4.6875 12.5,4.6875 Z M12.5,20.3125 C12.0675223,20.3125 11.71875,20.6612723 11.71875,21.09375 L11.71875,24.21875 C11.71875,24.6512277 12.0675223,25 12.5,25 C12.9324777,25 13.28125,24.6512277 13.28125,24.21875 L13.28125,21.09375 C13.28125,20.6612723 12.9324777,20.3125 12.5,20.3125 Z M24.21875,11.71875 L21.09375,11.71875 C20.6612723,11.71875 20.3125,12.0675223 20.3125,12.5 C20.3125,12.9324777 20.6612723,13.28125 21.09375,13.28125 L24.21875,13.28125 C24.6512277,13.28125 25,12.9324777 25,12.5 C25,12.0675223 24.6512277,11.71875 24.21875,11.71875 Z M4.6875,12.5 C4.6875,12.0675223 4.33872768,11.71875 3.90625,11.71875 L0.78125,11.71875 C0.348772321,11.71875 0,12.0675223 0,12.5 C0,12.9324777 0.348772321,13.28125 0.78125,13.28125 L3.90625,13.28125 C4.33872768,13.28125 4.6875,12.9324777 4.6875,12.5 Z M5.87053571,6.97544643 C6.17466518,7.27957589 6.67131696,7.27957589 6.97544643,6.97544643 C7.27957589,6.67131696 7.27957589,6.17466518 6.97544643,5.87053571 L4.765625,3.66071429 C4.46149554,3.35658482 3.96484375,3.35658482 3.66071429,3.66071429 C3.35658482,3.96484375 3.35658482,4.46149554 3.66071429,4.765625 L5.87053571,6.97544643 Z M19.1294643,18.0245536 C18.8253348,17.7204241 18.328683,17.7204241 18.0245536,18.0245536 C17.7204241,18.328683 17.7204241,18.8253348 18.0245536,19.1294643 L20.234375,21.3392857 C20.5385045,21.6434152 21.0351562,21.6434152 21.3392857,21.3392857 C21.6434152,21.0351562 21.6434152,20.5385045 21.3392857,20.234375 L19.1294643,18.0245536 Z M19.1294643,6.97544643 L21.3392857,4.765625 C21.6434152,4.46149554 21.6434152,3.96484375 21.3392857,3.66071429 C21.0351562,3.35658482 20.5385045,3.35658482 20.234375,3.66071429 L18.0245536,5.87053571 C17.7204241,6.17466518 17.7204241,6.67131696 18.0245536,6.97544643 C18.328683,7.27957589 18.8253348,7.27957589 19.1294643,6.97544643 Z M5.87053571,18.0245536 L3.66071429,20.234375 C3.35658482,20.5385045 3.35658482,21.0351562 3.66071429,21.3392857 C3.96484375,21.6434152 4.46149554,21.6434152 4.765625,21.3392857 L6.97544643,19.1294643 C7.27957589,18.8253348 7.27957589,18.328683 6.97544643,18.0245536 C6.67131696,17.7204241 6.17466518,17.7204241 5.87053571,18.0245536 Z M12.5,6.25 C9.04854911,6.25 6.25,9.04854911 6.25,12.5 C6.25,15.9514509 9.04854911,18.75 12.5,18.75 C15.9514509,18.75 18.75,15.9514509 18.75,12.5 C18.75,9.04854911 15.9514509,6.25 12.5,6.25 Z M12.5,17.1875 C9.91629464,17.1875 7.8125,15.0837054 7.8125,12.5 C7.8125,9.91629464 9.91629464,7.8125 12.5,7.8125 C15.0837054,7.8125 17.1875,9.91629464 17.1875,12.5 C17.1875,15.0837054 15.0837054,17.1875 12.5,17.1875 Z" id="Shape"></path>
                    </g>
                </g>
            </g>
        </g>
    </g>
</svg>