<svg id="d15df932-fb77-41c7-9ab9-1fe494c507e6" data-name="图层 1" xmlns="http://www.w3.org/2000/svg" viewBox="0 0 96.46 74.65"><title>Target</title><path d="M94.26,51.35H96a2,2,0,1,0,0-4H94.26l2.86-2.86a2,2,0,0,0-2.82-2.82l-5.68,5.69H85.14L88,44.5a2,2,0,0,0-2.82-2.82L79.5,47.36H76.12a37.3,37.3,0,1,0,0,4H79.5l6,6a2,2,0,0,0,2.82-2.82l-3.15-3.15h3.48l6,6a2,2,0,0,0,2.82-2.82ZM38.86,82.84A33.34,33.34,0,1,1,72.12,47.36H60.89a22.16,22.16,0,1,0,0,4H72.14A33.38,33.38,0,0,1,38.86,82.84Zm9-35.47a9.28,9.28,0,1,0,.07,4h8.94a18.2,18.2,0,1,1,0-4Z" transform="translate(-1.53 -12.17)"/></svg>