<?xml version="1.0" standalone="no"?><!DOCTYPE svg PUBLIC "-//W3C//DTD SVG 1.1//EN" "http://www.w3.org/Graphics/SVG/1.1/DTD/svg11.dtd"><svg t="1522399665806" class="icon" style="" viewBox="0 0 1024 1024" version="1.1" xmlns="http://www.w3.org/2000/svg" p-id="1140" xmlns:xlink="http://www.w3.org/1999/xlink" width="200" height="200"><defs><style type="text/css"></style></defs><path d="M220.046222 179.996444c-6.826667 3.868444-8.760889 5.575111-11.264 10.012445-2.048 3.527111-2.275556 6.485333-2.616889 27.875555-0.455111 26.737778-0.682667 27.420444-8.305777 28.558223-2.389333 0.455111-5.006222 1.479111-5.688889 2.275555-0.682667 0.910222-2.958222 1.592889-4.892445 1.592889-2.958222 0-5.575111-2.048-17.180444-13.767111-19.000889-19.114667-21.048889-20.366222-31.630222-20.366222-6.144 0-8.874667 0.455111-9.898667 1.706666-0.796444 0.910222-1.934222 1.706667-2.616889 1.706667-1.706667 0-7.623111 5.802667-7.623111 7.509333 0 0.682667-0.796444 1.934222-1.706667 2.730667-1.137778 1.024-1.706667 3.640889-1.706666 8.647111 0 9.671111 1.592889 11.946667 21.162666 31.516445 14.108444 14.108444 15.587556 15.928889 14.336 17.863111-0.796444 1.251556-1.365333 2.958222-1.365333 3.868444 0 0.796444-0.796444 2.161778-1.706667 2.958222-0.910222 0.796444-1.706667 2.730667-1.706666 4.437334 0 5.575111-1.137778 5.802667-25.144889 5.802666-12.401778 0-22.755556 0.455111-23.096889 1.024-0.341333 0.568889-2.275556 1.365333-4.323556 1.706667-4.209778 0.796444-10.695111 6.371556-13.653333 11.719111-2.616889 4.551111-2.844444 17.635556-0.341333 19.683556 0.910222 0.796444 1.706667 1.934222 1.706666 2.616889 0 1.820444 5.802667 7.623111 7.623111 7.623111 0.910222 0 1.820444 0.796444 2.161778 1.706666 0.568889 1.479111 4.551111 1.706667 26.168889 1.706667 24.917333 0 25.372444 0 27.079111 2.503111 1.024 1.365333 1.820444 3.299556 1.820445 4.323556 0 0.910222 1.365333 4.323556 3.072 7.623111l2.958222 6.030222-9.557334 9.898667c-5.233778 5.461333-11.264 11.377778-13.312 13.312-2.048 1.820444-6.030222 6.257778-8.874666 9.898666-4.778667 6.257778-5.006222 6.826667-5.006222 14.449778 0 5.688889 0.455111 8.305778 1.706666 9.329778 0.910222 0.796444 1.706667 2.048 1.706667 2.730667 0 2.616889 7.509333 8.305778 12.743111 9.784889 5.12 1.365333 10.126222 1.137778 17.294222-0.682667 2.048-0.455111 9.557333-7.054222 20.366222-17.749333 16.611556-16.497778 17.066667-16.839111 19.683556-15.132445 1.479111 0.910222 3.640889 1.706667 4.778667 1.706667 1.251556 0 2.844444 0.796444 3.640889 1.706666 0.796444 0.910222 2.616889 1.706667 4.096 1.706667 1.479111 0 3.072 0.910222 3.640888 1.934222 0.682667 1.137778 1.365333 13.198222 1.592889 26.851556 0.341333 21.959111 0.682667 25.031111 2.389334 25.941333 1.024 0.682667 1.934222 1.820444 1.934222 2.616889 0 1.592889 7.054222 7.509333 8.874667 7.509333 0.568889 0 1.706667 0.796444 2.503111 1.706667 0.910222 1.137778 3.527111 1.706667 7.964444 1.706667s7.054222-0.568889 7.964445-1.706667c0.796444-0.910222 2.048-1.706667 2.844444-1.706667s3.527111-2.048 6.030222-4.551111c6.257778-6.257778 7.281778-11.605333 6.940445-36.636444-0.227556-21.504 0.227556-23.665778 5.233777-23.665778 1.365333 0 3.185778-0.796444 3.982223-1.706667 0.796444-0.910222 2.161778-1.706667 3.072-1.706666 0.796444 0 2.844444-0.796444 4.437333-1.820445 2.616889-1.820444 2.958222-1.706667 5.347556 0.227556 1.365333 1.251556 3.185778 3.072 4.096 4.323555 0.910222 1.137778 3.640889 3.982222 6.030222 6.257778 2.503111 2.275556 8.419556 7.964444 13.198222 12.743111 6.940444 6.712889 9.898667 8.874667 14.222222 10.126223 10.922667 2.958222 21.731556-0.682667 27.534222-9.216 2.958222-4.437333 3.413333-6.030222 3.413334-12.970667 0-7.509333-0.341333-8.419556-3.982222-13.084445-2.161778-2.844444-10.012444-11.036444-17.294223-18.318222-14.222222-14.108444-15.246222-15.928889-11.832889-22.414222 0.796444-1.706667 2.616889-5.461333 3.982223-8.533333l2.389333-5.347556h24.917333c16.384 0 25.258667-0.455111 25.713778-1.251555 0.455111-0.568889 2.048-1.592889 3.527111-2.161778 3.868444-1.479111 9.329778-9.671111 10.24-15.36 1.251556-8.988444-0.341333-13.994667-6.485333-20.024889-3.185778-3.185778-7.054222-5.688889-9.216-6.144-2.048-0.455111-4.323556-1.251556-5.006222-1.820445-0.682667-0.568889-10.808889-1.137778-22.641778-1.251555l-21.390222-0.341333-3.754667-6.826667c-6.144-11.150222-6.144-11.150222 12.401778-30.037333 11.832889-11.946667 16.839111-17.863111 17.863111-21.048889 3.185778-9.784889-1.251556-21.731556-10.24-27.420445-3.754667-2.389333-5.916444-2.844444-12.515556-2.844444-10.24 0-11.491556 0.796444-30.151111 19.228444-16.042667 15.815111-17.635556 16.725333-24.234666 13.425778-1.706667-0.910222-5.12-2.503111-7.623112-3.754667l-4.551111-2.161777-0.568889-23.893334c-0.455111-13.994667-1.251556-25.144889-1.934222-26.851555-0.796444-1.706667-3.640889-5.461333-6.485333-8.419556-4.892444-5.006222-5.461333-5.233778-12.856889-5.802667-6.712889-0.568889-8.419556-0.227556-12.401778 2.048z m22.072889 109.340445c1.706667 0.910222 5.12 2.616889 7.509333 3.754667 12.629333 6.144 22.300444 22.186667 22.300445 37.205333 0 5.575111-0.568889 9.102222-1.706667 10.581333-0.910222 1.137778-1.706667 3.072-1.706666 4.096 0 2.503111-6.257778 11.946667-10.695112 16.156445-1.934222 1.820444-5.12 3.982222-7.054222 4.778666-2.048 0.910222-3.982222 2.048-4.437333 2.730667-0.455111 0.682667-6.940444 1.137778-16.270222 1.137778h-15.587556l-5.916444-3.868445c-10.695111-7.054222-18.432-17.635556-18.545778-25.372444 0-2.616889-0.455111-5.12-1.137778-5.461333-0.568889-0.341333-1.137778-3.185778-1.137778-6.257778s0.568889-5.916444 1.137778-6.257778c0.682667-0.341333 1.137778-2.275556 1.137778-4.096 0-4.664889 3.413333-11.036444 9.557333-17.408 5.006222-5.347556 11.719111-9.784889 14.791111-9.784889 0.796444 0 2.161778-0.796444 2.958223-1.706667 1.934222-2.275556 20.48-2.389333 24.803555-0.227555zM690.631111 183.751111c-1.024 1.251556-3.982222 1.706667-11.605333 1.706667-7.509333 0-10.581333 0.455111-11.832889 1.706666-1.024 1.024-3.868444 1.706667-7.054222 1.706667-2.958222 0-6.371556 0.796444-7.509334 1.706667-1.251556 0.910222-4.323556 1.706667-6.826666 1.706666-2.616889 0-5.688889 0.796444-6.826667 1.706667-1.251556 0.910222-3.527111 1.706667-5.12 1.706667s-3.982222 0.796444-5.12 1.706666c-1.251556 0.910222-3.527111 1.706667-5.12 1.706667s-3.982222 0.796444-5.12 1.706667c-1.251556 0.910222-3.640889 1.706667-5.347556 1.706666-1.592889 0-3.640889 0.796444-4.437333 1.706667-0.796444 0.910222-1.934222 1.706667-2.616889 1.706667-1.592889 0-24.576 11.491556-25.372444 12.629333-0.341333 0.568889-1.365333 1.024-2.275556 1.024s-2.275556 0.568889-3.072 1.137778c-1.365333 1.137778-13.653333 9.216-23.096889 15.132444-2.503111 1.592889-5.461333 3.640889-6.371555 4.664889-1.024 0.910222-5.12 4.209778-9.102222 7.395556-9.557333 7.281778-31.175111 28.899556-38.001778 38.001778-2.958222 3.868444-5.916444 7.509333-6.599111 8.192-0.796444 0.568889-3.072 3.640889-5.233778 6.826666-2.048 3.072-5.233778 7.736889-6.940445 10.24s-4.209778 6.599111-5.575111 9.102222c-1.365333 2.503111-3.413333 6.030222-4.551111 7.964445-3.185778 5.12-6.826667 12.515556-6.826666 13.880889 0 0.682667-0.796444 1.820444-1.706667 2.616889-0.910222 0.796444-1.706667 2.503111-1.706667 3.868444 0 1.365333-0.568889 3.072-1.365333 3.868445-3.072 3.072-4.778667 10.353778-5.12 22.300444-0.455111 12.629333 0 15.246222 4.892444 24.917333 0.910222 1.820444 1.592889 3.640889 1.592889 4.209778 0 1.934222 10.126222 15.701333 15.587556 21.162667 6.485333 6.485333 13.653333 12.288 16.611555 13.312 1.024 0.455111 1.934222 1.251556 1.934223 1.934222 0 0.568889 0.910222 1.137778 2.161777 1.137778 1.137778 0 2.730667 0.796444 3.527111 1.706666 0.796444 0.910222 2.275556 1.706667 3.299556 1.706667 1.137778 0 2.958222 0.796444 4.209778 1.706667 1.137778 0.910222 3.527111 1.706667 5.12 1.706666s3.868444 0.796444 5.12 1.706667c1.137778 0.910222 3.868444 1.706667 5.916444 1.706667 2.048 0 5.575111 0.796444 7.850667 1.706666 5.575111 2.389333 28.558222 2.389333 31.744 0 1.137778-0.910222 3.868444-1.706667 5.916444-1.706666 2.161778 0 5.233778-0.796444 7.054223-1.820445 4.096-2.503111 5.802667-1.706667 8.419555 3.640889 1.137778 2.503111 2.503111 5.233778 3.072 6.144 0.455111 0.910222 2.161778 3.982222 3.527111 6.826667 1.479111 2.844444 3.299556 5.575111 3.982222 6.030222 0.796444 0.455111 1.479111 1.479111 1.479112 2.048 0 4.209778 25.713778 30.606222 37.888 39.025778 3.527111 2.389333 6.485333 4.778667 6.485333 5.233778 0 0.455111 0.910222 1.137778 2.048 1.592889 1.024 0.341333 3.527111 1.706667 5.347555 2.958222 1.934222 1.251556 4.437333 2.730667 5.688889 3.413333 5.347556 2.730667 12.629333 7.054222 13.539556 7.964445 0.455111 0.455111-0.568889 4.209778-2.616889 8.419555-1.934222 4.096-3.527111 8.192-3.527111 8.988445 0 0.796444-0.796444 2.503111-1.706667 3.754666-0.910222 1.137778-1.706667 3.299556-1.706666 4.551111 0 1.365333-0.796444 3.072-1.706667 3.868445-0.910222 0.796444-1.706667 2.503111-1.706667 3.868444 0 1.251556-0.796444 3.413333-1.706666 4.551111-0.910222 1.251556-1.706667 3.072-1.706667 4.209778 0 1.024-0.796444 2.503111-1.706667 3.299556-0.910222 0.796444-1.706667 2.389333-1.706666 3.527111s-0.796444 3.982222-1.820445 6.371555c-4.323556 10.126222-5.347556 12.401778-6.826667 15.36-0.910222 1.592889-1.592889 3.982222-1.592888 5.233778 0 1.251556-0.796444 2.844444-1.706667 3.640889-0.910222 0.796444-1.706667 2.616889-1.706667 3.982222 0 1.365333-0.796444 3.185778-1.706666 3.982222-0.910222 0.796444-1.706667 2.275556-1.706667 3.299556 0 1.137778-1.479111 5.006222-3.413333 8.647111-1.820444 3.640889-3.413333 7.623111-3.413334 8.874667 0 1.137778-0.682667 3.527111-1.479111 5.12-0.910222 1.706667-2.389333 4.892444-3.299555 7.054222-0.910222 2.161778-2.616889 5.916444-3.640889 8.305778-1.024 2.389333-1.820444 5.006222-1.820445 5.802666 0 0.910222-0.796444 2.161778-1.706666 2.958223-0.910222 0.796444-1.706667 2.389333-1.706667 3.413333 0 2.048-0.682667 3.527111-5.006222 12.288-1.024 2.161778-1.820444 4.551111-1.820445 5.575111 0 0.910222-0.682667 3.072-1.479111 4.664889-0.910222 1.706667-2.389333 4.778667-3.413333 6.826667-1.024 2.161778-1.934222 4.778667-1.934222 5.916444 0 1.024-0.796444 2.616889-1.706667 3.413333-0.910222 0.796444-1.706667 2.503111-1.706667 3.868445 0 1.365333-0.682667 3.413333-1.592889 4.664889-0.796444 1.251556-1.820444 3.640889-2.275555 5.347555-0.341333 1.820444-1.251556 3.185778-1.820445 3.185778-0.682667 0-1.137778 1.137778-1.137777 2.503111 0 1.479111-0.796444 3.640889-1.706667 4.778667-0.910222 1.251556-1.706667 3.185778-1.706667 4.437333 0 1.137778-0.682667 3.527111-1.592889 5.12-0.910222 1.706667-2.503111 5.347556-3.527111 8.192-1.137778 2.844444-2.730667 6.940444-3.754666 9.102222-0.910222 2.161778-2.503111 5.802667-3.413334 7.964445-0.910222 2.161778-2.389333 5.461333-3.185778 7.168-0.910222 1.820444-1.592889 4.209778-1.592888 5.347555 0 1.024-0.796444 2.616889-1.706667 3.413334-0.910222 0.796444-1.706667 2.389333-1.706667 3.640889s-0.682667 3.640889-1.592889 5.233777c-8.305778 15.815111-10.922667 29.354667-6.712889 35.498667 8.305778 12.629333 20.593778 16.952889 31.630223 11.377778 8.078222-4.096 14.108444-13.425778 20.024889-31.288889 0.796444-2.503111 2.048-5.347556 2.844444-6.257778 0.682667-0.910222 1.592889-2.958222 1.934222-4.551111 0.568889-2.730667 6.940444-18.659556 11.946667-29.582222 1.251556-2.844444 3.072-7.509333 4.096-10.467556 1.024-2.958222 2.275556-6.371556 2.844444-7.395555 0.568889-1.137778 1.934222-4.323556 3.072-7.168 3.640889-9.216 6.257778-15.36 7.281778-17.294222 0.682667-1.137778 1.137778-2.503111 1.137778-3.072s1.706667-4.778667 3.868444-9.443556c2.161778-4.551111 4.664889-10.695111 5.688889-13.653333 1.024-2.958222 2.275556-6.371556 2.844445-7.395556 0.568889-1.137778 1.934222-4.323556 2.958222-7.168 1.024-2.844444 2.616889-6.599111 3.527111-8.305778 0.910222-1.820444 1.592889-3.754667 1.592889-4.209777 0-0.568889 1.479111-4.209778 3.299555-8.192 1.706667-3.982222 4.096-9.443556 5.233778-12.288 2.161778-5.688889 4.209778-10.695111 6.712889-16.270223 0.910222-1.934222 2.048-4.892444 2.503111-6.485333 0.341333-1.592889 1.934222-5.461333 3.299556-8.533333 1.365333-3.185778 3.754667-8.760889 5.233778-12.515556 1.479111-3.754667 3.072-7.281778 3.527111-7.964444 0.455111-0.568889 0.910222-1.934222 0.910222-2.958223 0-1.137778 0.796444-3.413333 1.706667-5.233777 0.910222-1.706667 2.389333-5.006222 3.299555-7.168 5.006222-12.515556 13.425778-32.654222 14.222222-34.133334 1.251556-2.389333 9.898667-2.844444 13.198223-0.682666 1.592889 1.024 4.664889 1.820444 6.826666 1.820444 2.275556 0 5.233778 0.682667 6.599111 1.365333 7.623111 4.323556 64.512 4.437333 70.769778 0.227556 1.251556-0.910222 3.754667-1.592889 5.688889-1.592889 1.934222 0 4.551111-0.796444 5.802667-1.706667 4.209778-3.185778 7.623111-2.161778 11.605333 3.640889 6.940444 10.24 7.623111 11.150222 13.198222 16.270223 3.072 2.844444 6.371556 6.030222 7.395556 7.054222 0.910222 1.137778 2.161778 2.048 2.616889 2.048 0.455111 0 2.958222 1.479111 5.688889 3.185778 2.730667 1.706667 6.940444 4.096 9.443555 5.233777 2.503111 1.137778 6.030222 2.844444 7.736889 3.640889 1.820444 0.910222 4.096 1.592889 5.233778 1.592889 1.024 0 2.958222 0.796444 4.209778 1.706667 1.137778 0.910222 3.982222 1.706667 6.144 1.706666 2.161778 0 6.485333 0.796444 9.557333 1.706667 7.054222 2.161778 19.228444 2.161778 25.144889 0 2.503111-0.910222 6.030222-1.706667 7.736889-1.706667 1.820444 0 4.664889-0.682667 6.257777-1.592888 1.706667-0.910222 5.347556-2.730667 8.192-4.096 8.647111-4.209778 10.24-5.233778 15.701334-10.353778 4.551111-4.437333 12.743111-15.587556 12.743111-17.635556 0-0.682667 0.682667-2.275556 5.575111-13.539555 1.137778-2.503111 2.616889-6.826667 3.413333-9.671111 0.796444-2.844444 2.161778-7.509333 2.958223-10.353778 0.910222-2.958222 1.706667-6.599111 1.706666-8.078222 0-1.479111 0.796444-3.754667 1.706667-5.006223 1.024-1.251556 1.592889-4.778667 1.706667-8.874666 0-4.664889 0.568889-7.395556 1.934222-8.874667 1.706667-1.934222 1.934222-6.030222 1.934222-38.456889 0-32.768-0.113778-36.408889-1.934222-38.456889-1.365333-1.479111-1.934222-4.096-1.934222-9.102222 0-3.754667-0.455111-7.168-1.024-7.509333-0.568889-0.455111-1.365333-2.844444-1.706667-5.575111-0.455111-2.616889-1.479111-7.395556-2.389333-10.467556-0.796444-3.185778-2.161778-7.964444-2.958223-10.808889-1.479111-5.233778-7.964444-22.983111-10.695111-29.013333-5.006222-11.150222-13.880889-28.672-16.156444-32.085334-1.479111-2.048-2.616889-3.982222-2.616889-4.209777 0-0.910222-17.408-26.282667-18.773333-27.420445-0.682667-0.568889-5.006222-5.461333-9.329778-10.808889-16.839111-20.138667-40.391111-40.049778-67.470222-56.661333-2.161778-1.365333-5.347556-3.072-7.054223-3.754667-1.820444-0.682667-3.185778-1.706667-3.185777-2.275555s-0.910222-1.024-2.161778-1.024c-1.137778 0-2.730667-0.796444-3.527111-1.706667-0.796444-0.910222-2.275556-1.706667-3.413334-1.706667s-2.616889-0.796444-3.413333-1.706666c-0.796444-0.910222-2.161778-1.706667-3.072-1.706667-0.910222 0-3.072-0.682667-4.664889-1.479111-1.706667-0.910222-4.778667-2.389333-6.826667-3.413333-2.161778-1.024-4.664889-1.934222-5.802666-1.934223-1.024 0-2.958222-0.796444-4.209778-1.706666-1.137778-0.910222-3.527111-1.706667-5.12-1.706667s-3.868444-0.796444-5.12-1.706667c-1.137778-0.910222-3.527111-1.706667-5.12-1.706666s-3.868444-0.796444-5.12-1.706667c-1.137778-0.910222-3.982222-1.706667-6.257778-1.706667-2.161778 0-5.006222-0.796444-6.257778-1.706666-1.137778-0.910222-4.664889-1.706667-7.623111-1.706667-3.072 0-7.168-0.682667-9.102222-1.592889-2.048-0.910222-8.192-1.820444-13.653333-2.161778-5.575111-0.341333-10.695111-1.137778-11.377778-1.820444-0.796444-0.796444-9.102222-1.251556-24.803556-1.251556-19.456 0-23.779556 0.341333-24.917333 1.706667z m-12.743111 52.224c0.455111 2.275556-3.072 6.030222-9.557333 10.126222-2.503111 1.592889-5.347556 3.640889-6.257778 4.437334-0.910222 0.910222-5.688889 5.12-10.695111 9.557333-11.832889 10.126222-33.109333 33.336889-34.816 37.774222-0.455111 1.137778-2.048 3.413333-3.754667 5.12-1.592889 1.706667-2.958222 3.527111-2.958222 3.868445 0 0.341333-1.479111 2.503111-3.185778 4.778666-1.706667 2.275556-3.754667 5.347556-4.551111 6.940445-0.796444 1.592889-2.958222 5.347556-4.778667 8.533333-1.820444 3.072-3.868444 6.826667-4.437333 8.192-0.682667 1.251556-1.706667 2.730667-2.275556 3.185778-0.682667 0.341333-1.251556 1.934222-1.251555 3.527111 0 1.592889-0.796444 3.072-1.706667 3.413333-0.910222 0.455111-1.706667 1.592889-1.706666 2.730667s-0.796444 2.616889-1.706667 3.413333c-0.910222 0.796444-1.706667 2.503111-1.706667 3.868445 0 1.365333-0.682667 3.413333-1.592889 4.664889-0.796444 1.251556-1.820444 3.640889-2.275555 5.347555-1.024 4.323556-4.664889 4.892444-11.491556 2.048-3.185778-1.365333-6.940444-2.958222-8.533333-3.640889-7.623111-3.185778-11.036444-4.664889-13.994667-6.144-1.820444-0.910222-3.982222-1.592889-5.006222-1.592889-0.910222 0-3.072-0.682667-4.664889-1.479111-3.299556-1.706667-8.988444-4.209778-14.108444-6.257777-4.209778-1.706667-4.209778-5.802667 0-12.060445 1.820444-2.503111 4.664889-6.712889 6.257777-9.102222 9.557333-13.880889 36.977778-41.528889 49.379556-49.948445 3.072-2.048 7.395556-5.12 9.671111-6.826666 2.161778-1.706667 4.551111-3.072 5.233778-3.072 0.796444 0 1.365333-0.455111 1.365333-1.137778 0-0.568889 1.706667-1.820444 3.754667-2.730667 1.934222-0.910222 6.712889-3.527111 10.467555-5.688889 3.754667-2.161778 7.964444-3.982222 9.216-4.096 1.365333 0 3.072-0.796444 3.868445-1.706666 0.796444-0.910222 2.275556-1.706667 3.413333-1.706667s2.616889-0.796444 3.413334-1.706667c0.796444-0.910222 2.616889-1.706667 3.982222-1.706666 1.365333 0 3.185778-0.796444 3.982222-1.706667 0.796444-0.910222 2.730667-1.706667 4.437333-1.706667s3.982222-0.682667 5.233778-1.592888c1.251556-0.796444 4.096-1.820444 6.257778-2.161778 4.209778-0.682667 10.695111-2.275556 19.342222-4.778667 6.030222-1.706667 7.281778-1.592889 7.736889 1.024z m128.568889 17.408c4.437333 4.209778 18.432 21.617778 18.432 22.869333 0 0.682667 0.682667 1.365333 1.479111 1.706667 0.682667 0.341333 2.389333 2.503111 3.640889 4.892445 1.251556 2.503111 3.640889 6.599111 5.461333 9.102222 1.706667 2.616889 3.072 5.347556 3.072 5.916444 0 0.682667 0.796444 2.616889 1.592889 4.437334 0.910222 1.706667 1.934222 3.982222 2.275556 4.892444 0.341333 0.910222 1.137778 2.503111 1.592889 3.413333 3.072 5.461333 4.778667 9.557333 4.778666 11.377778 0 1.137778 0.796444 3.527111 1.706667 5.233778 0.910222 1.820444 1.706667 4.778667 1.706667 6.485333 0 1.820444 0.455111 4.096 1.137777 5.233778 1.479111 2.958222 4.551111 30.378667 4.551111 41.415111 0 9.216-1.365333 22.869333-3.527111 34.929778-0.682667 3.413333-1.592889 9.216-2.161777 12.970667-0.455111 3.640889-1.479111 7.168-2.161778 7.850666-0.682667 0.682667-1.251556 2.844444-1.251556 4.778667 0 1.934222-0.796444 4.551111-1.706666 5.802667-0.910222 1.137778-1.706667 3.527111-1.706667 5.12s-0.796444 3.868444-1.706667 5.12c-0.910222 1.137778-1.706667 3.185778-1.706666 4.437333s-0.796444 3.299556-1.706667 4.437333c-0.910222 1.251556-1.706667 3.299556-1.706667 4.664889 0 4.778667-6.144 7.054222-9.102222 3.413333-0.796444-0.910222-2.389333-1.706667-3.640889-1.706666s-3.868444-0.682667-5.802667-1.592889c-2.048-0.910222-4.437333-1.934222-5.347555-2.275556-0.910222-0.341333-2.503111-1.137778-3.413333-1.592889-5.347556-3.072-9.557333-4.778667-11.264-4.778666-1.024 0-2.958222-0.796444-4.209778-1.706667-1.137778-0.910222-3.072-1.706667-4.096-1.706667-1.024 0-3.299556-0.682667-5.12-1.592888-4.323556-2.048-10.012444-4.551111-16.270222-6.940445-5.006222-1.934222-8.874667-3.413333-16.270223-6.599111-1.934222-0.910222-5.916444-2.503111-8.760889-3.640889-6.485333-2.503111-12.174222-4.892444-16.270222-6.940444-1.820444-0.910222-4.209778-1.592889-5.347555-1.592889-1.024 0-2.616889-0.682667-3.299556-1.592889-0.682667-0.910222-2.730667-1.820444-4.437333-2.161778-4.437333-0.796444-11.491556-3.640889-12.970667-5.12-0.796444-0.796444-2.389333-1.365333-3.527111-1.365333s-3.527111-0.682667-5.12-1.479111c-4.209778-2.161778-10.126222-4.664889-16.156444-7.054223-2.844444-1.024-6.599111-2.616889-8.305778-3.527111-1.820444-0.910222-3.982222-1.592889-4.778667-1.592889-0.796444 0-2.958222-0.682667-4.778667-1.592888-11.946667-5.916444-18.204444-8.647111-19.342222-8.647112-1.365333 0-6.826667-2.161778-13.653333-5.461333-3.185778-1.479111-3.754667-2.389333-3.754667-5.688889 0-2.048 0.796444-5.688889 1.820445-7.964444 4.323556-9.898667 10.012444-21.276444 10.922666-21.617778 0.455111-0.227556 0.910222-1.024 0.910223-1.820444 0-1.251556 8.988444-15.36 20.138666-31.402667 4.778667-6.940444 27.761778-30.151111 36.181334-36.522667 9.784889-7.395556 17.521778-12.401778 19.228444-12.401778 0.682667 0 1.934222-0.568889 2.616889-1.251555 1.479111-1.479111 4.664889-3.299556 11.719111-6.712889 8.874667-4.209778 11.719111-5.347556 18.773333-7.395556 3.754667-1.137778 8.760889-2.730667 11.150223-3.527111 2.275556-0.910222 6.940444-1.592889 10.24-1.706666 3.185778 0 7.736889-0.796444 9.898666-1.592889 2.275556-0.910222 8.647111-1.592889 15.018667-1.592889 10.467556-0.113778 11.150222 0 14.336 2.958222z m100.920889 74.524445c2.730667 3.072 4.778667 6.485333 5.802666 9.102222 0.341333 1.137778 1.137778 2.048 1.706667 2.048s1.592889 1.137778 2.161778 2.503111c0.568889 1.479111 2.958222 5.688889 5.12 9.443555 2.161778 3.754667 4.323556 7.623111 4.664889 8.533334 0.341333 0.910222 2.275556 5.006222 4.096 9.102222 6.144 13.425778 8.647111 20.138667 9.671111 25.031111 0.341333 1.592889 1.251556 4.437333 2.161778 6.485333 0.910222 1.934222 1.592889 5.347556 1.592889 7.509334 0 2.161778 0.796444 5.802667 1.706666 7.964444 0.910222 2.275556 1.706667 6.371556 1.706667 9.102222 0 2.844444 0.796444 7.281778 1.706667 9.898667 2.389333 6.940444 2.503111 51.768889 0 59.847111-0.910222 3.072-1.706667 7.736889-1.706667 10.24 0 5.461333-3.982222 15.246222-6.144 15.246222-0.910222 0-2.161778-0.796444-2.958222-1.706666-0.796444-0.910222-2.389333-1.706667-3.640889-1.706667s-3.640889-0.682667-5.233778-1.479111c-1.706667-0.910222-4.778667-2.389333-6.826667-3.413333-2.161778-1.024-4.551111-1.934222-5.347555-1.934223-0.796444 0-2.958222-0.682667-4.778667-1.592888-5.006222-2.389333-10.581333-4.778667-17.976889-7.623112-10.695111-4.096-11.946667-5.233778-11.946666-10.012444 0-2.389333 0.796444-5.233778 1.706666-6.485333 0.910222-1.137778 1.706667-2.844444 1.706667-3.640889 0-0.910222 0.682667-3.185778 1.592889-5.12 1.934222-4.551111 5.802667-17.294222 8.078222-26.965334 1.024-4.096 2.275556-8.988444 2.844444-10.808888 1.934222-6.257778 3.527111-17.976889 4.664889-33.564445 0.568889-8.419556 1.592889-15.815111 2.161778-16.384 1.592889-1.592889 1.479111-20.366222-0.113778-21.959111-0.682667-0.682667-1.706667-6.826667-2.161777-13.539556-0.568889-6.826667-1.592889-14.904889-2.275556-18.090666-0.568889-3.072-0.910222-6.257778-0.568889-7.054222 0.796444-2.275556 4.437333-1.706667 6.826667 1.024zM31.857778 559.217778c-0.796444 0.910222-2.048 1.706667-2.730667 1.706666-2.616889 0-8.647111 7.168-9.898667 11.832889-2.616889 9.784889 0.796444 22.755556 7.168 26.851556 7.395556 4.664889 10.353778 5.688889 16.384 5.688889 4.437333 0 7.623111 0.682667 10.126223 2.275555C56.888889 610.076444 70.542222 624.412444 70.542222 626.119111c0 1.137778 2.844444 4.323556 15.36 17.180445 8.988444 9.216 18.545778 16.611556 21.504 16.611555 0.910222 0 2.161778 0.796444 2.958222 1.706667 0.796444 0.910222 2.389333 1.706667 3.640889 1.706666 1.137778 0 3.299556 0.682667 4.664889 1.592889 6.826667 4.209778 37.205333 4.209778 43.463111 0 1.251556-0.910222 3.299556-1.592889 4.664889-1.592889 1.365333 0 3.072-0.796444 3.868445-1.706666 0.796444-0.910222 2.048-1.706667 2.958222-1.706667 4.892444 0 23.324444-16.497778 33.792-30.151111 8.419556-11.036444 16.042667-19.228444 20.821333-22.186667 4.551111-2.958222 19.797333-3.299556 22.072889-0.568889 0.796444 0.910222 2.048 1.706667 2.844445 1.706667s3.185778 1.934222 5.233777 4.323556c10.922667 12.401778 16.384 18.887111 20.024889 23.665777 2.161778 2.844444 5.802667 6.940444 7.964445 9.102223 4.892444 4.892444 18.090667 14.108444 20.138666 14.108444 0.910222 0 2.161778 0.796444 2.958223 1.706667 0.796444 0.910222 2.503111 1.706667 3.868444 1.706666 1.365333 0 3.072 0.568889 3.868444 1.365334 4.209778 4.209778 34.702222 4.551111 44.032 0.341333 10.695111-4.778667 19.569778-9.443556 22.641778-11.946667 8.192-6.712889 22.869333-22.528 27.420445-29.468444 2.730667-4.323556 11.832889-13.312 16.497777-16.497778 1.820444-1.137778 5.233778-1.820444 9.671112-1.820444 4.209778-0.113778 7.623111-0.682667 8.988444-1.706667 1.251556-0.910222 2.958222-1.706667 3.754667-1.706667 1.820444 0 9.443556-7.964444 9.443555-9.784888 0-0.682667 0.796444-1.934222 1.706667-2.730667 2.389333-2.048 2.275556-12.515556-0.227556-17.180445-6.144-11.264-12.629333-14.677333-27.875555-14.677333-8.305778 0-11.264 0.455111-12.288 1.706667-0.796444 0.910222-2.616889 1.706667-3.982222 1.706666-2.389333 0-6.144 1.479111-11.946667 4.778667-0.910222 0.455111-2.958222 1.479111-4.437333 2.048-3.527111 1.592889-28.785778 26.965333-32.312889 32.540445-1.479111 2.503111-5.916444 7.623111-9.784889 11.491555l-7.054222 7.168H327.68l-7.168-7.168c-3.868444-3.868444-10.353778-11.264-14.222222-16.497778-3.982222-5.233778-9.102222-11.264-11.264-13.539555-6.485333-6.371556-21.617778-17.180444-25.372445-17.976889-1.820444-0.455111-3.640889-1.251556-3.982222-1.820445-0.455111-0.568889-1.820444-1.024-3.185778-1.024-1.365333 0-3.982222-0.796444-5.802666-1.706666-4.551111-2.389333-30.947556-2.389333-34.133334 0-1.251556 0.910222-3.413333 1.706667-4.778666 1.706666-1.365333 0-4.209778 0.910222-6.371556 1.934223-2.048 1.024-5.12 2.503111-6.712889 3.413333-7.054222 3.413333-23.210667 18.659556-31.288889 29.354667-3.868444 5.12-10.012444 12.401778-13.653333 16.270222l-6.826667 7.054222h-11.377777c-10.808889 0-11.719111-0.227556-15.928889-3.185778-2.389333-1.820444-5.916444-5.233778-7.850667-7.736889-7.736889-10.353778-22.414222-26.624-29.696-32.995555-7.623111-6.599111-21.048889-14.108444-25.258667-14.108445-1.137778 0-3.072-0.796444-4.323555-1.706666-3.185778-2.389333-24.576-2.389333-26.624 0zM31.061333 700.757333c-4.778667 2.048-11.377778 10.126222-12.174222 14.563556C15.928889 733.297778 24.803556 745.244444 40.96 745.244444c3.640889 0 6.940444 0.455111 7.281778 1.024 0.341333 0.568889 2.844444 2.161778 5.461333 3.527112 5.688889 2.958222 7.623111 4.892444 14.791111 14.222222 12.743111 16.839111 26.510222 30.72 34.247111 34.474666 2.844444 1.479111 5.575111 3.072 5.916445 3.754667 0.455111 0.568889 1.820444 1.024 3.185778 1.024 1.365333 0 3.527111 0.796444 4.664888 1.706667 1.251556 0.910222 3.868444 1.706667 5.916445 1.706666 1.934222 0 5.461333 0.796444 7.623111 1.706667 2.275556 0.910222 6.940444 1.706667 10.467556 1.706667 3.527111 0 8.192-0.796444 10.467555-1.706667 2.161778-0.910222 5.688889-1.706667 7.623111-1.706667 2.048 0 4.664889-0.796444 5.916445-1.706666 1.137778-0.910222 3.072-1.706667 4.096-1.706667 4.209778 0 15.701333-8.192 25.827555-18.204444 6.144-6.030222 9.557333-10.012444 19.114667-22.186667 5.575111-6.940444 13.425778-14.222222 15.587555-14.222222 0.796444 0 2.161778-0.796444 2.958223-1.706667 0.910222-1.137778 3.527111-1.706667 7.964444-1.706667s7.054222 0.568889 7.964445 1.706667c0.796444 0.910222 2.048 1.706667 2.844444 1.706667 1.820444 0 12.856889 10.581333 17.749333 17.066666 4.323556 5.802667 8.647111 10.808889 11.605334 13.425778 1.024 1.024 1.934222 2.503111 1.934222 3.185778 0 3.185778 25.031111 20.935111 29.468444 20.935111 1.137778 0 2.730667 0.796444 3.527111 1.706667 0.796444 1.024 3.413333 1.706667 6.144 1.706666 2.503111 0.113778 5.916444 0.796444 7.509334 1.706667 3.754667 2.161778 16.725333 2.161778 20.48 0 1.592889-0.910222 4.892444-1.592889 7.509333-1.706667 2.503111 0 5.575111-0.796444 6.826667-1.706666 1.137778-0.910222 3.299556-1.706667 4.551111-1.706667 1.365333 0 3.072-0.796444 3.868444-1.706667 0.796444-0.910222 1.934222-1.706667 2.503111-1.706666 0.682667 0 3.072-1.592889 5.461334-3.413334 2.389333-1.934222 4.778667-3.413333 5.347555-3.413333 1.137778 0 10.922667-9.898667 14.563556-14.791111 1.251556-1.706667 4.437333-5.575111 7.054222-8.647111 2.616889-3.072 6.485333-7.850667 8.533333-10.581333 3.527111-4.778667 7.281778-7.736889 13.084445-10.24 1.251556-0.568889 2.730667-1.706667 3.185778-2.275556 0.341333-0.682667 3.754667-1.251556 7.509333-1.251556 5.12 0 7.736889-0.682667 11.036444-2.730666 8.419556-5.347556 12.743111-12.629333 12.743112-21.390222 0-4.437333-0.796444-6.485333-3.982223-11.036445-6.712889-9.329778-7.964444-9.784889-25.6-9.671111h-15.473777l-8.760889 4.551111c-4.892444 2.389333-10.012444 5.12-11.605334 5.916445-3.754667 2.048-19.228444 17.635556-25.372444 25.827555-7.395556 9.784889-18.318222 20.707556-23.324445 23.324445-5.916444 3.072-12.970667 2.958222-19.797333-0.568889-5.688889-2.730667-15.815111-12.401778-18.545778-17.635556-0.796444-1.479111-3.527111-4.892444-5.916444-7.509333-2.503111-2.616889-5.575111-6.257778-6.940445-8.192-3.527111-4.664889-15.246222-14.563556-20.707555-17.408-2.503111-1.251556-5.347556-2.730667-6.257778-3.185778-8.078222-4.551111-11.832889-5.233778-31.288889-5.233778-16.042667 0-20.252444 0.341333-23.438222 1.934222-2.161778 1.024-6.144 2.958222-8.988444 4.323556-2.844444 1.251556-6.144 2.958222-7.281778 3.754667-5.006222 3.072-20.821333 19.000889-27.192889 27.534222-13.425778 17.635556-22.300444 24.462222-32.199111 24.462222-9.216 0-16.384-5.347556-28.899556-21.048889-9.102222-11.491556-26.168889-28.899556-30.151111-30.72-1.820444-0.910222-5.461333-2.730667-7.964444-4.096-10.581333-5.688889-11.264-5.802667-25.6-6.257778-7.850667-0.227556-15.36 0-16.725334 0.568889z" p-id="1141"></path></svg>