<svg id="svg" xmlns="http://www.w3.org/2000/svg" viewBox="0 0 383.01 400"><title>user-2</title><g id="svgg"><path id="path0" d="M183.2.4c0,.24-1.53.4-3.8.4-3.11,0-3.8.11-3.8.6S175,2,173,2s-2.67.15-2.84.6-.8.6-2,.6c-1.46,0-1.83.15-2,.8s-.55.8-2.16.8-2,.15-2,.6-.47.6-1.81.6-1.88.19-2,.6-.73.6-1.43.6c-.86,0-1.25.23-1.4.8s-.55.8-1.36.8-1.15.2-1.15.6-.42.6-1.4.6-1.4.18-1.4.6-.4.6-1.24.6-1.29.22-1.45.8-.55.8-1.36.8-1.15.2-1.15.6a.7.7,0,0,1-.77.6,2.26,2.26,0,0,0-1.37.6,2.1,2.1,0,0,1-1.23.6c-.36,0-.63.34-.63.8,0,.65-.27.8-1.4.8-1,0-1.4.18-1.4.6a.6.6,0,0,1-.6.6.6.6,0,0,0-.6.6.7.7,0,0,1-.77.6c-1.19,0-2,.43-2,1a.58.58,0,0,1-.6.56.6.6,0,0,0-.6.6c0,.33-.36.6-.8.6s-.8.26-.8.57-.54.69-1.2.83-1.2.52-1.2.83a.59.59,0,0,1-.61.57,1,1,0,0,0-.84.6,1,1,0,0,1-.79.6.58.58,0,0,0-.56.6.6.6,0,0,1-.6.6c-.33,0-.6.36-.6.8a.71.71,0,0,1-.8.8c-.44,0-.8.27-.8.6a.6.6,0,0,1-.6.6.6.6,0,0,0-.6.6.6.6,0,0,1-.6.6c-.33,0-.6.36-.6.8a.71.71,0,0,1-.8.8c-.44,0-.8.27-.8.6a.6.6,0,0,1-.6.6.6.6,0,0,0-.6.6.6.6,0,0,1-.6.6c-.33,0-.6.36-.6.8s-.21.8-.46.8c-.86,0-3.54,3.2-3.54,4.22,0,.72-.22,1-.8,1s-.8.25-.8.56a1,1,0,0,1-.6.79,1,1,0,0,0-.6.84.61.61,0,0,1-.6.61q-.6,0-.6,1.2c0,.83-.2,1.2-.64,1.2a1,1,0,0,0-.85.8c-.12.44-.46.8-.76.8s-.55.44-.55,1.2-.2,1.2-.6,1.2-.6.36-.6.8-.18.8-.41.8-.63.49-.89,1.1a3.85,3.85,0,0,1-1,1.42,2,2,0,0,0-.51,1.5c0,.78-.2,1.18-.6,1.18s-.6.42-.6,1.4c0,1.13-.15,1.4-.8,1.4s-.8.27-.8,1.16c0,.66-.26,1.26-.6,1.39a1,1,0,0,0-.6.87,2.11,2.11,0,0,1-.6,1.24,3.27,3.27,0,0,0-.6,2c0,.9-.19,1.37-.55,1.37-.61,0-1,1.19-1,2.9,0,.71-.22,1.1-.61,1.1s-.6.49-.6,2-.15,2-.6,2-.6.55-.6,2.55c0,2.22-.11,2.58-.8,2.76s-.8.55-.8,2.65c0,1.9-.13,2.44-.6,2.44s-.6.62-.6,3.21-.14,3.26-.6,3.44-.6,2.44-.6,16.79.08,16.56.6,16.56.6.71.6,4,.11,4,.6,4,.6.56.6,2.64c0,2.3.1,2.66.8,2.85s.8.55.8,2.11a3.43,3.43,0,0,0,.6,2.4,3,3,0,0,1,.6,2,3.58,3.58,0,0,0,.6,2.12,3.06,3.06,0,0,1,.6,1.87c0,.93.21,1.32.8,1.48s.8.55.8,2c0,1.2.19,1.84.6,2s.6.73.6,1.39.21,1.16.6,1.16.6.4.6,1.24.22,1.29.8,1.45.8.55.8,1.38c0,.67.26,1.26.6,1.4s.6.73.6,1.39.21,1.16.6,1.16a.62.62,0,0,1,.6.64,1,1,0,0,0,.8.85c.57.15.8.55.8,1.36s.2,1.15.6,1.15.6.4.6,1.21.25,1.31.6,1.44a1,1,0,0,1,.6.79c0,.31.36.56.8.56a.71.71,0,0,1,.8.8c0,.44.27.8.6.8s.6.4.6,1.2.2,1.2.6,1.2a.62.62,0,0,1,.6.64,1,1,0,0,0,.8.85c.44.11.8.46.8.76a.58.58,0,0,0,.6.55c.38,0,.6.38.6,1,0,1.09,1.44,2.94,2.3,2.95a.57.57,0,0,1,.5.61.6.6,0,0,0,.6.6.61.61,0,0,1,.6.61,1,1,0,0,0,.6.84,1,1,0,0,1,.6.79c0,.31.36.56.8.56s.8.27.8.6a.6.6,0,0,0,.6.6c.33,0,.6.36.6.8s.27.8.6.8a.6.6,0,0,1,.6.6c0,.33.36.6.8.6s.8.27.8.6a.6.6,0,0,0,.6.6c.33,0,.6.2.6.44,0,.88,1.81,2.34,2.9,2.35.71,0,1.1.22,1.1.61a.6.6,0,0,0,.6.6.62.62,0,0,1,.6.64,1,1,0,0,0,.8.85c.44.11.8.46.8.76a.58.58,0,0,0,.6.55.6.6,0,0,1,.6.6c0,.42.42.6,1.4.6,1.13,0,1.4.15,1.4.8,0,.44.27.8.6.8a.6.6,0,1,1,0,1.2.6.6,0,0,0-.6.6c0,.45-.47.6-1.84.6s-1.88.15-2,.8-.55.8-1.56.8-1.35.18-1.35.6-.49.6-2,.6-2,.15-2,.6-.4.6-1.24.6-1.29.22-1.45.8-.55.8-1.36.8-1.15.21-1.15.6-.42.6-1.4.6-1.4.18-1.4.6-.4.6-1.24.6-1.29.22-1.45.8-.55.8-1.36.8-1.15.21-1.15.6-.42.6-1.4.6-1.4.18-1.4.6-.4.6-1.24.6-1.29.22-1.45.8-.55.8-1.36.8-1.15.21-1.15.6-.36.6-.8.6-.8.27-.8.6-.4.6-1.2.6-1.2.18-1.2.8-.27.8-1.21.8c-.71,0-1.31.25-1.44.6a1,1,0,0,1-.79.6.58.58,0,0,0-.56.6c0,.33-.36.6-.8.6a2.77,2.77,0,0,0-1.6.8,2.75,2.75,0,0,1-1.2.8c-.22,0-.4.27-.4.6a.7.7,0,0,1-.77.6,2.13,2.13,0,0,0-1.3.52,4.2,4.2,0,0,1-1.23.79,1.08,1.08,0,0,0-.7.88c0,.35-.35.61-.8.61s-.8.27-.8.6a.58.58,0,0,1-.56.6,1,1,0,0,0-.79.6,1.43,1.43,0,0,1-1.28.6c-.71,0-1.12.26-1.26.8s-.46.8-.76.8a.58.58,0,0,0-.55.6.6.6,0,0,1-.6.6.6.6,0,0,0-.6.6c0,.33-.36.6-.8.6a2.77,2.77,0,0,0-1.6.8,2.75,2.75,0,0,1-1.2.8c-.22,0-.4.27-.4.6s-.2.6-.44.6A4.35,4.35,0,0,0,74,244.3a.57.57,0,0,1-.61.5.6.6,0,0,0-.6.6c0,.33-.36.6-.8.6s-.8.27-.8.6a.6.6,0,0,1-.6.6c-.33,0-.6.36-.6.8s-.27.8-.6.8a.6.6,0,0,0-.6.6c0,.33-.36.6-.8.6s-.8.27-.8.6a.6.6,0,0,1-.6.6c-.33,0-.6.36-.6.8s-.27.8-.6.8a.6.6,0,0,0-.6.6c0,.33-.36.6-.8.6s-.8.27-.8.6a.6.6,0,0,1-.6.6c-.33,0-.6.36-.6.8s-.27.8-.6.8a.6.6,0,0,0-.6.6c0,.33-.36.6-.8.6s-.8.27-.8.6a.6.6,0,0,1-.6.6c-.33,0-.6.36-.6.8s-.27.8-.6.8a.6.6,0,0,0-.6.6c0,.33-.2.6-.44.6-.88,0-2.34,1.81-2.35,2.9,0,.71-.22,1.1-.61,1.1a.6.6,0,0,0-.6.6.62.62,0,0,1-.64.6,1,1,0,0,0-.85.8c-.12.44-.46.8-.76.8a.58.58,0,0,0-.55.6.6.6,0,0,1-.6.6c-.42,0-.6.42-.6,1.4,0,1.13-.15,1.4-.8,1.4-.44,0-.8.27-.8.6a.6.6,0,0,1-.6.6.61.61,0,0,0-.6.61,1,1,0,0,1-.6.84,1,1,0,0,0-.6.89,1.67,1.67,0,0,1-.8,1.16,1.63,1.63,0,0,0-.8,1.05,1,1,0,0,1-.6.78,1,1,0,0,0-.6.79,1.67,1.67,0,0,1-.6,1.06,1.86,1.86,0,0,0-.6,1.25c0,.41-.25.75-.56.75C39.65,283.2,38,286,38,287a.6.6,0,0,1-.6.59q-.6,0-.6,1.2c0,.81-.2,1.2-.61,1.2a1.08,1.08,0,0,0-.88.7,4.2,4.2,0,0,1-.79,1.23,2.14,2.14,0,0,0-.52,1.31,1.13,1.13,0,0,1-.6,1c-.34.13-.6.73-.6,1.39s-.21,1.16-.58,1.16-.69.56-.84,1.37a2.41,2.41,0,0,1-.82,1.59,1.32,1.32,0,0,0-.56,1.18,1.33,1.33,0,0,1-.6,1.2c-.35.13-.6.73-.6,1.44s-.2,1.21-.58,1.21-.69.56-.84,1.37a2.41,2.41,0,0,1-.82,1.59A1.39,1.39,0,0,0,26,309a1.4,1.4,0,0,1-.6,1.26c-.4.15-.6.79-.6,1.94,0,1.37-.16,1.75-.8,1.92s-.8.55-.8,1.4c0,.69-.25,1.29-.6,1.43s-.6.8-.6,2-.16,1.81-.6,1.81-.6.48-.6,2-.14,2-.8,2.16-.8.55-.8,2-.15,1.84-.6,1.84-.6.49-.6,2-.15,2-.6,2-.6.55-.6,2.55c0,2.22-.1,2.58-.8,2.76s-.8.55-.8,2.46c0,1.63-.16,2.31-.6,2.48s-.6.91-.6,3-.12,2.76-.6,2.76-.6.71-.6,4c0,3.62-.07,4-.8,4.16s-.8.55-.8,4.68c0,3.44-.14,4.6-.6,5.07-.9.9-.9,24.54,0,24.54.4,0,.6.4.6,1.24s.22,1.29.8,1.45.8.46.8.76a.58.58,0,0,0,.6.55c.33,0,.6.36.6.8s.27.8.6.8a.6.6,0,0,1,.6.6c0,.33.36.6.8.6s.8.27.8.6.4.6,1.2.6,1.2.18,1.2.4,2.07.4,5.4.4,5.4-.15,5.4-.4.27-.4.6-.4a.6.6,0,0,0,.6-.6c0-.42.42-.6,1.4-.6s1.4-.19,1.4-.56a1,1,0,0,1,.6-.79,1,1,0,0,0,.6-.8c0-.31.36-.66.8-.77s.8-.55.8-1.25.22-1,.6-1,.6-.49.6-2,.15-2,.6-2,.6-1.53.6-11.35c0-11,0-11.36.8-11.56s.8-.55.8-4c0-3.14.11-3.84.6-3.84s.6-.64.6-3.4.11-3.4.6-3.4.6-.55.6-2.55c0-2.22.1-2.58.8-2.76s.8-.55.8-2.08a4,4,0,0,1,.6-2.47,4.07,4.07,0,0,0,.6-2.53c0-1.35.18-2,.6-2.16a1.45,1.45,0,0,0,.6-1.3,2.14,2.14,0,0,1,.66-1.55c.43-.31.73-1.27.85-2.74s.36-2.26.74-2.26.55-.47.55-1.36.23-1.45.6-1.59.6-.8.6-2c0-1.55.12-1.81.8-1.81s.8-.27.8-1.4c0-1,.18-1.4.6-1.4s.6-.4.6-1.16.26-1.26.6-1.39.6-.73.6-1.4c0-.83.23-1.23.8-1.37s.8-.55.8-1.45.2-1.24.6-1.24.6-.4.6-1.16.26-1.26.6-1.39.6-.73.6-1.44c0-.95.18-1.21.8-1.21s.8-.27.8-1.4c0-1,.18-1.4.6-1.4a.6.6,0,0,0,.6-.6.6.6,0,0,1,.6-.6c.42,0,.6-.42.6-1.4,0-1.13.15-1.4.8-1.4.44,0,.8-.25.8-.56a1,1,0,0,1,.6-.79c.35-.13.6-.73.6-1.44s.2-1.21.6-1.21a.6.6,0,0,0,.6-.6.58.58,0,0,1,.56-.6c.61,0,1-.84,1-2a.7.7,0,0,1,.6-.77.6.6,0,0,0,.6-.6.6.6,0,0,1,.6-.6.68.68,0,0,0,.6-.74,2.43,2.43,0,0,1,.8-1.46,2.35,2.35,0,0,0,.8-1.26.57.57,0,0,1,.6-.54.6.6,0,0,0,.6-.6.6.6,0,0,1,.6-.6c.33,0,.6-.36.6-.8s.24-.8.53-.8C76.44,283.2,78,281,78,280c0-.46.26-.82.6-.82a.6.6,0,0,0,.6-.6c0-.33.36-.6.8-.6s.8-.27.8-.6a.6.6,0,0,1,.6-.6c.33,0,.6-.36.6-.8s.27-.8.6-.8a.6.6,0,0,0,.6-.6c0-.33.36-.6.8-.6s.8-.27.8-.6a.6.6,0,0,1,.6-.6c.33,0,.6-.36.6-.8s.27-.8.6-.8a.6.6,0,0,0,.6-.6c0-.33.36-.6.8-.6s.8-.27.8-.6a.6.6,0,0,1,.6-.6c.33,0,.6-.36.6-.8s.27-.8.6-.8a.6.6,0,0,0,.6-.6c0-.33.36-.6.8-.6s.8-.27.8-.6a.6.6,0,0,1,.6-.6c.33,0,.6-.36.6-.8s.27-.8,1-.8a1.38,1.38,0,0,0,1.24-.6,1.11,1.11,0,0,1,1-.6.69.69,0,0,0,.76-.6.6.6,0,0,1,.6-.6c.33,0,.6-.36.6-.8a.71.71,0,0,1,.8-.8c.44,0,.8-.27.8-.6a.6.6,0,0,1,.6-.6.6.6,0,0,0,.6-.6c0-.4.4-.6,1.24-.6s1.29-.22,1.45-.8.46-.8.76-.8a.58.58,0,0,0,.55-.6q0-.6,1.2-.6t1.2-.6a.62.62,0,0,1,.64-.6,1,1,0,0,0,.85-.8c.15-.57.55-.8,1.36-.8s1.15-.21,1.15-.6.36-.6.8-.6.8-.27.8-.6.36-.6.8-.6a2.35,2.35,0,0,0,1.49-.8,2.21,2.21,0,0,1,1.2-.8.56.56,0,0,0,.51-.6c0-.4.4-.6,1.21-.6s1.31-.25,1.43-.55a2.07,2.07,0,0,1,1.39-.79c.68-.14,1.17-.49,1.17-.85s.41-.61,1.4-.61,1.4-.18,1.4-.6.39-.6,1.16-.6,1.26-.26,1.39-.6a1.43,1.43,0,0,1,1.28-.6c.71,0,1.12-.26,1.26-.8s.55-.8,1.56-.8,1.35-.18,1.35-.6.4-.6,1.21-.6,1.31-.25,1.44-.6.73-.6,1.39-.6c.89,0,1.16-.18,1.16-.8s.27-.8,2-.8c1.51,0,2-.15,2-.6s.49-.6,2-.6,2-.15,2-.6.42-.6,1.37-.6c1.76,0,2.63-.35,2.63-1,0-.4.56-.56,2-.56s2-.15,2-.6.49-.6,2-.6,2-.15,2-.6.49-.6,2-.6h2v2.6c0,2-.13,2.6-.6,2.6s-.6.56-.6,2.61-.15,2.67-.6,2.84-.6.94-.6,3.34c0,2.77-.09,3.13-.8,3.32s-.8.55-.8,2.8c0,1.94-.15,2.65-.6,2.82s-.6.93-.6,3.24-.12,3-.6,3-.6.64-.6,3.35c0,3-.08,3.38-.8,3.56s-.8.55-.8,2.68c0,1.66-.2,2.66-.6,3.07s-.6,1.44-.6,3.33c0,2.06-.15,2.79-.6,3s-.6,1-.6,3.44-.13,3.21-.55,3.21c-.65,0-1.05,1.72-1.05,4.48a4.13,4.13,0,0,1-.6,2.58c-.44.44-.6,1.51-.6,4,0,2.64-.13,3.43-.6,3.61s-.6,1-.6,4c0,2.73-.16,3.94-.57,4.35-1.27,1.27-1.27,12,0,13a3.18,3.18,0,0,1,.57,2c0,1.11.17,1.55.6,1.55s.6.48.6,2,.18,2,.6,2.19a1.43,1.43,0,0,1,.6,1.28c0,.71.26,1.12.8,1.26s.8.55.8,1.56.18,1.35.6,1.35.6.4.6,1.2.2,1.2.6,1.2a.7.7,0,0,1,.6.77c0,1.19.43,2,1,2a.58.58,0,0,1,.56.6.6.6,0,0,0,.6.6c.42,0,.6.42.6,1.4s.18,1.4.6,1.4a.6.6,0,0,1,.6.6c0,.33.36.6.8.6.65,0,.8.27.8,1.4,0,1,.18,1.4.6,1.4a.6.6,0,0,1,.6.6.6.6,0,0,0,.6.6.62.62,0,0,1,.6.64,1,1,0,0,0,.8.85c.57.15.8.55.8,1.36s.21,1.15.6,1.15a.57.57,0,0,1,.61.5,4.35,4.35,0,0,0,2.35,2.3c.24,0,.44.27.44.6a.6.6,0,0,0,.6.6c.33,0,.6.36.6.8s.27.8.6.8a.6.6,0,0,1,.6.6c0,.33.36.6.8.6s.8.27.8.6a.6.6,0,0,0,.6.6c.33,0,.6.36.6.8s.25.8.56.8a1,1,0,0,1,.79.6,1,1,0,0,0,.84.6.61.61,0,0,1,.61.6.58.58,0,0,0,.55.6c.31,0,.65.36.76.8s.55.8,1.45.8,1.24.2,1.24.6a.6.6,0,0,0,.6.6.6.6,0,0,1,.6.6.58.58,0,0,0,.55.6c.31,0,.65.36.76.8s.55.8,1.45.8,1.24.2,1.24.6.36.6.8.6.8.27.8.6.38.6,1,.6a3,3,0,0,1,1.8.8,3.19,3.19,0,0,0,2.2.8c1,0,1.4.18,1.4.6s1,.6,6.6.6,6.6-.09,6.6-.6.4-.6,1.24-.6,1.29-.22,1.45-.8.55-.8,1.32-.8a1.49,1.49,0,0,0,1.34-.6,1,1,0,0,1,.84-.6.61.61,0,0,0,.61-.6c0-.4.4-.6,1.24-.6s1.29-.22,1.45-.8.46-.8.76-.8a.58.58,0,0,0,.55-.6.6.6,0,0,1,.6-.6.6.6,0,0,0,.6-.6c0-.33.36-.6.8-.6a.71.71,0,0,0,.8-.8c0-.44.27-.8.6-.8a.6.6,0,0,0,.6-.6c0-.38.38-.6,1-.6,1.09,0,2.94-1.44,2.95-2.3a.57.57,0,0,1,.61-.5.58.58,0,0,0,.6-.55c0-.3.36-.65.8-.76a1,1,0,0,0,.8-.85.62.62,0,0,1,.6-.64q.6,0,.6-1.2t.6-1.2a.6.6,0,0,0,.6-.6c0-.33.36-.6.8-.6a.71.71,0,0,0,.8-.8c0-.44.27-.8.6-.8a.6.6,0,0,0,.6-.6.6.6,0,0,1,.6-.6c.33,0,.6-.36.6-.8s.26-.8.57-.8.69-.54.83-1.2.52-1.2.83-1.2a.59.59,0,0,0,.57-.6.6.6,0,0,1,.6-.6.69.69,0,0,0,.6-.75,1.08,1.08,0,0,1,.8-1c.54-.14.8-.55.8-1.25s.22-1,.6-1,.6-.36.6-.8.27-.8.6-.8.6-.4.6-1.15.23-1.21.8-1.36.8-.48.8-.8a1,1,0,0,1,.6-.83,1.33,1.33,0,0,0,.6-1.2,1.33,1.33,0,0,1,.6-1.2c.35-.13.6-.73.6-1.44,0-.95.18-1.21.8-1.21s.8-.27.8-1.4c0-1,.18-1.4.6-1.4s.6-.4.6-1.2.2-1.2.6-1.2.6-.42.6-1.35.2-1.41.8-1.56.8-.55.8-1.27a2.7,2.7,0,0,1,.6-1.67c.84-.84.87-9.81,0-10.64-.38-.38-.61-1.86-.71-4.66-.13-3.36-.28-4.18-.84-4.49s-.69-1-.69-3.92c0-2.77-.13-3.59-.6-3.77s-.6-1-.6-3.85-.13-3.67-.6-3.86-.6-.88-.6-2.69c0-3-.31-4.26-1-4.26-.43,0-.55-.77-.55-3.4s-.11-3.4-.6-3.4-.6-.62-.6-3.21-.14-3.26-.6-3.44-.6-.93-.6-3.23c0-2.66-.09-3-.8-3.2s-.8-.55-.8-3.71c0-2.63-.15-3.63-.6-4s-.6-1.27-.6-3.06-.15-2.62-.6-2.79-.6-.95-.6-3.39c0-2.89-.07-3.16-.8-3.16s-.8-.27-.8-4v-4h1.36c.84,0,1.45.23,1.59.6s.86.6,2.6.6,2.43.16,2.6.6.79.6,1.95.6,1.84.2,2.22.8.93.8,2.11.8,1.69.2,1.84.6.79.6,2,.6,1.76.16,1.76.6.48.6,2,.6,2,.14,2.16.8.55.8,1.45.8,1.24.2,1.24.6.42.6,1.4.6,1.4.18,1.4.6.39.6,1.1.6a1.9,1.9,0,0,1,1.6.8,1.91,1.91,0,0,0,1.45.8,1.31,1.31,0,0,1,1.18.6c.13.35.73.6,1.44.6s1.21.2,1.21.6.4.6,1.15.6,1.21.23,1.36.8.55.8,1.45.8,1.24.2,1.24.6a.69.69,0,0,0,.76.6,1.11,1.11,0,0,1,1,.6,1.33,1.33,0,0,0,1.2.6,1.08,1.08,0,0,1,1.17.8c.15.58.55.8,1.45.8s1.24.2,1.24.6a.58.58,0,0,0,.56.6,1,1,0,0,1,.79.6c.13.35.73.6,1.44.6.95,0,1.21.18,1.21.8,0,.44.27.8.6.8a.6.6,0,0,1,.6.6c0,.42.42.6,1.4.6s1.4.18,1.4.6a.6.6,0,0,0,.6.6.61.61,0,0,1,.6.61,1.06,1.06,0,0,0,.7.87,2.29,2.29,0,0,1,1,.79,1.67,1.67,0,0,0,1.3.53c.6,0,1,.23,1,.6a.58.58,0,0,0,.55.6c.3,0,.65.36.76.8a1,1,0,0,0,.85.8.62.62,0,0,1,.64.6.6.6,0,0,0,.6.6.6.6,0,0,1,.6.6c0,.33.36.6.8.6s.8.26.8.57.54.69,1.2.83,1.2.52,1.2.83a.59.59,0,0,0,.6.57.6.6,0,0,1,.6.6c0,.33.36.6.8.6a.71.71,0,0,1,.8.8c0,.44.27.8.6.8a.6.6,0,0,1,.6.6.6.6,0,0,0,.6.6.6.6,0,0,1,.6.6c0,.33.36.6.8.6a.71.71,0,0,1,.8.8c0,.44.27.8.6.8a.6.6,0,0,1,.6.6.6.6,0,0,0,.6.6.6.6,0,0,1,.6.6c0,.33.36.6.8.6a.71.71,0,0,1,.8.8c0,.44.27.8.6.8a.6.6,0,0,1,.6.6.59.59,0,0,0,.57.6c.31,0,.69.54.83,1.2s.52,1.2.83,1.2.57.36.57.8.27.8.6.8a.6.6,0,0,1,.6.6.58.58,0,0,0,.55.6c.3,0,.65.36.76.8s.48.8.8.8.71.45.85,1,.43,1,.64,1,.39.37.39.81a1.16,1.16,0,0,0,.6,1,1,1,0,0,1,.6.79c0,.31.36.56.8.56s.8.27.8.6a.6.6,0,0,0,.6.6c.42,0,.6.42.6,1.4s.18,1.4.6,1.4a.56.56,0,0,1,.6.5,1.62,1.62,0,0,0,.8,1,1.91,1.91,0,0,1,.8,1.5c0,.62.23,1,.6,1a.6.6,0,0,1,.6.6.6.6,0,0,0,.6.6c.42,0,.6.42.6,1.4,0,1.13.15,1.4.8,1.4s.8.27.8,1.16c0,.66.26,1.26.6,1.39s.6.73.6,1.44.2,1.21.6,1.21a.62.62,0,0,1,.6.64,1,1,0,0,0,.8.85c.57.15.8.55.8,1.36s.21,1.15.6,1.15.6.42.6,1.4.18,1.4.6,1.4.6.4.6,1.24.22,1.3.8,1.45.8.55.8,1.78c0,1,.21,1.65.6,1.8s.6.75.6,1.59.18,1.36.6,1.36.6.42.6,1.4c0,1.13.15,1.4.8,1.4s.8.27.8,2c0,1.51.15,2,.6,2s.6.47.6,1.81.19,1.89.6,2,.6.75.6,1.55c0,1.72.35,2.59,1,2.59.4,0,.56.55.56,2a4.12,4.12,0,0,0,.6,2.57,4.19,4.19,0,0,1,.6,2.63c0,1.54.15,2,.6,2s.6.55.6,2.5c0,3,.31,4.3,1,4.3.42,0,.55.74.55,3.21s.14,3.26.6,3.44.6,1.11.6,4.79.1,4.56.6,4.56.6,1.36.6,9.84c0,9.5,0,9.85.8,10,.6.16.8.55.8,1.56s.18,1.35.6,1.35.6.4.6,1.2.2,1.2.6,1.2a.62.62,0,0,1,.6.64,1,1,0,0,0,.8.85c.44.12.8.46.8.76s.34.55.75.55a1.86,1.86,0,0,1,1.25.6,1.86,1.86,0,0,0,1.25.6c.41,0,.75.18.75.4s2,.4,5.2.4,5.2-.15,5.2-.4.63-.4,1.4-.4c1,0,1.4-.18,1.4-.6a.6.6,0,0,1,.6-.6.58.58,0,0,0,.6-.55c0-.3.36-.65.8-.76a1,1,0,0,0,.8-.85.62.62,0,0,1,.6-.64.6.6,0,0,0,.6-.6.6.6,0,0,1,.6-.6c.42,0,.6-.42.6-1.35s.2-1.41.8-1.56c1.4-.37,1.16-18.28-.25-18.28-.44,0-.55-1.06-.55-5.36s-.11-5.4-.6-5.59-.6-1.07-.6-4.46-.12-4.27-.6-4.45-.6-.89-.6-2.83c0-2.26-.1-2.62-.8-2.8s-.8-.55-.8-2.72c0-1.86-.15-2.57-.6-2.74s-.6-.87-.6-2.64-.13-2.41-.6-2.41-.6-.49-.6-2c0-1.73-.11-2-.8-2s-.8-.27-.8-2.56c0-1.9-.15-2.62-.6-2.79s-.6-.8-.6-2-.19-1.84-.6-2-.6-.73-.6-1.44c0-.95-.18-1.21-.8-1.21s-.8-.27-.8-2c0-1.51-.15-2-.6-2s-.6-.42-.6-1.4-.18-1.4-.6-1.4-.6-.39-.6-1.1c0-1.71-.44-2.9-1-2.9-.34,0-.55-.44-.55-1.16s-.26-1.26-.6-1.39-.6-.73-.6-1.44-.2-1.21-.6-1.21-.6-.4-.6-1.24-.22-1.29-.8-1.45-.8-.55-.8-1.36-.21-1.15-.6-1.15-.6-.4-.6-1.21-.25-1.31-.6-1.44a1.11,1.11,0,0,1-.6-1,2.73,2.73,0,0,0-.8-1.56,2.75,2.75,0,0,1-.8-1.2c0-.22-.27-.4-.6-.4s-.6-.42-.6-1.4-.18-1.4-.6-1.4-.6-.36-.6-.8a2.35,2.35,0,0,0-.8-1.49,2.21,2.21,0,0,1-.8-1.2.56.56,0,0,0-.6-.51c-.4,0-.6-.39-.6-1.16s-.26-1.26-.6-1.39a1,1,0,0,1-.6-.84c0-.35-.35-.61-.8-.61-.65,0-.8-.27-.8-1.4,0-1-.18-1.4-.6-1.4a.6.6,0,0,1-.6-.6.6.6,0,0,0-.6-.6c-.37,0-.6-.38-.6-1a1.91,1.91,0,0,0-.8-1.5,1.62,1.62,0,0,1-.8-1,.56.56,0,0,0-.6-.5.6.6,0,0,1-.6-.6.6.6,0,0,0-.6-.6c-.4,0-.6-.4-.6-1.24s-.22-1.29-.8-1.45-.8-.46-.8-.76a.58.58,0,0,0-.6-.55c-.33,0-.6-.36-.6-.8s-.27-.8-.6-.8a.6.6,0,0,1-.6-.6c0-.33-.36-.6-.8-.6s-.8-.27-.8-.6a.6.6,0,0,0-.6-.6c-.42,0-.6-.42-.6-1.4s-.18-1.4-.6-1.4a.6.6,0,0,1-.6-.6c0-.33-.36-.6-.8-.6a.71.71,0,0,1-.8-.8c0-.44-.27-.8-.6-.8a.6.6,0,0,1-.6-.6.6.6,0,0,0-.6-.6.6.6,0,0,1-.6-.6c0-.33-.36-.6-.8-.6a.71.71,0,0,1-.8-.8c0-.44-.27-.8-.6-.8a.6.6,0,0,1-.6-.6.6.6,0,0,0-.6-.6.6.6,0,0,1-.6-.6c0-.33-.36-.6-.8-.6a.71.71,0,0,1-.8-.8c0-.44-.27-.8-.6-.8a.6.6,0,0,1-.6-.6.6.6,0,0,0-.6-.6.6.6,0,0,1-.6-.6c0-.33-.36-.6-.8-.6a.71.71,0,0,1-.8-.8c0-.44-.27-.8-.6-.8a.6.6,0,0,1-.6-.6.6.6,0,0,0-.6-.6.6.6,0,0,1-.6-.6c0-.33-.36-.6-.8-.6a.71.71,0,0,1-.8-.8c0-.44-.27-.8-.6-.8a.6.6,0,0,1-.6-.6c0-.42-.42-.6-1.4-.6s-1.4-.18-1.4-.6a.6.6,0,0,0-.6-.6c-.33,0-.6-.36-.6-.8s-.27-.8-.6-.8a.6.6,0,0,1-.6-.6c0-.33-.36-.6-.8-.6s-.8-.27-.8-.6-.18-.6-.4-.6a2.75,2.75,0,0,1-1.2-.8,2.77,2.77,0,0,0-1.6-.8c-.44,0-.8-.27-.8-.6a.6.6,0,0,0-.6-.6.6.6,0,0,1-.6-.6c0-.33-.36-.6-.8-.6s-.8-.26-.8-.57-.54-.69-1.2-.83-1.2-.52-1.2-.83a.59.59,0,0,0-.61-.57,1,1,0,0,1-.84-.6c-.13-.34-.73-.6-1.39-.6-.89,0-1.16-.18-1.16-.8,0-.44-.25-.8-.56-.8a1,1,0,0,1-.79-.6c-.13-.35-.73-.6-1.44-.6s-1.21-.2-1.21-.6a.56.56,0,0,0-.5-.6,1.62,1.62,0,0,1-1-.8,1.91,1.91,0,0,0-1.5-.8c-.62,0-1-.23-1-.6s-.42-.6-1.4-.6-1.4-.18-1.4-.6-.4-.6-1.15-.6-1.21-.23-1.36-.8a1,1,0,0,0-.85-.8.62.62,0,0,1-.64-.6c0-.4-.4-.6-1.16-.6s-1.26-.26-1.39-.6-.73-.6-1.4-.6c-.83,0-1.23-.23-1.37-.8s-.55-.8-1.45-.8-1.24-.2-1.24-.6-.4-.6-1.16-.6-1.26-.26-1.39-.6-.73-.6-1.44-.6-1.21-.2-1.21-.56c0-.7-.87-1-2.63-1-.95,0-1.37-.18-1.37-.6s-.42-.6-1.4-.6-1.4-.18-1.4-.6-.49-.6-2-.6c-1.73,0-2-.11-2-.8s-.27-.8-1.21-.8c-.71,0-1.31-.25-1.44-.6s-.73-.6-1.39-.6-1.16-.21-1.16-.6a.6.6,0,0,1,.6-.6c.33,0,.6-.36.6-.8,0-.65.27-.8,1.4-.8,1,0,1.4-.18,1.4-.6a.6.6,0,0,1,.6-.6.58.58,0,0,0,.6-.55c0-.31.36-.65.8-.76a1,1,0,0,0,.8-.85c0-.44.37-.64,1.2-.64s1.2-.2,1.2-.6a.57.57,0,0,1,.5-.61,4.35,4.35,0,0,0,2.3-2.35c0-.24.27-.44.6-.44a.6.6,0,0,0,.6-.6.57.57,0,0,1,.5-.61,4.35,4.35,0,0,0,2.3-2.35c0-.24.27-.44.6-.44a.6.6,0,0,0,.6-.6c0-.33.36-.6.8-.6s.8-.27.8-.6a.6.6,0,0,1,.6-.6c.33,0,.6-.36.6-.8s.27-.8.6-.8a.6.6,0,0,0,.6-.6.57.57,0,0,1,.5-.61,4.46,4.46,0,0,0,2.3-2.31c0-.22.27-.5.6-.63a1.38,1.38,0,0,0,.6-1.24c0-.75.21-1,.8-1a.71.71,0,0,0,.8-.8c0-.44.27-.8.6-.8a.6.6,0,0,0,.6-.6.6.6,0,0,1,.6-.6c.42,0,.6-.42.6-1.4,0-1.13.15-1.4.8-1.4.44,0,.8-.27.8-.6a.6.6,0,0,1,.6-.6c.42,0,.6-.42.6-1.4s.18-1.4.6-1.4a.58.58,0,0,0,.6-.55c0-.31.36-.65.8-.76s.8-.55.8-1.45.2-1.24.6-1.24.6-.4.6-1.2.2-1.2.6-1.2.6-.42.6-1.4c0-1.13.15-1.4.8-1.4s.8-.27.8-1.4c0-1,.18-1.4.6-1.4a.61.61,0,0,0,.6-.61,1,1,0,0,1,.6-.84c.41-.16.6-.79.6-2s.16-1.76.56-1.76c.64,0,1-.85,1-2.18a2.07,2.07,0,0,1,.6-1.42,3.27,3.27,0,0,0,.6-2.26c0-1.2.19-1.84.6-2s.6-.75.6-1.57a1.94,1.94,0,0,1,.66-1.71c.49-.27.71-1.15.85-3.42s.34-3.05.74-3.05.86-4,.61-6.9a.59.59,0,0,1,.54-.7c.9,0,.9-34.31,0-34.66-.47-.18-.6-1-.6-3.56,0-2.43-.16-3.49-.6-3.93a4.2,4.2,0,0,1-.6-2.63c0-1.54-.19-2.2-.8-2.72s-.8-1.18-.8-2.6-.15-1.91-.6-1.91-.6-.48-.6-2-.18-2-.6-2.19a1.27,1.27,0,0,1-.6-1.14c0-1.54-.46-2.71-1-2.71-.36,0-.55-.48-.55-1.4S303,66,302.6,66s-.6-.4-.6-1.21-.25-1.31-.6-1.44-.6-.73-.6-1.39c0-.89-.18-1.16-.8-1.16s-.8-.27-.8-1.4c0-1-.18-1.4-.6-1.4s-.6-.4-.6-1.16-.24-1.25-.54-1.37a2.18,2.18,0,0,1-.79-1.44c-.15-.73-.49-1.23-.86-1.23s-.61-.35-.61-.8-.27-.8-.6-.8-.6-.4-.6-1.2-.2-1.2-.6-1.2a.62.62,0,0,1-.6-.64,1,1,0,0,0-.8-.85c-.57-.15-.8-.55-.8-1.36s-.21-1.15-.6-1.15a.61.61,0,0,1-.6-.61,1,1,0,0,0-.6-.84,1,1,0,0,1-.6-.79c0-.31-.36-.56-.8-.56s-.8-.27-.8-.6a.6.6,0,0,0-.6-.6c-.38,0-.6-.38-.6-1,0-1.09-1.44-2.94-2.3-2.95a.58.58,0,0,1-.5-.62,1,1,0,0,0-.6-.84,1,1,0,0,1-.6-.79.58.58,0,0,0-.6-.56.6.6,0,0,1-.6-.6c0-.33-.36-.6-.8-.6a.71.71,0,0,1-.8-.8c0-.44-.27-.8-.6-.8a.6.6,0,0,1-.6-.6.58.58,0,0,0-.56-.6,1,1,0,0,1-.79-.6,1,1,0,0,0-.84-.6.61.61,0,0,1-.61-.61,1,1,0,0,0-.6-.84,1,1,0,0,1-.6-.79.56.56,0,0,0-.56-.56,1,1,0,0,1-.79-.6c-.13-.35-.73-.6-1.44-.6-.95,0-1.21-.18-1.21-.8,0-.44-.25-.8-.56-.8a1,1,0,0,1-.79-.6,1,1,0,0,0-.84-.6.61.61,0,0,1-.61-.6c0-.4-.4-.6-1.15-.6s-1.21-.23-1.36-.8a1,1,0,0,0-.85-.8.62.62,0,0,1-.64-.6.58.58,0,0,0-.56-.6,1,1,0,0,1-.79-.6c-.13-.35-.73-.6-1.44-.6-.95,0-1.21-.18-1.21-.8,0-.46-.27-.8-.63-.8a2.1,2.1,0,0,1-1.23-.6A2.26,2.26,0,0,0,256,14a.7.7,0,0,1-.77-.6c0-.39-.39-.6-1.11-.6a2.66,2.66,0,0,1-1.8-.8,2.35,2.35,0,0,0-1.49-.8c-.45,0-.8-.27-.8-.6s-.42-.6-1.4-.6-1.4-.18-1.4-.6-.39-.6-1.11-.6a2.66,2.66,0,0,1-1.8-.8,2.66,2.66,0,0,0-2-.8c-.84,0-1.45-.23-1.59-.6s-.73-.6-1.4-.6-1.27-.26-1.4-.6-.8-.6-2-.6S234,4.64,234,4.24c0-.75-.89-1-3.19-1-1.34,0-2-.18-2.15-.6s-.89-.6-2.84-.6-2.61-.13-2.61-.6-.62-.6-3.2-.6c-1.87,0-3.2-.17-3.2-.4S210.93,0,200,0s-16.8.14-16.8.4m28.4,27.35c0,.75,1.27,1,4.66,1,2.17,0,2.91.15,3.09.6s.82.6,2.14.61a5.66,5.66,0,0,1,2.69.6,5.5,5.5,0,0,0,2.65.59c1.54,0,1.91.14,2.09.8s.55.8,1.4.8c.69,0,1.29.25,1.42.6s.78.6,1.84.6,1.61.17,1.61.6.42.6,1.35.6,1.41.2,1.56.8.55.8,1.45.8,1.24.2,1.24.6.4.6,1.2.6,1.2.2,1.2.6a.69.69,0,0,0,.75.6,1.08,1.08,0,0,1,1,.8c.14.54.55.8,1.25.8s1,.22,1,.6.36.6.8.6.8.27.8.6a.66.66,0,0,0,.7.6,1.7,1.7,0,0,1,1.2.8,1.76,1.76,0,0,0,1.3.8c.44,0,.8.27.8.6a.6.6,0,0,0,.6.6.6.6,0,0,1,.6.6.6.6,0,0,0,.6.6.61.61,0,0,1,.6.61,1.08,1.08,0,0,0,.7.88,6,6,0,0,1,1.69,1.39,3.36,3.36,0,0,0,1.5,1.12.56.56,0,0,1,.51.6.6.6,0,0,0,.6.6.55.55,0,0,1,.6.46,9.12,9.12,0,0,0,2,2.41,10.15,10.15,0,0,1,2,2.34c0,.21.27.39.6.39a.6.6,0,0,1,.6.6.58.58,0,0,0,.55.6c.3,0,.65.36.76.8a1,1,0,0,0,.85.8c.44,0,.64.37.64,1.2s.2,1.2.6,1.2.6.36.6.8.27.8.6.8.6.38.6,1,.26,1.11.8,1.25.8.55.8,1.38c0,.67.26,1.26.6,1.4a1,1,0,0,1,.6.79.58.58,0,0,0,.6.56c.4,0,.6.4.6,1.24s.22,1.3.8,1.45.8.55.8,1.56.18,1.35.6,1.35.6.47.6,1.8.16,1.8.6,1.8.6.42.6,1.4c0,1.13.15,1.4.8,1.4s.8.27.8,2.41c0,1.78.16,2.47.6,2.64s.6.82.6,2.2.18,2,.6,2.2.6.93.6,3.22c0,2.66.09,3,.8,3.2s.8.55.8,12.07c0,11.37,0,11.89-.8,12.55s-.8,1.18-.8,3.49-.12,2.8-.6,2.8-.6.55-.6,2.56-.15,2.62-.6,2.79-.6.74-.6,1.46a3.53,3.53,0,0,1-.8,2.09,3.32,3.32,0,0,0-.8,1.94,1.47,1.47,0,0,1-.6,1.31c-.34.13-.6.73-.6,1.4s-.26,1.27-.6,1.4-.6.8-.6,2c0,1.55-.12,1.81-.8,1.81s-.8.27-.8,1.2-.2,1.2-.6,1.2a.69.69,0,0,0-.6.76,1.11,1.11,0,0,1-.6,1,1.33,1.33,0,0,0-.6,1.2,1.08,1.08,0,0,1-.8,1.17c-.54.14-.8.55-.8,1.26a1.43,1.43,0,0,1-.6,1.28,1,1,0,0,0-.6.79.58.58,0,0,1-.6.56.6.6,0,0,0-.6.6,2.65,2.65,0,0,1-.8,1.4,2.65,2.65,0,0,0-.8,1.4.6.6,0,0,1-.6.6c-.33,0-.6.36-.6.8s-.27.8-.6.8a.6.6,0,0,0-.6.6.57.57,0,0,1-.5.61,4.35,4.35,0,0,0-2.3,2.35c0,.24-.27.44-.6.44a.6.6,0,0,0-.6.6.58.58,0,0,1-.55.6c-.31,0-.65.36-.76.8a1,1,0,0,1-.85.8.62.62,0,0,0-.64.6.6.6,0,0,1-.6.6.6.6,0,0,0-.6.6.61.61,0,0,1-.61.6,1,1,0,0,0-.84.6,1,1,0,0,1-.79.6c-.31,0-.56.36-.56.8s-.27.8-.6.8a.6.6,0,0,0-.6.6c0,.4-.4.6-1.21.6s-1.31.25-1.44.6a1,1,0,0,1-.79.6c-.31,0-.56.36-.56.8a.71.71,0,0,1-.8.8c-.44,0-.8.27-.8.6s-.4.6-1.2.6-1.2.2-1.2.6a.7.7,0,0,1-.77.6c-1.19,0-2,.43-2,1,0,.35-.43.56-1.16.56s-1.26.26-1.39.6a1.13,1.13,0,0,1-1,.6,2.18,2.18,0,0,0-1.33.55,4.47,4.47,0,0,1-1.83.83c-.7.15-1.28.54-1.28.85s-.43.57-1.21.57-1.31.25-1.44.6-.79.6-2,.6-1.76.16-1.76.6-.39.6-1.1.6c-1.71,0-2.9.43-2.9,1,0,.41-.65.55-2.61.55s-2.67.15-2.84.6-1,.6-4,.6-3.82.13-4,.6c-.34.89-18.31.89-19.2,0-.44-.44-1.53-.6-4.13-.6-2.77,0-3.58-.13-3.76-.6s-.85-.6-2.5-.6-2.4-.18-2.73-.63a3.87,3.87,0,0,0-2.14-.85,4.25,4.25,0,0,1-2.13-.77,3.19,3.19,0,0,0-2-.55c-1.11,0-1.55-.17-1.55-.6s-.4-.6-1.2-.6a3.22,3.22,0,0,1-2-.8,3.19,3.19,0,0,0-2.2-.8c-1,0-1.4-.18-1.4-.6a.61.61,0,0,0-.61-.6,1,1,0,0,1-.84-.6c-.13-.34-.73-.6-1.39-.6s-1.16-.2-1.16-.61-.49-.71-1.17-.85a2.07,2.07,0,0,1-1.39-.79c-.12-.3-.76-.55-1.43-.55s-1.21-.2-1.21-.6a.6.6,0,0,0-.6-.6.6.6,0,0,1-.6-.59c0-.33-.9-1-2-1.5s-2-1.13-2-1.41-.37-.5-.81-.5a.71.71,0,0,1-.8-.8c0-.44-.27-.8-.6-.8a.6.6,0,0,1-.6-.6.61.61,0,0,0-.61-.6,1,1,0,0,1-.84-.6,1,1,0,0,0-.79-.6.55.55,0,0,1-.57-.5c0-.28-.63-.95-1.39-1.5s-1.38-1.23-1.39-1.5a.57.57,0,0,0-.61-.5.58.58,0,0,1-.6-.56,1,1,0,0,0-.6-.79,1,1,0,0,1-.6-.84.61.61,0,0,0-.6-.61.6.6,0,0,1-.6-.6c0-.33-.36-.6-.8-.6a.71.71,0,0,1-.8-.8c0-.44-.27-.8-.6-.8s-.6-.38-.6-1a1.67,1.67,0,0,0-.53-1.3,2.29,2.29,0,0,1-.79-1,1.06,1.06,0,0,0-.87-.7.61.61,0,0,1-.61-.6.6.6,0,0,0-.6-.6c-.4,0-.6-.4-.6-1.21s-.25-1.31-.58-1.43a2.11,2.11,0,0,1-.83-1.39c-.14-.64-.51-1.17-.83-1.17s-.57-.36-.57-.8-.27-.8-.6-.8-.6-.4-.6-1.2-.2-1.2-.6-1.2-.6-.4-.6-1.24-.22-1.29-.8-1.45-.8-.55-.8-2c0-1.2-.19-1.84-.6-2s-.6-.73-.6-1.4-.26-1.27-.6-1.4-.6-.8-.6-2c0-1.46-.15-1.83-.8-2s-.8-.55-.8-2.76c0-2-.13-2.55-.6-2.55s-.6-.62-.6-3.16-.14-3.21-.58-3.38c-.87-.34-.87-25.46,0-25.46.45,0,.58-.61.58-2.76s.15-2.81.6-3,.6-.86.6-2.6c0-2,.11-2.39.8-2.57s.8-.55.8-2,.15-1.84.6-1.84.6-.49.6-2,.15-2,.6-2,.6-.39.6-1.15.23-1.21.8-1.36.8-.55.8-1.45.2-1.24.6-1.24.6-.42.6-1.4.18-1.4.6-1.4.6-.39.6-1.15.23-1.21.8-1.36a1,1,0,0,0,.8-.85.62.62,0,0,1,.6-.64q.6,0,.6-1.2t.6-1.2a.69.69,0,0,0,.6-.75,1.08,1.08,0,0,1,.8-1c.54-.14.8-.55.8-1.25s.22-1,.6-1,.6-.36.6-.8.27-.8.6-.8a.6.6,0,0,0,.6-.6.54.54,0,0,1,.45-.6c.79,0,2.35-2,2.35-3,0-.6.23-1,.6-1a.6.6,0,0,0,.6-.6c0-.33.36-.6.8-.6a.71.71,0,0,0,.8-.8c0-.44.27-.8.6-.8a.6.6,0,0,0,.6-.6c0-.37.38-.6,1-.6a1.38,1.38,0,0,0,1.24-.6,1,1,0,0,1,.82-.6c.33,0,.69-.36.8-.8s.46-.8.76-.8a.58.58,0,0,0,.55-.6c0-.33.36-.6.8-.6s.8-.27.8-.6a.6.6,0,0,1,.6-.6c.33,0,.6-.36.6-.8,0-.62.27-.8,1.21-.8.71,0,1.31-.25,1.44-.6a1,1,0,0,1,.79-.6.58.58,0,0,0,.56-.6c0-.4.4-.6,1.24-.6s1.29-.22,1.45-.8.46-.8.76-.8a.58.58,0,0,0,.55-.6c0-.4.4-.6,1.21-.6s1.31-.25,1.44-.6.73-.6,1.39-.6c.89,0,1.16-.18,1.16-.8s.27-.8,1.4-.8c1,0,1.4-.18,1.4-.6s.44-.6,1.55-.6a3,3,0,0,0,2-.6,2.5,2.5,0,0,1,1.69-.6c.85,0,1.25-.23,1.4-.8s.55-.8,2.38-.8c1.56,0,2.23-.17,2.4-.6s.84-.6,2.39-.6,2.16-.15,2.16-.56.85-.59,3.66-.7,3.74-.28,4.1-.84c.6-1,21.85-1.09,21.85-.15M214,229.81c0,4.09.11,5.05.6,5.24s.6,1,.6,3.56c0,3.67.21,4.59,1,4.59.44,0,.56.91.56,4.41s.12,4.46.6,4.64.6,1,.6,4.14.12,4,.6,4.15.6,1,.6,4c0,3.28.11,3.92.8,4.61s.8,1.33.8,4.8c0,3.29.11,4,.6,4s.6.73.6,4.17c0,3.18.14,4.32.6,4.77s.6,1.54.6,4.27c0,3.33.07,3.68.8,3.88s.8.55.8,4.74c0,3.54.13,4.6.58,4.86s.59,1.43.62,5.52c.06,7.87.07,7.8-.6,7.8-.42,0-.6.42-.6,1.4,0,1.13-.15,1.4-.8,1.4s-.8.27-.8,1.2-.2,1.2-.6,1.2-.6.36-.6.8-.27.8-.6.8a.6.6,0,0,0-.6.6.59.59,0,0,1-.58.6c-.35,0-.69.56-.84,1.4s-.5,1.4-.82,1.4a.58.58,0,0,0-.55.6.6.6,0,0,1-.6.6.56.56,0,0,0-.6.51,2.21,2.21,0,0,1-.8,1.2,2.35,2.35,0,0,0-.8,1.49c0,.45-.27.8-.6.8a.6.6,0,0,0-.6.6.6.6,0,0,1-.6.6c-.33,0-.6.36-.6.8a.71.71,0,0,1-.8.8c-.44,0-.8.27-.8.6a.6.6,0,0,1-.6.6.58.58,0,0,0-.6.56,1,1,0,0,1-.6.79,1,1,0,0,0-.6.84.61.61,0,0,1-.61.61,1,1,0,0,0-.84.6,1,1,0,0,1-.79.6.58.58,0,0,0-.56.6.6.6,0,0,1-.6.6c-.33,0-.6.36-.6.8,0,.62-.27.8-1.21.8-.71,0-1.31.25-1.44.6s-.75.6-1.54.6-1.4-.23-1.55-.6a1.33,1.33,0,0,0-1.2-.6,1.08,1.08,0,0,1-1.17-.8,1,1,0,0,0-.85-.8.62.62,0,0,1-.64-.6.6.6,0,0,0-.6-.6.6.6,0,0,1-.6-.6.58.58,0,0,0-.55-.6c-.31,0-.65-.36-.76-.8a1,1,0,0,0-.85-.8.62.62,0,0,1-.64-.6.6.6,0,0,0-.6-.6.6.6,0,0,1-.6-.6.58.58,0,0,0-.55-.6c-.31,0-.65-.36-.76-.8a1,1,0,0,0-.85-.8.7.7,0,0,1-.64-.75,1.86,1.86,0,0,0-.6-1.25,1.67,1.67,0,0,1-.6-1.06,1,1,0,0,0-.6-.79,1,1,0,0,1-.6-.79c0-.31-.36-.56-.8-.56-.62,0-.8-.27-.8-1.2s-.2-1.2-.6-1.2-.6-.36-.6-.8-.27-.8-.6-.8a.6.6,0,0,1-.6-.6c0-.33-.36-.6-.8-.6-.65,0-.8-.27-.8-1.4,0-1-.18-1.4-.6-1.4s-.6-.4-.6-1.21-.25-1.31-.6-1.44a1.48,1.48,0,0,1-.6-1.33,2.81,2.81,0,0,0-.8-1.82c-.61-.55-.8-1.23-.8-2.82,0-1.76.13-2.12.8-2.3s.8-.55.8-4.65c0-3.68.1-4.44.6-4.44s.6-.73.6-4.16.12-4.2.6-4.39.6-1.06.6-4.35c0-3.68.08-4.17.8-4.62s.8-.93.8-4.25c0-3,.13-3.8.6-4s.6-1.09.6-4.64.1-4.41.6-4.41.6-.71.6-4,.12-4,.56-4c.83,0,1-.92,1-4.46,0-2.31.17-3.36.6-3.8s.6-1.58.6-4.58c0-3.17.12-4,.6-4.21s.6-1,.6-4c0-3.22.11-3.87.8-4.56s.8-1.33.8-4.8v-4H214v5" transform="translate(-9.92 0)"/></g></svg>