<?xml version="1.0" standalone="no"?><!DOCTYPE svg PUBLIC "-//W3C//DTD SVG 1.1//EN" "http://www.w3.org/Graphics/SVG/1.1/DTD/svg11.dtd"><svg t="1583747339626" class="icon" viewBox="0 0 1031 1024" version="1.1" xmlns="http://www.w3.org/2000/svg" p-id="1412" xmlns:xlink="http://www.w3.org/1999/xlink" width="201.3671875" height="200"><defs><style type="text/css"></style></defs><path d="M442.5636 0a257.693034 257.693034 0 0 0-158.309714 457.339174l17.589969 10.99373-18.469467 6.948037A435.967362 435.967362 0 0 0 0.08795 877.299665v2.814395a121.72258 121.72258 0 0 0 121.72258 121.72258l329.460105 4.045693a26.384952 26.384952 0 0 0 29.463196-25.769304 25.329554 25.329554 0 0 0-28.231899-28.583698l-329.284205-4.133643A76.868161 76.868161 0 0 1 54.968651 879.498411v-1.758997A370.79653 370.79653 0 0 1 396.653783 513.011423l50.571159 0.615649a258.220733 258.220733 0 0 0 137.905351-41.512325l14.423774-10.99373A257.253285 257.253285 0 0 0 442.5636 0z m1.583098 459.010221a202.284635 202.284635 0 1 1 204.65928-199.20639A202.900283 202.900283 0 0 1 444.146698 459.098171z" p-id="1413"></path><path d="M1020.657906 718.638152a38.082281 38.082281 0 0 0-32.013742-32.893241H985.03822a56.991497 56.991497 0 0 1-56.903547-56.903547v-1.495147c0-7.035987 3.869793-17.589968 3.869793-21.547711a44.590569 44.590569 0 0 0-13.808125-50.659109l-64.379284-36.850983h-17.589968a39.137679 39.137679 0 0 0-32.629391 13.984024 86.190844 86.190844 0 0 1-43.97492 24.713906c-14.423774 0-35.795585-18.469467-46.525466-25.857254a45.821867 45.821867 0 0 0-32.277592-14.863523c-7.123937 0-10.81783 0-14.511724 3.430044l-68.952675 35.179937a44.590569 44.590569 0 0 0-15.039423 50.307309 76.604312 76.604312 0 0 1 3.342094 22.427209v-0.703599a56.903547 56.903547 0 0 1-56.903547 56.903548h-5.101091a37.994331 37.994331 0 0 0-32.893241 32.013742 323.919265 323.919265 0 0 0-7.915485 54.001202 158.309714 158.309714 0 0 0 6.508288 54.177102 38.082281 38.082281 0 0 0 32.013742 32.893241h3.605944a56.903547 56.903547 0 0 1 56.903547 56.903547v1.583097c0 7.035987-3.869793 17.589968-3.869793 21.547711a44.590569 44.590569 0 0 0 13.808125 50.659109l64.379283 36.850983a32.541441 32.541441 0 0 1 18.029718-3.342094 39.225629 39.225629 0 0 0 32.629391-13.984024c7.299837-7.123937 29.199347-28.495749 47.229065-28.231899a80.386155 80.386155 0 0 1 46.437516 29.463196 45.733917 45.733917 0 0 0 32.277591 14.863523 32.453491 32.453491 0 0 0 18.029718-3.342094l65.346732-35.179936a44.590569 44.590569 0 0 0 15.039423-50.307309 76.428412 76.428412 0 0 1-3.342094-22.42721v0.703599a56.903547 56.903547 0 0 1 56.903547-56.903547h5.101091a37.994331 37.994331 0 0 0 32.89324-32.013742 263.321824 263.321824 0 0 0 7.915486-54.001203 210.20012 210.20012 0 0 1-10.202182-50.571158z m-51.626557 89.444988a106.243408 106.243408 0 0 0-95.073778 106.947007 86.190844 86.190844 0 0 0 6.772138 32.541441l-47.141115 24.625956-17.589968-18.293567a105.539809 105.539809 0 0 0-60.94924-22.42721 114.950442 114.950442 0 0 0-61.564889 20.844112c-7.299837 7.123937-14.511724 10.641931-18.293567 17.589969l-42.831572-25.769304a86.278794 86.278794 0 0 0 7.651636-32.365541 108.793953 108.793953 0 0 0-92.259384-109.321653c0-7.123937-3.342094-21.723611-3.166194-36.059435 0-10.81783 3.957743-25.153655 4.045693-35.971485a106.243408 106.243408 0 0 0 95.073778-106.947006 86.278794 86.278794 0 0 0-6.772138-32.541442l47.141115-24.625955a79.154857 79.154857 0 0 0 17.589968 14.687623 87.949841 87.949841 0 0 0 115.302242 1.495148c7.299837-7.123937 14.599674-10.641931 18.205617-14.159925l46.525466 25.857254a86.190844 86.190844 0 0 0-7.651636 32.365541 108.881903 108.881903 0 0 0 92.347333 109.321653c0 7.123937 3.342094 21.635661 3.166194 36.059434a120.051533 120.051533 0 0 1-0.527699 36.147385z" p-id="1414"></path><path d="M854.344757 756.192734a98.943571 98.943571 0 1 0-116.797389 113.807094 97.624324 97.624324 0 0 0 116.797389-113.807094z m-98.064073 59.981791a46.877265 46.877265 0 1 1 47.492914-46.173666 47.668814 47.668814 0 0 1-47.492914 46.173666z" p-id="1415"></path></svg>