<?xml version="1.0" standalone="no"?><!DOCTYPE svg PUBLIC "-//W3C//DTD SVG 1.1//EN" "http://www.w3.org/Graphics/SVG/1.1/DTD/svg11.dtd"><svg t="1583747412357" class="icon" viewBox="0 0 1024 1024" version="1.1" xmlns="http://www.w3.org/2000/svg" p-id="2985" xmlns:xlink="http://www.w3.org/1999/xlink" width="200" height="200"><defs><style type="text/css"></style></defs><path d="M638.848 606.528a160 160 0 1 1-48.448-41.984l82.752-85.696a32 32 0 0 1 46.08 44.48l-80.384 83.2zM512 0c281.6 0 512 230.4 512 512s-230.4 512-512 512-512-230.4-512-512 230.4-512 512-512z m0 960c249.6 0 448-198.4 448-448s-198.4-448-448-448-448 198.4-448 448 198.4 448 448 448zM512 160c192 0 352 160 352 352 0 19.2-12.8 32-32 32s-32-12.8-32-32c0-160-128-288-288-288S224 352 224 512c0 19.2-12.8 32-32 32s-32-12.8-32-32C160 320 320 160 512 160z m0 640a96 96 0 1 0 0-192 96 96 0 0 0 0 192z" p-id="2986"></path></svg>