<svg id="644e68de-2e89-4614-bfe7-ff19902f4801" data-name="图层 1" xmlns="http://www.w3.org/2000/svg" viewBox="0 0 88.29 88.29"><title>who</title><path d="M49.5,5.35A44.14,44.14,0,1,0,93.64,49.5,44.19,44.19,0,0,0,49.5,5.35Zm-24,75a33,33,0,0,1,48.76-.65,39,39,0,0,1-48.76.65ZM78,76.22A38.08,38.08,0,0,0,21.74,77,39.09,39.09,0,1,1,78,76.22Z" transform="translate(-5.35 -5.35)"/><path d="M49.7,15.86A22.3,22.3,0,1,0,72,38.16,22.32,22.32,0,0,0,49.7,15.86Zm0,39.53A17.24,17.24,0,1,1,66.94,38.16,17.26,17.26,0,0,1,49.7,55.4Z" transform="translate(-5.35 -5.35)"/></svg>