<?xml version="1.0" standalone="no"?><!DOCTYPE svg PUBLIC "-//W3C//DTD SVG 1.1//EN" "http://www.w3.org/Graphics/SVG/1.1/DTD/svg11.dtd"><svg t="1522128259882" class="icon" style="" viewBox="0 0 1024 1024" version="1.1" xmlns="http://www.w3.org/2000/svg" p-id="541" xmlns:xlink="http://www.w3.org/1999/xlink" width="200" height="200"><defs><style type="text/css"></style></defs><path d="M418.986667 54.101333c-1.877333 0.512-4.949333 2.218667-6.826667 3.925334-1.877333 1.706667-5.632 3.754667-8.362667 4.437333-2.730667 0.682667-6.997333 2.218667-9.386666 3.413333-2.389333 1.365333-5.12 2.389333-5.802667 2.389334-0.682667 0-8.021333 4.266667-16.213333 9.557333-20.48 13.312-52.224 45.909333-77.312 79.189333-52.053333 69.632-69.12 114.346667-62.805334 164.181334 1.194667 10.581333 2.218667 29.525333 2.048 41.813333-0.512 35.157333-6.485333 51.541333-25.941333 70.485333-12.458667 12.458667-20.48 22.528-34.133333 42.496-9.898667 14.848-22.357333 38.741333-22.357334 43.178667 0 0.853333-1.024 4.096-2.389333 6.997333-2.389333 5.461333-5.290667 20.138667-7.168 36.522667-1.365333 11.605333 3.413333 41.642667 9.898667 61.098667 2.901333 8.362667 8.704 21.845333 12.970666 29.866666 20.48 38.4 22.869333 44.544 23.04 60.928 0.170667 10.24-0.512 14.677333-3.072 19.285334-7.338667 12.970667-12.458667 16.384-58.709333 39.424-24.917333 12.458667-49.664 25.941333-54.784 29.866666-15.872 12.117333-28.16 27.306667-34.474667 42.496-2.56 6.314667-20.138667 69.461333-23.893333 85.845334-0.853333 4.096-3.584 9.216-5.802667 11.434666-6.314667 6.314667-5.461333 21.333333 1.194667 21.333334 1.706667 0 4.096 2.048 5.290667 4.608l2.218666 4.778666 212.48-0.512c116.906667-0.341333 297.813333-0.341333 401.92 0 104.277333 0.170667 231.253333 0.512 282.453334 0.512h92.842666l1.024-4.266666c0.682667-2.56 2.56-4.437333 5.12-5.12 3.754667-0.853333 4.266667-2.048 4.778667-9.045334 0.512-6.656-0.170667-8.704-3.754667-12.117333-2.218667-2.389333-4.949333-7.509333-5.802666-11.605333-4.266667-18.261333-21.333333-79.701333-23.893334-85.845334-6.485333-15.36-19.626667-31.744-34.986666-43.008-4.437333-3.242667-27.477333-15.872-51.2-27.818666l-43.008-21.674667-1.194667-17.749333c-1.194667-19.285333-3.072-26.112-10.581333-37.888-5.973333-9.386667-13.653333-15.189333-35.328-26.282667-45.056-23.210667-60.586667-47.786667-52.053334-82.432 3.072-11.776 5.290667-18.090667 16.384-43.52 4.949333-11.264 9.557333-22.357333 10.24-24.746667 0.853333-2.389333 3.072-8.533333 5.12-13.653333 11.776-30.890667 11.946667-60.928 0.512-81.066667-2.048-3.754667-4.608-8.362667-5.461333-10.24-0.853333-1.877333-4.437333-6.485333-8.192-10.24-3.754667-3.754667-9.898667-11.093333-13.824-16.213333-7.509333-10.069333-24.234667-41.813333-24.234667-46.250667 0-1.365333-0.682667-3.242667-1.536-4.266666-3.072-3.413333-19.114667-58.88-23.893333-83.456-1.365333-6.826667-3.413333-15.189333-8.192-34.133334-16.213333-64-35.84-98.816-63.317333-111.957333-9.045333-4.266667-30.890667-9.898667-38.912-10.069333-2.901333 0-8.533333-1.024-12.8-2.389334-7.850667-2.389333-20.309333-5.632-30.549334-7.850666-5.802667-1.365333-13.994667-4.096-21.333333-6.997334-7.850667-3.242667-35.328-12.458667-49.834667-16.725333-8.704-2.56-17.237333-6.144-19.285333-7.850667-3.072-2.730667-6.656-3.242667-23.552-3.584-10.922667-0.341333-21.504 0-23.381333 0.512z m34.133333 32.256c8.533333 1.536 17.92 3.754667 20.992 5.12 3.072 1.365333 7.338667 2.389333 9.386667 2.389334 2.218667 0 4.608 0.682667 5.461333 1.536 1.536 1.365333 7.850667 3.754667 40.789333 15.018666 16.213333 5.632 40.277333 11.605333 66.730667 16.554667 12.288 2.389333 24.576 5.461333 27.648 6.997333 8.192 4.096 21.162667 19.285333 27.477333 32.256 9.216 18.602667 15.189333 38.741333 29.525334 100.010667 5.973333 25.770667 17.578667 65.877333 22.869333 79.36 1.536 3.754667 3.242667 8.362667 3.754667 10.24 2.218667 6.997333 19.456 38.912 25.6 47.445333 3.584 4.949333 9.898667 12.629333 14.165333 17.408 14.336 16.042667 16.213333 20.309333 16.042667 40.106667 0 19.285333-4.437333 33.450667-22.528 73.386667-2.218667 5.12-4.778667 11.264-5.632 13.653333-0.682667 2.389333-2.901333 8.533333-4.778667 13.653333-21.845333 57.685333-2.218667 101.205333 60.928 134.314667 16.896 8.704 23.210667 13.994667 27.818667 23.210667 3.242667 6.144 5.12 20.48 2.901333 22.528-1.024 1.024-8.021333 0.170667-44.032-5.290667-8.874667-1.365333-27.648-3.925333-41.813333-5.802667-33.450667-4.608-43.008-6.485333-51.2-10.581333-30.549333-15.36-46.933333-43.178667-46.933334-79.530667 0-14.336 0.512-16.896 3.925334-21.504 17.237333-22.869333 32.426667-52.394667 43.178666-84.650666 2.730667-7.850667 4.949333-24.405333 6.826667-51.712 2.389333-32.768-7.509333-58.538667-26.624-68.778667-16.384-8.874667-34.645333-24.405333-45.056-38.229333-10.752-14.336-14.848-24.064-17.749333-42.666667-2.048-12.288-5.461333-25.088-8.192-31.914667-1.365333-2.901333-2.389333-5.802667-2.389334-6.485333 0-1.365333-15.36-25.258667-16.896-26.453333-0.682667-0.512-3.413333-3.925333-6.144-7.68-2.901333-3.754667-5.461333-7.168-5.973333-7.68-1.706667-1.706667-19.968-26.624-22.698667-31.061334-5.973333-9.557333-7.509333-16.725333-14.848-63.829333-2.901333-19.285333-11.434667-22.869333-34.986666-15.189333-3.754667 1.194667-11.093333 3.413333-16.213334 4.949333-40.789333 11.776-53.930667 17.578667-73.728 32.256-15.189333 11.264-32.938667 29.525333-40.96 42.154667-6.997333 10.922667-26.794667 49.152-30.037333 58.026666-9.216 24.917333-12.970667 39.594667-16.384 62.293334-3.413333 22.869333-3.413333 34.133333-0.170667 80.213333 1.365333 19.626667 2.56 42.325333 2.56 50.346667 0 29.354667 8.192 60.757333 25.088 96.426666 5.12 10.752 19.114667 31.402667 30.378667 44.885334l7.68 9.045333v14.848c0 30.208-5.461333 45.568-22.698667 64.341333-16.384 17.92-26.965333 21.845333-78.848 29.013334-11.264 1.536-26.965333 3.925333-34.986666 5.290666-8.021333 1.365333-17.408 2.389333-21.162667 2.389334-6.314667 0-6.485333-0.170667-5.461333-4.778667 3.072-13.312 3.072-29.525333 0.341333-39.936-4.437333-16.384-8.704-27.136-15.36-39.082667-3.242667-5.973333-8.874667-16.725333-12.288-23.722666s-6.826667-13.994667-7.68-15.701334c-6.826667-13.653333-10.581333-53.248-6.485333-68.778666 1.024-3.754667 2.389333-9.557333 3.072-12.8 1.194667-5.290667 8.704-21.674667 14.336-31.573334 8.362667-14.506667 21.504-31.232 37.376-48.128 21.333333-22.357333 27.477333-33.450667 32.768-58.368 3.584-16.384 4.096-59.733333 1.194666-75.093333-3.584-17.749333-1.365333-41.642667 5.632-62.464 2.901333-8.362667 20.821333-43.349333 24.234667-47.104 1.365333-1.365333 2.389333-3.072 2.389333-3.754667 0-2.218667 21.333333-31.744 36.864-50.858666 15.530667-19.285333 37.888-41.984 50.176-51.370667 9.728-7.338667 27.306667-15.530667 40.106667-18.602667 15.018667-3.754667 12.8-3.754667 30.72-0.512z m43.178667 89.941334c1.024 1.194667 2.730667 8.874667 3.584 17.066666 1.024 8.192 2.56 16.213333 3.584 18.090667 0.853333 1.877333 1.706667 4.437333 1.706666 5.802667 0 2.56 5.461333 15.018667 9.045334 20.650666 1.194667 1.877333 12.117333 16.896 24.234666 33.28 12.288 16.554667 23.381333 33.109333 24.917334 36.864 3.754667 9.216 8.362667 25.088 8.362666 29.013334 0 7.68 5.973333 26.624 12.288 38.912 9.216 17.749333 32.426667 42.325333 52.906667 55.808 17.237333 11.264 20.821333 15.189333 22.698667 24.746666 3.072 14.848 0.512 54.442667-4.608 69.973334-3.754667 11.605333-21.845333 49.322667-28.501334 59.733333-15.701333 24.576-49.322667 47.445333-93.184 63.488-11.946667 4.266667-46.421333 4.437333-56.832 0-3.925333-1.536-10.410667-4.266667-14.336-5.802667-9.898667-3.925333-31.232-16.725333-40.618666-24.234666-24.917333-19.797333-52.224-55.808-59.733334-78.677334-0.853333-2.389333-3.072-8.533333-4.949333-13.653333-5.802667-15.018667-10.069333-44.544-11.264-76.8-0.512-16.384-1.706667-42.154667-2.730667-57.173333-1.365333-22.357333-1.365333-30.890667 0.853334-47.104 4.096-30.890667 10.24-52.394667 20.821333-72.362667 2.901333-5.632 8.362667-16.042667 11.946667-23.04 5.12-9.898667 10.752-16.896 24.576-30.72 15.701333-15.872 19.968-19.114667 34.133333-25.941333 8.874667-4.437333 20.821333-9.386667 26.453333-10.922667 5.632-1.706667 14.506667-4.266667 19.626667-5.973333 11.434667-3.754667 12.8-3.925333 15.018667-1.024z m114.517333 488.789333c3.072 19.797333 8.021333 32.085333 19.114667 47.445333 20.309333 27.648 46.933333 41.984 86.869333 46.762667 6.997333 0.853333 23.04 2.901333 35.669333 4.608 23.552 3.242667 26.624 4.778667 22.698667 10.922667-0.853333 1.536-4.949333 10.581333-8.874667 19.797333-3.925333 9.216-8.874667 20.992-11.264 25.941333-2.218667 4.949333-4.096 9.728-4.096 10.410667 0 0.853333-1.365333 4.096-2.901333 7.338667-1.536 3.072-3.413333 6.826667-4.096 8.362666-1.024 2.218667-27.989333 65.706667-32.597333 76.629334-0.853333 2.389333-2.56 6.144-3.754667 8.533333l-2.048 4.266667-190.122667 0.512c-104.618667 0.170667-191.829333 0-193.877333-0.341334-2.218667-0.682667-4.778667-4.266667-7.509333-10.752-2.218667-5.461333-5.632-13.824-7.850667-18.432-2.048-4.778667-16.213333-37.376-31.232-72.533333-18.944-44.202667-26.794667-64.512-25.6-65.877333 0.853333-1.194667 6.485333-2.56 12.288-3.242667 43.178667-4.437333 72.704-9.386667 81.408-13.824 2.389333-1.194667 5.461333-2.56 6.826667-3.072 1.365333-0.512 4.096-2.048 5.973333-3.072 30.037333-19.114667 50.346667-49.834667 53.077333-80.725333 1.365333-14.336 2.56-15.36 11.434667-8.704 8.704 6.656 35.157333 19.456 48.981333 23.893333 26.453333 8.362667 46.592 7.509333 79.701334-3.413333 17.408-5.802667 42.154667-17.237333 49.834666-23.210667 7.850667-5.973333 9.557333-4.437333 11.946667 11.776z m219.648 111.786667c18.432 6.656 88.917333 42.325333 99.669333 50.346666 8.874667 6.656 15.701333 15.018667 21.162667 26.112 3.584 6.997333 5.290667 11.946667 12.117333 37.034667 5.632 20.138667 8.192 29.013333 10.581334 36.010667 4.608 13.141333 11.093333 12.288-89.429334 12.288-49.493333 0-102.229333-0.512-116.906666-1.194667-25.088-1.024-26.965333-1.194667-26.965334-4.437333 0-1.706667 1.024-5.290667 2.218667-7.68 2.901333-5.461333 8.362667-18.090667 14.506667-32.768 27.818667-66.389333 50.858667-118.101333 53.077333-119.466667 3.754667-2.218667 3.242667-2.389333 19.968 3.754667z m-615.082667-0.853334c1.365333 1.706667 4.949333 9.216 8.021334 16.725334 3.242667 7.509333 6.826667 16.384 8.362666 19.626666 4.778667 10.922667 7.68 17.578667 13.653334 32.426667 1.877333 4.608 7.509333 17.749333 11.776 27.306667 1.365333 3.242667 3.584 8.192 4.608 11.093333 2.048 4.778667 4.096 9.557333 10.410666 23.893333 6.826667 15.701333 8.362667 19.114667 10.581334 23.552 1.365333 2.56 1.877333 5.461333 1.365333 6.314667-0.682667 1.194667-42.837333 1.706667-120.490667 1.706667-104.106667 0-119.466667-0.341333-120.32-2.56-0.512-1.365333 0.512-7.68 2.389334-13.994667 1.706667-6.485333 4.608-16.554667 6.314666-22.698667 1.706667-6.144 4.096-14.336 5.290667-18.432 1.365333-3.925333 2.389333-8.533333 2.389333-10.069333 0-1.536 2.730667-8.362667 6.144-15.36 10.410667-21.162667 22.016-30.208 65.706667-52.224 19.968-10.069333 38.058667-18.261333 40.106667-18.261333 1.877333 0 4.266667-0.853333 5.290666-1.877334 1.706667-1.706667 29.184-9.728 33.962667-10.069333 1.024 0 3.072 1.365333 4.437333 2.901333z" p-id="542"></path></svg>