<?xml version="1.0" standalone="no"?><!DOCTYPE svg PUBLIC "-//W3C//DTD SVG 1.1//EN" "http://www.w3.org/Graphics/SVG/1.1/DTD/svg11.dtd"><svg t="1522399718072" class="icon" style="" viewBox="0 0 1024 1024" version="1.1" xmlns="http://www.w3.org/2000/svg" p-id="1582" xmlns:xlink="http://www.w3.org/1999/xlink" width="200" height="200"><defs><style type="text/css"></style></defs><path d="M236.202667 269.084444c-1.706667 0.910222-4.892444 1.706667-6.940445 1.706667-2.048 0-4.323556 0.796444-5.12 1.706667-0.796444 0.910222-2.389333 1.706667-3.640889 1.706666s-3.640889 0.682667-5.233777 1.592889c-1.706667 0.910222-3.868444 1.934222-4.778667 2.275556-0.910222 0.455111-3.185778 1.706667-5.12 2.958222-1.820444 1.251556-4.551111 2.730667-5.802667 3.299556-1.365333 0.568889-2.616889 1.592889-2.844444 2.048-0.227556 0.568889-2.844444 2.844444-5.688889 5.006222-2.844444 2.161778-13.084444 12.060444-22.641778 22.072889-25.941333 27.079111-69.404444 71.793778-93.752889 96.483555C55.751111 429.169778 43.235556 443.278222 43.235556 445.326222c0 0.455111-1.592889 2.844444-3.413334 5.461334-1.934222 2.503111-3.413333 5.347556-3.413333 6.030222 0 0.796444-0.796444 2.048-1.706667 2.844444s-1.706667 2.616889-1.706666 3.982222c0 1.365333-0.796444 3.185778-1.706667 3.982223-0.910222 0.796444-1.706667 2.844444-1.706667 4.437333 0 1.706667-0.796444 4.096-1.706666 5.347556s-1.592889 4.778667-1.706667 8.533333c0 4.323556-0.568889 6.940444-1.706667 7.850667-2.503111 2.161778-2.616889 136.078222 0 139.491555 0.910222 1.137778 1.706667 3.527111 1.706667 5.233778 0 1.706667 1.592889 5.688889 3.413333 8.874667 1.934222 3.185778 3.413333 6.144 3.413334 6.485333 0 1.820444 15.018667 14.791111 19.456 16.952889 13.198222 6.257778 12.174222 6.144 37.888 6.144 27.192889 0 25.713778-0.455111 29.696 9.102222 3.299556 7.850667 9.671111 19.456 12.970666 23.552 1.592889 2.048 4.209778 5.347556 5.688889 7.281778 3.072 3.868444 22.755556 21.504 24.234667 21.504 0.455111 0 3.072 1.479111 5.802666 3.413333 2.844444 1.820444 6.144 3.413333 7.395556 3.413333 1.251556 0 2.844444 0.796444 3.640889 1.706667 0.796444 0.910222 2.503111 1.706667 3.868444 1.706667 1.251556 0 3.413333 0.796444 4.551111 1.706666 1.251556 0.910222 4.437333 1.706667 7.054223 1.706667 2.844444 0 5.347556 0.682667 6.144 1.706667 2.048 2.503111 41.756444 2.503111 45.056 0 1.137778-0.910222 3.982222-1.706667 6.257777-1.706667s4.778667-0.796444 5.575112-1.706667c0.796444-0.910222 3.185778-1.706667 5.347555-1.706666 2.389333 0 4.096-0.682667 4.437333-1.706667 0.455111-0.910222 1.934222-1.706667 3.413334-1.706667 1.592889 0 3.072-0.796444 3.413333-1.706666 0.455111-0.910222 1.251556-1.706667 1.934222-1.706667 0.682667 0 4.892444-2.389333 9.216-5.233778 9.216-6.030222 22.528-19.000889 27.534223-26.624 1.820444-2.844444 3.754667-5.461333 4.209777-5.802666 1.479111-1.137778 8.760889-15.815111 8.760889-17.749334 0-1.024 1.251556-3.527111 2.958222-5.688889l2.844445-3.754666h275.114667l2.958222 2.844444c1.592889 1.592889 2.844444 4.096 2.844444 5.575111 0 1.479111 0.796444 3.299556 1.706667 4.096 0.910222 0.796444 1.706667 2.275556 1.706667 3.413334s0.796444 2.616889 1.706666 3.413333c0.910222 0.796444 1.706667 2.048 1.706667 2.844444 0 2.161778 13.084444 19.683556 18.090667 24.348445 7.168 6.599111 13.425778 11.491556 14.563555 11.491555 0.682667 0 1.479111 0.682667 1.820445 1.592889 0.341333 0.796444 2.958222 2.616889 5.802666 4.096 2.844444 1.365333 5.461333 2.958222 5.916445 3.527111 0.341333 0.568889 1.479111 1.024 2.616889 1.024 1.137778 0 2.730667 0.796444 3.527111 1.706667 0.796444 0.910222 2.844444 1.706667 4.551111 1.706667s3.754667 0.796444 4.551111 1.706666c0.796444 0.910222 3.299556 1.706667 5.575111 1.706667 2.275556 0 5.12 0.796444 6.257778 1.706667 3.299556 2.503111 43.463111 2.389333 46.648889 0 1.251556-0.910222 4.096-1.706667 6.485333-1.706667 2.275556 0 4.778667-0.796444 5.575111-1.706667 0.796444-0.910222 2.844444-1.706667 4.551111-1.706666s3.754667-0.796444 4.551111-1.706667c0.796444-0.910222 2.275556-1.706667 3.299556-1.706667 1.024 0 2.503111-0.568889 3.185778-1.251555 1.365333-1.365333 5.12-3.640889 8.874666-5.347556 1.251556-0.682667 3.754667-2.503111 5.461334-4.096s3.640889-2.958222 4.096-2.958222c2.161778 0 25.144889-25.827556 25.144889-28.103111 0-0.682667 0.796444-1.820444 1.706666-2.616889 0.910222-0.796444 1.706667-2.275556 1.706667-3.413333s0.796444-2.616889 1.706667-3.413334c0.910222-0.796444 1.706667-2.275556 1.706666-3.413333s0.796444-2.616889 1.706667-3.413333c0.910222-0.796444 1.706667-2.616889 1.706667-4.096 0-6.144-0.341333-6.144 67.925333-6.144 68.039111 0 62.691556 0.455111 76.458667-6.144 4.437333-2.161778 19.456-15.132444 19.456-16.952889 0-0.341333 1.592889-3.299556 3.413333-6.485333 1.934222-3.185778 3.413333-7.168 3.413333-8.874667s0.796444-4.096 1.706667-5.233778c2.616889-3.413333 2.503111-96.483556 0-98.531555-1.024-0.796444-1.706667-3.413333-1.706667-6.144 0-2.503111-0.796444-5.688889-1.706666-6.826667-0.910222-1.251556-1.706667-3.413333-1.706667-4.778667 0-1.365333-0.796444-3.072-1.706667-3.868444-0.910222-0.796444-1.706667-1.934222-1.706666-2.503111 0-1.592889-8.988444-13.084444-15.018667-19.114667-5.802667-5.916444-14.904889-12.515556-17.180445-12.515556-0.910222 0-2.275556-0.796444-3.072-1.706666-0.796444-0.910222-2.844444-1.706667-4.551111-1.706667s-3.754667-0.796444-4.551111-1.706667c-0.796444-0.910222-3.299556-1.706667-5.688889-1.706666s-4.892444-0.796444-5.688889-1.706667c-0.796444-0.910222-3.299556-1.706667-5.575111-1.706667-2.389333 0-5.233778-0.796444-6.485333-1.706666-1.137778-0.910222-3.982222-1.706667-6.144-1.706667-2.161778 0-5.006222-0.796444-6.144-1.706667-1.251556-0.910222-4.096-1.706667-6.257778-1.706666-2.275556 0-5.12-0.796444-6.257778-1.706667-1.251556-0.910222-3.868444-1.706667-5.688888-1.706667-1.934222 0-4.551111-0.796444-5.688889-1.706666-1.251556-0.910222-4.096-1.706667-6.485334-1.706667-2.275556 0-4.778667-0.796444-5.575111-1.706667-0.796444-0.910222-3.299556-1.706667-5.575111-1.706666-2.275556 0-5.12-0.796444-6.257778-1.706667-1.251556-0.910222-3.868444-1.706667-5.916444-1.706667-1.934222 0-4.209778-0.796444-5.006222-1.706666-0.796444-0.910222-3.299556-1.706667-5.688889-1.706667s-4.892444-0.796444-5.688889-1.706667c-0.796444-0.910222-3.072-1.706667-5.006222-1.706666-1.934222 0-4.551111-0.796444-5.688889-1.706667-1.251556-0.910222-3.868444-1.706667-5.916445-1.706667-1.934222 0-4.209778-0.796444-5.006222-1.706666-0.796444-0.910222-3.072-1.706667-5.006222-1.706667-1.934222 0-4.551111-0.796444-5.688889-1.706667-1.251556-0.910222-3.640889-1.706667-5.347556-1.706666-1.592889 0-3.640889-0.796444-4.437333-1.706667-0.796444-0.910222-3.072-1.706667-5.12-1.706667-2.048 0-4.323556-0.796444-5.12-1.706666-0.796444-0.910222-3.072-1.706667-5.12-1.706667-2.275556 0-3.982222-0.682667-4.437333-1.706667-0.341333-0.910222-1.706667-1.706667-2.958222-1.706666-4.664889 0-17.180444-7.168-20.821334-11.832889-1.934222-2.616889-3.868444-4.892444-4.209778-5.233778-0.341333-0.341333-3.299556-3.868444-6.712888-7.964444-3.413333-4.096-7.054222-8.192-7.964445-9.216-1.024-1.024-4.664889-5.347556-8.078222-9.557334-3.413333-4.323556-7.736889-9.443556-9.671111-11.377777-1.820444-1.934222-6.712889-7.623111-10.808889-12.629334-7.054222-8.647111-11.036444-13.425778-14.904889-17.408-0.910222-1.024-3.413333-4.096-5.575111-6.940444-2.048-2.844444-4.437333-5.688889-5.12-6.257778-0.682667-0.682667-5.575111-6.257778-10.808889-12.515556s-12.629333-14.563556-16.384-18.432c-7.168-7.281778-21.504-17.408-24.689778-17.408-0.910222 0-2.730667-0.796444-3.982222-1.706666-1.137778-0.910222-3.982222-1.706667-6.257778-1.706667-2.616889 0-4.437333-0.682667-4.892444-1.706667-0.568889-1.479111-22.186667-1.706667-185.230222-1.706666-161.564444 0-185.116444 0.227556-187.960889 1.706666z m369.664 48.014223c4.892444 2.503111 17.294222 15.132444 27.875555 28.216889 3.413333 4.209778 8.419556 10.126222 11.036445 12.970666 2.616889 2.844444 6.712889 7.623111 9.102222 10.581334 2.389333 2.958222 8.305778 10.126222 13.198222 15.928888 5.006222 5.802667 10.808889 12.856889 13.084445 15.701334 2.389333 2.730667 5.916444 6.940444 7.964444 9.216 1.934222 2.275556 3.640889 4.551111 3.640889 5.006222 0 0.455111 1.706667 2.616889 3.754667 4.551111 5.347556 5.461333 9.102222 9.898667 11.150222 13.084445 3.185778 5.006222 21.048889 22.755556 22.869333 22.755555 1.024 0 2.389333 0.796444 3.185778 1.706667 0.796444 0.910222 2.048 1.706667 2.958222 1.706666 0.796444 0 4.664889 1.479111 8.647111 3.299556 3.982222 1.820444 9.784889 4.209778 12.856889 5.233778 3.185778 1.137778 6.257778 2.389333 6.826667 2.844444 0.682667 0.455111 7.281778 2.730667 14.791111 5.006222 7.509333 2.389333 15.246222 4.778667 17.066667 5.347556 3.072 1.024 9.329778 2.958222 18.204444 5.575111 1.934222 0.455111 5.006222 1.479111 6.826667 2.048 1.934222 0.682667 5.233778 1.706667 7.395555 2.503111 2.161778 0.682667 6.371556 2.048 9.443556 2.844445 2.958222 0.910222 8.078222 2.389333 11.377778 3.413333 3.185778 1.024 7.964444 2.275556 10.467555 2.844444 2.503111 0.455111 6.144 1.479111 7.964445 2.048 1.934222 0.682667 6.485333 2.048 10.24 3.072 3.754667 1.024 8.419556 2.389333 10.24 3.072 1.934222 0.682667 5.233778 1.479111 7.395555 1.820445 2.161778 0.227556 5.006222 1.251556 6.257778 2.048 1.251556 0.910222 3.754667 1.592889 5.688889 1.592889 1.820444 0.113778 4.664889 0.796444 6.257778 1.706666 1.592889 0.910222 4.209778 1.592889 5.802666 1.706667 2.844444 0 10.467556 3.072 15.132445 6.030222 4.096 2.616889 6.599111 5.575111 9.898666 11.832889l3.299556 6.257778V582.542222c0 39.480889-0.113778 41.984-2.161778 44.487111l-2.161778 2.730667-57.002666 0.341333-56.888889 0.341334-2.275556-5.347556c-1.365333-2.958222-2.389333-6.940444-2.389333-8.874667 0-1.934222-0.796444-4.551111-1.706667-5.688888-0.910222-1.251556-1.706667-3.640889-1.706666-5.347556 0-1.592889-0.796444-3.640889-1.706667-4.437333-0.910222-0.796444-1.706667-2.048-1.706667-2.844445 0-5.347556-14.108444-25.486222-24.689778-35.157333-7.281778-6.712889-16.497778-13.767111-20.48-15.36-1.251556-0.682667-2.730667-1.706667-3.185777-2.275556-0.341333-0.682667-1.706667-1.251556-2.844445-1.251555s-3.527111-0.682667-5.347555-1.592889c-4.437333-2.275556-11.036444-4.664889-19.683556-7.054222-10.012444-2.844444-41.187556-2.958222-48.924444-0.113778-2.844444 1.024-6.030222 1.934222-7.054223 1.934222-1.137778 0-3.868444 0.796444-6.257777 1.820445-2.389333 1.024-6.144 2.616889-8.305778 3.527111-9.329778 3.982222-12.401778 5.688889-19.911111 11.264-4.437333 3.299556-10.808889 8.874667-14.222222 12.401777-3.413333 3.527111-7.054222 7.395556-8.078223 8.419556-1.024 1.024-2.730667 3.640889-3.982222 5.802667-1.137778 2.161778-2.844444 4.437333-3.527111 4.892444-0.796444 0.455111-1.479111 1.820444-1.479111 2.958222s-0.796444 2.730667-1.706667 3.527111c-0.910222 0.796444-1.706667 2.275556-1.706666 3.413334s-0.796444 2.616889-1.706667 3.413333c-0.910222 0.796444-1.706667 2.503111-1.706667 3.868445 0 1.365333-0.796444 3.527111-1.706666 4.778666-0.910222 1.137778-1.706667 3.640889-1.706667 5.575111 0 1.820444-0.796444 4.664889-1.706667 6.257778-0.910222 1.592889-1.592889 4.437333-1.706666 6.371556 0 2.275556-0.682667 3.868444-1.820445 4.323555-2.275556 0.910222-267.150222 0.910222-269.425778 0-1.024-0.341333-1.820444-1.592889-1.820444-2.616889 0-2.844444-4.096-18.773333-5.575111-21.504-0.682667-1.251556-1.251556-3.640889-1.251556-5.12 0-1.592889-0.796444-3.413333-1.706666-4.209777-0.910222-0.796444-1.706667-2.161778-1.706667-2.958223 0-1.592889-6.030222-10.808889-14.222222-21.731555-2.389333-3.299556-6.485333-7.509333-8.988445-9.329778-2.616889-1.820444-6.485333-4.892444-8.647111-6.940444-4.209778-3.868444-16.384-11.377778-18.318222-11.377778-0.682667 0-2.616889-0.682667-4.209778-1.592889-13.198222-6.712889-34.929778-10.467556-53.703111-9.216-10.922667 0.796444-26.851556 4.209778-28.899556 6.257778-0.682667 0.682667-2.161778 1.137778-3.527111 1.137777-1.365333 0-3.413333 0.796444-4.664889 1.706667-1.137778 0.910222-2.958222 1.706667-3.868444 1.706667-2.844444 0-21.617778 12.856889-28.558222 19.569778-10.581333 10.012444-27.192889 36.750222-27.192889 43.690666 0 1.251556-0.796444 4.437333-1.706667 7.281778-0.910222 2.844444-1.934222 7.054222-2.275555 9.329778-0.455111 2.730667-1.592889 4.778667-2.958223 5.575111-1.479111 0.682667-8.647111 1.024-19.456 0.796444-16.384-0.341333-17.180444-0.455111-19.228444-3.072-2.048-2.503111-2.161778-5.347556-2.161778-65.649777 0-59.505778 0.113778-63.488 2.161778-69.632 2.958222-8.760889 7.850667-18.090667 11.832889-22.983112 3.527111-4.096 45.738667-47.786667 71.907555-74.410666 8.192-8.192 21.390222-22.186667 29.468445-30.833778 37.319111-40.163556 44.373333-45.738667 61.553778-48.355556 3.185778-0.455111 84.081778-0.796444 179.768889-0.682666l174.08 0.113778 4.551111 2.503111zM229.376 579.697778c1.820444 0.910222 5.347556 1.706667 7.850667 1.706666s5.575111 0.796444 6.712889 1.706667c1.251556 0.910222 3.413333 1.706667 4.778666 1.706667 1.365333 0 3.072 0.796444 3.868445 1.706666 0.796444 0.910222 2.161778 1.706667 3.185777 1.706667 2.844444 0 21.048889 19.342222 23.893334 25.6 1.479111 3.072 3.527111 7.395556 4.551111 9.557333 2.958222 6.030222 2.730667 35.498667-0.227556 41.756445-8.988444 18.432-12.288 22.869333-24.348444 31.971555-11.491556 8.647111-19.114667 10.922667-36.864 10.922667-14.904889 0-15.701333-0.113778-28.216889-5.916444-5.575111-2.503111-17.180444-12.288-21.162667-17.749334-4.664889-6.485333-10.695111-18.432-10.695111-21.504 0-1.365333-0.796444-3.527111-1.706666-4.778666-2.389333-3.185778-2.389333-28.330667 0-29.354667 1.024-0.341333 1.706667-2.048 1.706666-4.437333 0-2.161778 0.796444-4.551111 1.706667-5.347556 0.910222-0.796444 1.706667-2.048 1.706667-2.958222 0-0.796444 2.389333-5.006222 5.233777-9.216 5.006222-7.509333 14.791111-16.042667 22.641778-19.911111 1.934222-0.910222 5.12-2.503111 7.168-3.527111 2.161778-1.024 6.030222-1.934222 8.760889-1.934223 2.958222 0 5.347556-0.682667 6.257778-1.706666 1.820444-2.161778 8.988444-2.161778 13.198222 0z m492.316444 0c2.275556 0.910222 6.371556 1.706667 8.988445 1.706666 2.730667 0 5.916444 0.796444 7.054222 1.706667 1.251556 0.910222 2.958222 1.706667 3.868445 1.706667 5.916444 0 25.941333 17.180444 30.72 26.396444 1.479111 2.730667 2.958222 5.688889 3.527111 6.599111 5.575111 10.126222 6.826667 34.360889 2.389333 46.648889-6.599111 17.976889-18.432 30.72-36.408889 39.480889-8.533333 4.096-8.533333 4.096-24.462222 4.096-17.408 0-20.024889-0.568889-32.426667-7.850667-10.126222-5.916444-21.048889-17.521778-25.372444-26.965333-4.551111-9.898667-5.233778-11.832889-5.802667-16.156444-0.341333-2.503111-1.024-6.826667-1.365333-9.557334-0.910222-5.575111 1.251556-19.683556 3.640889-24.234666 0.910222-1.592889 1.592889-3.982222 1.592889-5.233778 0-1.251556 0.796444-2.503111 1.706666-2.958222 0.910222-0.341333 1.706667-1.706667 1.706667-3.072 0-3.185778 20.821333-23.779556 24.007111-23.779556 1.251556 0 2.503111-0.796444 2.844444-1.706667 0.455111-0.910222 1.820444-1.706667 3.185778-1.706666 1.251556 0 3.413333-0.796444 4.551111-1.706667 1.251556-0.910222 4.551111-1.706667 7.395556-1.706667s6.257778-0.796444 7.395555-1.706666c2.844444-2.161778 6.144-2.161778 11.264 0z" p-id="1583"></path><path d="M260.892444 337.92c-3.299556 1.137778-7.395556 3.072-9.102222 4.323556-3.413333 2.503111-16.270222 15.587556-24.234666 24.689777-2.730667 3.072-7.281778 8.192-10.24 11.377778-2.844444 3.072-10.467556 11.605333-16.952889 18.773333-6.371556 7.168-14.336 15.928889-17.521778 19.342223-3.299556 3.413333-9.443556 10.24-13.653333 15.132444-4.209778 5.006222-8.305778 9.671111-9.102223 10.467556-11.491556 11.832889-24.462222 26.624-27.306666 30.947555-3.072 4.778667-3.640889 6.712889-3.982223 14.563556-0.341333 7.395556-0.113778 9.557333 1.365334 10.695111 1.024 0.796444 1.820444 2.048 1.820444 2.616889 0 2.844444 5.461333 8.305778 10.695111 10.695111l5.802667 2.730667H266.24c76.458667 0 119.239111-0.455111 121.969778-1.137778 5.233778-1.479111 14.677333-10.012444 17.863111-15.928889 2.389333-4.551111 2.389333-5.802667 2.389333-72.248889 0-76.458667 0.568889-71.452444-9.329778-80.896-8.988444-8.647111-7.281778-8.419556-73.500444-8.419556-54.727111 0.113778-59.278222 0.227556-64.739556 2.275556z m99.555556 86.698667l0.227556 40.618666-3.640889 0.682667c-2.048 0.341333-36.522667 0.455111-76.572445 0.341333-82.716444-0.341333-78.165333 0.227556-68.380444-9.557333 2.844444-2.844444 5.233778-5.575111 5.233778-6.144s3.185778-4.209778 7.168-8.192c3.868444-3.982222 11.832889-12.629333 17.749333-19.228444 5.916444-6.485333 14.563556-16.156444 19.456-21.504 4.778667-5.347556 10.467556-11.605333 12.515555-13.994667l3.640889-4.209778 41.187556 0.227556 41.073778 0.341333 0.341333 40.618667zM464.896 337.351111c-1.706667 0.910222-3.754667 1.706667-4.551111 1.706667-1.706667 0-10.012444 7.736889-12.401778 11.605333-1.024 1.706667-1.934222 5.12-1.934222 7.623111 0 2.844444-0.568889 4.664889-1.706667 5.12-2.616889 0.910222-2.503111 119.011556 0 124.017778 0.910222 1.706667 1.706667 4.437333 1.706667 5.916444 0 4.096 6.712889 12.743111 13.084444 16.725334l5.688889 3.640889h215.04l5.12-3.072c5.802667-3.413333 10.24-8.760889 10.24-12.174223 0-1.137778 0.796444-2.389333 1.706667-2.844444 1.251556-0.455111 1.706667-2.389333 1.706667-7.281778 0-4.664889-0.568889-7.281778-1.706667-8.192-0.910222-0.796444-1.706667-2.616889-1.706667-4.209778 0-1.479111-0.796444-2.958222-1.706666-3.299555-0.910222-0.455111-1.706667-1.251556-1.706667-1.934222 0-1.251556-4.664889-7.168-12.401778-15.587556-2.503111-2.844444-4.664889-5.461333-4.664889-5.916444 0-0.341333-1.706667-2.730667-3.640889-5.12-4.209778-5.006222-6.371556-7.736889-20.821333-25.941334-5.575111-6.940444-10.695111-13.312-11.605333-14.222222-0.796444-0.910222-4.209778-5.006222-7.395556-9.102222-3.185778-4.096-6.030222-7.623111-6.485333-7.964445-0.341333-0.341333-2.048-2.616889-3.754667-5.12-1.706667-2.503111-5.006222-6.712889-7.395555-9.329777-2.389333-2.730667-5.575111-6.712889-7.168-8.988445-1.592889-2.275556-4.551111-5.916444-6.485334-8.078222-2.048-2.048-3.754667-4.209778-3.754666-4.664889 0-1.251556-5.347556-6.030222-9.671112-8.760889-9.557333-6.144-10.808889-6.257778-66.56-6.257778-43.690667 0-52.224 0.227556-55.068444 1.706667z m101.148444 52.451556c2.503111 3.527111 5.688889 7.623111 6.940445 8.988444 1.365333 1.479111 4.892444 5.916444 7.850667 9.898667 3.072 3.982222 6.030222 7.623111 6.712888 8.305778 0.796444 0.568889 3.868444 4.437333 6.826667 8.533333 3.072 4.096 6.144 7.850667 6.826667 8.533333 0.796444 0.568889 3.868444 4.437333 6.826666 8.533334 3.072 4.096 6.144 7.850667 6.826667 8.533333 3.640889 3.299556 8.760889 11.036444 8.419556 12.743111-0.341333 1.934222-4.323556 2.048-63.829334 2.389333-42.439111 0.113778-64.170667-0.113778-65.763555-0.910222-2.048-1.137778-2.161778-2.730667-2.161778-40.96 0-30.606222 0.341333-39.708444 1.479111-40.163555 0.682667-0.341333 16.497778-0.682667 34.929778-0.682667l33.564444-0.113778 4.551111 6.371556zM470.698667 536.576c-2.389333 1.592889-5.802667 5.006222-7.623111 7.509333-2.958222 3.982222-3.413333 5.688889-3.413334 11.719111 0 4.892444 0.568889 7.509333 1.706667 8.533334 0.910222 0.796444 1.706667 2.048 1.706667 2.730666 0.113778 1.820444 4.551111 6.712889 8.192 8.988445 2.730667 1.706667 7.736889 1.934222 48.355555 1.934222h45.283556l5.461333-4.664889c2.958222-2.503111 5.347556-5.575111 5.347556-6.712889 0-1.024 0.796444-2.616889 1.706666-3.413333 1.137778-0.910222 1.706667-3.527111 1.706667-7.509333 0-4.892444-0.682667-7.054222-3.527111-11.264-1.934222-2.844444-5.575111-6.485333-7.964445-8.078223L563.2 533.617778h-88.177778l-4.323555 2.958222z" p-id="1584"></path></svg>