<?xml version="1.0" standalone="no"?><!DOCTYPE svg PUBLIC "-//W3C//DTD SVG 1.1//EN" "http://www.w3.org/Graphics/SVG/1.1/DTD/svg11.dtd"><svg t="1522399728138" class="icon" style="" viewBox="0 0 1024 1024" version="1.1" xmlns="http://www.w3.org/2000/svg" p-id="1803" xmlns:xlink="http://www.w3.org/1999/xlink" width="200" height="200"><defs><style type="text/css"></style></defs><path d="M771.982222 212.195556c-1.820444 1.592889-3.982222 2.844444-4.551111 2.844444-0.682667 0-3.072 1.024-5.461333 2.275556-2.275556 1.251556-4.892444 2.275556-5.575111 2.275555-0.796444 0-3.982222 2.275556-7.168 5.12-3.072 2.844444-6.030222 5.12-6.371556 5.12-1.251556 0-13.084444 15.018667-15.701333 19.911111-1.365333 2.503111-2.958222 5.347556-3.413334 6.257778-0.568889 0.910222-1.820444 4.778667-2.958222 8.533333-1.024 3.754667-2.616889 8.533333-3.527111 10.581334-0.910222 2.048-1.592889 4.892444-1.592889 6.257777 0 1.479111-0.796444 3.640889-1.706666 4.892445-0.910222 1.137778-1.706667 3.640889-1.706667 5.575111 0 1.820444-0.796444 4.437333-1.706667 5.575111-0.910222 1.251556-1.706667 3.413333-1.706666 4.778667 0 1.365333-0.682667 3.982222-1.592889 5.802666-2.275556 4.778667-4.209778 10.467556-5.347556 16.270223-0.455111 2.844444-2.161778 8.647111-3.754667 13.084444-1.592889 4.323556-2.958222 8.988444-2.958222 10.24 0 1.365333-0.568889 2.958222-1.365333 3.754667-1.024 1.024-62.350222 1.365333-268.743111 1.365333-229.717333 0.113778-267.946667 0.341333-270.336 1.706667-1.592889 0.910222-3.982222 1.592889-5.233778 1.706666-1.365333 0-3.072 0.796444-3.868444 1.706667-0.796444 0.910222-2.275556 1.706667-3.299556 1.706667-3.299556 0-17.521778 14.791111-20.707556 21.617778-5.347556 11.150222-6.030222 14.108444-6.030222 23.324444 0.113778 9.102222 1.592889 16.497778 4.551111 22.528 0.910222 1.820444 1.592889 4.209778 1.592889 5.347556s0.796444 3.527111 1.706667 5.233777c0.910222 1.820444 1.706667 4.551111 1.706667 5.916445 0 1.479111 0.682667 4.096 1.592888 5.688889 1.820444 3.754667 3.982222 9.671111 5.233778 14.904889 0.568889 2.048 1.479111 4.323556 2.161778 5.006222 0.682667 0.682667 1.251556 2.503111 1.251556 4.096 0 1.706667 0.796444 3.982222 1.706666 5.12 0.910222 1.251556 1.706667 3.299556 1.706667 4.664889 0 1.365333 0.455111 2.844444 0.910222 3.527111 1.365333 1.479111 5.916444 15.587556 5.916445 18.204444 0 1.251556 0.796444 3.299556 1.706666 4.551111 0.910222 1.137778 1.706667 3.185778 1.706667 4.551111 0 1.251556 0.796444 3.299556 1.706667 4.551112 0.910222 1.137778 1.706667 3.299556 1.706666 4.664888 0 1.365333 0.682667 3.868444 1.592889 5.688889 2.048 4.096 7.395556 20.138667 8.647111 25.713778 0.455111 2.389333 1.479111 5.006222 2.161778 5.688889 0.682667 0.682667 1.251556 2.616889 1.251556 4.209778 0 1.592889 0.568889 3.527111 1.251555 4.209778 0.682667 0.682667 1.592889 2.958222 2.161778 5.006222 1.251556 5.233778 3.413333 11.150222 5.233778 14.904889 0.910222 1.592889 1.592889 3.982222 1.592889 5.233777 0 1.251556 0.682667 3.754667 1.592888 5.575112 2.389333 4.892444 4.323556 10.695111 5.006223 15.132444 0.227556 2.161778 1.251556 5.006222 2.048 6.257778 0.910222 1.251556 1.592889 3.299556 1.592889 4.551111 0 1.365333 0.796444 3.413333 1.706666 4.664889 0.910222 1.137778 1.706667 3.072 1.706667 4.096 0 2.048 1.820444 5.916444 7.964444 17.294222 3.072 5.688889 11.036444 15.815111 16.725334 21.390222 5.802667 5.688889 18.090667 14.563556 20.252444 14.563556 1.024 0 2.048 0.796444 2.389333 1.706666 0.455111 0.910222 1.592889 1.706667 2.730667 1.706667s2.616889 0.796444 3.413333 1.706667c0.796444 0.910222 2.389333 1.706667 3.527112 1.706666s3.413333 0.568889 5.233777 1.365334c11.491556 4.778667 9.216 4.778667 169.301334 4.778666 162.816 0.113778 156.103111 0.341333 171.235555-5.12 2.161778-0.682667 4.551111-1.592889 5.12-1.706666 0.682667-0.227556 1.934222-0.910222 2.844445-1.479111s2.503111-1.365333 3.413333-1.706667c0.910222-0.455111 3.299556-1.706667 5.12-2.958222 1.934222-1.251556 4.437333-2.730667 5.688889-3.299556s3.527111-2.389333 5.006222-3.982222c1.592889-1.592889 3.299556-2.958222 3.754667-2.958222 1.251556 0 10.922667-10.353778 16.270222-17.408 4.209778-5.461333 10.808889-17.521778 10.808889-19.569778 0-0.796444 0.796444-2.048 1.706667-2.844444s1.706667-3.072 1.706666-5.12c0-2.048 0.796444-4.323556 1.706667-5.12 0.910222-0.796444 1.706667-3.072 1.706667-5.006223 0-1.934222 0.796444-5.006222 1.706666-6.826666 0.910222-1.706667 1.706667-4.323556 1.706667-5.688889 0-1.365333 0.796444-3.527111 1.706667-4.778667 0.910222-1.137778 1.706667-3.413333 1.706666-5.006222 0-1.592889 0.796444-4.323556 1.706667-6.144 0.910222-1.706667 1.706667-4.323556 1.706667-5.688889 0-1.365333 0.796444-3.527111 1.706666-4.778667 0.910222-1.137778 1.706667-3.754667 1.706667-5.688889 0-1.934222 0.682667-4.209778 1.592889-4.892444 0.910222-0.796444 1.820444-3.527111 2.161778-6.144 0.227556-2.616889 1.137778-6.599111 1.934222-8.760889 0.796444-2.161778 2.048-5.802667 2.844444-7.964444 0.796444-2.161778 2.048-5.802667 2.844445-7.964445 0.682667-2.161778 1.706667-5.916444 2.275555-8.305778 0.455111-2.389333 1.479111-5.006222 2.161778-5.688888 0.682667-0.682667 1.251556-2.844444 1.251556-4.892445 0-1.934222 0.796444-4.209778 1.706666-5.006222 0.910222-0.796444 1.706667-3.299556 1.706667-5.575111 0-2.275556 0.796444-5.575111 1.706667-7.395556 0.910222-1.706667 1.706667-4.323556 1.706666-5.688889 0-1.365333 0.796444-3.527111 1.706667-4.778666 0.910222-1.137778 1.706667-3.527111 1.706667-5.12s0.796444-3.868444 1.706666-5.12c0.910222-1.137778 1.706667-3.754667 1.706667-5.688889 0-1.934222 0.796444-4.209778 1.706667-5.006222 0.910222-0.796444 1.706667-3.072 1.706666-5.12 0-2.048 0.796444-4.323556 1.706667-5.12 0.910222-0.796444 1.706667-3.072 1.706667-5.233778 0-2.048 0.796444-4.437333 1.706666-5.461334 1.024-0.910222 1.706667-3.754667 1.706667-6.712888 0-3.072 0.682667-5.575111 1.706667-6.485334 0.910222-0.796444 1.706667-3.072 1.706666-5.12 0-2.048 0.796444-4.323556 1.706667-5.12 0.910222-0.796444 1.706667-2.844444 1.706667-4.437333 0-1.706667 0.796444-4.096 1.706666-5.347556 0.910222-1.137778 1.706667-3.754667 1.706667-5.688889 0-1.934222 0.796444-4.209778 1.706667-5.006222 1.024-0.796444 1.706667-3.299556 1.706666-5.916444 0-2.844444 0.568889-4.664889 1.706667-5.006222 1.137778-0.455111 1.706667-2.389333 1.706667-6.144 0-3.413333 0.682667-5.916444 1.706666-6.826667 0.910222-0.796444 1.706667-3.299556 1.706667-5.575111 0-2.275556 0.796444-5.12 1.706667-6.257778 0.910222-1.251556 1.706667-3.413333 1.706666-4.778667 0-1.365333 0.796444-3.072 1.706667-3.868444 0.910222-0.796444 1.706667-3.299556 1.706667-5.575111 0-2.275556 0.796444-5.575111 1.706666-7.395556 0.910222-1.706667 1.706667-4.209778 1.706667-5.347555 0-1.251556 0.796444-2.503111 1.706667-2.844445 1.137778-0.455111 1.706667-2.389333 1.706666-6.144 0-3.299556 0.682667-5.916444 1.592889-6.712889 0.910222-0.796444 1.820444-3.527111 2.161778-6.144 0.455111-5.006222 2.161778-10.467556 4.892444-15.928889 0.910222-1.820444 1.592889-4.323556 1.592889-5.688888 0-1.365333 0.796444-3.527111 1.706667-4.664889 0.910222-1.251556 1.706667-3.527111 1.706667-5.12s0.796444-4.437333 1.706666-6.257778c0.910222-1.706667 1.706667-4.096 1.706667-5.233778 0-6.826667 12.515556-21.959111 19.228444-23.438222 1.592889-0.341333 3.982222-1.251556 5.233778-1.934222 1.592889-1.024 15.701333-1.479111 50.289778-1.706667 40.277333-0.227556 48.128-0.568889 49.265778-1.934222 0.796444-0.910222 1.934222-1.706667 2.503111-1.706667 1.592889 0 6.599111-4.892444 6.599111-6.371555 0-0.682667 0.682667-1.934222 1.592889-2.616889 2.161778-1.820444 3.185778-7.964444 2.275555-13.880889-0.682667-3.868444-2.161778-6.144-7.509333-11.491556L886.328889 209.351111h-55.409778l-55.523555 0.113778-3.413334 2.730667z m-94.435555 188.302222c0.455111 1.365333 0 3.527111-1.024 5.12-1.024 1.479111-1.820444 4.209778-1.820445 6.030222 0 1.820444-0.796444 3.982222-1.706666 4.778667-0.910222 0.796444-1.706667 3.072-1.706667 5.12 0 2.048-0.796444 4.323556-1.706667 5.12-0.910222 0.796444-1.706667 3.072-1.706666 5.12 0 2.048-0.796444 4.323556-1.706667 5.12-0.910222 0.796444-1.706667 3.299556-1.706667 5.575111-0.113778 2.275556-0.796444 5.347556-1.706666 6.940444-0.910222 1.592889-1.592889 4.209778-1.706667 5.802667 0 1.592889-0.796444 3.868444-1.706667 5.12-0.910222 1.137778-1.706667 3.754667-1.706666 5.688889 0 1.820444-0.796444 4.437333-1.706667 5.688889-0.910222 1.137778-1.706667 3.754667-1.706667 5.688889 0 1.934222-0.796444 4.209778-1.706666 5.006222-0.910222 0.796444-1.706667 2.844444-1.706667 4.437333 0 1.706667-0.796444 4.096-1.706667 5.347556-0.910222 1.137778-1.706667 3.982222-1.706666 6.257777 0 2.161778-0.796444 5.006222-1.706667 6.257778-0.910222 1.137778-1.706667 3.413333-1.706667 5.006222 0 1.592889-0.796444 4.096-1.706666 5.688889s-1.592889 4.209778-1.706667 5.802667c0 1.592889-0.796444 3.868444-1.706667 5.12-0.910222 1.137778-1.706667 3.754667-1.706666 5.688889 0 1.934222-0.796444 4.209778-1.706667 5.006222-0.910222 0.796444-1.706667 3.072-1.706667 5.006222 0 1.934222-0.796444 4.551111-1.706666 5.688889-0.910222 1.251556-1.706667 3.527111-1.706667 5.12s-0.796444 3.982222-1.706667 5.12c-0.910222 1.251556-1.706667 3.868444-1.706666 5.688889-0.113778 1.934222-0.796444 4.778667-1.706667 6.371556-0.910222 1.592889-1.592889 4.437333-1.706667 6.371555 0 1.934222-0.796444 4.209778-1.706666 5.006222-0.910222 0.796444-1.706667 3.299556-1.706667 5.575112 0 2.275556-0.796444 5.12-1.706667 6.257777-0.910222 1.251556-1.706667 3.640889-1.706666 5.347556 0 1.592889-0.796444 3.640889-1.706667 4.437333-0.910222 0.796444-1.706667 3.072-1.706667 5.12 0 2.048-0.796444 4.323556-1.706666 5.12-0.910222 0.796444-1.706667 2.958222-1.706667 4.778667 0 1.934222-1.479111 5.688889-3.413333 8.533333-1.820444 2.730667-3.413333 5.461333-3.413334 6.030222 0 1.592889-11.605333 12.401778-14.108444 13.198223-1.365333 0.455111-2.844444 1.365333-3.527111 2.161777-1.592889 1.820444-9.102222 4.664889-16.497778 6.257778-7.168 1.479111-290.019556 1.024-296.96-0.455111-11.150222-2.389333-31.175111-17.066667-33.564445-24.689778-0.455111-1.479111-1.592889-3.299556-2.389333-4.209777-0.910222-0.796444-1.592889-2.389333-1.592889-3.413334 0-1.024-0.796444-2.958222-1.706666-4.096-0.910222-1.251556-1.706667-3.413333-1.706667-4.778666 0-1.365333-0.796444-3.982222-1.706667-5.688889-0.910222-1.820444-1.706667-4.323556-1.706666-5.575111 0-1.251556-0.796444-3.299556-1.706667-4.437334-0.910222-1.251556-1.706667-3.527111-1.706667-5.12s-0.796444-3.982222-1.706666-5.12c-0.910222-1.251556-1.706667-3.527111-1.706667-5.12s-0.796444-3.982222-1.706667-5.12c-0.910222-1.251556-1.706667-3.413333-1.706666-4.778666 0-1.365333-0.796444-3.982222-1.706667-5.688889-0.910222-1.820444-1.706667-4.096-1.706667-5.006223 0-0.910222-0.796444-2.730667-1.706666-3.868444-0.910222-1.251556-1.706667-3.868444-1.706667-5.688889 0-1.934222-0.796444-4.551111-1.706667-5.688889-0.910222-1.251556-1.706667-3.527111-1.706666-5.12s-0.796444-3.982222-1.706667-5.12c-0.910222-1.251556-1.706667-3.527111-1.706667-5.12s-0.796444-3.982222-1.706666-5.12c-0.910222-1.251556-1.706667-3.299556-1.706667-4.551111 0-1.365333-0.796444-3.413333-1.706667-4.551111-0.910222-1.251556-1.706667-3.640889-1.706666-5.347556 0-1.592889-0.796444-3.640889-1.706667-4.437333-0.910222-0.796444-1.706667-2.730667-1.706667-4.437333-0.113778-1.592889-0.796444-4.209778-1.706666-5.802667-0.910222-1.592889-1.592889-3.982222-1.706667-5.461333 0-1.365333-0.455111-3.413333-1.137778-4.551111-1.592889-2.844444-4.664889-11.605333-5.347555-15.587556-0.341333-1.934222-1.365333-4.437333-2.161778-5.688889-0.910222-1.251556-1.592889-3.527111-1.592889-5.233778 0-1.706667-0.796444-3.640889-1.706667-4.437333-0.910222-0.796444-1.706667-2.389333-1.706666-3.527111s-0.682667-3.754667-1.592889-5.802667c-0.910222-2.048-2.503111-6.826667-3.527111-10.581333-1.137778-3.754667-2.730667-8.192-3.527112-9.898667-0.910222-1.592889-1.592889-4.209778-1.592888-5.688889 0-1.365333-0.796444-3.640889-1.706667-4.778666-0.910222-1.251556-1.706667-4.664889-1.706667-7.623111 0-9.898667-26.965333-8.988444 259.640889-8.988445h254.520889l0.682667 2.275556zM277.617778 723.057778c-1.592889 0.910222-3.982222 1.592889-5.347556 1.706666-1.365333 0-2.730667 0.455111-3.072 1.024-0.341333 0.568889-2.844444 2.161778-5.461333 3.527112-8.305778 4.209778-14.222222 11.832889-20.593778 26.510222-2.503111 5.688889-2.616889 25.372444-0.227555 28.558222 0.910222 1.251556 1.706667 2.958222 1.706666 3.754667 0 4.096 11.832889 19.911111 16.497778 22.072889 1.251556 0.568889 4.437333 2.275556 7.054222 3.754666 2.616889 1.479111 6.485333 2.958222 8.533334 3.299556 2.048 0.341333 6.144 1.251556 9.216 2.048 4.664889 1.251556 6.257778 1.137778 11.491555-0.455111 3.299556-1.024 7.281778-1.934222 8.988445-1.934223 1.592889 0 3.299556-0.568889 3.640888-1.251555 0.455111-0.568889 1.934222-1.706667 3.185778-2.275556 3.640889-1.592889 7.054222-3.754667 9.329778-5.575111 2.616889-2.161778 10.808889-13.198222 10.808889-14.563555 0-0.568889 0.796444-1.706667 1.706667-2.503111 0.910222-0.796444 1.706667-3.072 1.706666-5.12 0-2.048 0.796444-4.323556 1.706667-5.12 1.251556-1.024 1.706667-3.982222 1.706667-11.491556 0-5.916444-0.455111-10.126222-1.137778-10.126222-0.568889 0-1.479111-1.365333-1.820445-2.958222-0.455111-1.592889-1.934222-5.12-3.413333-7.623112-1.479111-2.616889-3.185778-5.802667-3.754667-7.054222-2.275556-5.006222-17.863111-16.497778-22.414222-16.497778-1.137778-0.113778-3.413333-0.796444-5.006222-1.706666-1.820444-1.024-6.257778-1.592889-12.515556-1.592889s-10.695111 0.568889-12.515555 1.592889zM542.72 723.057778c-1.592889 0.910222-3.754667 1.592889-4.778667 1.706666-1.706667 0-7.168 2.503111-11.036444 5.12-5.006222 3.413333-12.629333 12.629333-15.928889 19.456-3.754667 7.509333-3.868444 8.419556-3.982222 21.048889 0 12.856889 0.113778 13.425778 3.868444 20.821334 2.161778 4.209778 6.257778 10.24 9.102222 13.198222 5.461333 5.916444 16.384 12.515556 20.707556 12.515555 1.365333 0 4.778667 0.910222 7.509333 1.934223 4.323556 1.592889 5.916444 1.706667 10.922667 0.455111 3.185778-0.682667 7.850667-1.706667 10.353778-2.275556 2.503111-0.455111 6.371556-1.934222 8.533333-3.299555 2.161778-1.365333 5.12-2.958222 6.371556-3.527111 3.527111-1.592889 10.581333-10.353778 15.018666-18.545778 3.527111-6.712889 3.640889-7.395556 3.640889-20.593778 0-12.856889-0.227556-14.108444-3.527111-21.048889-1.934222-4.096-4.778667-9.102222-6.371555-11.264-2.730667-3.640889-11.946667-10.581333-13.880889-10.581333-0.568889 0-1.592889-0.796444-2.389334-1.706667-0.796444-0.910222-2.503111-1.706667-3.868444-1.706667-1.365333 0-3.527111-0.796444-4.778667-1.706666-2.958222-2.275556-21.504-2.275556-25.486222 0z" p-id="1804"></path></svg>