<svg width="22px" height="22px" viewBox="0 0 22 22" version="1.1" xmlns="http://www.w3.org/2000/svg" xmlns:xlink="http://www.w3.org/1999/xlink">
    <g id="fawdfde" stroke="none" stroke-width="1" fill="none" fill-rule="evenodd">
        <g id="5-2-5awefdfef" transform="translate(-548.000000, -335.000000)" fill-rule="nonzero" stroke="currentColor" stroke-width="1.34">
            <g id="Group-11" transform="translate(547.000000, 336.000000)">
                <g id="Group-3">
                    <g id="aaaefd" transform="translate(2.000000, 0.000000)">
                        <path d="M5.00554939,6.375 C4.25305216,6.375 3.64261931,6.984375 3.64261931,7.73660714 C3.64261931,8.48883929 4.25305216,9.09598214 5.00554939,9.09598214 C5.75804661,9.09598214 6.36847947,8.48660714 6.36847947,7.73660714 C6.36847947,6.984375 5.75804661,6.375 5.00554939,6.375 Z M10,6.375 C9.24750277,6.375 8.63928968,6.984375 8.63928968,7.73660714 C8.63928968,8.48883929 9.24972253,9.09598214 10,9.09598214 C10.7524972,9.09598214 11.3629301,8.48660714 11.3629301,7.73660714 C11.3607103,6.984375 10.7524972,6.375 10,6.375 Z M14.9944506,6.375 C14.2419534,6.375 13.6315205,6.984375 13.6315205,7.73660714 C13.6315205,8.48883929 14.2419534,9.09598214 14.9944506,9.09598214 C15.7469478,9.09598214 16.3551609,8.48660714 16.3551609,7.73660714 C16.3551609,6.984375 15.7447281,6.375 14.9944506,6.375 Z M17.4894562,0.0111607143 L2.51054384,0.0111607143 C1.13207547,0.0111607143 0.013318535,1.16517857 0.013318535,2.58928571 L0.013318535,13.6227679 C0.013318535,15.046875 1.15649279,16.359375 2.56603774,16.359375 L6.37069922,16.359375 C7.03440622,17.0625 9.77802442,19.8928571 9.77802442,19.8928571 C9.90011099,20.0178571 10.0976693,20.0178571 10.2197558,19.8928571 C10.2197558,19.8928571 12.2286349,17.625 13.5382908,16.359375 L17.4317425,16.359375 C18.8412875,16.359375 19.9844617,15.046875 19.9844617,13.6227679 L19.9844617,2.59151786 C19.9866815,1.16741071 18.8679245,0.0111607143 17.4894562,0.0111607143 Z" id="Shape"></path>
                    </g>
                </g>
            </g>
        </g>
    </g>
</svg>