<?xml version="1.0" standalone="no"?><!DOCTYPE svg PUBLIC "-//W3C//DTD SVG 1.1//EN" "http://www.w3.org/Graphics/SVG/1.1/DTD/svg11.dtd"><svg t="1522399738592" class="icon" style="" viewBox="0 0 1024 1024" version="1.1" xmlns="http://www.w3.org/2000/svg" p-id="2024" xmlns:xlink="http://www.w3.org/1999/xlink" width="200" height="200"><defs><style type="text/css"></style></defs><path d="M426.666667 193.991111c-1.592889 0.910222-3.754667 1.592889-4.778667 1.706667-2.389333 0-8.647111 6.257778-11.377778 11.264-1.934222 3.413333-2.048 10.581333-2.048 101.831111 0 74.752-0.341333 98.417778-1.365333 99.441778-1.024 1.024-23.665778 1.365333-94.890667 1.365333-51.313778 0-96.483556 0.341333-100.352 0.682667-6.030222 0.682667-7.509333 1.365333-11.719111 5.347555-9.443556 9.102222-8.988444 3.299556-8.988444 95.914667 0 58.595556 0.341333 83.171556 1.251555 85.902222 1.820444 5.12 8.305778 13.084444 12.743111 15.587556 3.299556 1.820444 11.491556 1.934222 103.196445 2.503111l99.555555 0.568889 0.568889 99.555555c0.568889 91.704889 0.682667 99.896889 2.503111 103.196445 2.503111 4.437333 10.467556 10.922667 15.587556 12.743111 2.730667 0.910222 27.306667 1.251556 85.902222 1.251555 92.615111 0 86.812444 0.455111 95.914667-8.988444 3.982222-4.209778 4.664889-5.688889 5.347555-11.719111 0.341333-3.868444 0.682667-49.038222 0.682667-100.352 0-71.224889 0.341333-93.866667 1.365333-94.890667 1.024-1.024 24.576-1.365333 98.986667-1.365333 90.567111 0 97.848889-0.113778 101.831111-2.048 5.233778-2.389333 11.719111-8.760889 11.719111-11.377778 0-1.137778 0.796444-3.072 1.706667-4.323556 1.365333-1.820444 1.592889-13.994667 1.706667-84.764444v-82.716444l-2.730667-6.144c-1.820444-4.096-4.437333-7.623111-7.623111-10.126223l-4.892445-3.868444-98.531555-0.341333c-71.111111-0.113778-99.100444-0.568889-100.920889-1.592889l-2.503111-1.251556-0.341334-99.669333-0.341333-99.783111-3.868444-4.892445c-2.503111-3.185778-6.030222-5.802667-10.126223-7.623111l-6.144-2.730667h-82.147555c-68.949333 0.113778-82.488889 0.341333-84.878222 1.706667z m141.084444 146.773333c0.568889 97.735111 0.568889 100.238222 2.844445 103.537778 2.844444 4.209778 4.892444 6.257778 9.102222 9.102222 3.299556 2.275556 5.575111 2.275556 102.968889 2.616889 54.727111 0.113778 99.896889 0.682667 100.352 1.137778 0.568889 0.568889 0.796444 25.486222 0.682666 55.523556l-0.341333 54.499555-97.621333 0.341334c-84.536889 0.227556-98.076444 0.455111-100.124445 1.934222-1.365333 0.910222-3.299556 1.706667-4.323555 1.706666-1.137778 0-4.209778 2.275556-7.054223 5.006223-4.096 4.096-5.12 6.144-5.802666 10.467555-0.341333 2.958222-0.682667 48.810667-0.682667 101.831111V785.066667l-2.503111 0.568889c-1.479111 0.341333-26.396444 0.455111-55.523556 0.341333l-52.906666-0.341333-0.568889-98.986667c-0.682667-109.340444-0.227556-103.537778-7.964445-111.502222-2.161778-2.161778-4.664889-3.982222-5.688888-3.982223-0.910222 0-2.844444-0.796444-4.209778-1.706666-2.048-1.479111-15.701333-1.706667-101.262222-1.934222l-98.759112-0.341334v-110.364444l100.693334-0.568889 100.693333-0.568889 3.982222-2.503111c4.323556-2.616889 9.102222-8.419556 9.102223-10.922667 0-0.796444 0.796444-2.503111 1.706666-3.754666 1.365333-1.820444 1.592889-15.701333 1.706667-99.555556 0-53.589333 0.341333-97.735111 0.796444-98.076444 0.341333-0.455111 25.372444-0.682667 55.409778-0.568889l54.727111 0.341333 0.568889 100.124444z" p-id="2025"></path></svg>