<?xml version="1.0" encoding="utf-8"?>
<!-- Generator: Adobe Illustrator 21.0.0, SVG Export Plug-In . SVG Version: 6.00 Build 0)  -->
<svg version="1.1" id="图层_1" xmlns="http://www.w3.org/2000/svg" xmlns:xlink="http://www.w3.org/1999/xlink" x="0px" y="0px"
	 viewBox="0 0 16 16" style="enable-background:new 0 0 16 16;" xml:space="preserve">
<style type="text/css">
	.st0{display:none;}
	.st1{clip-path:url(#SVGID_2_);}
</style>
<path class="st0" d="M5,0h6v2H5V0z M1,4h14V2H1V4z M5,2h1l0,0H5L5,2z M10,2h1l0,0H10L10,2z M4,14h8V7H4V14z M2,5h12v11H2V5z M6,13h1
	V8H6V13z M9,13h1V8H9V13z"/>
<g>
	<g>
		<defs>
			<path id="SVGID_1_" d="M0,16C0,16,2,3,2,5c0,3.4,2.6,6,6,6s6-2.6,6-6c0-2,2,11,2,11H0z"/>
		</defs>
		<clipPath id="SVGID_2_">
			<use xlink:href="#SVGID_1_"  style="overflow:visible;"/>
		</clipPath>
		<path class="st1" d="M8,9c-3.9,0-7,3.1-7,7s3.1,7,7,7s7-3.1,7-7S11.9,9,8,9z M14,16c0,3.3-2.7,6-6,6s-6-2.7-6-6s2.7-6,6-6
			S14,12.7,14,16z"/>
	</g>
</g>
<path d="M8,0C5.2,0,3,2.2,3,5s2.2,5,5,5s5-2.2,5-5S10.8,0,8,0z M12,5c0,2.2-1.8,4-4,4S4,7.2,4,5s1.8-4,4-4S12,2.8,12,5z"/>
</svg>
