<svg width="22px" height="22px" viewBox="0 0 22 22" version="1.1" xmlns="http://www.w3.org/2000/svg" xmlns:xlink="http://www.w3.org/1999/xlink">
    <g id="fasef" stroke="none" stroke-width="1" fill="none" fill-rule="evenodd">
        <g id="5-2-5wefda" transform="translate(-719.000000, -334.000000)" fill-rule="nonzero" stroke="currentColor" stroke-width="1.18386244">
            <g id="Group-12" transform="translate(717.000000, 335.000000)">
                <g id="Group-6">
                    <g id="aefdaw" transform="translate(3.000000, 0.000000)">
                        <path d="M16.0008469,19.9891638 L15.9731915,19.9891638 C15.1066578,19.9795316 14.240124,19.9783276 13.3724379,19.9783276 L12.0484389,19.9783276 C11.1634682,19.9783276 10.2796499,19.9771236 9.39467923,19.9662874 C8.9038451,19.9508554 8.41958463,19.8440299 7.96466807,19.6508338 C7.18916645,19.3353802 6.74668113,18.6298236 6.75013804,17.7135633 L6.75359496,14.2748781 C6.75359496,12.3713202 6.75474727,10.4665583 6.76972723,8.56300043 C6.77318415,8.04406719 7.09122046,7.56005059 7.36316459,7.303594 C8.41637185,6.29823611 9.56061124,5.04244176 10.0411226,3.34958762 C10.1747901,2.87761121 10.2254915,2.35747396 10.2784976,1.80723617 C10.3845097,0.713984707 11.06437,0 11.9723867,0 C12.3272968,0 12.6845115,0.11076998 13.0325078,0.328697852 C13.7331096,0.768165684 14.2009456,1.45927398 14.459062,2.44416352 C14.8727397,4.00818736 14.6607155,5.52525436 14.4291021,6.82439348 C14.3945329,7.02064896 14.3553546,7.21570045 14.3138716,7.41677201 L17.9148263,7.41677201 C18.4356684,7.41677201 19.1823624,7.48419721 19.6432846,8.06935164 C19.9786055,8.49437121 20.0730946,9.06868943 19.931361,9.82601891 C19.4980941,12.1570044 18.9680336,14.5072542 18.4610192,16.6997773 C18.3031533,17.3824574 18.0404276,18.0157727 17.7869204,18.6274156 L17.6786037,18.8898922 C17.3882227,19.5990609 16.7924807,19.9891638 16.0008469,19.9891638 Z M3.58546927,19.9855517 L3.5082648,19.9843477 C3.32473607,19.977478 3.14110891,19.9738654 2.95746276,19.9735115 L2.30641013,19.9783276 L2.05405523,19.9771236 C1.10686008,19.9686954 0.617130232,19.4858829 0.557210338,18.4985853 C0.418933668,16.2314129 0.285266228,13.9642406 0.152751095,11.6970682 C0.104354257,10.8723135 0.064023571,10.0487629 0.023692885,9.22400818 L0.0156267328,9.05183313 C-0.0051147639,8.64366986 0.0179313477,8.17891758 0.338272277,7.82493529 C0.659765514,7.46974896 1.11031698,7.4203841 1.5078624,7.41797604 L2.39974689,7.41556799 L3.29047905,7.41797604 C4.39438776,7.42158811 4.91062064,7.95496959 4.91407756,9.09638191 C4.91753448,10.2173259 4.91638217,11.3382698 4.91638216,12.4592138 L4.91407756,15.1044489 C4.91177294,16.235025 4.90946833,17.3668051 4.923296,18.4973813 C4.92560061,18.6743724 4.93251444,19.214978 4.56262437,19.605081 C4.32640173,19.8579255 3.99799465,19.9855518 3.58546927,19.9855517 Z" id="Shape"></path>
                    </g>
                </g>
            </g>
        </g>
    </g>
</svg>