<?xml version="1.0" standalone="no"?><!DOCTYPE svg PUBLIC "-//W3C//DTD SVG 1.1//EN" "http://www.w3.org/Graphics/SVG/1.1/DTD/svg11.dtd"><svg t="1522399753225" class="icon" style="" viewBox="0 0 1024 1024" version="1.1" xmlns="http://www.w3.org/2000/svg" p-id="2356" xmlns:xlink="http://www.w3.org/1999/xlink" width="200" height="200"><defs><style type="text/css"></style></defs><path d="M505.742222 169.073778c-1.251556 0.227556-5.12 1.024-8.533333 1.706666-6.599111 1.251556-6.712889 1.251556-18.318222 6.485334-9.898667 4.551111-24.120889 19.456-28.216889 29.354666-1.365333 3.754667-3.185778 7.964444-3.982222 9.443556-2.048 4.323556-1.592889 33.678222 0.682666 39.936 1.024 2.844444 2.616889 7.964444 3.527111 11.377778 0.910222 3.413333 2.275556 8.533333 3.072 11.377778 0.682667 2.844444 1.592889 6.826667 1.934223 8.760888 0.910222 5.802667-2.616889 4.892444-11.150223-2.844444-3.982222-3.640889-16.725333-14.677333-28.330666-24.576-11.605333-10.012444-21.162667-18.545778-21.390223-19.000889-0.455111-1.251556-16.270222-13.312-22.755555-17.408-2.616889-1.592889-8.988444-4.323556-14.222222-5.916444-5.12-1.479111-10.922667-3.299556-12.856889-3.868445-4.437333-1.479111-25.941333-1.479111-30.492445-0.113778-25.827556 7.964444-33.564444 12.288-46.762666 25.827556-13.994667 14.336-22.641778 35.612444-22.755556 56.092444 0 9.557333 2.275556 23.779556 4.664889 29.354667 0.910222 1.934222 1.592889 4.096 1.592889 4.778667 0 0.682667 2.389333 5.802667 5.233778 11.491555 5.461333 10.353778 16.611556 23.210667 27.420444 31.630223 5.575111 4.437333 19.683556 11.605333 29.923556 15.246222l7.395555 2.616889h375.466667l7.395555-2.616889c10.24-3.640889 24.348444-10.808889 29.923556-15.246222 10.808889-8.419556 21.959111-21.276444 27.420444-31.630223 2.844444-5.688889 5.233778-10.808889 5.233778-11.491555 0-0.682667 0.682667-2.844444 1.592889-4.778667 2.389333-5.575111 4.664889-19.797333 4.664889-29.354667-0.227556-34.816-24.007111-67.584-56.32-77.710222-5.347556-1.706667-11.264-3.527111-13.198222-4.096-4.437333-1.479111-25.941333-1.479111-30.492445 0-1.934222 0.568889-7.736889 2.389333-12.856889 3.868445-5.233778 1.592889-11.605333 4.209778-14.222222 5.916444-6.371556 3.982222-19.000889 13.767111-21.959111 16.952889-1.251556 1.365333-11.491556 10.353778-22.755555 19.911111-11.264 9.671111-23.779556 20.48-27.761778 24.120889-8.533333 7.736889-12.060444 8.647111-11.150222 2.844444 0.341333-1.934222 1.251556-5.916444 1.934222-8.760888 0.796444-2.844444 2.161778-7.964444 3.072-11.377778 0.910222-3.413333 2.503111-8.533333 3.527111-11.377778 2.275556-6.257778 2.730667-35.612444 0.682667-39.936-0.796444-1.479111-2.616889-5.688889-3.982223-9.443556-1.934222-4.778667-5.233778-9.329778-11.719111-16.270222-8.874667-9.443556-11.491556-11.150222-26.282666-17.408-5.006222-2.161778-20.252444-4.551111-23.893334-3.868444z m10.126222 46.421333c6.599111 2.275556 11.719111 7.736889 12.515556 13.539556 1.137778 8.078222-2.389333 29.013333-6.030222 35.953777-0.682667 1.251556-1.251556 3.299556-1.251556 4.664889 0 1.365333-0.682667 3.868444-1.592889 5.461334-1.706667 3.413333-3.868444 9.329778-5.233777 14.449777-1.137778 4.323556-4.437333 11.946667-5.12 11.946667-0.682667 0-3.982222-7.623111-5.12-11.946667-1.365333-5.12-3.527111-11.036444-5.233778-14.449777-0.910222-1.592889-1.592889-4.096-1.592889-5.461334 0-1.365333-0.568889-3.413333-1.251556-4.664889-3.640889-6.940444-7.168-27.875556-6.030222-35.953777 1.137778-7.623111 9.784889-14.563556 18.659556-15.018667 1.592889 0 4.892444 0.568889 7.281777 1.479111z m-172.032 43.576889c6.030222 2.389333 17.635556 11.150222 29.468445 22.186667 1.137778 1.137778 7.850667 6.940444 14.904889 13.084444 7.054222 6.144 13.425778 11.605333 13.994666 12.288 0.682667 0.682667 3.413333 3.072 6.257778 5.347556s6.485333 5.347556 8.192 6.940444c1.706667 1.592889 8.874667 7.964444 15.928889 13.994667 7.054222 6.144 12.856889 11.946667 12.856889 12.856889 0 1.592889-5.688889 1.820444-52.337778 2.161777-56.206222 0.341333-64.056889-0.113778-72.817778-5.12-2.503111-1.365333-5.802667-3.072-7.281777-3.754666-4.096-1.820444-17.180444-15.587556-17.180445-18.090667 0-1.251556-0.455111-2.503111-1.024-2.844444-1.706667-1.137778-5.802667-16.042667-5.802666-21.390223 0-5.802667 3.413333-16.270222 7.281777-22.300444 4.096-6.485333 10.467556-11.491556 19.456-15.246222 6.257778-2.616889 21.617778-2.730667 28.103111-0.113778z m358.4 0c8.533333 3.299556 15.701333 8.874667 19.797334 15.36 3.868444 6.030222 7.281778 16.497778 7.281778 22.300444 0 5.347556-4.096 20.252444-5.802667 21.390223-0.568889 0.341333-1.024 1.592889-1.024 2.844444 0 2.503111-12.629333 15.815111-17.635556 18.432-16.384 8.647111-15.815111 8.647111-77.596444 8.647111-35.043556 0.113778-53.930667-0.227556-53.930667-1.024-0.113778-0.682667-0.227556-1.592889-0.341333-2.048-0.113778-0.568889 5.688889-5.916444 12.743111-12.060444 7.054222-6.030222 14.222222-12.401778 15.928889-13.994667 1.706667-1.592889 5.347556-4.664889 8.192-6.940444s5.688889-4.664889 6.257778-5.347556c0.682667-0.682667 6.940444-6.144 13.994666-12.288 7.054222-6.144 13.767111-11.946667 14.904889-13.084444 11.377778-10.695111 23.324444-19.797333 29.127111-22.186667 6.257778-2.503111 21.731556-2.503111 28.103111 0zM257.024 416.426667c-14.108444 5.688889-22.755556 14.449778-27.420444 27.875555-1.820444 5.347556-1.934222 17.180444-2.048 188.416 0 204.003556-0.568889 188.416 7.964444 201.272889 5.916444 8.874667 13.312 13.767111 27.306667 17.976889 5.802667 1.820444 25.827556 1.934222 246.328889 1.934222 268.060444 0 245.191111 0.682667 260.551111-7.964444 9.557333-5.347556 15.473778-12.856889 19.342222-24.803556 1.479111-4.778667 1.706667-26.851556 1.706667-188.302222-0.113778-171.349333-0.227556-183.182222-2.048-188.529778-4.209778-12.060444-11.264-19.911111-22.983112-25.827555l-7.395555-3.754667-248.035556-0.227556c-240.184889-0.227556-248.149333-0.113778-253.269333 1.934223z m150.072889 215.608889c0.227556 161.564444 0.113778 173.056-1.706667 174.307555-2.730667 2.048-127.772444 2.161778-129.820444 0.113778-1.024-1.024-1.365333-40.96-1.365334-172.828445 0-94.321778 0.341333-172.373333 0.682667-173.283555 0.682667-1.706667 7.168-1.820444 66.332445-1.592889l65.536 0.341333 0.341333 172.942223z m156.103111 0c0.455111 149.617778 0.341333 173.169778-1.024 174.307555-1.251556 1.137778-13.539556 1.479111-52.906667 1.479111-28.216889 0-51.996444-0.455111-52.792889-0.910222-1.137778-0.796444-1.365333-34.929778-1.365333-173.624889 0-95.004444 0.341333-173.169778 0.682667-173.738667s23.324444-0.910222 53.703111-0.796444l53.134222 0.341333 0.568889 172.942223z m180.224-171.690667c0.341333 1.024 0.682667 78.961778 0.682667 173.283555 0 131.868444-0.341333 171.804444-1.365334 172.828445-1.820444 1.820444-126.179556 1.934222-129.592889 0.227555-2.161778-1.251556-2.161778-4.323556-2.161777-173.966222 0-95.004444 0.341333-173.056 0.796444-173.397333 0.341333-0.455111 30.037333-0.796444 65.877333-0.796445 58.254222 0 65.080889 0.227556 65.763556 1.820445z" p-id="2357"></path></svg>