<svg id="svg" xmlns="http://www.w3.org/2000/svg" viewBox="0 0 400 327.96"><title>message-2</title><g id="svgg"><path id="path0" d="M85.3,39.46a.89.89,0,0,0-.5.77c0,.48-2.66.57-17.4.57-15.2,0-17.4.08-17.4.6s-1,.6-6.6.6-6.6.09-6.6.6-.56.6-2.64.6c-2.3,0-2.66.1-2.85.8s-.55.8-2,.8-1.75.16-1.75.6-.42.6-1.4.6-1.4.18-1.4.6a.7.7,0,0,1-.77.6c-1.19,0-2,.43-2,1a.58.58,0,0,1-.6.56.6.6,0,0,0-.6.6c0,.33-.36.6-.8.6s-.8.27-.8.6-.38.6-1,.6-1.11.26-1.25.8c-.23.87-.72,1-1.12.39s-1,0-.78.84c.17.53.05.77-.38.77a.62.62,0,0,0-.63.6.6.6,0,0,1-.6.6c-.33,0-.6.36-.6.8s-.23.8-.5.81A4.35,4.35,0,0,0,10,59.16c0,.24-.27.44-.6.44S8.8,60,8.8,61s-.23,1.44-.61,1.59a2.36,2.36,0,0,0-1,1.24c-.21.56-.57,1-.79,1s-.41.25-.41.56a1,1,0,0,1-.6.79c-.41.16-.6.8-.6,2S4.64,70,4.24,70c-.6,0-1,.84-1,2a1.08,1.08,0,0,1-.6,1c-.41.16-.6.8-.6,2s-.19,1.84-.6,2S.8,78.21.8,83.19c0,3.74-.15,6-.4,6S0,103.4,0,131s.14,41.8.4,41.8.4,2,.4,5.16c0,4.21.11,5.2.6,5.39s.6.8.6,2,.16,1.81.56,1.81.67.6.82,1.4.5,1.4.84,1.4.58.42.58,1.21.25,1.31.6,1.44a1,1,0,0,1,.6.79.58.58,0,0,0,.6.56c.37,0,.6.38.6,1a1.91,1.91,0,0,0,.8,1.5,1.62,1.62,0,0,1,.8,1,.56.56,0,0,0,.6.5.6.6,0,0,1,.6.6c0,.33.17.6.38.6a5.69,5.69,0,0,1,2.42,2.42c0,.21.27.38.6.38a.6.6,0,0,1,.6.6c0,.33.36.6.8.6s.8.26.8.57.54.69,1.2.83,1.2.52,1.2.83a.56.56,0,0,0,.56.57,1,1,0,0,1,.79.6c.13.34.73.6,1.4.6.83,0,1.23.23,1.38.8s.55.8,1.45.8,1.24.2,1.24.6.4.6,1.16.6,1.26.26,1.39.6.89.6,2.84.6c2.35,0,2.61.08,2.61.8s.27.8,2.6.8c2,0,2.6.13,2.6.6s.64.6,3.4.6h3.4v6.6c0,5.6.09,6.6.6,6.6s.6.42.6,1.4.18,1.4.6,1.4a.6.6,0,0,1,.6.6c0,.33.36.6.8.6a.71.71,0,0,1,.8.8c0,.44.27.8.6.8a.6.6,0,0,1,.6.6c0,.42.42.6,1.4.6s1.4.18,1.4.6.71.6,4,.6,4-.11,4-.6.47-.6,1.81-.6,1.89-.19,2-.6.73-.6,1.39-.6c.89,0,1.16-.18,1.16-.8s.27-.8,2-.8c1.51,0,2-.15,2-.6s.42-.6,1.4-.6,1.4-.18,1.4-.6.38-.6,1-.6a1.91,1.91,0,0,0,1.5-.8,1.94,1.94,0,0,1,1.78-.8,3.08,3.08,0,0,0,1.88-.6,2.1,2.1,0,0,1,1.23-.6.62.62,0,0,0,.63-.6c0-.45.47-.6,1.84-.6s1.88-.15,2-.8.55-.8,1.56-.8,1.35-.18,1.35-.6.4-.6,1.2-.6,1.2-.2,1.2-.6.47-.6,1.84-.6,1.88-.15,2-.8.55-.8,1.56-.8S98,219,98,218.6s.44-.6,1.55-.6a3,3,0,0,0,2-.6,1.66,1.66,0,0,1,1-.6c.3,0,.55-.36.55-.8s.27-.8,1-.8a1.5,1.5,0,0,0,1.49-1.1,3.85,3.85,0,0,1,1-1.42,1.79,1.79,0,0,0,.51-1.36,2.13,2.13,0,0,1,.7-1.55c.94-.69.91-4.09,0-4.78a2.14,2.14,0,0,1-.66-1.55,1.45,1.45,0,0,0-.6-1.3,1,1,0,0,1-.6-.79.56.56,0,0,0-.55-.56c-.31,0-.65-.36-.76-.8s-.55-.8-1.26-.8a1.43,1.43,0,0,1-1.28-.6c-.14-.37-.75-.6-1.59-.6s-1.36-.18-1.36-.6-.62-.6-3.2-.6-3.2.12-3.2.6-.47.6-1.81.6-1.89.19-2,.6-.73.6-1.43.6c-.86,0-1.25.23-1.4.8s-.55.8-1.56.8-1.35.18-1.35.6-.47.6-1.81.6-1.89.19-2,.6a1.36,1.36,0,0,1-1.22.6,1.09,1.09,0,0,0-1.2.8c-.16.6-.55.8-1.56.8S74,205,74,205.4s-.42.6-1.4.6-1.4.18-1.4.6a.69.69,0,0,1-.75.6,13.15,13.15,0,0,0-2,.25c-1.07.21-1.25.13-1.25-.56a1.16,1.16,0,0,0-.6-1,1.2,1.2,0,0,1-.6-1.09c0-.94-1.51-2.75-2.3-2.76a.57.57,0,0,1-.5-.61.59.59,0,0,0-.58-.6c-.36,0-.62-.5-.7-1.3-.11-1.14-.28-1.32-1.42-1.43-.81-.08-1.3-.34-1.3-.7a.59.59,0,0,0-.6-.57.58.58,0,0,1-.6-.56c0-.61-.84-1-2-1a.7.7,0,0,1-.77-.6c0-.4-.4-.6-1.16-.6s-1.26-.26-1.39-.6-.91-.6-3-.6-2.83-.16-3-.54-1.55-.62-4.94-.82-4.82-.43-5.06-.86a1.91,1.91,0,0,0-1.5-.58c-.78,0-1.18-.2-1.18-.6s-.42-.6-1.4-.6-1.4-.18-1.4-.61a1,1,0,0,0-.6-.84,1,1,0,0,1-.6-.79.56.56,0,0,0-.56-.56,1,1,0,0,1-.79-.6,1,1,0,0,0-.84-.6c-.35,0-.61-.35-.61-.8s-.27-.8-.6-.8-.6-.4-.6-1.2-.2-1.2-.6-1.2-.6-.4-.6-1.24-.22-1.29-.8-1.45c-1-.27-1.29-93.72-.25-93.72.36,0,.64-.69.81-2s.5-2.05.85-2.19.59-.78.59-1.84.17-1.61.6-1.61a.66.66,0,0,0,.6-.71,2.27,2.27,0,0,1,.8-1.4,2.22,2.22,0,0,0,.8-1.29c0-.38.38-.6,1-.6s1.11-.26,1.25-.8.46-.8.77-.8a1,1,0,0,0,.8-.6,1.08,1.08,0,0,1,1-.6,2.21,2.21,0,0,0,1.33-.6,2.7,2.7,0,0,1,1.67-.6c.73,0,1.13-.25,1.27-.8.2-.76.55-.8,7.38-.8,6,0,7.2-.1,7.4-.6S55.22,66,70.6,66s17.75-.08,17.94-.6,5.63-.6,45.47-.6c39.68,0,45.31.07,45.84.6s3.07.6,18,.6c15.08,0,17.41.08,17.61.6s1.39.6,7.34.6c6.77,0,7.12,0,7.32.8.15.56.55.8,1.35.81a3.78,3.78,0,0,1,1.91.6,3,3,0,0,0,1.5.59.67.67,0,0,1,.72.6.6.6,0,0,0,.6.6.58.58,0,0,1,.6.56,1,1,0,0,0,.6.79,1,1,0,0,1,.6.84.61.61,0,0,0,.6.61.6.6,0,0,1,.6.6c0,.33.36.6.8.6s.8.17.8.38c0,.88,3.1,3.62,4.09,3.62a1.1,1.1,0,0,1,1.22.8c.15.57.55.8,1.4.8.69,0,1.29.25,1.43.6s.73.6,1.41.6a2.91,2.91,0,0,0,1.78-.6,2.7,2.7,0,0,1,1.67-.6c.72,0,1.13-.25,1.27-.78s.61-.82,1.46-.9c1-.1,1.28-.31,1.39-1.22.07-.63.37-1.1.7-1.1s.57-.36.57-.8a.71.71,0,0,1,.8-.8c.44,0,.8-.25.8-.55a1.66,1.66,0,0,1,.6-1c.46-.38.6-1.45.6-4.65,0-3.42-.11-4.15-.6-4.15s-.6-.42-.6-1.37c0-1.76-.35-2.63-1-2.63a.56.56,0,0,1-.56-.56,1,1,0,0,0-.6-.79,1,1,0,0,1-.6-.84.61.61,0,0,0-.6-.61.6.6,0,0,1-.6-.6c0-.36-.37-.6-.93-.6a1.7,1.7,0,0,1-1.49-1.1c-.73-1.43-2.05-2.88-2.63-2.89-.25,0-.55-.37-.66-.81s-.55-.8-1.25-.8-1-.22-1-.6-.36-.6-.8-.6-.8-.27-.8-.6a.58.58,0,0,0-.55-.6c-.31,0-.65-.36-.76-.8s-.55-.8-1.45-.8-1.24-.2-1.24-.6-.42-.6-1.4-.6-1.4-.18-1.4-.6-.56-.6-2.6-.6c-2.33,0-2.6-.08-2.6-.8s-.27-.8-1.3-.81a4.11,4.11,0,0,1-2.08-.6c-.61-.46-2.18-.59-7.3-.59-5.53,0-6.52-.09-6.52-.6s-2.2-.6-17.4-.6c-14.61,0-17.4-.09-17.4-.56a1,1,0,0,0-.63-.8c-.76-.29-96.55-.27-97.27,0M174,101.4c0,.47-.56.6-2.6.6s-2.6.13-2.6.6-.49.6-2,.6c-1.73,0-2,.11-2,.8s-.27.8-2,.8c-1.51,0-2,.15-2,.6s-.42.6-1.4.6-1.4.18-1.4.6-.38.6-1,.6a1.91,1.91,0,0,0-1.5.8,1.62,1.62,0,0,1-1,.8.56.56,0,0,0-.5.6c0,.39-.39.6-1.1.61-1.09,0-2.9,1.47-2.9,2.35,0,.24-.27.44-.6.44a.6.6,0,0,0-.6.6c0,.33-.36.6-.8.6s-.8.25-.8.55-.37.65-.82.77a2.48,2.48,0,0,0-1.29,1.45c-.28.74-.75,1.23-1.18,1.23a.67.67,0,0,0-.71.6.6.6,0,0,1-.6.6c-.33,0-.6.36-.6.8,0,.89-.41,1-1.07.36-.29-.29-.52-.3-.69,0a.48.48,0,0,0,.15.66c.61.38.49,1-.21,1a1.07,1.07,0,0,0-.87.7,3.25,3.25,0,0,1-1,1.23,1.12,1.12,0,0,0-.5,1.3c.17.53.05.77-.38.77s-.63.39-.63,1.4-.15,1.4-.8,1.4c-.44,0-.8.25-.8.56a1,1,0,0,1-.6.79c-.35.13-.6.73-.6,1.44s-.2,1.21-.6,1.21-.6.48-.6,2-.14,2-.8,2.16-.8.55-.8,1.4c0,.69-.25,1.29-.6,1.42s-.6.86-.6,2.6-.16,2.43-.6,2.6-.6,2.49-.6,17.24c0,16.48,0,17-.8,17.81s-.8,1.33-.79,38.5c0,38.07,0,39.5,1,39.5.46,0,.55,2,.55,11.81,0,10.13.08,11.85.6,12s.6.88.6,2.79.13,2.56.6,2.56.6.42.6,1.4c0,1.13.15,1.4.8,1.4s.8.27.8,2.6c0,2,.13,2.6.6,2.6a.61.61,0,0,1,.6.61,1,1,0,0,0,.6.84,1.3,1.3,0,0,1,.6,1.17c0,.92,1.67,3,2.42,3,.21,0,.38.54.38,1.2s.2,1.2.6,1.2a.62.62,0,0,1,.6.64,1,1,0,0,0,.8.85c.57.15.8.55.8,1.36s.21,1.15.6,1.15a.57.57,0,0,1,.61.5,4.35,4.35,0,0,0,2.35,2.3c.24,0,.44.27.44.6a.6.6,0,0,0,.6.6.57.57,0,0,1,.61.5,4.35,4.35,0,0,0,2.35,2.3c.24,0,.44.27.44.6s.4.6,1.15.6,1.21.23,1.36.8a1,1,0,0,0,.85.8.62.62,0,0,1,.64.6.58.58,0,0,0,.56.6,1,1,0,0,1,.79.6c.13.34.73.6,1.4.6.83,0,1.23.23,1.38.8s.55.8,1.26.8a1.43,1.43,0,0,1,1.28.6c.13.34.73.6,1.39.6s1.16.2,1.16.6.48.6,2,.6,2,.14,2.16.8.55.8,3.45.8c2.61,0,3.24.12,3.24.6s1.22.6,8.6.6,8.6.08,8.6.6,3.16.6,26,.6,26-.07,26-.6,1.6-.6,12-.6,12,.08,12,.6a.58.58,0,0,0,.55.6c.3,0,.65.36.76.8s.55.8,1.45.8,1.24.2,1.24.6a.61.61,0,0,0,.61.6,1,1,0,0,1,.84.6c.13.34.73.6,1.39.6.89,0,1.16.18,1.16.8,0,.44.25.8.56.8a1,1,0,0,1,.79.6c.13.35.73.6,1.44.6s1.21.2,1.21.6a.58.58,0,0,0,.55.6c.3,0,.65.36.76.8s.55.8,1.45.8,1.24.2,1.24.6.36.6.8.6.8.27.8.6a.56.56,0,0,0,.51.6,2.21,2.21,0,0,1,1.2.8,2.21,2.21,0,0,0,1.25.8,1,1,0,0,1,.79.6c.13.35.73.6,1.44.6s1.21.2,1.21.6.36.6.8.6.8.27.8.6a.58.58,0,0,0,.55.6c.3,0,.65.36.76.8a1.09,1.09,0,0,0,1.2.8,1.36,1.36,0,0,1,1.23.6c.13.35.73.6,1.44.6.95,0,1.21.18,1.21.8,0,.45.27.8.61.8a1,1,0,0,1,.84.6c.13.34.73.6,1.39.6s1.16.2,1.16.6a.56.56,0,0,0,.5.6,1.62,1.62,0,0,1,1,.8,1.91,1.91,0,0,0,1.5.8c.62,0,1,.23,1,.6a.58.58,0,0,0,.56.6,1,1,0,0,1,.79.6c.13.35.73.6,1.44.6.95,0,1.21.18,1.21.8a.7.7,0,0,0,.76.8,1.11,1.11,0,0,1,1,.6,1.17,1.17,0,0,0,1.05.6,1.17,1.17,0,0,1,1.06.6.92.92,0,0,0,.74.6c.28,0,.6.36.72.8s.55.8,1.45.8,1.24.2,1.24.6.36.6.8.6.8.27.8.6a.6.6,0,0,0,.6.6.59.59,0,0,1,.6.57c0,.31.53.68,1.17.82a2.11,2.11,0,0,1,1.39.83q.22.58,2,.58c1.35,0,1.81.15,1.81.6s.53.6,2.41.6,2.47-.16,2.64-.6.75-.6,1.59-.6,1.36-.18,1.36-.6.36-.6.8-.6a2.35,2.35,0,0,0,1.49-.8,2.21,2.21,0,0,1,1.2-.8c.3,0,.51-.48.51-1.15s.23-1.21.8-1.36.8-.55.8-1.4c0-.69.25-1.29.6-1.42.52-.2.6-2.36.6-16V326h7.21c6,0,7.25-.1,7.44-.6s.93-.6,3.23-.6c2.66,0,3-.09,3.2-.8s.55-.8,1.56-.8,1.35-.18,1.35-.6.42-.6,1.4-.6,1.4-.18,1.4-.6.37-.6.9-.6c1.53,0,2.7-.46,2.7-1,0-.3.36-.55.8-.55s.8-.27.8-.6a.6.6,0,0,1,.6-.6.6.6,0,0,0,.6-.6c0-.4.4-.6,1.24-.6s1.29-.22,1.45-.8.46-.8.76-.8a.58.58,0,0,0,.55-.6.61.61,0,0,1,.61-.6,1,1,0,0,0,.84-.6,1,1,0,0,1,.79-.6c.31,0,.56-.36.56-.8s.27-.8.6-.8a.6.6,0,0,0,.6-.6.61.61,0,0,1,.61-.6,1,1,0,0,0,.84-.6,1,1,0,0,1,.79-.6c.31,0,.56-.36.56-.8,0-.89.41-1,1.08-.36.29.29.52.3.69,0a.48.48,0,0,0-.15-.66c-.65-.4-.47-.89.39-1.12.44-.11.8-.48.8-.8a1,1,0,0,1,.6-.82A1.38,1.38,0,0,0,390,303c0-.63.23-1,.6-1s.6-.36.6-.8.26-.8.57-.8.69-.54.83-1.2.52-1.2.83-1.2.57-.46.57-1.4.18-1.4.6-1.4.6-.49.6-2c0-1.73.11-2,.8-2s.8-.27.8-1.21c0-.71.25-1.31.6-1.44s.6-.8.6-2,.19-1.84.6-2,.6-1,.6-4c0-2.24.16-3.76.4-3.76s.4-21.13.4-62.6-.14-62.6-.4-62.6-.4-1.8-.4-4.61c0-3.73-.12-4.66-.6-4.84s-.6-.82-.6-2.19-.15-2-.6-2-.6-.38-.6-1a1.91,1.91,0,0,0-.8-1.5c-.59-.37-.8-.93-.8-2.16s-.2-1.74-.6-1.89a1,1,0,0,1-.6-.84.61.61,0,0,0-.6-.61c-.4,0-.6-.4-.6-1.24s-.22-1.29-.8-1.45-.8-.55-.8-1.36-.21-1.15-.6-1.15a.61.61,0,0,1-.6-.61,1,1,0,0,0-.6-.84.92.92,0,0,1-.6-.74c0-.28-.36-.6-.8-.72s-.8-.55-.8-1.25-.22-1-.6-1a.54.54,0,0,1-.6-.45,5.08,5.08,0,0,0-2.42-2.35.39.39,0,0,1-.38-.4c0-.47-3.05-3.6-3.51-3.6a2.42,2.42,0,0,1-1-.8,2.21,2.21,0,0,0-1.25-.8,1,1,0,0,1-.79-.6,1,1,0,0,0-.84-.6.61.61,0,0,1-.61-.6c0-.4-.4-.6-1.15-.6s-1.21-.23-1.36-.8-.55-.8-1.45-.8-1.24-.2-1.24-.6a.61.61,0,0,0-.61-.6,1,1,0,0,1-.84-.6c-.16-.42-.82-.6-2.19-.6s-2-.16-2-.55c0-.59-1.16-1-2.8-1.05a3.56,3.56,0,0,1-1.78-.61,5.55,5.55,0,0,0-2.7-.59c-1.44,0-1.92-.15-1.92-.6s-10.33-.6-90.6-.6-90.6.07-90.6.6m176,25.2c0,.47.55.6,2.55.6,2.22,0,2.58.11,2.76.8s.55.8,1.45.8,1.24.2,1.24.6.42.6,1.4.6,1.4.18,1.4.6a.6.6,0,0,0,.6.6.58.58,0,0,1,.6.56c0,.61.84,1,2,1a.7.7,0,0,1,.77.6.6.6,0,0,0,.6.6.6.6,0,0,1,.6.6.6.6,0,0,0,.6.6.69.69,0,0,1,.6.75,1.08,1.08,0,0,0,.8,1c.54.14.8.55.8,1.25s.22,1,.6,1,.6.36.6.8.27.8.6.8.6.4.6,1.2.18,1.2.8,1.2.8.27.8,2c0,1.51.15,2,.6,2s.6.62.6,3.21.14,3.26.6,3.44c.91.35.91,118.74,0,119.09-.46.18-.6,1-.6,3.4s-.14,3.22-.6,3.4-.6.77-.6,1.75-.23,1.66-.8,2a1.91,1.91,0,0,0-.8,1.5c0,.62-.23,1-.6,1s-.6.42-.6,1.4-.18,1.4-.6,1.4a.6.6,0,0,0-.6.6c0,.33-.36.6-.8.6s-.8.25-.8.56a1,1,0,0,1-.6.79,1,1,0,0,0-.6.84.61.61,0,0,1-.6.61.6.6,0,0,0-.6.6.59.59,0,0,1-.58.6,1.2,1.2,0,0,0-.9.51,3.85,3.85,0,0,1-1.42,1c-.6.27-1.1.67-1.1.89s-.28.41-.61.41a1,1,0,0,0-.84.6c-.13.34-.73.6-1.39.6s-1.16.2-1.16.6-.39.6-1.1.6c-1.71,0-2.9.44-2.9,1,0,.45-1.36.55-7.36.55-6.17,0-7.39.1-7.59.6s-.85.6-2.46.6-2.29.17-2.45.6-.73.6-1.43.6c-.86,0-1.25.22-1.4.8s-.46.8-.76.8a.58.58,0,0,0-.55.6c0,.38-.38.6-1.05.6-1,0-2.95,1.59-2.95,2.42,0,.21-.27.38-.6.38s-.6.15-.6.34a3.53,3.53,0,0,1-.8,1.26,3.24,3.24,0,0,0-.8,1.66.68.68,0,0,1-.6.74c-.39,0-.6.4-.6,1.15s-.23,1.21-.8,1.36-.8.55-.8,1.4a2.5,2.5,0,0,1-.6,1.69c-.49.4-.6,1.67-.6,6.65,0,6-.46,7.85-1.35,5.55a1,1,0,0,0-.8-.6,1,1,0,0,1-.8-.6,1.38,1.38,0,0,0-1.24-.6c-.64,0-1-.22-1-.61a1.06,1.06,0,0,0-.7-.87,2.29,2.29,0,0,1-1-.79,1.67,1.67,0,0,0-1.3-.53c-.6,0-1-.23-1-.6a.66.66,0,0,0-.71-.6,2.27,2.27,0,0,1-1.4-.8,2.21,2.21,0,0,0-1.25-.8,1,1,0,0,1-.79-.6,1,1,0,0,0-.8-.6,1,1,0,0,1-.8-.6,1.38,1.38,0,0,0-1.24-.6c-.64,0-1-.22-1-.61a1.06,1.06,0,0,0-.7-.87,2.29,2.29,0,0,1-1-.79,1.67,1.67,0,0,0-1.3-.53c-.6,0-1-.23-1-.6s-.36-.6-.8-.6-.8-.18-.8-.41-.5-.63-1.1-.89a3.85,3.85,0,0,1-1.42-1,1.2,1.2,0,0,0-.9-.51.59.59,0,0,1-.58-.6q0-.6-1.2-.6c-.83,0-1.2-.2-1.2-.64a1,1,0,0,0-.77-.84,1.57,1.57,0,0,1-1-.76,1.37,1.37,0,0,0-1.23-.56c-.63,0-1-.23-1-.6s-.36-.6-.8-.6-.8-.27-.8-.61-.49-.71-1.17-.85a2.07,2.07,0,0,1-1.39-.79,1,1,0,0,0-.83-.55.61.61,0,0,1-.61-.6c0-.39-.4-.6-1.15-.6s-1.21-.23-1.36-.8-.55-.8-1.4-.8c-.69,0-1.29-.25-1.42-.6s-.85-.6-2.46-.6-2.29-.17-2.45-.6-5.7-.6-46.1-.6c-45.37,0-45.88,0-46.55-.8a2.68,2.68,0,0,0-2.1-.8c-.89,0-1.5-.22-1.65-.6a1.49,1.49,0,0,0-1.35-.6,1.49,1.49,0,0,1-1.35-.6c-.13-.35-.73-.6-1.44-.6-.95,0-1.21-.18-1.21-.8,0-.44-.25-.8-.56-.8a1,1,0,0,1-.79-.6c-.13-.35-.73-.6-1.44-.6s-1.21-.2-1.21-.6a.6.6,0,0,0-.6-.6.68.68,0,0,1-.6-.74,3.24,3.24,0,0,0-.8-1.66,3.53,3.53,0,0,1-.8-1.26c0-.19-.27-.34-.6-.34s-.6-.36-.6-.8-.27-.8-.6-.8-.6-.4-.6-1.2-.21-1.2-.55-1.2-.63-.64-.77-1.69a3.88,3.88,0,0,0-.85-2.14,2.4,2.4,0,0,1-.63-1.71c0-.85-.19-1.26-.6-1.26s-.6-1.87-.6-14.41-.08-14.44-.6-14.64-.6-3.49-.6-26.22c0-22.57.08-26.07.6-26.59s.6-3.67.6-23.38c0-19.88.08-22.81.6-23s.6-.77.6-1.79a3.24,3.24,0,0,1,.8-2.36,3.19,3.19,0,0,0,.8-2.2c0-1,.18-1.4.6-1.4a.61.61,0,0,0,.6-.61,1,1,0,0,1,.6-.84c.34-.13.6-.73.6-1.39,0-.89.18-1.16.8-1.16.44,0,.8-.25.8-.56a1,1,0,0,1,.6-.79,1,1,0,0,0,.6-.84.61.61,0,0,1,.6-.61.6.6,0,0,0,.6-.6.61.61,0,0,1,.61-.6,1,1,0,0,0,.84-.6,1,1,0,0,1,.79-.6c.31,0,.56-.36.56-.8,0-.62.27-.8,1.21-.8.71,0,1.31-.25,1.44-.6a1,1,0,0,1,.79-.6.58.58,0,0,0,.56-.6c0-.45.47-.6,1.84-.6s1.88-.15,2-.8.55-.8,2.57-.8c1.73,0,2.43-.16,2.6-.6.35-.91,170.95-.91,170.95,0m-155.85,72c-.13.35-.73.6-1.43.6-.86,0-1.25.23-1.4.8s-.46.8-.76.8a.58.58,0,0,0-.55.6.6.6,0,0,1-.6.6.6.6,0,0,0-.6.6c0,.33-.36.6-.8.6a.71.71,0,0,0-.8.8c0,.44-.27.8-.6.8a.6.6,0,0,0-.6.6.6.6,0,0,1-.6.6c-.41,0-.6.42-.6,1.35s-.2,1.41-.8,1.56c-.76.2-.8.55-.8,7.08s0,6.88.8,7.08c.6.16.8.55.8,1.56s.18,1.35.6,1.35a.6.6,0,0,1,.6.6.6.6,0,0,0,.6.6c.33,0,.6.36.6.8a.71.71,0,0,0,.8.8c.44,0,.8.27.8.6a.6.6,0,0,0,.6.6.6.6,0,0,1,.6.6.56.56,0,0,0,.5.6,1.62,1.62,0,0,1,1,.8,1.9,1.9,0,0,0,1.52.8,2.63,2.63,0,0,1,1.63.6c.48.48,1.8.6,6.57.6,5,0,6-.09,6-.6s.4-.6,1.24-.6,1.29-.22,1.45-.8.55-.8,1.32-.8a1.49,1.49,0,0,0,1.34-.6,1,1,0,0,1,.84-.6.59.59,0,0,0,.61-.56,1,1,0,0,1,.6-.79,1,1,0,0,0,.6-.84.59.59,0,0,1,.57-.61c.31,0,.68-.52.82-1.17a2.11,2.11,0,0,1,.83-1.39c.35-.13.58-.77.58-1.58a2.81,2.81,0,0,1,.6-1.86c.47-.39.6-1.54.6-5.46s-.11-5-.6-5.19-.6-.75-.6-1.6-.23-1.46-.58-1.59a2.11,2.11,0,0,1-.83-1.39c-.14-.64-.51-1.17-.82-1.17a.59.59,0,0,1-.57-.61,1,1,0,0,0-.6-.84,1,1,0,0,1-.6-.79.56.56,0,0,0-.56-.56,1,1,0,0,1-.79-.6c-.13-.34-.73-.6-1.4-.6-.83,0-1.23-.23-1.37-.8s-.55-.8-1.45-.8-1.24-.2-1.24-.6-1-.6-6.41-.6-6.45.1-6.64.6m65.6,0c-.13.35-.73.6-1.42.6-.86,0-1.25.23-1.4.8a1.08,1.08,0,0,1-1,.8.69.69,0,0,0-.75.6.6.6,0,0,1-.6.6.6.6,0,0,0-.6.6.6.6,0,0,1-.6.6c-.33,0-.6.36-.6.8a.71.71,0,0,1-.8.8c-.44,0-.8.27-.8.6a.6.6,0,0,1-.6.6c-.42,0-.6.42-.6,1.4s-.18,1.4-.6,1.4-.6,1.07-.6,7.2.09,7.2.6,7.2.6.4.6,1.21.25,1.31.6,1.44a1,1,0,0,1,.6.79c0,.31.36.56.8.56a.71.71,0,0,1,.8.8c0,.44.27.8.6.8a.6.6,0,0,1,.6.6.6.6,0,0,0,.6.6.6.6,0,0,1,.6.6c0,.33.36.6.8.6s.8.25.8.56c0,.7.87,1,2.63,1,.95,0,1.37.18,1.37.6s.91.6,5.81.6,5.85-.1,6-.6c.13-.34.73-.6,1.39-.6.89,0,1.16-.18,1.16-.8s.27-.8,1.4-.8c1,0,1.4-.18,1.4-.6a.6.6,0,0,1,.6-.6.6.6,0,0,0,.6-.6.61.61,0,0,1,.61-.6,1.06,1.06,0,0,0,.87-.7,2.29,2.29,0,0,1,.79-1,1.61,1.61,0,0,0,.53-1.26,1.29,1.29,0,0,1,.6-1.17,1.45,1.45,0,0,0,.6-1.3,2.17,2.17,0,0,1,.7-1.58c1.17-.85,1.28-10.2.13-11.34a3.06,3.06,0,0,1-.83-1.85,1.38,1.38,0,0,0-.6-1.24c-.34-.13-.6-.73-.6-1.39s-.21-1.16-.55-1.16-.65-.36-.76-.8a1,1,0,0,0-.85-.8.62.62,0,0,1-.64-.6.6.6,0,0,0-.6-.6.6.6,0,0,1-.6-.6c0-.42-.42-.6-1.4-.6-1.13,0-1.4-.15-1.4-.8s-.27-.8-1.16-.8c-.66,0-1.26-.26-1.39-.6-.19-.5-1.29-.6-6.45-.6s-6.26.1-6.46.6m65.46,0a8.86,8.86,0,0,1-2.1.8c-.61.13-1.1.5-1.1.82a.6.6,0,0,1-.6.59.6.6,0,0,0-.6.6c0,.33-.36.6-.8.6s-.8.27-.8.6a.6.6,0,0,1-.6.6c-.33,0-.6.36-.6.8s-.27.8-.6.8a.6.6,0,0,0-.6.6.58.58,0,0,1-.56.6c-.61,0-1,.84-1,2a.7.7,0,0,1-.6.77c-.86,0-.9,13.91,0,14.24a2.41,2.41,0,0,1,.82,1.59c.15.82.49,1.37.84,1.37a.59.59,0,0,1,.58.6.6.6,0,0,0,.6.6c.33,0,.6.36.6.8s.27.8.6.8a.6.6,0,0,1,.6.6c0,.33.36.6.8.6s.8.27.8.6a.6.6,0,0,0,.6.6.58.58,0,0,1,.6.55c0,.61,1.19,1,2.9,1,.71,0,1.1.22,1.1.6s.93.6,6,.6,6-.09,6-.6.4-.6,1.24-.6,1.3-.22,1.45-.8.55-.8,1.36-.8,1.15-.21,1.15-.6a.57.57,0,0,1,.5-.61,4.35,4.35,0,0,0,2.3-2.35c0-.24.27-.44.6-.44s.6-.4.6-1.15.23-1.21.8-1.36.8-.55.8-1.4c0-.69.25-1.29.6-1.43s.6-1.22.6-5.85-.11-5.67-.6-5.85-.6-.73-.6-1.43c0-.86-.22-1.25-.8-1.4s-.8-.55-.8-1.36-.21-1.15-.6-1.15-.6-.2-.6-.44a4.35,4.35,0,0,0-2.3-2.35.57.57,0,0,1-.5-.61c0-.39-.4-.6-1.15-.6s-1.21-.23-1.36-.8-.55-.8-1.45-.8-1.24-.2-1.24-.6c0-.85-11.3-.86-12.8,0" transform="translate(0 -39.24)"/></g></svg>