<svg id="svg" xmlns="http://www.w3.org/2000/svg" viewBox="0 0 338.57 398.18"><title>post-2</title><g id="svgg"><path id="path1" d="M155.2.4c0,.22-.54.4-1.2.4s-1.2.2-1.2.6-.36.6-.8.6-.8.25-.8.56a1,1,0,0,1-.6.79c-.35.13-.6.73-.6,1.44S149.8,6,149.4,6s-.6,2-.6,15.21.08,15.24.6,15.44a1,1,0,0,1,.6.79.56.56,0,0,0,.55.56c.3,0,.66.54.79,1.21a1.51,1.51,0,0,0,1.45,1.45c.66.13,1.21.49,1.21.79s.48.55,1.4.55,1.4.18,1.4.6.62.6,3.2.6,3.2-.12,3.2-.6.42-.6,1.4-.6,1.4-.18,1.4-.6.37-.6.9-.6c1.09,0,3.1-2,3.1-3.12a1.14,1.14,0,0,1,.6-1c.52-.2.6-2.33.6-15.85s-.08-15.66-.6-15.85a1,1,0,0,1-.6-.8,1,1,0,0,0-.6-.8,1,1,0,0,1-.6-.79c0-.31-.36-.56-.8-.56s-.8-.27-.8-.6a.6.6,0,0,0-.6-.6c-.33,0-.6-.18-.6-.4s-2.07-.4-5.4-.4-5.4.15-5.4.4m84,0c0,.22-.41.4-.91.4C237.23.8,235.2,2.92,235.2,4a.7.7,0,0,1-.6.76c-.4,0-.6.4-.6,1.21s-.25,1.31-.6,1.44c-.52.2-.6,2.06-.6,13.39s.08,13.16.6,13.16.6.47.6,1.81.19,1.89.6,2a1,1,0,0,1,.6.79c0,.31.36.56.8.56a.71.71,0,0,1,.8.8c0,.44.27.8.6.8a.6.6,0,0,1,.6.6c0,.42.42.6,1.4.6s1.4.18,1.4.6c0,.88,7.41.88,7.74,0,.13-.35.73-.6,1.44-.6s1.21-.2,1.21-.55.36-.65.8-.76a1,1,0,0,0,.8-.85.62.62,0,0,1,.6-.64.6.6,0,0,0,.6-.6.6.6,0,0,1,.6-.6c.42,0,.6-.42.6-1.4s.19-1.4.56-1.4c1.43,0,1.68-27.51.24-27.88-.57-.15-.8-.55-.8-1.36S255,4.8,254.6,4.8s-.6-.4-.6-1.21-.24-1.3-.7-1.47a2.29,2.29,0,0,1-1-.79A1.67,1.67,0,0,0,251,.8c-.54,0-1-.18-1-.4s-2.07-.4-5.4-.4-5.4.15-5.4.4M83.6,9.4c0,.49-.71.6-4,.6s-4,.12-4.19.6-.8.6-2.08.6c-1.51,0-1.89.15-2.06.8s-.55.8-2,.8c-1.2,0-1.84.19-2,.6s-.73.6-1.39.6-1.16.2-1.16.6-.42.6-1.4.6c-1.13,0-1.4.15-1.4.8s-.27.8-1.4.8c-.85,0-1.4.2-1.41.5s-.91.91-2,1.41-2,1.17-2,1.5a.6.6,0,0,1-.6.59.6.6,0,0,0-.6.6c0,.37-.37.6-1,.6-1,0-3,1.56-3,2.35a.54.54,0,0,1-.6.45.6.6,0,0,0-.6.6c0,.33-.2.6-.44.6A4.35,4.35,0,0,0,46,28.3a.57.57,0,0,1-.61.5.66.66,0,0,0-.6.71A1.92,1.92,0,0,1,44,30.8a1.92,1.92,0,0,0-.8,1.29.66.66,0,0,1-.6.71.6.6,0,0,0-.6.6.6.6,0,0,1-.6.6c-.42,0-.6.42-.6,1.4,0,1.13-.15,1.4-.8,1.4-.46,0-.8.27-.8.63a2.1,2.1,0,0,1-.6,1.23A2.26,2.26,0,0,0,38,40a.7.7,0,0,1-.6.77c-.45,0-.6.49-.6,2,0,1.73-.11,2-.8,2s-.8.27-.8,1.4c0,1-.18,1.4-.6,1.4s-.6.56-.6,2.6-.13,2.6-.6,2.6c-.91,0-.91,299.1,0,299.46.42.16.6.82.6,2.2s.18,2,.6,2.2.6.77.6,1.78.22,1.69.8,2.05a1.9,1.9,0,0,1,.8,1.6c0,.71.21,1.1.6,1.1s.6.42.6,1.4.18,1.4.6,1.4.6.38.6,1a1.91,1.91,0,0,0,.8,1.5,1.62,1.62,0,0,1,.8,1,.56.56,0,0,0,.6.5c.4,0,.6.4.6,1.21s.25,1.31.6,1.44a1,1,0,0,1,.6.79c0,.31.36.56.8.56s.8.27.8.6a.6.6,0,0,0,.6.6c.33,0,.6.36.6.8s.27.8.6.8a.6.6,0,0,1,.6.6c0,.33.36.6.8.6s.8.27.8.6a.6.6,0,0,0,.6.6c.33,0,.6.36.6.8s.27.8.6.8a.6.6,0,0,1,.6.6c0,.33.36.6.8.6s.8.27.8.6a.6.6,0,0,0,.6.6.6.6,0,0,1,.6.59c0,.33.9,1,2,1.5s2,1.13,2,1.41.56.5,1.41.5c1.13,0,1.4.15,1.4.8,0,.44.25.8.56.8a1,1,0,0,1,.79.6c.15.4.78.6,1.85.6s1.7.2,1.86.6.74.6,1.54.6c1,0,1.36.2,1.52.8s.55.8,2,.8,1.84.15,1.84.6.56.6,2.6.6,2.6.13,2.6.6,6.49.6,56,.6,56-.07,56-.6a.6.6,0,0,1,.6-.6.57.57,0,0,0,.6-.52c0-.29.59-.69,1.3-.9,1-.3,1.33-.63,1.43-1.48.07-.63.37-1.1.7-1.1s.57-.45.57-1.4.19-1.4.56-1.4c.75,0,1-.89,1-3.2s-.29-3.2-1-3.2c-.37,0-.56-.47-.56-1.4s-.18-1.4-.57-1.4-.63-.47-.7-1.1c-.1-.85-.42-1.19-1.43-1.48-.71-.21-1.3-.61-1.3-.9a.57.57,0,0,0-.6-.52.6.6,0,0,1-.6-.6c0-.53-5.9-.6-50.67-.6-46.9,0-50.72,0-51.41-.67-.53-.48-1.71-.72-4.13-.85s-3.39-.32-3.39-.73-.54-.55-1.81-.55-1.88-.19-2-.6a1.32,1.32,0,0,0-1.19-.6,2.93,2.93,0,0,1-1.76-.8,2.77,2.77,0,0,0-1.6-.8c-.44,0-.8-.27-.8-.6s-.4-.6-1.2-.6-1.2-.2-1.2-.6-.36-.6-.8-.6a.71.71,0,0,1-.8-.8c0-.44-.27-.8-.6-.8a.6.6,0,0,1-.6-.6.58.58,0,0,0-.56-.6,1,1,0,0,1-.79-.6,1,1,0,0,0-.84-.6c-.35,0-.61-.35-.61-.8s-.27-.8-.6-.8a.6.6,0,0,1-.6-.6.6.6,0,0,0-.6-.6c-.4,0-.6-.4-.6-1.24s-.22-1.3-.8-1.45-.8-.55-.8-1.36-.21-1.15-.6-1.15-.6-.42-.6-1.4-.19-1.4-.56-1.4-.59-.8-.7-3.23-.29-3.31-.84-3.62c-1.08-.6-1.08-280.89,0-281.5.53-.3.73-1.07.84-3.42s.3-3,.71-3,.56-.56.56-2,.15-2,.6-2,.6-.4.6-1.15.23-1.22.8-1.36a1,1,0,0,0,.8-.85.62.62,0,0,1,.6-.64.58.58,0,0,0,.6-.56,1,1,0,0,1,.6-.79c.35-.13.6-.73.6-1.44,0-.95.18-1.21.8-1.21.44,0,.8-.25.8-.55a1,1,0,0,1,.7-.81c1.43-.53,3-1.52,3.17-2.07a.92.92,0,0,1,.78-.57.58.58,0,0,0,.56-.6c0-.4.4-.6,1.21-.6s1.31-.25,1.44-.6a1.36,1.36,0,0,1,1.22-.6,1.09,1.09,0,0,0,1.2-.8c.16-.6.55-.8,1.53-.8a3.17,3.17,0,0,0,1.93-.6,4.16,4.16,0,0,1,2.6-.6,4.16,4.16,0,0,0,2.6-.6c.51-.51,2.54-.6,13.27-.6,12.33,0,12.67,0,12.88-.8.15-.57.55-.8,1.38-.8.67,0,1.26-.26,1.4-.6a1,1,0,0,1,.79-.6.56.56,0,0,0,.56-.56,1,1,0,0,1,.6-.79c.34-.13.6-.73.6-1.4,0-.83.23-1.23.8-1.37.74-.2.8-.55.8-5s-.07-4.88-.8-5.33a1.62,1.62,0,0,1-.8-1,.56.56,0,0,0-.6-.5.57.57,0,0,1-.6-.54,3.17,3.17,0,0,0-2.15-2.26.63.63,0,0,1-.65-.6c0-.42-.42-.6-1.4-.6s-1.4-.18-1.4-.6-1.64-.6-12.4-.6-12.4.08-12.4.6m213.2,0c0,.42-.42.6-1.4.6s-1.4.18-1.4.6a.6.6,0,0,1-.6.6c-.33,0-.6.36-.6.8a.71.71,0,0,1-.8.8c-.44,0-.8.27-.8.6a.6.6,0,0,1-.6.6c-.42,0-.6.42-.6,1.4s-.18,1.4-.6,1.4-.6.69-.6,3.8.11,3.8.6,3.8.6.42.6,1.4.18,1.4.6,1.4a.62.62,0,0,1,.6.64,1,1,0,0,0,.8.85c.44.11.8.46.8.76a.58.58,0,0,0,.6.55.6.6,0,0,1,.6.6c0,.42.42.6,1.4.6s1.4.19,1.4.56c0,1,1,1,12.63,1,9.84,0,11.37.08,11.37.6s.56.6,2.6.6,2.6.13,2.6.6.42.6,1.35.6,1.41.2,1.56.8a1.09,1.09,0,0,0,1.2.8,1.36,1.36,0,0,1,1.23.6c.13.35.73.6,1.44.6s1.21.2,1.21.6a.6.6,0,0,0,.6.6.61.61,0,0,1,.6.61,1.07,1.07,0,0,0,.69.88,7.16,7.16,0,0,1,1.79,1.39,4.1,4.1,0,0,0,1.51,1.12c.23,0,.41.27.41.6a.6.6,0,0,0,.6.6c.33,0,.6.36.6.8s.27.8.6.8a.6.6,0,0,1,.6.6.6.6,0,0,0,.6.6.7.7,0,0,1,.6.77c0,1.19.43,2,1,2,.35,0,.56.44.56,1.21s.25,1.31.6,1.44.6.75.6,1.56a3.18,3.18,0,0,0,.6,1.93c1,1,.9,191.34-.1,193.52-.39.84-.92,1.53-1.2,1.53s-.5.37-.5.81a.71.71,0,0,1-.8.8c-.44,0-.8.27-.8.6s-.4.6-1.2.6-1.2.2-1.2.59-4.29.61-34.23.7c-32.07.1-34.26.15-34.74.81s-1.15.7-4.18.7-3.72.13-3.9.6-.82.6-2.19.6-2,.15-2,.6-.42.6-1.4.6c-1.13,0-1.4.15-1.4.8s-.27.8-1.4.8c-1,0-1.4.18-1.4.6s-.4.6-1.21.6-1.31.25-1.44.6a1.36,1.36,0,0,1-1.23.6,1.09,1.09,0,0,0-1.2.8,1.08,1.08,0,0,1-1,.8.69.69,0,0,0-.75.6c0,.38-.38.6-1,.6a1.38,1.38,0,0,0-1.24.6,1,1,0,0,1-.83.6c-.33,0-.69.36-.8.8s-.46.8-.76.8a.58.58,0,0,0-.55.6.6.6,0,0,1-.6.6.6.6,0,0,0-.6.6.62.62,0,0,1-.64.6,1,1,0,0,0-.85.8c-.11.44-.46.8-.76.8a.58.58,0,0,0-.55.6.6.6,0,0,1-.6.6.6.6,0,0,0-.6.6.62.62,0,0,1-.64.6,1,1,0,0,0-.84.77,1.57,1.57,0,0,1-.76,1,1.37,1.37,0,0,0-.56,1.23c0,.63-.23,1-.6,1a.69.69,0,0,0-.6.75,1.08,1.08,0,0,1-.8,1,1.09,1.09,0,0,0-.8,1.2,1.36,1.36,0,0,1-.6,1.23c-.35.13-.6.73-.6,1.44s-.2,1.21-.6,1.21-.6.42-.6,1.4c0,1.13-.15,1.4-.8,1.4s-.8.27-.8,1.16c0,.66-.26,1.26-.6,1.39s-.6.8-.6,2-.19,1.84-.6,2-.6.88-.6,2.8c0,2.23-.1,2.59-.8,2.77s-.8.55-.8,4.82c0,2.64-.17,4.72-.4,4.86-.6.37-.55,70.46.05,70.83.31.19.25.39-.2.64-.87.49-1,8.51-.1,9.74a7,7,0,0,1,.83,2.09c.16.72.53,1.3.85,1.3a.57.57,0,0,1,.57.57c0,.31.52.68,1.17.82a2.12,2.12,0,0,1,1.36.77c.42,1.1,12.27,1.08,13,0a2.32,2.32,0,0,1,1-.66,1.06,1.06,0,0,0,.7-.87.61.61,0,0,1,.6-.61.6.6,0,0,0,.6-.6c0-.33.36-.6.8-.6s.8-.27.8-.6a.58.58,0,0,1,.55-.6c.31,0,.65-.36.76-.8s.55-.8,1.26-.8a1.43,1.43,0,0,0,1.28-.6,1,1,0,0,1,.79-.6.58.58,0,0,0,.56-.6.6.6,0,0,1,.6-.6c.33,0,.6-.36.6-.8a.71.71,0,0,1,.8-.8c.44,0,.8-.27.8-.6a.6.6,0,0,1,.6-.6.59.59,0,0,0,.6-.57c0-.31.54-.69,1.2-.83s1.2-.52,1.2-.83.36-.57.8-.57.8-.27.8-.6a.6.6,0,0,1,.6-.6.58.58,0,0,0,.6-.55c0-.3.36-.65.8-.76a1,1,0,0,0,.8-.85.62.62,0,0,1,.6-.64.6.6,0,0,0,.6-.6.6.6,0,0,1,.6-.6.6.6,0,0,0,.6-.6c0-.33.36-.6.8-.6a2.35,2.35,0,0,0,1.49-.8,2.21,2.21,0,0,1,1.2-.8.56.56,0,0,0,.51-.6c0-.33.2-.6.44-.6a4.35,4.35,0,0,0,2.35-2.3.57.57,0,0,1,.61-.5.6.6,0,0,0,.6-.6c0-.33.36-.6.8-.6s.8-.27.8-.6a.6.6,0,0,1,.6-.6,1.64,1.64,0,0,0,1.1-.8,1.67,1.67,0,0,1,1.16-.8,1,1,0,0,0,.89-.6,1,1,0,0,1,.84-.6.61.61,0,0,0,.61-.6.6.6,0,0,1,.6-.6c.33,0,.6-.36.6-.8a.71.71,0,0,1,.8-.8c.44,0,.8-.27.8-.6a.6.6,0,0,1,.6-.6.6.6,0,0,0,.6-.6.6.6,0,0,1,.6-.6c.33,0,.6-.36.6-.8,0-.62.27-.8,1.21-.8.71,0,1.31-.25,1.44-.6a1,1,0,0,1,.79-.6.56.56,0,0,0,.56-.55c0-.3.36-.65.8-.76a1,1,0,0,0,.8-.85.62.62,0,0,1,.6-.64.6.6,0,0,0,.6-.6.6.6,0,0,1,.6-.6.6.6,0,0,0,.6-.6c0-.33.36-.6.8-.6a.71.71,0,0,0,.8-.8c0-.62.27-.8,1.2-.8s1.2-.2,1.2-.6a.61.61,0,0,1,.61-.6,1,1,0,0,0,.84-.6,1,1,0,0,1,.79-.6c.31,0,.56-.36.56-.8s.27-.8.6-.8a.6.6,0,0,0,.6-.6c0-.33.36-.6.8-.6s.8-.27.8-.6a.6.6,0,0,1,.6-.6c.33,0,.6-.36.6-.8,0-.62.27-.8,1.16-.8.66,0,1.26-.26,1.39-.6a1,1,0,0,1,.84-.6.61.61,0,0,0,.61-.6.6.6,0,0,1,.6-.6c.33,0,.6-.36.6-.8a.71.71,0,0,1,.8-.8c.44,0,.8-.27.8-.6a.6.6,0,0,1,.6-.6.6.6,0,0,0,.6-.6.6.6,0,0,1,.6-.6c.33,0,.6-.36.6-.8,0-.62.27-.8,1.21-.8.71,0,1.31-.25,1.44-.6a1,1,0,0,1,.79-.6.56.56,0,0,0,.56-.55c0-.3.36-.65.8-.76a1,1,0,0,0,.8-.85.62.62,0,0,1,.6-.64.6.6,0,0,0,.6-.6.6.6,0,0,1,.6-.6.6.6,0,0,0,.6-.6c0-.33.36-.6.8-.6a.71.71,0,0,0,.8-.8c0-.62.27-.8,1.2-.8s1.2-.2,1.2-.6.2-.6.44-.6a4.35,4.35,0,0,0,2.35-2.3.57.57,0,0,1,.61-.5.6.6,0,0,0,.6-.6c0-.33.36-.6.8-.6s.8-.27.8-.6a.6.6,0,0,1,.6-.6c.33,0,.6-.36.6-.8,0-.62.27-.8,1.2-.8s1.2-.2,1.2-.6.36-.6.8-.6.8-.27.8-.6a.6.6,0,0,1,.6-.6c.33,0,.6-.36.6-.8a.71.71,0,0,1,.8-.8c.44,0,.8-.27.8-.6a.6.6,0,0,1,.6-.6.6.6,0,0,0,.6-.6.6.6,0,0,1,.6-.6c.33,0,.6-.36.6-.8,0-.62.27-.8,1.21-.8.71,0,1.31-.25,1.44-.6a1,1,0,0,1,.79-.6.56.56,0,0,0,.56-.55c0-.3.36-.65.8-.76a1,1,0,0,0,.8-.85.62.62,0,0,1,.6-.64.6.6,0,0,0,.6-.6.6.6,0,0,1,.6-.6.6.6,0,0,0,.6-.6c0-.33.36-.6.8-.6a.7.7,0,0,0,.8-.76c0-.47.37-.85,1-1s1-.43,1-.64.29-.39.64-.39c.77,0,2.54-1.6,2.55-2.3a.57.57,0,0,1,.61-.5.6.6,0,0,0,.6-.6c0-.33.36-.6.8-.6s.8-.27.8-.6a.6.6,0,0,1,.6-.6c.33,0,.6-.36.6-.8a.7.7,0,0,1,.77-.8,2.26,2.26,0,0,0,1.37-.6,2.1,2.1,0,0,1,1.23-.6.6.6,0,0,0,.63-.56,1,1,0,0,1,.6-.79,1,1,0,0,0,.6-.84c0-.35.35-.61.8-.61s.8-.27.8-.6.4-.6,1.2-.6,1.2-.2,1.2-.6a.62.62,0,0,1,.64-.6,1,1,0,0,0,.85-.8c.12-.44.46-.8.76-.8s.55-.45.55-1.2.2-1.2.6-1.2c.91,0,.91-230.3,0-230.65-.44-.17-.6-.86-.6-2.6s-.16-2.43-.6-2.6-.6-.75-.6-1.56c0-1.72-.35-2.59-1-2.59-.37,0-.56-.47-.56-1.4S367,42,366.6,42s-.6-.4-.6-1.21-.25-1.31-.6-1.44a1.36,1.36,0,0,1-.6-1.23,1.09,1.09,0,0,0-.8-1.2c-.56-.15-.8-.55-.8-1.32a1.49,1.49,0,0,0-.6-1.34,1,1,0,0,1-.6-.84.61.61,0,0,0-.6-.61.62.62,0,0,1-.6-.64,1,1,0,0,0-.8-.85,1.06,1.06,0,0,1-.8-.91,1.8,1.8,0,0,0-.6-1.2,1.62,1.62,0,0,1-.6-.83A5.27,5.27,0,0,0,355.65,26a.54.54,0,0,1-.45-.6.6.6,0,0,0-.6-.6.62.62,0,0,1-.6-.64,1,1,0,0,0-.8-.85c-.44-.11-.8-.46-.8-.76S352,22,351.2,22s-1.2-.2-1.2-.6a.6.6,0,0,0-.6-.6.61.61,0,0,1-.6-.61,1.06,1.06,0,0,0-.7-.87,2.29,2.29,0,0,1-1-.79,1.67,1.67,0,0,0-1.3-.53c-.6,0-1-.23-1-.6s-.42-.6-1.4-.6c-1.13,0-1.4-.15-1.4-.8s-.27-.8-1.4-.8c-1,0-1.4-.18-1.4-.6s-.4-.6-1.2-.6-1.2-.2-1.2-.6-.48-.6-2-.6-2-.14-2.16-.8-.55-.8-2-.8c-1.23,0-1.87-.19-2-.6s-.89-.6-2.84-.6-2.61-.13-2.61-.6-1.73-.6-13.2-.6-13.2.08-13.2.6M95.46,121.4c-.13.35-.73.6-1.44.6s-1.21.2-1.21.6a.62.62,0,0,1-.64.6,1,1,0,0,0-.85.8c-.12.44-.46.8-.76.8a.58.58,0,0,0-.55.6.6.6,0,0,1-.6.6c-.42,0-.6.42-.6,1.35s-.2,1.41-.8,1.56-.8.55-.8,3.64.1,3.5.8,3.93a1.9,1.9,0,0,1,.8,1.6c0,.72.21,1.1.6,1.1s.6.36.6.8.27.8.6.8a.6.6,0,0,1,.6.6c0,.33.36.6.8.6s.8.27.8.6.39.6,1.1.6a1.9,1.9,0,0,1,1.6.8c.79,1.26,212.2,1.26,213,0a1.9,1.9,0,0,1,1.6-.8c.71,0,1.1-.21,1.1-.6s.36-.6.8-.6.8-.27.8-.6a.6.6,0,0,1,.6-.6c.33,0,.6-.36.6-.8s.27-.8.6-.8.6-.39.6-1.1a1.9,1.9,0,0,1,.8-1.6c.7-.44.8-.93.8-3.93s-.08-3.45-.8-3.64-.8-.55-.8-1.56S315,126,314.6,126a.6.6,0,0,1-.6-.6.6.6,0,0,0-.6-.6.62.62,0,0,1-.6-.64,1,1,0,0,0-.8-.85c-.44-.12-.8-.46-.8-.76s-.45-.55-1.21-.55-1.31-.25-1.44-.6c-.2-.53-12.41-.6-106.55-.6s-106.34.07-106.54.6m1.35,64c0,.45-.47.6-1.81.6s-1.89.19-2,.6a1,1,0,0,1-.82.6c-.33,0-.69.36-.8.8s-.46.8-.76.8a.58.58,0,0,0-.55.6.6.6,0,0,1-.6.6c-.42,0-.6.42-.6,1.4s-.19,1.4-.56,1.4c-1.37,0-1.6,7.53-.24,7.88.57.15.8.55.8,1.36s.21,1.15.55,1.15.66.54.79,1.21a1.51,1.51,0,0,0,1.45,1.45c.66.13,1.21.49,1.21.79s.18.55.4.55a2.75,2.75,0,0,1,1.2.8c.8.8,1.33.8,107.6.8s106.8,0,107.6-.8a2.75,2.75,0,0,1,1.2-.8c.22,0,.4-.25.4-.55s.54-.66,1.21-.79a1.51,1.51,0,0,0,1.45-1.45c.13-.66.49-1.21.79-1.21s.55-.44.55-1.15.23-1.21.8-1.36c1.33-.35,1.09-7.88-.25-7.88-.36,0-.55-.48-.55-1.4s-.18-1.4-.6-1.4a.6.6,0,0,1-.6-.6.6.6,0,0,0-.6-.6.61.61,0,0,1-.6-.61,1.06,1.06,0,0,0-.7-.87,2.29,2.29,0,0,1-1-.79c-.19-.31-1-.53-2.1-.53-1.32,0-1.78-.16-1.78-.6s-12-.6-105.2-.6-105.2.07-105.2.6M340,280a2.65,2.65,0,0,1-1.4.8.6.6,0,0,0-.6.6.6.6,0,0,1-.6.6.58.58,0,0,0-.6.55c0,.3-.36.65-.8.76a1,1,0,0,0-.8.85.62.62,0,0,1-.6.64.6.6,0,0,0-.6.6.6.6,0,0,1-.6.6.6.6,0,0,0-.6.6c0,.33-.36.6-.8.6a.71.71,0,0,0-.8.8c0,.62-.27.8-1.2.8s-1.2.2-1.2.6a.61.61,0,0,1-.61.6,1,1,0,0,0-.84.6,1,1,0,0,1-.79.6c-.31,0-.56.36-.56.8s-.27.8-.6.8a.6.6,0,0,0-.6.6c0,.33-.36.6-.8.6s-.8.27-.8.6a.6.6,0,0,1-.6.6c-.33,0-.6.36-.6.8,0,.62-.27.8-1.16.8-.66,0-1.26.26-1.39.6a1,1,0,0,1-.84.6.61.61,0,0,0-.61.6.6.6,0,0,1-.6.6c-.33,0-.6.36-.6.8a.71.71,0,0,1-.8.8c-.44,0-.8.27-.8.6a.6.6,0,0,1-.6.6.6.6,0,0,0-.6.6.6.6,0,0,1-.6.6c-.33,0-.6.36-.6.8,0,.62-.27.8-1.21.8-.71,0-1.31.25-1.44.6a1,1,0,0,1-.79.6.58.58,0,0,0-.56.6.62.62,0,0,1-.64.6,1,1,0,0,0-.85.8c-.12.44-.46.8-.76.8a.58.58,0,0,0-.55.6.6.6,0,0,1-.6.6.6.6,0,0,0-.6.6c0,.33-.36.6-.8.6a.71.71,0,0,0-.8.8c0,.62-.27.8-1.2.8s-1.2.2-1.2.6-.2.6-.44.6a4.35,4.35,0,0,0-2.35,2.3.57.57,0,0,1-.61.5.6.6,0,0,0-.6.6c0,.33-.36.6-.8.6s-.8.27-.8.6a.6.6,0,0,1-.6.6c-.33,0-.6.36-.6.8,0,.62-.27.8-1.16.8-.66,0-1.26.26-1.39.6a1,1,0,0,1-.84.6.61.61,0,0,0-.61.6.6.6,0,0,1-.6.6c-.33,0-.6.36-.6.8a.71.71,0,0,1-.8.8c-.44,0-.8.27-.8.6a.6.6,0,0,1-.6.6.6.6,0,0,0-.6.6.6.6,0,0,1-.6.6c-.33,0-.6.36-.6.8,0,.65-.27.8-1.4.8-1,0-1.4.18-1.4.6a.6.6,0,0,1-.6.6.6.6,0,0,0-.6.6.62.62,0,0,1-.64.6,1,1,0,0,0-.85.8c-.12.44-.46.8-.76.8a.58.58,0,0,0-.55.6.6.6,0,0,1-.6.6.6.6,0,0,0-.6.6c0,.33-.36.6-.8.6a.71.71,0,0,0-.8.8c0,.59-.27.8-1,.8a1.38,1.38,0,0,0-1.24.6c-.13.33-.41.6-.63.6a4.46,4.46,0,0,0-2.31,2.3.57.57,0,0,1-.61.5.6.6,0,0,0-.6.6c0,.33-.36.6-.8.6s-.8.27-.8.6a.6.6,0,0,1-.6.6c-.33,0-.6.36-.6.8a.7.7,0,0,1-.77.8,2.26,2.26,0,0,0-1.37.6,2.1,2.1,0,0,1-1.23.6.62.62,0,0,0-.63.6.6.6,0,0,1-.6.6c-.33,0-.6.36-.6.8a.71.71,0,0,1-.8.8c-.44,0-.8.27-.8.6a.6.6,0,0,1-.6.6.6.6,0,0,0-.6.6.6.6,0,0,1-.6.6c-.33,0-.6.36-.6.8s-.27.8-1,.8a1.38,1.38,0,0,0-1.24.6,1.11,1.11,0,0,1-1,.6c-.42,0-.76.25-.76.55s-.36.65-.8.76a1,1,0,0,0-.8.85.62.62,0,0,1-.6.64.6.6,0,0,0-.6.6.6.6,0,0,1-.6.6.58.58,0,0,0-.6.55c0,.3-.36.65-.8.76a1,1,0,0,0-.8.85.62.62,0,0,1-.6.64c-.53,0-.6-3.17-.6-26.16s.07-26.19.6-26.39.6-.91.6-3c0-2.39.12-2.86.8-3.23s.8-.84.8-1.77a2.76,2.76,0,0,1,.6-1.83,2.79,2.79,0,0,0,.6-1.85c0-.93.18-1.35.6-1.35a.56.56,0,0,0,.6-.51,2.21,2.21,0,0,1,.8-1.2,2.35,2.35,0,0,0,.8-1.49c0-.45.27-.8.6-.8a.6.6,0,0,0,.6-.6.6.6,0,0,1,.6-.6.58.58,0,0,0,.6-.55c0-.3.36-.65.8-.76a1,1,0,0,0,.8-.85.62.62,0,0,1,.6-.64.6.6,0,0,0,.6-.6.6.6,0,0,1,.6-.6.58.58,0,0,0,.6-.55c0-.32.6-.67,1.4-.82s1.4-.5,1.4-.84a.59.59,0,0,1,.6-.58.6.6,0,0,0,.6-.6c0-.42.42-.6,1.4-.6s1.4-.18,1.4-.6.46-.6,1.7-.6c2.28,0,3.5-.37,3.5-1,0-.47,5.44-.55,34.8-.55h34.8l-.8.8" transform="translate(-32.71 0)"/></g></svg>