<svg id="cf4cc4d7-e32d-435f-b33f-4134aa7ad6a2" data-name="图层 1" xmlns="http://www.w3.org/2000/svg" viewBox="0 0 75.04 61.6"><title>setting</title><path d="M14.44,29.56h7.48a8.54,8.54,0,0,0,16.68,0h47a2,2,0,1,0,0-3.92h-47a8.53,8.53,0,0,0-16.54,0H14.44a2,2,0,1,0,0,3.92Zm15.82-6.44a4.62,4.62,0,1,1-4.62,4.62A4.63,4.63,0,0,1,30.26,23.12Z" transform="translate(-12.48 -19.2)"/><path d="M85.56,48H70.85a8.53,8.53,0,0,0-16.79,0H14.44a2,2,0,1,0,0,3.92H54.26a8.53,8.53,0,0,0,16.39,0h14.9a2,2,0,0,0,0-3.92ZM62.46,54.2a4.62,4.62,0,1,1,4.62-4.62A4.62,4.62,0,0,1,62.46,54.2Z" transform="translate(-12.48 -19.2)"/><path d="M85.56,70.44H53.44a8.54,8.54,0,0,0-16.68,0H14.44a2,2,0,1,0,0,3.92H36.83a8.53,8.53,0,0,0,16.54,0H85.56a2,2,0,1,0,0-3.92ZM45.1,76.88a4.62,4.62,0,1,1,4.62-4.62A4.63,4.63,0,0,1,45.1,76.88Z" transform="translate(-12.48 -19.2)"/></svg>