<?xml version="1.0" encoding="utf-8" ?>
<svg xmlns="http://www.w3.org/2000/svg" xmlns:xlink="http://www.w3.org/1999/xlink" width="17" height="18">
	
	<g clip-path="url(#clip_0)">
		<path stroke="none" transform="matrix(0.97 0 0 0.97 0.664856 0.549194)" d="M8.17267 0C10.8324 0 12.9955 2.15685 12.9955 4.80886C12.9955 6.56288 12.0949 8.04833 10.7398 8.90436C14.0307 9.98698 16.4211 13.0418 16.48 16.6925C16.48 17.0114 16.2107 17.28 15.8908 17.28C15.571 17.28 15.3017 17.0114 15.3017 16.6925C15.3017 13.3188 12.9534 10.4672 9.7971 9.74549C9.23623 9.82284 8.95963 9.8719 8.68113 9.88799C8.28772 9.9107 7.89051 9.86761 6.6829 9.74549C3.52662 10.4672 1.17835 13.3188 1.17835 16.6925C1.17835 17.0114 0.909009 17.28 0.589173 17.28C0.269336 17.28 0 17.0114 0 16.6925C0 13.0502 2.39036 9.99538 5.63922 8.91275C4.28413 8.05673 3.38353 6.52931 3.38353 4.81725C3.38353 2.16525 5.51297 0 8.17267 0ZM4.5198 4.81725C4.5198 6.83983 6.18631 8.50152 8.21475 8.50152C10.2432 8.50152 11.9097 6.83983 11.9097 4.81725C11.9097 2.79468 10.2432 1.13298 8.21475 1.13298C6.18631 1.13298 4.5198 2.79468 4.5198 4.81725Z" fill-rule="evenodd"/>
	</g>
</svg>
