<svg id="2f486396-feb4-4374-8013-79fdf4bb4dd2" data-name="图层 1" xmlns="http://www.w3.org/2000/svg" viewBox="0 0 84.84 84.28"><title>what</title><path d="M79.55,29.84H54.06V17.2a9.35,9.35,0,0,0-9.34-9.34H16.92A9.35,9.35,0,0,0,7.58,17.2V48a1.68,1.68,0,0,0,2.53,1.45L20,43.7h6.06V67.79A12.88,12.88,0,0,0,38.93,80.66H73.62L89.78,91.84a1.68,1.68,0,0,0,2.64-1.38V42.71A12.88,12.88,0,0,0,79.55,29.84Zm-60,10.5a1.68,1.68,0,0,0-.85.23l-7.76,4.54V17.2a6,6,0,0,1,6-6h27.8a6,6,0,0,1,6,6V29.84H38.93a12.88,12.88,0,0,0-12.64,10.5ZM89.06,87.25l-14-9.66a1.68,1.68,0,0,0-1-.3H38.93a9.52,9.52,0,0,1-9.51-9.51V42.71a9.52,9.52,0,0,1,9.51-9.51H79.55a9.52,9.52,0,0,1,9.51,9.51Z" transform="translate(-7.58 -7.86)"/></svg>