<svg id="图层_1" data-name="图层 1" xmlns="http://www.w3.org/2000/svg" viewBox="0 0 200 180"><title>woman</title><path d="M199.89,186.2l-5.31-19v-.38a21.87,21.87,0,0,0-10-11.39l-13.29-6.68a31.66,31.66,0,0,0-3.17-1.29c.46-4.21.27-12-6.91-15.19-17.53-7.82-13.94-15.87-9-27C156,96.68,160.32,87,151.8,78.2c-7-7.21-9.74-19-12.41-30-3.4-14.31-6.61-27.79-18.87-29.38a88.48,88.48,0,0,1-19.1-5C87.85,8.95,77.16,5.15,59.93,26.34S44,56.71,45,64.3a39.51,39.51,0,0,1,.38,4.06c0,6.95-1.18,11.81-4,14.5a46.46,46.46,0,0,0-8.17,9.83c-8.14,11.16-8.37,24.3-.61,37,3.29,5.39,4.32,9.87,3.09,13.29a9.13,9.13,0,0,1-4.39,4.78c-.84.34-1.72.61-2.56,1l-13.29,6.68a21.91,21.91,0,0,0-10,11.39v.38l-5.31,19a2.87,2.87,0,0,0,.5,2.54,2.76,2.76,0,0,0,2.33,1.14l97.75-.3,96.38.42a2.88,2.88,0,0,0,2.79-3.8ZM37.7,95.81l.42-.65a40.61,40.61,0,0,1,7.22-8.39c4.09-3.8,6-10.21,5.81-19a45.51,45.51,0,0,0-.42-4.67c-.88-6.8-1.87-14.5,13.64-33.6,14.67-18,21.89-15.45,35-10.82A93.44,93.44,0,0,0,119.67,24c8.29,1.06,10.92,12.15,14,25,2.71,11.39,5.77,24.37,13.9,32.73,5.42,5.58,3.36,11.39-.73,20.73-4.85,10.9-10.92,24.45,11.92,34.62a8,8,0,0,1,3.59,8.39l-1-.23-21.62-3.08a15.76,15.76,0,0,1-14.17-14.73v-5.77a2.72,2.72,0,0,0,0-.49,28.93,28.93,0,0,0,4.35-6.23c4.09-8,5.58-11.73,5.65-15.94.5-2.58,2.67-15.45-5.16-18.79,0,0-11.23-6-12-15.41a2.79,2.79,0,0,0,0-.46l-1-4.06a19.69,19.69,0,0,0-3.48-7.18l-7-9.07a13.93,13.93,0,0,1-2.75-6.49l-1.53-9a2.91,2.91,0,0,0-3.82-2.39l-10.43,3A33.61,33.61,0,0,0,68.26,45.74l-3.09,5.88a49.51,49.51,0,0,0-4.55,22.82l.88,19a43.31,43.31,0,0,0,12.41,27.71v6.3a15.72,15.72,0,0,1-14,14.73l-19.1,2.73v-.34c1.91-5.16.73-11.39-3.55-18.34-8.1-13.36-4.2-23.92.42-30.41Zm29.68-2.39L66.5,74a44.14,44.14,0,0,1,3.55-19.89l3.09-5.88A27.78,27.78,0,0,1,90.26,34.69l7.18-2.05.88,5.5a19.71,19.71,0,0,0,3.82,9.23l6.91,9.07a13.93,13.93,0,0,1,2.44,5.09l1,3.8c1.22,12.41,14.52,19.51,15.28,19.89,3.17,1.33,2.64,9.26,1.91,12.64a3,3,0,0,0,0,.61c0,3-1,5.77-5,13.67a23.94,23.94,0,0,1-9.36,9.79,43.15,43.15,0,0,1-12.61,5.54,19.44,19.44,0,0,1-11.46-1.29A38.32,38.32,0,0,1,67.45,93.42ZM10.65,168.85a16.09,16.09,0,0,1,7.26-8.5l13.29-6.68h.73a15.33,15.33,0,0,0,1.8-.8,26.29,26.29,0,0,1,5.58-1.52l2-.3L55.5,183.89h-49ZM61.8,183.66,47.28,150l13.64-1.75A21.58,21.58,0,0,0,80,127.62v-1.14a51.38,51.38,0,0,0,9,5.16,25,25,0,0,0,10.2,2.16,25.36,25.36,0,0,0,4.7-.76,48.14,48.14,0,0,0,14.36-6c.53-.3,1-.72,1.57-1.06v1.59a21.54,21.54,0,0,0,19.1,20.39L153.48,150,139,183.62l-38.58-.08Zm83.35,0,14.17-32.84h1.11a26.53,26.53,0,0,1,2.94.65,2.73,2.73,0,0,0,.38.57,2.84,2.84,0,0,0,.73,0,26,26,0,0,1,3.82,1.56l13.29,6.68a16,16,0,0,1,7.26,8.5L193.09,184Z" transform="translate(0 -10)"/></svg>