<?xml version="1.0" encoding="utf-8"?>
<!-- Generator: Adobe Illustrator 21.0.0, SVG Export Plug-In . SVG Version: 6.00 Build 0)  -->
<svg version="1.1" id="图层_1" xmlns="http://www.w3.org/2000/svg" xmlns:xlink="http://www.w3.org/1999/xlink" x="0px" y="0px"
	 viewBox="0 0 160 160" style="enable-background:new 0 0 160 160;" xml:space="preserve">
<path d="M15.1,50c3.2,0,4.9-2.4,4.9-5.5V29.8c0-6.5,3.8-9.8,10-9.8h15.4c3.2,0,4.8-1.8,4.8-5c0-3.2-1.5-5-4.8-5H29.8
	C16.8,10,10,16.4,10,29.3v15.3C10,47.9,11.9,50,15.1,50z M100,53l41.4-41.5c1.9-1.9,5.1-1.9,7,0l0,0c1.9,1.9,1.9,5.1,0,7L107.2,60
	h17.4c3.4,0,5.5,2.3,5.5,4.9c0,2.6-2.1,5-5.1,5h-15.2c0,0-1.9,0-2.8,0c-8.7,0-16.9-7.8-16.9-17.8c0-0.9,0-2.1,0-2.1V34.8
	c0-1.4,0.6-2.6,1.5-3.5c0.9-0.9,2.1-1.5,3.5-1.5l0,0l0,0c1.4,0,2.6,0.6,3.5,1.5s1.4,2.4,1.4,3.7L100,53z M144.8,110
	c-3.2,0-4.9,2.4-4.9,5.5v14.8c0,6.5-3.8,9.8-10,9.8h-15.4c-3.2,0-4.8,1.8-4.8,5c0,3.2,1.5,5,4.8,5h15.5c13,0,19.9-6.4,19.9-19.3
	v-15.3C150,112.1,148.1,110,144.8,110z M60.1,107l-41.6,41.5c-1.9,1.9-5.1,1.9-7,0l0,0c-1.9-1.9-1.9-5.1,0-7L52.9,100H35.5
	c-3.4,0-5.5-2.3-5.5-4.9c0-2.6,2.1-5,5.1-5h15.2c0,0,1.9,0,2.8,0c8.7,0,16.9,7.8,16.9,17.8c0,0.9,0,2.1,0,2.1v15.2
	c0,1.4-0.6,2.6-1.5,3.5c-0.9,0.9-2.1,1.5-3.5,1.5l0,0l0,0c-1.4,0-2.6-0.6-3.5-1.5c-0.9-0.9-1.4-2.4-1.4-3.7L60.1,107z"/>
</svg>
