<?xml version="1.0" standalone="no"?><!DOCTYPE svg PUBLIC "-//W3C//DTD SVG 1.1//EN" "http://www.w3.org/Graphics/SVG/1.1/DTD/svg11.dtd"><svg t="1583747355157" class="icon" viewBox="0 0 1024 1024" version="1.1" xmlns="http://www.w3.org/2000/svg" p-id="1776" xmlns:xlink="http://www.w3.org/1999/xlink" width="200" height="200"><defs><style type="text/css"></style></defs><path d="M384 441.6V832c0 70.4-70.4 128-160 128S64 902.4 64 832s70.4-128 160-128c38.4 0 70.4 6.4 96 25.6V326.4c0-76.8 51.2-140.8 128-153.6l320-70.4c83.2-19.2 172.8 38.4 192 121.6V768c0 70.4-70.4 128-160 128s-160-57.6-160-128 70.4-128 160-128c38.4 0 70.4 6.4 96 25.6V256v-19.2c-12.8-51.2-64-83.2-115.2-70.4l-320 70.4c-44.8 6.4-76.8 44.8-76.8 89.6v51.2l409.6-89.6c19.2-6.4 32 6.4 38.4 25.6 6.4 19.2-6.4 32-25.6 38.4L384 441.6zM224 896c57.6 0 96-32 96-64s-38.4-64-96-64-96 32-96 64 38.4 64 96 64z m576-64c57.6 0 96-32 96-64s-38.4-64-96-64-96 32-96 64 38.4 64 96 64z" p-id="1777"></path></svg>