<?xml version="1.0" standalone="no"?><!DOCTYPE svg PUBLIC "-//W3C//DTD SVG 1.1//EN" "http://www.w3.org/Graphics/SVG/1.1/DTD/svg11.dtd"><svg t="1583747395878" class="icon" viewBox="0 0 1024 1024" version="1.1" xmlns="http://www.w3.org/2000/svg" p-id="2744" xmlns:xlink="http://www.w3.org/1999/xlink" width="200" height="200"><defs><style type="text/css"></style></defs><path d="M926.26488889 143.92888889L520.64711111-1.36533333c-6.03022222-2.16177778-12.62933333-2.16177778-18.65955556 0L96.256 143.92888889c-11.03644445 3.98222222-18.54577778 14.56355555-18.54577778 26.39644444V591.64444445c0 63.488 23.32444445 125.49688889 69.40444445 184.20622222 35.49866667 45.28355555 84.65066667 88.74666667 146.09066666 129.13777778 65.42222222 42.66666667 135.62311111 78.05155555 208.896 105.35822222 2.95822222 1.024 6.03022222 1.59288889 9.216 1.59288888s6.25777778-0.56888889 9.216-1.59288888c10.80888889-3.86844445 108.88533333-39.48088889 208.896-105.24444445 61.44-40.50488889 110.592-83.968 145.97688889-129.25155555 45.96622222-58.70933333 69.40444445-120.71822222 69.40444445-184.20622222V170.21155555c-0.11377778-11.71911111-7.50933333-22.41422222-18.54577778-26.28266666zM699.50577778 857.77066667c-59.16444445 38.34311111-122.53866667 70.76977778-188.18844445 96.36977778C445.55377778 928.65422222 382.29333333 896.22755555 323.12888889 857.88444445c-86.47111111-57.11644445-189.55377778-149.61777778-189.55377778-266.12622223v-401.63555555l377.74222222-135.39555556 377.74222222 135.39555556v404.59377778c-1.82044445 115.14311111-104.10666667 206.62044445-189.55377777 263.05422222z" fill="" p-id="2745"></path><path d="M728.42666667 339.73333333c-9.28-2.13333333-18.98666667 0.85333333-25.38666667 7.78666667L459.30666667 605.54666667 320 458.77333333c-6.4-7.25333333-16.21333333-10.45333333-25.70666667-8.32-9.49333333 2.13333333-17.06666667 9.38666667-19.62666666 18.77333334-2.56 9.38666667 0.10666667 19.41333333 6.93333333 26.02666666L440.21333333 662.4c4.90666667 5.22666667 11.94666667 8.21333333 19.09333334 8.21333333 7.25333333 0 14.18666667-2.98666667 19.09333333-8.21333333L741.33333333 384.10666667c6.61333333-6.82666667 9.17333333-16.74666667 6.50666667-25.92-2.66666667-9.28-10.13333333-16.32-19.41333333-18.45333334z" fill="" p-id="2746"></path></svg>