<?xml version="1.0" standalone="no"?><!DOCTYPE svg PUBLIC "-//W3C//DTD SVG 1.1//EN" "http://www.w3.org/Graphics/SVG/1.1/DTD/svg11.dtd"><svg t="1583747451310" class="icon" viewBox="0 0 1024 1024" version="1.1" xmlns="http://www.w3.org/2000/svg" p-id="4200" xmlns:xlink="http://www.w3.org/1999/xlink" width="200" height="200"><defs><style type="text/css"></style></defs><path d="M33.652 947.414c-18.55 0-33.631-15.082-33.631-33.631V105.37c0-18.557 15.081-33.645 33.63-33.645 18.558 0 33.646 15.088 33.646 33.645v774.774h923.05c18.55 0 33.631 15.088 33.631 33.638 0 18.55-15.081 33.63-33.631 33.63H33.652z m108.947-181.699c-7.294 0-14.253-2.32-20.123-6.705-14.85-11.12-17.894-32.244-6.78-47.094l220.625-294.755c6.423-8.57 16.245-13.485 26.963-13.485a33.435 33.435 0 0 1 18.759 5.728L580.447 543.01l349.606-278.503c6.019-4.796 13.254-7.332 20.928-7.332 10.315 0 19.907 4.617 26.33 12.68 5.6 7.019 8.121 15.805 7.122 24.74-1.007 8.92-5.436 16.924-12.462 22.533L603.07 611.002c-5.915 4.729-13.359 7.325-20.959 7.325a33.513 33.513 0 0 1-18.788-5.729L371.011 483.095 169.563 752.222c-6.415 8.578-16.246 13.493-26.964 13.493z" fill="" p-id="4201"></path></svg>