<?xml version="1.0" encoding="utf-8"?>
<svg version="1.1" id="down" xmlns="http://www.w3.org/2000/svg" xmlns:xlink="http://www.w3.org/1999/xlink" viewBox="0 0 200 200"  width="200" height="200" xml:space="preserve">
<path class="st0" d="M192.1,170.6c4.3,0,7.9,3.7,7.9,8.2s-3.5,8.2-7.9,8.2H7.9c-4.3,0-7.9-3.7-7.9-8.2V24.2C0,19.7,3.5,16,7.9,16
	c4.3,0,7.9,3.7,7.9,8.2v146.4H192.1L192.1,170.6z M52.6,50.9c1.6,0,3.3,0.5,4.7,1.5l39.3,28.6l15.8-23.7c2.6-4.9,8.5-6.2,12.8-2.9
	L166,95.5V83.8c0-4.3,3.5-7.9,7.9-7.9c4.4,0,7.9,3.5,7.9,7.9v32.7c0,4.4-3.6,7.9-7.9,7.9c0,0,0,0,0,0h-32.6c-4.4,0-7.9-3.5-7.9-7.9
	c0,0,0,0,0,0c0-4.3,3.5-7.9,7.9-7.9h15.5l-36.9-37l-14.6,22.6c-5.1,6.6-13.4,2.9-15.3,1.6L47.9,65.1c-3.5-2.5-4.3-7.4-1.7-10.9
	c0,0,0,0,0-0.1C47.7,52.1,50.1,50.9,52.6,50.9z"/>
</svg>
