<?xml version="1.0" standalone="no"?><!DOCTYPE svg PUBLIC "-//W3C//DTD SVG 1.1//EN" "http://www.w3.org/Graphics/SVG/1.1/DTD/svg11.dtd"><svg t="1583747359294" class="icon" viewBox="0 0 1024 1024" version="1.1" xmlns="http://www.w3.org/2000/svg" p-id="1896" xmlns:xlink="http://www.w3.org/1999/xlink" width="200" height="200"><defs><style type="text/css"></style></defs><path d="M832 928H192c-70.69 0-128-57.31-128-128V224c0-70.69 57.31-128 128-128h56c4.42 0 8 3.58 8 8v48c0 4.42-3.58 8-8 8h-56c-35.35 0-64 28.65-64 64v576c0 35.35 28.65 64 64 64h640c35.35 0 64-28.66 64-64V224c0-35.35-28.65-64-64-64h-56c-4.42 0-8-3.58-8-8v-48c0-4.42 3.58-8 8-8h56c70.69 0 128 57.31 128 128v576c0 70.69-57.31 128-128 128zM493.53 765.4L261.91 533.78c-3.12-3.12-3.12-8.19 0-11.31l36.68-36.69c3.12-3.13 8.19-3.12 11.32 0L480 656V296c0-4.42 3.58-8 8-8h48c4.42 0 8 3.58 8 8v360l170.22-170.22c3.12-3.12 8.19-3.12 11.31 0l36.69 36.69c3.12 3.12 3.12 8.19 0 11.31L530.6 765.4a8.008 8.008 0 0 1-5.66 2.34h-25.76c-2.12 0-4.15-0.84-5.65-2.34zM488 96h48c4.42 0 8 3.58 8 8v112c0 4.42-3.58 8-8 8h-48c-4.42 0-8-3.58-8-8V104c0-4.42 3.58-8 8-8z m-8 0" p-id="1897"></path></svg>