<?xml version="1.0" standalone="no"?><!DOCTYPE svg PUBLIC "-//W3C//DTD SVG 1.1//EN" "http://www.w3.org/Graphics/SVG/1.1/DTD/svg11.dtd"><svg t="1583747454870" class="icon" viewBox="0 0 1024 1024" version="1.1" xmlns="http://www.w3.org/2000/svg" p-id="4320" xmlns:xlink="http://www.w3.org/1999/xlink" width="200" height="200"><defs><style type="text/css"></style></defs><path d="M365.022 114.078H123.808c-33.306 0-60.303 26.998-60.303 60.303v241.214c0 33.306 26.998 60.303 60.303 60.303h241.214c33.306 0 60.304-26.998 60.304-60.303V174.381c-0.001-33.305-26.999-60.303-60.304-60.303z m0 301.517H123.808V174.381h241.214v241.214z m0 180.911H123.808c-33.306 0-60.303 26.998-60.303 60.303v241.214c0 33.306 26.998 60.303 60.303 60.303h241.214c33.306 0 60.304-26.998 60.304-60.303V656.809c-0.001-33.305-26.999-60.303-60.304-60.303z m0 301.517H123.808V656.809h241.214v241.214z m482.427-301.517H606.235c-33.306 0-60.303 26.998-60.303 60.303v241.214c0 33.306 26.998 60.303 60.303 60.303h241.214c33.306 0 60.303-26.998 60.303-60.303V656.809c0.001-33.305-26.997-60.303-60.303-60.303z m0 301.517H606.235V656.809h241.214v241.214z m92.596-645.675L769.483 81.785c-23.549-23.555-61.733-23.555-85.281 0L513.639 252.348c-23.555 23.549-23.555 61.733 0 85.281l170.562 170.562c23.549 23.555 61.733 23.555 85.281 0l170.562-170.562c23.556-23.549 23.556-61.733 0.001-85.281zM726.842 465.551L556.28 294.988l170.562-170.562 170.562 170.562-170.562 170.563z" p-id="4321"></path></svg>