<?xml version="1.0" standalone="no"?><!DOCTYPE svg PUBLIC "-//W3C//DTD SVG 1.1//EN" "http://www.w3.org/Graphics/SVG/1.1/DTD/svg11.dtd"><svg t="1583747416008" class="icon" viewBox="0 0 1024 1024" version="1.1" xmlns="http://www.w3.org/2000/svg" p-id="3105" xmlns:xlink="http://www.w3.org/1999/xlink" width="200" height="200"><defs><style type="text/css"></style></defs><path d="M804.864 974.848c-12.288 0-24.576-2.048-34.816-8.192L47.104 561.152C24.576 548.864 10.24 524.288 10.24 497.664s16.384-51.2 40.96-61.44L913.408 40.96c24.576-10.24 51.2-8.192 73.728 8.192 20.48 16.384 30.72 43.008 26.624 67.584l-137.216 796.672c-4.096 22.528-18.432 43.008-38.912 51.2-10.24 6.144-22.528 10.24-32.768 10.24zM942.08 96.256h-4.096L77.824 491.52c-4.096 2.048-6.144 6.144-6.144 8.192 0 2.048 0 6.144 4.096 8.192l724.992 403.456c4.096 2.048 6.144 2.048 8.192 0 2.048 0 4.096-2.048 6.144-6.144l137.216-796.672c0-6.144-2.048-8.192-4.096-10.24-2.048-2.048-2.048-2.048-6.144-2.048z" p-id="3106"></path><path d="M485.376 595.968c-8.192 0-16.384-4.096-22.528-10.24-12.288-12.288-12.288-30.72 0-43.008l358.4-348.16c12.288-12.288 30.72-12.288 43.008 0 12.288 12.288 12.288 30.72 0 43.008l-358.4 348.16c-6.144 6.144-12.288 10.24-20.48 10.24zM428.032 989.184c-6.144 0-10.24 0-16.384-2.048-30.72-8.192-53.248-32.768-53.248-65.536l-12.288-210.944c-2.048-16.384 12.288-30.72 28.672-32.768 16.384-2.048 30.72 12.288 32.768 28.672l12.288 210.944c0 6.144 4.096 8.192 8.192 8.192 2.048 0 8.192 0 10.24-4.096l79.872-137.216c8.192-14.336 26.624-20.48 43.008-10.24 14.336 8.192 20.48 26.624 10.24 43.008L491.52 954.368c-16.384 22.528-38.912 34.816-63.488 34.816z" p-id="3107"></path></svg>