<?xml version="1.0" standalone="no"?><!DOCTYPE svg PUBLIC "-//W3C//DTD SVG 1.1//EN" "http://www.w3.org/Graphics/SVG/1.1/DTD/svg11.dtd"><svg t="1583747280857" class="icon" viewBox="0 0 1024 1024" version="1.1" xmlns="http://www.w3.org/2000/svg" p-id="929" xmlns:xlink="http://www.w3.org/1999/xlink" width="200" height="200"><defs><style type="text/css"></style></defs><path d="M950.345143 452.754286c0-57.709714-40.96-104.594286-91.574857-104.594286H641.828571V141.165714c0-71.094857-50.468571-128.804571-112.64-128.804571H498.834286c-62.171429 0-112.64 57.709714-112.64 128.731428v206.994286H164.571429C114.102857 348.16 73.142857 394.971429 73.142857 452.754286c0 47.104 27.574857 86.528 65.097143 99.693714v364.982857c0 46.372571 32.914286 84.114286 73.508571 84.114286h605.622858c40.594286 0 73.508571-37.741714 73.508571-84.114286V550.253714c34.596571-14.848 59.465143-52.809143 59.465143-97.572571zM442.806857 141.165714c0-35.401143 25.161143-64.146286 56.100572-64.146285h30.208c30.939429 0 56.100571 28.745143 56.100571 64.073142v206.994286H442.806857V141.165714z m374.491429 795.574857H724.041143v-132.608c0-17.92-12.726857-32.256-28.306286-32.256-15.579429 0-28.233143 14.482286-28.233143 32.256v132.608H542.939429v-132.608c0-17.92-12.726857-32.256-28.306286-32.256-15.652571 0-28.233143 14.482286-28.233143 32.256v132.608H361.837714v-132.608c0-17.92-12.726857-32.256-28.306285-32.256-15.652571 0-28.233143 14.482286-28.233143 32.256v132.608H211.748571c-9.289143 0-16.896-8.704-16.896-19.382857V557.202286h639.488v360.082285c0 10.752-7.68 19.456-16.969142 19.456z m41.618285-444.196571H164.571429c-19.236571 0-34.816-17.92-34.816-39.862857 0-21.942857 15.652571-39.862857 34.816-39.862857h694.198857c19.309714 0 34.962286 17.846857 34.962285 39.862857 0 22.089143-15.652571 39.862857-34.816 39.862857z" p-id="930"></path></svg>