<?xml version="1.0" standalone="no"?><!DOCTYPE svg PUBLIC "-//W3C//DTD SVG 1.1//EN" "http://www.w3.org/Graphics/SVG/1.1/DTD/svg11.dtd"><svg t="1583747468361" class="icon" viewBox="0 0 1024 1024" version="1.1" xmlns="http://www.w3.org/2000/svg" p-id="4688" xmlns:xlink="http://www.w3.org/1999/xlink" width="200" height="200"><defs><style type="text/css"></style></defs><path d="M938.920851 442.542298C932.798638 446.07183 928.746213 449.710298 926.197106 453.39234 913.887319 461.105021 905.651745 474.656681 905.651745 490.212766L905.651745 533.787234C905.651745 549.343319 913.887319 562.894979 926.197106 570.60766 928.746213 574.289702 932.820426 577.92817 938.920851 581.457702 973.03966 601.066213 990.60017 637.973787 987.506383 674.641702 977.244596 704.620936 964.106894 734.077277 947.613957 762.553191 931.099234 791.029106 912.057191 817.086638 891.11966 840.921872 860.79183 861.924766 819.940766 865.236426 785.843745 845.606128 779.721532 842.098383 774.514383 840.420766 770.026213 840.050383 757.171745 833.29634 741.288851 832.969532 727.758979 840.725787L689.892766 862.513021C676.362894 870.291064 668.715574 884.191319 668.149106 898.658043 666.23183 902.710468 665.077106 908.026553 665.077106 915.06383 665.077106 953.561872 642.614468 986.525957 610.216851 1002.561362 546.467404 1015.241532 480.190638 1015.982298 415.025021 1003.236766 381.930213 987.441021 358.922894 954.062979 358.922894 915.06383 358.922894 908.026553 357.76817 902.710468 355.850894 898.658043 355.284426 884.191319 347.637106 870.291064 334.107234 862.513021L296.241021 840.725787C282.711149 832.969532 266.828255 833.29634 253.952 840.050383 249.485617 840.420766 244.278468 842.098383 238.156255 845.606128 204.582128 864.931404 164.47183 861.946553 134.296511 841.793362 90.50417 791.965957 57.431149 734.665532 36.47183 673.290894 33.922723 637.080511 51.396085 600.826553 85.079149 581.457702 91.201362 577.92817 95.253787 574.289702 97.802894 570.60766 110.112681 562.894979 118.348255 549.343319 118.348255 533.787234L118.348255 490.212766C118.348255 474.656681 110.112681 461.105021 97.802894 453.39234 95.253787 449.710298 91.201362 446.07183 85.079149 442.542298 50.982128 422.933787 33.421617 386.026213 36.493617 349.358298 46.755404 319.379064 59.893106 289.922723 76.386043 261.446809 92.900766 232.970894 111.942809 206.891574 132.88034 183.078128 163.20817 162.075234 204.059234 158.763574 238.156255 178.393872 244.278468 181.901617 249.485617 183.579234 253.973787 183.949617 266.828255 190.70366 282.711149 191.030468 296.241021 183.252426L334.107234 161.486979C347.637106 153.708936 355.284426 139.808681 355.850894 125.341957 357.76817 121.289532 358.922894 115.973447 358.922894 108.93617 358.922894 70.176681 381.668766 36.994723 414.436766 21.068255 478.251574 8.475234 544.637277 8.366298 609.824681 21.220766 642.44017 37.190809 665.077106 70.285617 665.077106 108.93617 665.077106 115.973447 666.23183 121.289532 668.149106 125.341957 668.715574 139.808681 676.362894 153.708936 689.892766 161.486979L727.758979 183.252426C741.288851 191.030468 757.171745 190.70366 770.026213 183.949617 774.514383 183.579234 779.721532 181.901617 785.843745 178.393872 819.722894 158.894298 860.268936 162.053447 890.531404 182.707745 934.214809 232.556936 966.677787 290.118809 987.549957 351.449872 989.794043 387.420596 972.386043 423.30417 938.920851 442.542298ZM847.806638 233.820596C838.634213 229.877106 827.980255 229.637447 818.633532 234.997106 814.624681 237.306553 811.334809 237.524426 808.654979 236.609362 775.342298 258.069787 731.680681 260.989277 694.969191 239.877447L657.081191 218.090213C620.347915 196.956596 601.066213 157.826723 603.070638 118.370043 600.935489 116.49634 599.475745 113.555064 599.475745 108.93617 599.475745 98.107915 593.832851 88.979064 585.706213 83.031149 536.140255 74.773787 486.094979 75.122383 437.465872 83.597617 429.774979 89.567319 424.524255 98.478298 424.524255 108.93617 424.524255 113.555064 423.064511 116.49634 420.951149 118.348255 422.933787 157.826723 403.652085 196.956596 366.918809 218.090213L329.030809 239.877447C292.297532 260.989277 248.657702 258.069787 215.345021 236.609362 212.643404 237.524426 209.375319 237.306553 205.366468 234.997106 196.172255 229.702809 185.692596 229.855319 176.585532 233.624511 160.811574 252.383319 145.930894 272.187915 133.207149 294.12766 120.505191 316.067404 110.722723 338.791489 102.291064 361.798809 103.576511 371.537702 108.696511 380.644766 117.890723 385.939064 121.899574 388.248511 123.729702 390.971915 124.274383 393.738894 159.591489 411.756936 183.971404 447.945532 183.971404 490.212766L183.971404 533.787234C183.971404 576.032681 159.591489 612.243064 124.274383 630.261106 123.729702 633.028085 121.899574 635.751489 117.890723 638.060936 108.78366 643.289872 103.685447 652.266213 102.312851 661.89617 119.285106 708.085106 143.99183 751.463489 175.953702 790.070468 185.191489 794.122894 195.954383 794.427915 205.366468 789.002894 209.375319 786.693447 212.665191 786.475574 215.345021 787.390638 248.657702 765.930213 292.319319 763.010723 329.030809 784.122553L366.918809 805.909787C403.652085 827.043404 422.933787 866.173277 420.929362 905.651745 423.064511 907.50366 424.524255 910.444936 424.524255 915.06383 424.524255 925.804936 430.058213 934.868426 438.075915 940.81634 487.66366 949.248 537.730723 948.834043 586.35983 940.533106 594.137872 934.541617 599.475745 925.608851 599.475745 915.06383 599.475745 910.444936 600.935489 907.50366 603.048851 905.651745 601.066213 866.173277 620.347915 827.043404 657.081191 805.909787L694.969191 784.122553C731.680681 763.010723 775.342298 765.930213 808.654979 787.390638 811.334809 786.475574 814.624681 786.693447 818.633532 789.002894 827.827745 794.297191 838.307404 794.144681 847.414468 790.375489 863.188426 771.594894 878.069106 751.812085 890.792851 729.87234 903.494809 707.932596 913.277277 685.208511 921.708936 662.201191 920.423489 652.462298 915.303489 643.355234 906.109277 638.060936 902.100426 635.751489 900.270298 633.028085 899.725617 630.261106 864.408511 612.243064 840.028596 576.032681 840.028596 533.787234L840.028596 490.212766C840.028596 447.945532 864.408511 411.756936 899.725617 393.738894 900.270298 390.971915 902.100426 388.248511 906.109277 385.939064 915.281702 380.666553 920.379915 371.603064 921.687149 361.885957 904.58417 315.78417 879.921021 272.384 847.806638 233.820596ZM512 664.510638C427.40017 664.510638 358.813957 596.229447 358.813957 512 358.813957 427.770553 427.40017 359.489362 512 359.489362 596.59983 359.489362 665.186043 427.770553 665.186043 512 665.186043 596.229447 596.59983 664.510638 512 664.510638ZM512 424.851064C463.872 424.851064 424.851064 463.872 424.851064 512 424.851064 560.128 463.872 599.148936 512 599.148936 560.128 599.148936 599.148936 560.128 599.148936 512 599.148936 463.872 560.128 424.851064 512 424.851064Z" p-id="4689"></path></svg>