<?xml version="1.0" standalone="no"?><!DOCTYPE svg PUBLIC "-//W3C//DTD SVG 1.1//EN" "http://www.w3.org/Graphics/SVG/1.1/DTD/svg11.dtd"><svg t="1583747426991" class="icon" viewBox="0 0 1024 1024" version="1.1" xmlns="http://www.w3.org/2000/svg" p-id="3474" xmlns:xlink="http://www.w3.org/1999/xlink" width="200" height="200"><defs><style type="text/css"></style></defs><path d="M849.6896 437.4784a30.72 30.72 0 0 0-30.72 30.72v30.9248a307.0208 307.0208 0 0 1-613.8368-1.2288v-29.696a30.72 30.72 0 1 0-61.44 0v30.3872a367.744 367.744 0 0 0 337.6384 358.9632V941.7216h-139.5456a30.72 30.72 0 0 0 0 61.44h340.48a30.72 30.72 0 0 0 0-61.44H542.72v-83.1744-0.9984a368.1024 368.1024 0 0 0 337.6384-357.4016v-31.9488a30.72 30.72 0 0 0-30.72-30.72z m-337.664 268.4672a211.1232 211.1232 0 0 0 211.8144-209.92V230.7584a211.8144 211.8144 0 0 0-423.6288 0v265.2672a211.1232 211.1232 0 0 0 211.8144 209.92zM361.6256 230.7584a150.4256 150.4256 0 0 1 300.8256 0v265.2672a150.4256 150.4256 0 0 1-300.8256 0V230.7584z m0 0" p-id="3475"></path></svg>