<?xml version="1.0" standalone="no"?><!DOCTYPE svg PUBLIC "-//W3C//DTD SVG 1.1//EN" "http://www.w3.org/Graphics/SVG/1.1/DTD/svg11.dtd"><svg t="1583812690142" class="icon" viewBox="0 0 1024 1024" version="1.1" xmlns="http://www.w3.org/2000/svg" p-id="1115" xmlns:xlink="http://www.w3.org/1999/xlink" width="200" height="200"><defs><style type="text/css"></style></defs><path d="M922.011164 919.973762c-7.6574-114.372887-64.181765-220.784452-155.071821-291.961538l-5.463432-3.77293-0.050142 0.073678c-5.169743-3.160993-11.060917-4.852518-17.127076-4.852518-20.837584 0-33.273824 10.04682-33.273824 26.879184 0 9.801227 4.533246 19.012006 12.139481 25.260314l-0.085958 0.146333 4.826935 3.455705c76.223009 54.490032 119.138424 137.134287 127.541815 245.676375l0.090051 1.183965c-0.075725 0.912789-0.122797 1.831718-0.122797 2.762927 0 18.34174 14.868639 33.212426 33.212426 33.212426 17.726733 0 32.207539-13.889335 33.159214-31.377638l0.660032 0L922.011164 919.973762 922.011164 919.973762zM815.049061 363.706559c0-165.115572-135.945205-299.457256-303.05827-299.457256-167.113065 0-303.060317 134.341684-303.060317 299.457256 0 88.963171 39.336914 171.951257 108.285239 229.16226-123.769908 66.056462-205.921953 192.06741-215.220736 331.186911l-0.382717 5.799076c-0.007163 0.119727-0.017396 0.239454-0.023536 0.360204l-0.034792 0.528026 0.020466 0c-0.008186 0.282433-0.020466 0.563842-0.020466 0.848321 0 15.551184 12.606109 28.158317 28.15934 28.158317 15.551184 0 28.157293-12.606109 28.157293-28.158317 0-0.284479-0.01228-0.565888-0.019443-0.848321l0.585331 0 0.442068-5.782703c10.204409-132.211161 93.999884-247.979838 213.773781-295.684326 35.761482 16.61133 90.350774 33.910321 139.315976 33.910321 45.36521 0 89.419566-9.996678 131.36591-29.940916l30.724769-17.83725 25.088398-16.464997C772.796748 541.612435 815.049061 455.856305 815.049061 363.706559L815.049061 363.706559zM511.989767 602.890057c-133.532249 0-242.161319-107.317191-242.161319-239.208057 0-131.868353 108.628046-239.160985 242.161319-239.160985 133.545552 0 242.185878 107.292632 242.185878 239.160985C754.174622 495.572866 645.536342 602.890057 511.989767 602.890057L511.989767 602.890057z" p-id="1116"></path></svg>