<svg width="200" height="200" xmlns="http://www.w3.org/2000/svg">
 <!-- Created with Method Draw - http://github.com/duopixel/Method-Draw/ -->

 <g>
  <title>background</title>
  <rect fill="none" id="canvas_background" height="202" width="202" y="-1" x="-1"/>
  <g display="none" overflow="visible" y="0" x="0" height="100%" width="100%" id="canvasGrid">
   <rect fill="url(#gridpattern)" stroke-width="0" y="0" x="0" height="100%" width="100%"/>
  </g>
 </g>
 <g>
  <title>Layer 1</title>
  <defs>
   <style type="text/css"/>
  </defs>
  <g stroke="null" id="svg_8">
   <path stroke="null" id="svg_4" d="m25.624874,28.03218c0,-3.7036 1.8518,-7.407199 4.320866,-10.493532s6.789933,-3.7036 11.110799,-3.7036l88.269125,0l44.443196,43.208662l0,115.428855c0,3.7036 -1.8518,7.407199 -4.320866,9.876266c-3.086333,2.469066 -6.789933,4.320866 -10.493532,4.320866l-118.515188,0c-8.024466,0 -14.814399,-6.172666 -14.814399,-14.197132l0,-144.440386z"/>
   <path stroke="null" id="svg_5" fill="rgba(0,0,0,0.3)" d="m173.768859,57.04371l-29.628797,0c-8.024466,0 -14.814399,-6.172666 -14.814399,-14.197132l0,-29.01153l44.443196,43.208662z"/>
   <path stroke="null" id="svg_6" fill="#FFFFFF" d="m126.233289,113.274648l-35.941706,-24.684738c-0.813804,-0.542207 -1.899206,-0.678499 -2.848315,-0.135305s-1.492304,1.492304 -1.492304,2.441413l0,49.233184c0,0.949109 0.542207,1.899206 1.492304,2.441413s2.034511,0.406902 2.848315,-0.135305l35.941706,-24.820043c0.813804,-0.406902 1.220706,-1.356011 1.220706,-2.169816s-0.542207,-1.628596 -1.220706,-2.170803z"/>
   <path stroke="null" id="svg_7" fill="#FFFFFF" d="m99.860697,161.107378c-25.14201,0 -45.595756,-20.453746 -45.595756,-45.594768c0,-25.14201 20.453746,-45.595756 45.595756,-45.595756s45.595756,20.453746 45.595756,45.595756c0,25.141022 -20.453746,45.594768 -45.595756,45.594768zm0,-82.301885c-20.240419,0 -36.707117,16.466698 -36.707117,36.707117c0,20.239431 16.466698,36.706129 36.707117,36.706129c20.240419,0 36.707117,-16.466698 36.707117,-36.706129c0,-20.240419 -16.466698,-36.707117 -36.707117,-36.707117z"/>
  </g>
 </g>
</svg>