<svg width="200" height="200" xmlns="http://www.w3.org/2000/svg">
 <!-- Created with Method Draw - http://github.com/duopixel/Method-Draw/ -->
 <g>
  <title>background</title>
  <rect fill="none" id="canvas_background" height="202" width="202" y="-1" x="-1"/>
  <g display="none" id="canvasGrid">
   <rect fill="url(#gridpattern)" stroke-width="0" y="0" x="0" height="100%" width="100%" id="svg_1"/>
  </g>
 </g>
 <g>
  <title>Layer 1</title>
  <defs>
   <style type="text/css"/>
  </defs>
  <g stroke="null" id="svg_8">
   <path stroke="null" id="svg_4" d="m25.624874,28.03218c0,-3.7036 1.8518,-7.407199 4.320866,-10.493532s6.789933,-3.7036 11.110799,-3.7036l88.269125,0l44.443196,43.208662l0,115.428855c0,3.7036 -1.8518,7.407199 -4.320866,9.876266c-3.086333,2.469066 -6.789933,4.320866 -10.493532,4.320866l-118.515188,0c-8.024466,0 -14.814399,-6.172666 -14.814399,-14.197132l0,-144.440386l-0.000001,0.000001z"/>
   <path stroke="null" id="svg_5" fill="rgba(0,0,0,0.3)" d="m173.768859,57.04371l-29.628797,0c-8.024466,0 -14.814399,-6.172666 -14.814399,-14.197132l0,-29.01153l44.443196,43.208662z"/>
  </g>
  <defs>
   <style type="text/css"/>
  </defs>
  <g stroke="null" id="svg_15"/>
  <defs>
   <style type="text/css"/>
  </defs>
  <g stroke="null" id="svg_22">
   <path stroke="null" fill="#FFFFFF" id="svg_20" d="m100.803026,119.816394c8.770593,0 15.878604,-7.023946 15.878604,-15.691796l0,-20.922395c0,-8.66785 -7.108011,-15.691796 -15.878604,-15.691796s-15.878604,7.023946 -15.878604,15.691796l0,20.922395c0,8.66785 7.108011,15.691796 15.878604,15.691796z"/>
   <path stroke="null" id="svg_21" fill="#FFFFFF" d="m131.626197,103.937791c0,-0.410975 -0.336253,-0.747228 -0.747228,-0.747228l-5.604213,0c-0.410975,0 -0.747228,0.336253 -0.747228,0.747228c0,13.104517 -10.619983,23.724502 -23.724502,23.724502s-23.724502,-10.619983 -23.724502,-23.724502c0,-0.410975 -0.336253,-0.747228 -0.747228,-0.747228l-5.604213,0c-0.410975,0 -0.747228,0.336253 -0.747228,0.747228c0,15.757179 11.824889,28.758953 27.08703,30.599002l0,9.564524l-13.571536,0c-1.279628,0 -2.307068,1.33567 -2.307068,2.988913l0,3.362528c0,0.410975 0.26153,0.747228 0.579102,0.747228l38.071287,0c0.317572,0 0.579102,-0.336253 0.579102,-0.747228l0,-3.362528c0,-1.653243 -1.027439,-2.988913 -2.307068,-2.988913l-13.945149,0l0,-9.517821c15.439607,-1.681264 27.460643,-14.757761 27.460643,-30.645705l-0.000001,0z"/>
  </g>
 </g>
</svg>