<?xml version="1.0" standalone="no"?><!DOCTYPE svg PUBLIC "-//W3C//DTD SVG 1.1//EN" "http://www.w3.org/Graphics/SVG/1.1/DTD/svg11.dtd"><svg t="1583747419428" class="icon" viewBox="0 0 1241 1024" version="1.1" xmlns="http://www.w3.org/2000/svg" p-id="3229" xmlns:xlink="http://www.w3.org/1999/xlink" width="242.3828125" height="200"><defs><style type="text/css"></style></defs><path d="M414.378667 0h35.808969c108.668121 2.544485 217.522424 40.587636 299.628606 112.764121 64.170667 55.482182 110.343758 132.12703 125.85891 215.784727 99.483152 0.124121 199.959273 36.553697 271.328969 106.868364 53.123879 51.2 87.691636 121.328485 94.208 194.994424v36.926061c-4.344242 80.678788-44.621576 156.020364-102.958545 210.819879 4.406303 38.291394 10.612364 76.520727 13.467151 114.936242 0.806788 22.217697-27.741091 37.85697-45.738666 24.389818-30.471758-21.038545-58.833455-45.056-88.808728-66.839272-101.158788 36.739879-217.025939 32.209455-314.212848-14.522182-71.183515-33.512727-130.885818-91.042909-164.957091-162.164364-71.121455 14.894545-145.594182 12.722424-216.09503-4.530424-60.695273 33.76097-120.397576 69.445818-181.279031 102.896485-21.659152 14.025697-51.075879-10.612364-43.194181-34.505697 12.846545-53.558303 27.865212-106.620121 41.270303-160.054303C59.516121 612.103758 6.392242 515.04097 0 411.772121V371.74303c6.019879-90.670545 47.166061-177.741576 112.143515-241.043394C191.953455 51.075879 302.669576 7.13697 414.378667 0M178.796606 153.848242C105.192727 213.612606 56.599273 306.889697 61.067636 402.835394c2.730667 89.553455 50.579394 174.017939 120.087273 229.189818 12.101818 8.998788 25.879273 21.53503 21.783273 38.415515-8.254061 37.298424-19.238788 73.976242-28.299637 111.088485 42.077091-23.396848 83.533576-47.848727 125.362425-71.617939 8.502303-5.771636 18.928485-6.516364 28.547878-3.289212 61.564121 16.135758 126.603636 19.052606 189.34691 7.695515-18.245818-81.795879 1.985939-170.170182 51.820606-237.257697 57.406061-79.003152 149.193697-128.713697 244.76703-143.794424-17.066667-82.540606-70.997333-154.468848-140.443152-200.890182C527.32897 32.954182 315.826424 40.339394 178.796606 153.848242m549.112242 270.025697c-59.081697 28.299636-110.033455 76.086303-136.409212 136.657455-26.065455 58.647273-25.444848 128.341333 1.613576 186.492121 29.416727 64.853333 86.884848 114.067394 152.048485 140.877576 82.416485 34.071273 177.927758 34.009212 260.654545 0.868848 31.278545-14.273939 52.937697 20.666182 76.76897 34.505697 0.682667-27.244606-18.680242-62.246788 5.957818-83.719757 32.643879-28.113455 60.260848-62.805333 75.900122-103.268849 21.47297-53.682424 21.47297-115.618909-0.434425-169.177212-23.148606-58.461091-69.569939-105.751273-124.245333-135.788606-94.828606-51.944727-214.605576-54.365091-311.854546-7.447273z" p-id="3230"></path><path d="M292.864 187.609212c39.96703-19.300848 90.174061 16.942545 85.519515 60.757333-0.868848 44.187152-55.730424 73.541818-92.842667 48.903758-42.201212-22.900364-38.043152-92.842667 7.323152-109.661091zM567.296 188.602182c35.746909-18.618182 83.533576 7.695515 87.257212 47.662545 6.268121 36.926061-27.554909 73.479758-64.853333 69.694061-32.395636-1.551515-59.392-31.837091-57.28194-64.170667 0.558545-22.465939 14.584242-43.752727 34.878061-53.185939zM747.271758 493.754182c33.636848-12.784485 70.066424 24.141576 57.840484 57.716363-8.440242 32.892121-55.482182 44.00097-77.451636 17.997576-23.148606-22.900364-12.039758-67.211636 19.611152-75.713939zM964.297697 493.133576c32.581818-10.612364 66.59103 23.955394 56.475151 56.413091-7.012848 33.574788-54.365091 46.483394-77.203393 20.790303-24.638061-23.210667-12.598303-69.694061 20.728242-77.203394z" p-id="3231"></path></svg>